<?xml version="1.0" standalone="no"?>
<!DOCTYPE svg PUBLIC "-//W3C//DTD SVG 1.1//EN" "http://www.w3.org/Graphics/SVG/1.1/DTD/svg11.dtd" >
<svg xmlns="http://www.w3.org/2000/svg" xmlns:xlink="http://www.w3.org/1999/xlink" version="1.1">
<metadata>
Created by FontForge 20170731 at Thu Nov 11 22:04:26 2004
 By Aleksey,,,
Designed &#38; produced by Jason Smith. Copyright Fontsmith 2002      http://www.fontsmith.com
</metadata>
<defs>
<font id="FSAlbert-LightItalic" horiz-adv-x="540" >
  <font-face 
    font-family="FSAlbert"
    font-weight="300"
    font-style="italic"
    font-stretch="normal"
    units-per-em="1000"
    panose-1="2 0 5 3 6 0 0 9 0 4"
    ascent="770"
    descent="-230"
    x-height="483"
    cap-height="689"
    bbox="-250.2 -226 1003.29 908"
    underline-thickness="50"
    underline-position="-200"
    slope="-11"
    unicode-range="U+0020-FB02"
  />
<missing-glyph horiz-adv-x="1000" 
 />
    <glyph glyph-name=".notdef" horiz-adv-x="1000" 
 />
    <glyph glyph-name=".null" horiz-adv-x="0" 
 />
    <glyph glyph-name="nonmarkingreturn" horiz-adv-x="333" 
 />
    <glyph glyph-name="space" unicode=" " horiz-adv-x="228" 
 />
    <glyph glyph-name="exclam" unicode="!" horiz-adv-x="231" 
d="M214 682v-4l-101 -519q-2 -11 -12 -11h-28q-8 0 -8 8v5l83 517q2 11 12 11h45q9 0 9 -7zM110 41q0 -22 -15.5 -37t-36.5 -15q-16 0 -27 10t-11 26q0 21 16 36t37 15q16 0 26.5 -9.5t10.5 -25.5z" />
    <glyph glyph-name="quotedbl" unicode="&#x22;" horiz-adv-x="307" 
d="M283 694l-1 -1v-2l-30 -157q-1 -11 -11 -11h-32q-8 0 -8 6v3l25 157q3 11 12 11h36q9 0 9 -6zM156 694v-1q-1 -1 -1 -2l-30 -157q-1 -11 -12 -11h-31q-8 0 -8 6v3l26 157q3 11 11 11h36q9 0 9 -6z" />
    <glyph glyph-name="numbersign" unicode="#" horiz-adv-x="550" 
d="M570 457l-11 -31q-2 -7 -11 -7h-111l-53 -167h109q10 0 7 -8l-10 -32q-2 -6 -12 -6h-111l-63 -193q-4 -13 -17 -13h-32q-6 0 -8.5 4t-0.5 9l65 193h-161l-67 -196q-3 -10 -10 -10h-39q-12 0 -8 11l64 195h-105q-10 0 -7 10l9 29q2 7 13 7h108l53 167h-108q-11 0 -7 9
l11 31q2 6 11 6h111l68 214q3 10 12 10h40q10 0 7 -9l-70 -215h158l69 213q4 11 14 11h38q10 0 6 -9l-67 -215h108q11 0 8 -8zM379 419h-158l-54 -167h158z" />
    <glyph glyph-name="dollar" unicode="$" 
d="M498 662q0 -3 -1 -5l-16 -34q-3 -7 -10 -7q-1 0 -10 3q-48 23 -108 26l-46 -260l38 -23q103 -62 103 -149q0 -21 -2 -31q-12 -78 -69.5 -128t-138.5 -61l-14 -81q-1 -5 -2.5 -7.5t-4 -4t-7.5 -1.5h-14q-10 0 -10 7v3l14 81h-14q-71 0 -140 26q-10 4 -10 11q0 3 1 5l15 36
q4 9 12 9q2 0 8 -2q64 -26 122 -26h11h6l50 285l-66 41q-78 48 -78 127q0 20 2 30q12 71 71 116t135 51l15 83q2 11 12 11h16q9 0 9 -6v-4l-14 -83q72 -3 128 -29q7 -3 7 -9zM316 644q-55 -7 -92 -41t-37 -87t58 -92l28 -19zM381 197q0 60 -66 104l-20 13l-47 -261
q51 9 87 40.5t44 79.5q2 16 2 24z" />
    <glyph glyph-name="percent" unicode="%" horiz-adv-x="919" 
d="M442 596q0 -45 -14.5 -88t-48.5 -74.5t-81 -31.5t-70.5 28t-23.5 76q0 73 39.5 133.5t108.5 60.5q90 0 90 -104zM769 674q0 -5 -4 -9l-576 -669q-4 -5 -9 -5q-4 0 -11 5l-16 13q-4 3 -4 8q0 6 5 11l573 667q5 6 11 6t10 -4l16 -13q5 -5 5 -10zM716 184q0 -45 -14.5 -88
t-48.5 -74.5t-81 -31.5t-70.5 28t-23.5 76q0 73 39.5 133.5t108.5 60.5q90 0 90 -104zM394 591q0 69 -50 69q-31 0 -53 -28.5t-30 -62t-8 -64.5q0 -64 53 -64q43 0 65.5 50t22.5 100zM668 179q0 70 -50 70q-31 0 -53 -28.5t-30 -62t-8 -64.5q0 -65 53 -65q43 0 65.5 50
t22.5 100z" />
    <glyph glyph-name="ampersand" unicode="&#x26;" horiz-adv-x="654" 
d="M623 411v-2q-10 -53 -39.5 -116t-60.5 -107q-23 -32 -49 -58q49 -63 118 -87q6 -1 6 -8q0 -2 -2 -6l-15 -28q-5 -8 -12 -8q-23 0 -60 22q-49 26 -82 73q-103 -96 -239 -96q-72 0 -120.5 42.5t-48.5 112.5q0 42 16.5 79t45 66t59 52t66.5 47q11 7 16 10l-28 47
q-32 54 -32 95q0 66 52 112.5t119 46.5q54 0 88 -29t34 -78q0 -32 -13.5 -62t-39 -55.5t-47.5 -42.5t-54 -38l145 -227q36 39 72.5 107t52.5 129q2 8 4.5 10.5t9.5 2.5h30q8 0 8 -6zM398 585q0 31 -19 50t-52 19q-40 0 -70.5 -30t-30.5 -70q0 -37 30 -86l21 -35
q121 80 121 152zM398 123l-152 238q-161 -103 -161 -203q0 -52 35.5 -83.5t85.5 -31.5q100 0 192 80z" />
    <glyph glyph-name="quotesingle" unicode="'" horiz-adv-x="307" 
d="M234 694q0 -3 -1 -5l-30 -155q-1 -11 -11 -11h-31q-8 0 -8 7v5l25 154q3 11 12 11h36q8 0 8 -6z" />
    <glyph glyph-name="parenleft" unicode="(" horiz-adv-x="315" 
d="M320 693q0 -5 -3 -9q-203 -242 -203 -503q0 -143 67 -274q1 -2 1 -6q0 -6 -7 -10l-22 -13q-5 -3 -8 -3q-6 0 -9 6q-81 151 -81 303q0 268 225 522q6 8 12 8q2 0 3 -1l23 -15q2 -1 2 -5z" />
    <glyph glyph-name="parenright" unicode=")" horiz-adv-x="315" 
d="M261 405q0 -268 -225 -522q-8 -8 -12 -8l-1 1h-2l-23 15q-2 2 -2 6q0 5 3 8q203 242 203 503q0 145 -67 274q-1 2 -1 6q0 7 7 10l22 13q4 3 8 3q6 0 9 -6q81 -149 81 -303z" />
    <glyph glyph-name="asterisk" unicode="*" horiz-adv-x="319" 
d="M294 594q0 -7 -13 -10l-103 -17l61 -83q2 -4 2 -5q0 -6 -10 -11l-30 -17q-4 -2 -5 -2q-5 0 -8 10l-31 98l-64 -103q-5 -8 -9 -8q-3 0 -6 3l-26 21q-5 5 -5 7t11 13l82 77l-96 14q-11 1 -11 9q0 3 1 5l16 35q3 7 9 7q3 0 7 -2l87 -47l3 104q0 10 2.5 14t11.5 4h27
q13 0 13 -8q0 -4 -1 -6l-35 -108l102 48q2 1 6 1q7 0 8 -9l4 -30v-4z" />
    <glyph glyph-name="plus" unicode="+" horiz-adv-x="496" 
d="M452 280v-4l-4 -26q-3 -15 -15 -15h-158l-32 -179q-2 -13 -15 -13h-30q-10 0 -10 8v5l31 179h-157q-12 0 -12 9v4l5 27q3 13 15 13h159l31 179q2 15 16 15h27q13 0 13 -10v-4l-32 -180h155q13 0 13 -8z" />
    <glyph glyph-name="comma" unicode="," horiz-adv-x="197" 
d="M164 44q0 -35 -26 -80q-28 -47 -76 -82q-7 -5 -11 -5q-3 0 -6 4l-5 8q-1 1 -1 5t6 8q17 15 33 38t16 41q0 13 -11.5 32t-11.5 30q0 22 14.5 35.5t34.5 13.5q18 0 31 -13.5t13 -34.5z" />
    <glyph glyph-name="hyphen" unicode="-" horiz-adv-x="272" 
d="M224 281v-3l-5 -33q-2 -13 -18 -13h-140q-13 0 -13 9v3l6 34q3 13 16 13h138q16 0 16 -10z" />
    <glyph glyph-name="period" unicode="." horiz-adv-x="199" 
d="M151 43q0 -21 -16.5 -37.5t-37.5 -16.5q-16 0 -27 10.5t-11 26.5q0 22 16 37t38 15q16 0 27 -9.5t11 -25.5z" />
    <glyph glyph-name="slash" unicode="/" horiz-adv-x="316" 
d="M353 695l-3 -9l-314 -683q-5 -13 -19 -13h-34q-8 0 -8 5q0 2 2 6q1 2 1 3l317 684q5 12 16 12h35q7 0 7 -5z" />
    <glyph glyph-name="zero" unicode="0" 
d="M502 468q0 -69 -17 -147.5t-50.5 -154.5t-93.5 -126t-135 -50q-48 0 -82.5 20t-52 55t-25.5 73.5t-8 84.5q0 68 17.5 146.5t51 154.5t93.5 126t135 50q48 0 82 -20t51.5 -54.5t25.5 -73t8 -84.5zM432 462q0 181 -107 181q-44 0 -81.5 -31t-62 -78.5t-41.5 -104.5
t-24.5 -108.5t-7.5 -91.5q0 -181 110 -181q54 0 97.5 46t67.5 114t36.5 134.5t12.5 119.5z" />
    <glyph glyph-name="one" unicode="1" 
d="M405 677v-5l-116 -655q-3 -17 -19 -17h-32q-15 0 -15 11q0 4 1 6l106 601l-159 -95q-5 -3 -11 -3q-7 0 -10 6l-11 26q-1 1 -1 4q0 7 12 13l187 112q13 8 32 8h25q11 0 11 -12z" />
    <glyph glyph-name="two" unicode="2" 
d="M500 557q0 -28 -5 -47q-15 -68 -69.5 -138.5t-164.5 -170.5q-72 -66 -162 -144h301q14 0 14 -10v-3q-1 -2 -1 -3l-4 -27q-3 -14 -20 -14h-366q-13 0 -13 9q0 1 0.5 3.5t0.5 4.5l4 25q3 15 13 24q22 20 72.5 63.5t94 82.5t79.5 75q133 135 152 220q4 15 4 35q0 47 -31 74
t-82 27q-67 0 -143 -39q-1 0 -3.5 -2t-3.5 -2q-2 -1 -4 -1q-6 0 -9 8l-10 26q-1 2 -1 6q0 7 12 14q81 47 182 47q72 0 117.5 -38t45.5 -105z" />
    <glyph glyph-name="three" unicode="3" 
d="M474 564q0 -80 -56 -139q-38 -39 -87 -52v-1q51 -11 80 -49t29 -92q0 -104 -79.5 -172.5t-175.5 -68.5q-94 0 -150 31q-6 3 -6 10q0 3 1 5l18 36q1 4 9 4q5 0 9 -2q59 -27 120 -27q75 0 130 53.5t55 127.5q0 58 -41.5 87.5t-106.5 29.5h-22q-11 0 -11 10v3l8 33q2 6 11 6
h22q96 0 142 58q32 41 32 97q0 46 -31.5 70t-82.5 24q-60 0 -121 -29q-1 -1 -3.5 -2t-3.5 -1q-2 -1 -6 -1q-6 0 -7 7l-7 28v3q0 6 12 13q69 36 157 36q72 0 117 -36t45 -100z" />
    <glyph glyph-name="four" unicode="4" 
d="M470 396q0 -4 -1 -6l-66 -377q-1 -12 -16 -12h-38q-11 0 -11 8v3l27 154h-327q-13 0 -13 11v4l4 23q3 14 16 36l266 435q10 14 22 14h38q8 0 8 -8q0 -4 -4 -11l-272 -448h272l30 169q3 14 16 14h36q13 0 13 -9z" />
    <glyph glyph-name="five" unicode="5" 
d="M500 681q0 -1 -0.5 -2t-0.5 -2l-9 -38q-2 -7 -13 -7h-243l-38 -212h42q96 0 156.5 -42t60.5 -125q0 -109 -73 -184q-77 -79 -201 -79q-80 0 -143 37q-7 4 -7 10q0 2 2 6l21 34q3 4 8 4q4 0 7 -2q57 -32 127 -32q83 0 138 58q51 55 51 140q0 122 -186 122h-56
q-17 0 -17 13v4l51 288q3 17 18 17h296q9 0 9 -8z" />
    <glyph glyph-name="six" unicode="6" 
d="M484 679q0 -3 -1 -5l-9 -29q-3 -10 -12 -10q-1 0 -4 1q-38 9 -67 9q-102 0 -179 -124q-48 -77 -69 -164q34 32 82 49.5t87 17.5q69 0 110 -40t41 -113q0 -120 -80 -206q-70 -75 -165 -75q-169 0 -169 198q0 43 10 103q35 200 138 314q87 95 203 95q33 0 75 -10
q9 -3 9 -11zM393 255q0 50 -24 82.5t-75 32.5q-86 0 -166 -72q-11 -55 -11 -108q0 -146 110 -146q37 0 71 22.5t57 59.5q38 62 38 129z" />
    <glyph glyph-name="seven" unicode="7" 
d="M538 679v-3l-3 -17q-5 -24 -13 -37l-376 -608q-9 -14 -23 -14h-46q-8 0 -8 7t4 12l383 613h-300q-12 0 -12 9v3l8 37q2 8 12 8h360q14 0 14 -10z" />
    <glyph glyph-name="eight" unicode="8" 
d="M486 568q0 -66 -42.5 -110.5t-114.5 -82.5q128 -62 128 -165q0 -80 -60 -142q-75 -78 -194 -78q-79 0 -129 38.5t-50 110.5q0 144 190 229q-101 53 -101 146q0 74 57 126q65 60 162 60q68 0 111 -35t43 -97zM418 559q0 42 -26.5 65t-72.5 23q-57 0 -97 -34.5t-40 -89.5
q0 -75 96 -125q32 17 51 29t42.5 32t35 45t11.5 55zM387 204q0 49 -33.5 81t-89.5 59q-37 -18 -61 -33t-52.5 -38.5t-43 -53.5t-14.5 -66q0 -53 36 -81.5t86 -28.5q71 0 121.5 45.5t50.5 115.5z" />
    <glyph glyph-name="nine" unicode="9" 
d="M494 502q0 -43 -10 -103q-35 -200 -138 -314q-87 -95 -203 -95q-33 0 -75 10q-9 3 -9 11q0 3 1 5l9 29q3 10 12 10q1 0 2 -0.5t2 -0.5q38 -9 67 -9q101 0 179 124q48 77 69 164q-34 -32 -82 -49.5t-87 -17.5q-69 0 -110 40t-41 113q0 120 80 206q70 75 165 75
q169 0 169 -198zM426 500q0 146 -110 146q-37 0 -71 -22.5t-57 -59.5q-38 -59 -38 -129q0 -50 24 -82.5t75 -32.5q87 0 166 72q11 55 11 108z" />
    <glyph glyph-name="colon" unicode=":" horiz-adv-x="217" 
d="M202 455q0 -22 -16 -37.5t-38 -15.5q-16 0 -27.5 10t-11.5 26q0 22 16.5 38t38.5 16q17 0 27.5 -10.5t10.5 -26.5zM130 46q0 -21 -16.5 -37.5t-37.5 -16.5q-16 0 -27.5 10.5t-11.5 26.5q0 22 16.5 37t38.5 15q16 0 27 -9.5t11 -25.5z" />
    <glyph glyph-name="semicolon" unicode=";" horiz-adv-x="226" 
d="M215 455q0 -22 -16 -37.5t-38 -15.5q-16 0 -27.5 10t-11.5 26q0 22 16.5 38t38.5 16q17 0 27.5 -10.5t10.5 -26.5zM145 44q0 -35 -26 -80q-28 -47 -76 -82q-7 -5 -11 -5q-3 0 -6 4l-5 8q-1 1 -1 5t6 8q36 30 45 63q4 10 4 16q0 13 -11.5 32t-11.5 30q0 22 14.5 35.5
t34.5 13.5q18 0 31 -13.5t13 -34.5z" />
    <glyph glyph-name="less" unicode="&#x3c;" horiz-adv-x="496" 
d="M423 503q0 -6 -9 -11l-247 -155l193 -153q6 -4 6 -9q0 -3 -2 -5l-27 -35q-6 -8 -11 -8q-3 0 -6 3l-229 184q-6 4 -6 11q0 1 0.5 2.5t0.5 2.5l3 14q3 9 11 15l295 184q1 1 5 1q5 0 8 -6l14 -32q1 -1 1 -3z" />
    <glyph glyph-name="equal" unicode="=" horiz-adv-x="496" 
d="M419 388v-4l-5 -28q-3 -13 -15 -13h-280q-10 0 -10 9v4l5 28q2 13 14 13h280q11 0 11 -9zM386 198v-4l-5 -28q-3 -13 -16 -13h-279q-10 0 -10 8v4l5 29q1 12 14 12h279q12 0 12 -8z" />
    <glyph glyph-name="greater" unicode="&#x3e;" horiz-adv-x="496" 
d="M413 347q0 -3 -1 -5l-3 -14q-1 -10 -11 -15l-295 -184q-2 -2 -4 -2q-6 0 -9 7l-14 32v1q-1 1 -1 2q0 6 9 11l247 155l-193 153q-5 5 -5 9q0 3 1 5l27 35q6 7 11 7q4 0 6 -2l229 -184q6 -5 6 -11z" />
    <glyph glyph-name="question" unicode="?" horiz-adv-x="407" 
d="M409 578q0 -85 -70 -152l-71 -67q-4 -4 -21.5 -20t-23 -22t-17.5 -19t-19 -25t-13 -26q-12 -29 -14 -52q-2 -13 -12 -13h-31q-9 0 -9 9q0 7 2 17q5 38 23.5 71.5t35 51t50.5 49.5l80 74q51 46 51 112q0 41 -28 62.5t-70 21.5q-53 0 -113 -31q-6 -3 -7 -3q-6 0 -7 6l-8 28
v2q0 5 10 11q67 37 144 37q60 0 99 -32t39 -90zM151 41q0 -21 -16.5 -36.5t-37.5 -15.5q-16 0 -26.5 9.5t-10.5 25.5q0 21 16 36.5t37 15.5q16 0 27 -9.5t11 -25.5z" />
    <glyph glyph-name="at" unicode="@" horiz-adv-x="801" 
d="M764 458q0 -64 -28 -134.5t-83.5 -123t-120.5 -52.5q-32 0 -51.5 17.5t-18.5 48.5q0 14 3 27h-1q-56 -80 -133 -80q-37 0 -58.5 23.5t-21.5 70.5q0 22 4 43q15 83 74.5 150.5t132.5 67.5q26 0 48.5 -16t23.5 -49h1l13 37q4 12 13 12h26q7 0 7 -6q0 -3 -1 -4l-74 -186
q-20 -52 -20 -82q0 -41 40 -41q53 0 95.5 48t63 108.5t20.5 112.5q0 97 -61 151t-163 54t-190.5 -58t-139 -151t-50.5 -193q0 -106 66 -164t176 -58q77 0 165 38q13 5 14 -3l4 -20q2 -8 -8 -12q-88 -44 -190 -44q-131 0 -212 68.5t-81 189.5q0 87 38 170t99.5 144.5
t144.5 99.5t170 38q118 0 191 -64.5t73 -177.5zM516 415q-7 60 -55 60q-55 0 -97 -57.5t-53 -114.5q-4 -26 -4 -35q0 -62 48 -62q29 0 60 25t52 59z" />
    <glyph glyph-name="A" unicode="A" horiz-adv-x="583" 
d="M509 13q0 -13 -10 -13h-51q-13 0 -14 12l-33 200h-269l-107 -202q-6 -10 -16 -10h-45q-9 0 -9 5t2 8l360 663q7 13 17 13h40q11 0 13 -12l122 -660v-4zM392 265l-42 252q-7 41 -13 87h-2q-5 -15 -44 -88l-133 -251h234z" />
    <glyph glyph-name="B" unicode="B" horiz-adv-x="545" 
d="M485 556q0 -66 -42 -120.5t-108 -67.5v-1q63 -4 103 -41t40 -99q0 -44 -18.5 -88.5t-49.5 -73.5q-70 -65 -215 -65h-155q-15 0 -15 11q0 4 1 6l115 654q3 18 22 18h132q84 0 137 -32t53 -101zM415 551q0 27 -11 44.5t-33.5 25.5t-43.5 10.5t-52 2.5h-73l-44 -247h73
q96 0 148 58q36 42 36 106zM407 226q0 55 -43 84q-41 26 -121 26h-94l-50 -282h96q99 0 150 39q29 22 45.5 58.5t16.5 74.5z" />
    <glyph glyph-name="C" unicode="C" horiz-adv-x="555" 
d="M581 649q0 -2 -2 -6l-20 -34q-5 -7 -9 -7h-1q-1 1 -2 1q-2 1 -6 4q-2 1 -3 2q-58 34 -132 34q-68 0 -125 -35.5t-92.5 -92t-55 -121.5t-19.5 -129q0 -97 44.5 -157.5t140.5 -60.5q70 0 149 33q7 4 13 5q1 0 4 1q5 0 7 -8l7 -31v-3q0 -8 -13 -14q-87 -40 -186 -40
q-119 0 -180.5 71t-61.5 191q0 108 43 209t130 170t198 69q101 0 166 -43q6 -5 6 -8z" />
    <glyph glyph-name="D" unicode="D" horiz-adv-x="643" 
d="M605 437q0 -92 -29 -181t-87 -148q-103 -108 -289 -108h-158q-17 0 -17 14v5l115 651q2 12 6 15.5t16 3.5h120q92 0 145.5 -10.5t92.5 -39.5q85 -63 85 -202zM530 422q0 108 -53 161q-49 50 -177 50h-99l-101 -576h84q177 0 252 88q46 54 70 129t24 148z" />
    <glyph glyph-name="E" unicode="E" horiz-adv-x="490" 
d="M500 681v-4l-9 -32q-4 -11 -19 -11h-270l-43 -247h237q13 0 13 -9v-3l-6 -30q-3 -13 -16 -13h-238l-49 -276h280q12 0 12 -9v-3l-6 -31q-3 -13 -17 -13h-329q-15 0 -15 11q0 4 1 6l115 654q3 18 21 18h329q9 0 9 -8z" />
    <glyph glyph-name="F" unicode="F" horiz-adv-x="462" 
d="M500 681v-4l-9 -32q-4 -11 -19 -11h-270l-43 -247h237q13 0 13 -9v-3l-6 -30q-3 -13 -16 -13h-238l-56 -315q-2 -10 -5.5 -13.5t-11.5 -3.5h-36q-15 0 -15 11q0 4 1 6l115 654q3 18 21 18h329q9 0 9 -8z" />
    <glyph glyph-name="G" unicode="G" horiz-adv-x="624" 
d="M584 651q0 -3 -3 -7l-17 -32q-4 -7 -10 -7q-3 0 -7 2q-57 36 -138 36q-110 0 -192 -90q-51 -56 -78 -133.5t-27 -156.5q0 -99 45 -157.5t138 -58.5q76 0 144 30l45 255h-111q-11 0 -11 9v3l6 31q3 12 14 12h165q12 0 12 -9v-5l-54 -307q-2 -13 -8 -19.5t-22 -14.5
q-89 -42 -195 -42q-121 0 -181.5 70.5t-60.5 192.5q0 93 33.5 181.5t95.5 154.5q104 111 246 111q100 0 165 -41q6 -5 6 -8z" />
    <glyph glyph-name="H" unicode="H" horiz-adv-x="645" 
d="M620 679q0 -3 -1 -4l-117 -661q-1 -14 -15 -14h-41q-12 0 -12 10v5l57 317h-342l-56 -318q-1 -14 -16 -14h-41q-11 0 -11 9v5l117 661q3 14 16 14h41q12 0 12 -10q0 -3 -1 -5l-51 -287h341l51 289q3 13 16 13h41q12 0 12 -10z" />
    <glyph glyph-name="I" unicode="I" horiz-adv-x="354" 
d="M346 681v-2l-4 -24q-1 -12 -13 -12h-67l-105 -597h67q9 0 9 -7q0 -1 -0.5 -2t-0.5 -2l-5 -25q-2 -10 -12 -10h-195q-9 0 -9 8v2l4 26q1 10 13 10h62l105 597h-66q-9 0 -9 7v4l5 25q2 10 12 10h199q10 0 10 -8z" />
    <glyph glyph-name="J" unicode="J" horiz-adv-x="369" 
d="M344 680v-1q-1 -1 -1 -2l-79 -448q-13 -76 -33 -125t-56 -76q-49 -37 -130 -37q-20 0 -47 5q-9 2 -9 9q0 4 1 6l9 27q3 8 12 8h3q20 -4 43 -4q64 0 93 39q27 35 42 124l78 438h-117q-9 0 -9 8v4l5 24q3 10 12 10h172q11 0 11 -9z" />
    <glyph glyph-name="K" unicode="K" horiz-adv-x="505" 
d="M535 682q0 -4 -3 -7l-318 -319l225 -340q2 -6 2 -8q0 -8 -9 -8h-53q-17 0 -26 15l-203 315h-1l-56 -315q-3 -15 -16 -15h-41q-11 0 -11 8q0 4 1 7l116 659q3 15 16 15h41q10 0 10 -10v-5l-53 -305h1l306 311q9 9 21 9h42q9 0 9 -7z" />
    <glyph glyph-name="L" unicode="L" horiz-adv-x="434" 
d="M364 49v-4l-6 -33q-3 -12 -14 -12h-307q-12 0 -12 10q0 4 1 6l116 659q1 14 14 14h44q9 0 9 -9v-6l-108 -617h253q10 0 10 -8z" />
    <glyph glyph-name="M" unicode="M" horiz-adv-x="821" 
d="M774 680v-3l-91 -662q-3 -15 -15 -15h-43q-11 0 -11 10q0 5 1 8l72 517h-2l-300 -525q-6 -10 -17 -10h-20q-12 0 -14 11l-130 524h-2l-105 -522q-3 -13 -15 -13h-40q-11 0 -11 7q0 4 1 6l139 659q3 17 17 17h29q13 0 17 -14l143 -574h2l334 576q7 12 19 12h32q10 0 10 -9
z" />
    <glyph glyph-name="N" unicode="N" horiz-adv-x="673" 
d="M648 680v-5l-117 -660q-4 -15 -15 -15h-33q-13 0 -20 15l-275 553h-1l-97 -553q-4 -15 -17 -15h-36q-13 0 -13 9q0 3 1 5l117 661q1 14 16 14h33q10 0 17 -11l276 -554h2l97 551q2 14 15 14h41q9 0 9 -9z" />
    <glyph glyph-name="O" unicode="O" horiz-adv-x="643" 
d="M605 450q0 -78 -22.5 -157.5t-65 -148t-111.5 -111.5t-153 -43q-108 0 -161.5 67t-53.5 180q0 91 30.5 185.5t87.5 162.5q95 115 234 115q109 0 162 -69t53 -181zM531 448q0 194 -151 194q-65 0 -118.5 -40t-85 -102t-48 -129t-16.5 -128q0 -87 36 -141.5t116 -54.5
q66 0 119.5 40t84.5 102.5t47 129.5t16 129z" />
    <glyph glyph-name="P" unicode="P" horiz-adv-x="501" 
d="M495 528q0 -80 -48 -149q-79 -112 -233 -112h-76l-45 -253q-3 -14 -19 -14h-38q-12 0 -11 12l1 4q1 4 1 5l115 653q3 15 16 15h122q215 0 215 -161zM424 530q0 33 -12.5 55t-36 32.5t-48.5 14t-59 3.5h-65l-56 -313h69q107 0 163 70q45 56 45 138z" />
    <glyph glyph-name="Q" unicode="Q" horiz-adv-x="646" 
d="M607 450q0 -132 -60 -257.5t-167 -174.5q26 -10 66 -39q52 -39 95 -52q5 -2 5 -8q0 -3 -1 -4l-12 -31q-3 -8 -12 -8q-2 0 -10 2q-52 14 -116 65q-33 27 -54 37.5t-51 11.5h-2q-6 0 -17 -1t-17 -1q-108 0 -161.5 67t-53.5 180q0 91 30.5 185.5t87.5 162.5q95 115 234 115
q109 0 162.5 -69t53.5 -181zM532 448q0 194 -151 194q-65 0 -118.5 -40t-84.5 -102t-47.5 -129t-16.5 -128q0 -87 35.5 -141.5t115.5 -54.5q66 0 119.5 40t84.5 102.5t47 129.5t16 129z" />
    <glyph glyph-name="R" unicode="R" horiz-adv-x="525" 
d="M501 537q0 -49 -19.5 -98t-54.5 -82q-42 -41 -111 -58l115 -283q2 -4 2 -6q0 -10 -11 -10h-47q-13 0 -18 12l-107 277h-109l-48 -276q-2 -13 -14 -13h-44q-10 0 -10 9v4l117 660q3 16 17 16h135q141 0 185 -70q22 -32 22 -82zM429 529q0 58 -38 82.5t-112 24.5h-76
l-52 -294h85q96 0 145 55q48 51 48 132z" />
    <glyph glyph-name="S" unicode="S" horiz-adv-x="484" 
d="M471 661q0 -2 -2 -8l-13 -30q-4 -8 -9 -8q-4 0 -10 3q-59 26 -122 26q-60 0 -106.5 -34t-46.5 -92q0 -56 64 -96l95 -60q49 -31 74.5 -65t25.5 -85q0 -95 -73 -160q-71 -62 -181 -62q-81 0 -149 26q-10 4 -10 11q0 4 3 10l14 31q4 10 11 10q2 0 8 -2q69 -27 133 -27
q68 0 118 37q56 43 56 109q0 37 -19 61.5t-54 46.5l-111 70q-78 49 -78 131q0 86 71 141t159 55q80 0 144 -29q8 -3 8 -10z" />
    <glyph glyph-name="T" unicode="T" horiz-adv-x="527" 
d="M566 681q0 -3 -1 -4l-10 -32q-3 -11 -20 -11h-193l-109 -621q-1 -13 -15 -13h-43q-10 0 -10 6v6l109 622h-194q-10 0 -10 8v4l5 32q3 11 14 11h464q13 0 13 -8z" />
    <glyph glyph-name="U" unicode="U" horiz-adv-x="680" 
d="M660 680q0 -2 -0.5 -4.5t-0.5 -3.5l-66 -373q-28 -157 -106 -233t-207 -76q-216 0 -216 189q0 43 14 127l65 368q3 15 17 15h38q12 0 12 -11q0 -6 -1 -9l-62 -356q-14 -81 -14 -118q0 -73 36.5 -110t122.5 -37q48 0 86 15.5t62.5 39.5t42.5 60.5t28 71.5t18 81l63 360
q2 13 14 13h45q9 0 9 -9z" />
    <glyph glyph-name="V" unicode="V" horiz-adv-x="589" 
d="M622 681q0 -3 -3 -8l-339 -661q-5 -12 -19 -12h-44q-12 0 -15 15l-111 656v5q0 13 12 13h46q18 0 19 -13l91 -582h1l290 580q8 15 23 15h38q11 0 11 -8z" />
    <glyph glyph-name="W" unicode="W" horiz-adv-x="863" 
d="M896 681q0 -4 -1 -6l-299 -662q-6 -13 -18 -13h-45q-12 0 -13 14l-43 565h-2l-245 -565q-6 -14 -19 -14h-44q-12 0 -13 16l-63 656v2q0 15 14 15h42q17 0 18 -14l47 -579h1l250 580q6 13 20 13h31q14 0 15 -12l45 -581h2l253 579q6 14 21 14h38q8 0 8 -8z" />
    <glyph glyph-name="X" unicode="X" horiz-adv-x="541" 
d="M554 683q0 -3 -4 -9l-238 -310l141 -347q1 -2 1 -6q0 -11 -12 -11h-45q-19 0 -24 14l-111 287h-1l-211 -285q-12 -16 -28 -16h-39q-10 0 -10 6q0 4 6 12l258 340l-125 314q-2 4 -2 7q0 10 11 10h48q11 0 17 -12l101 -258h1l191 257q9 13 24 13h43q8 0 8 -6z" />
    <glyph glyph-name="Y" unicode="Y" horiz-adv-x="529" 
d="M562 683q0 -3 -3 -8l-267 -403l-45 -257q-3 -15 -17 -15h-39q-13 0 -13 9q0 4 1 6l45 254l-134 404q-1 2 -1 4q0 12 14 12h40q17 0 21 -13l107 -345h1l220 343q9 15 24 15h37q9 0 9 -6z" />
    <glyph glyph-name="Z" unicode="Z" horiz-adv-x="524" 
d="M545 680v-3l-3 -14q-4 -14 -13 -26l-462 -580v-1h356q12 0 12 -10v-4l-5 -28q-3 -14 -15 -14h-434q-10 0 -10 8v4l3 17q1 9 10 20l464 583v2h-320q-11 0 -11 7v5l5 32q1 11 14 11h397q12 0 12 -9z" />
    <glyph glyph-name="bracketleft" unicode="[" horiz-adv-x="298" 
d="M346 693v-2q-1 -2 -1 -3l-4 -24q-2 -12 -16 -12h-106l-132 -748h106q12 0 12 -7v-4l-5 -24q-3 -13 -15 -13h-154q-13 0 -13 9q0 5 1 8l143 811q3 16 18 16h153q13 0 13 -7z" />
    <glyph glyph-name="backslash" unicode="\" horiz-adv-x="338" 
d="M264 -3q0 -10 -9 -10h-34q-11 0 -14 12l-128 690v4q0 11 11 11h32q8 0 10.5 -2.5t4.5 -10.5l127 -689v-5z" />
    <glyph glyph-name="bracketright" unicode="]" horiz-adv-x="298" 
d="M281 691q0 -5 -1 -8l-144 -810q-2 -11 -5.5 -14t-11.5 -3h-154q-13 0 -13 7v2q1 2 1 3l4 24q2 12 16 12h107l132 748h-107q-12 0 -12 7v4l5 25q3 12 15 12h155q13 0 13 -9z" />
    <glyph glyph-name="asciicircum" unicode="^" horiz-adv-x="520" 
d="M441 392q0 -6 -7 -9l-28 -13q-6 -3 -9 -3q-4 0 -7 8l-101 239l-186 -233q-7 -9 -14 -9q-3 0 -6 3l-21 19q-5 4 -5 8t6 10l217 265q9 11 16 11h12q7 0 12 -10l120 -280q0 -1 0.5 -3t0.5 -3z" />
    <glyph glyph-name="underscore" unicode="_" horiz-adv-x="492" 
d="M486 -92v-3l-3 -17q-2 -12 -15 -12h-450q-12 0 -12 7v4l3 20q1 10 14 10h450q13 0 13 -9z" />
    <glyph glyph-name="grave" unicode="`" horiz-adv-x="311" 
d="M235 590q0 -4 -2 -6l-11 -16q-3 -5 -8 -5q-1 0 -5 2l-132 84q-5 3 -5 9q0 4 2 6l24 30q5 7 11 7q3 0 6 -3l117 -103q3 -3 3 -5z" />
    <glyph glyph-name="a" unicode="a" horiz-adv-x="527" 
d="M483 31q0 -8 -11 -15q-32 -20 -67 -20q-46 0 -46 52q0 6 3 33h-2q-26 -38 -70.5 -64.5t-99.5 -26.5q-78 0 -115.5 52t-37.5 136q0 61 23.5 124t65.5 110q74 82 175 82q87 0 172 -49q8 -5 8 -12v-4l-59 -326q-5 -32 -5 -37q0 -21 16 -21q13 0 37 13q4 2 5 2q7 0 7 -7z
M414 408q-42 35 -112 35q-69 0 -122 -58q-36 -41 -56.5 -99t-20.5 -111q0 -62 27.5 -98t75.5 -36q55 0 96.5 31.5t65.5 80.5z" />
    <glyph glyph-name="b" unicode="b" horiz-adv-x="521" 
d="M484 314q0 -81 -29 -153t-92 -121.5t-148 -49.5q-89 0 -167 38q-10 5 -10 18q0 5 2 15l110 627q3 16 15 17l36 5h4q9 0 9 -10q0 -5 -1 -8l-47 -266q73 68 162 68q76 0 116 -50t40 -130zM417 311q0 130 -109 130q-38 0 -80.5 -20.5t-71.5 -51.5l-53 -301q43 -27 113 -27
q66 0 113.5 44.5t67.5 104t20 121.5z" />
    <glyph glyph-name="c" unicode="c" horiz-adv-x="415" 
d="M435 458q0 -3 -3 -9l-12 -26q-2 -6 -9 -6q-1 0 -14 5q-48 22 -84 22q-67 0 -116 -41t-71 -99.5t-22 -124.5q0 -61 32 -100t97 -39q49 0 104 20q12 4 13 4q6 0 7 -6l4 -24l1 -1v-2q0 -7 -14 -13q-65 -28 -129 -28q-92 0 -137 49.5t-45 139.5q0 125 78 220t200 95
q64 0 113 -28q7 -4 7 -8z" />
    <glyph glyph-name="d" unicode="d" horiz-adv-x="524" 
d="M532 704v-1q-1 -1 -1 -2l-121 -688q-2 -13 -11 -13h-38q-10 0 -10 10v5l8 47q-32 -33 -76 -52.5t-88 -19.5q-80 0 -119 50.5t-39 132.5q0 145 91 244q71 77 166 77q40 0 75.5 -18t51.5 -50l46 263q3 15 14 16l37 5h6q8 0 8 -6zM409 363q-12 37 -42 59t-69 22
q-75 0 -127 -62q-32 -40 -49.5 -95.5t-17.5 -109.5q0 -64 27.5 -100.5t82.5 -36.5q40 0 83 22.5t69 56.5z" />
    <glyph glyph-name="e" unicode="e" horiz-adv-x="480" 
d="M454 336q0 -39 -8 -83q-2 -11 -6.5 -14.5t-16.5 -3.5h-151h-162q-5 -23 -5 -49q0 -66 32.5 -106t102.5 -40q58 0 116 20q19 6 21 -6l2 -23q1 -9 -13 -15q-62 -26 -142 -26q-91 0 -138 50t-47 139q0 141 87 234q76 81 182 81q70 0 108 -42.5t38 -115.5zM395 337
q0 49 -24 78.5t-73 29.5q-73 0 -125 -59q-37 -41 -55 -107h271q6 20 6 58z" />
    <glyph glyph-name="f" unicode="f" horiz-adv-x="320" 
d="M400 691l-7 -23q-3 -10 -22 -5q-26 8 -54 8q-53 0 -81 -35.5t-40 -103.5l-9 -49h124q11 0 10 -11l-4 -23q-1 -10 -13 -10h-124l-111 -631q-3 -15 -15 -15h-37q-13 0 -9 20l109 626h-59q-12 0 -9 14l3 18q1 12 14 12h59l4 22q11 62 24.5 100.5t41.5 67.5q47 47 121 47
q47 0 80 -14q8 -4 4 -15z" />
    <glyph glyph-name="g" unicode="g" horiz-adv-x="522" 
d="M494 404q0 -5 -1 -8q-45 -252 -67 -373q-43 -243 -255 -243q-67 0 -126 31q-8 5 -8 11q0 4 3 9l13 23q4 6 10 6l15 -5q57 -24 100 -24q48 0 82 15.5t54.5 45.5t31 61t18.5 74l8 44q-26 -31 -72.5 -51t-88.5 -20q-80 0 -120 49t-40 130q0 78 31 149t93.5 118.5t142.5 47.5
q95 0 169 -72q7 -7 7 -18zM428 392q-41 51 -115 51q-61 0 -107 -41t-67 -97.5t-21 -115.5q0 -138 113 -138q41 0 82.5 21t68.5 54z" />
    <glyph glyph-name="h" unicode="h" horiz-adv-x="523" 
d="M471 372q0 -29 -8 -77l-49 -282q-3 -13 -12 -13h-37q-10 0 -12 4t0 15l49 285q5 27 5 50q0 86 -85 86q-40 0 -84 -19t-79 -49l-64 -360q-1 -12 -13 -12h-39q-12 0 -9 17l119 673q3 14 14 15l37 5q7 1 10 -3.5t1 -13.5l-46 -265q34 29 81.5 47.5t93.5 18.5q60 0 93.5 -33
t33.5 -89z" />
    <glyph glyph-name="i" unicode="i" horiz-adv-x="227" 
d="M216 616q0 -18 -14.5 -31.5t-32.5 -13.5q-14 0 -23.5 8.5t-9.5 22.5q0 18 14.5 31t32.5 13q14 0 23.5 -8t9.5 -22zM182 465l-79 -451q-3 -14 -15 -14h-36q-14 0 -11 20l80 450q3 13 15 13h36q14 0 10 -18z" />
    <glyph glyph-name="j" unicode="j" horiz-adv-x="255" 
d="M246 615q0 -18 -14.5 -31t-32.5 -13q-14 0 -23 8t-9 22q0 18 14 31.5t32 13.5q14 0 23.5 -8.5t9.5 -22.5zM211 470l-79 -455q-23 -132 -78 -186q-48 -48 -135 -48q-26 0 -45 5q-11 2 -7 15l8 25q2 10 14 8q20 -4 31 -4q64 0 97 41q35 40 51 136l81 463q3 13 14 13h39
q12 0 9 -13z" />
    <glyph glyph-name="k" unicode="k" horiz-adv-x="417" 
d="M415 477q0 -6 -7 -13l-181 -176l129 -270q3 -6 3 -10q0 -8 -11 -8h-43q-16 0 -21 12l-110 233l-46 -44l-33 -187q-3 -14 -14 -14h-36q-12 0 -12 13q0 1 0.5 2.5t0.5 2.5l118 672q3 14 15 15l36 5h3q10 0 10 -10v-4l-75 -425l208 203q9 9 19 9h36q11 0 11 -6z" />
    <glyph glyph-name="l" unicode="l" horiz-adv-x="211" 
d="M217 700q0 -1 -0.5 -3t-0.5 -3l-120 -679q-3 -15 -14 -15h-37q-11 0 -11 9q0 7 1 10l118 671q2 14 14 15l39 5h3q8 0 8 -10z" />
    <glyph glyph-name="m" unicode="m" horiz-adv-x="809" 
d="M757 371q0 -21 -11 -84l-48 -273q-3 -14 -14 -14h-37q-11 0 -11 10q0 7 1 10l48 272q9 47 9 66q0 84 -91 84q-64 0 -146 -61q1 -3 1 -12q0 -20 -12 -90l-45 -265q-3 -14 -14 -14h-36q-11 0 -11 10q0 7 1 10l46 260q10 53 10 75q0 87 -87 87q-67 0 -152 -72l-63 -356
q-3 -14 -14 -14h-37q-11 0 -11 10q0 7 1 10l80 450q3 13 14 13h30q15 0 15 -12v-5l-7 -41q80 69 170 69q86 0 114 -68q83 68 179 68q62 0 95 -32.5t33 -90.5z" />
    <glyph glyph-name="n" unicode="n" horiz-adv-x="524" 
d="M472 369q0 -16 -7 -60l-52 -295q-3 -14 -14 -14h-38q-10 0 -10 10q0 6 1 9l50 285q6 30 6 57q0 79 -88 79q-79 0 -162 -69l-62 -356q-3 -15 -16 -15h-37q-10 0 -10 10q0 2 0.5 4.5t0.5 3.5l80 451q3 14 14 14h36q10 0 10 -10q0 -1 -0.5 -3.5t-0.5 -3.5l-7 -40
q86 68 181 68q62 0 93.5 -32.5t31.5 -92.5z" />
    <glyph glyph-name="o" unicode="o" horiz-adv-x="516" 
d="M479 309q0 -81 -30 -152.5t-93 -119t-146 -47.5q-87 0 -130 50.5t-43 135.5q0 125 72.5 221.5t194.5 96.5q87 0 131 -50t44 -135zM413 302q0 64 -27.5 103t-88.5 39q-91 0 -142.5 -82t-51.5 -182q0 -141 114 -141q63 0 109.5 43t66.5 101.5t20 118.5z" />
    <glyph glyph-name="p" unicode="p" horiz-adv-x="523" 
d="M486 307q0 -75 -29.5 -146.5t-90 -121.5t-137.5 -50q-41 0 -77 18t-51 50l-44 -252q-3 -14 -14 -15l-38 -3q-9 -1 -11.5 4t0.5 12l118 667q2 13 11 13h37q11 0 11 -9v-2l-8 -51q30 34 74.5 53.5t90.5 19.5q79 0 118.5 -52t39.5 -135zM419 308q0 64 -28.5 99t-83.5 35
q-36 0 -79 -22t-73 -55l-42 -243q12 -37 41.5 -59.5t68.5 -22.5q63 0 109.5 44t66.5 103t20 121z" />
    <glyph glyph-name="q" unicode="q" horiz-adv-x="520" 
d="M483 436q0 -5 -2 -13l-110 -627q-3 -16 -15 -17l-36 -5h-5q-9 0 -9 8q0 2 2 8l47 266q-69 -66 -160 -66q-76 0 -117 51t-41 131q0 81 30 153t93.5 120.5t148.5 48.5q82 0 162 -38q12 -5 12 -20zM418 415q-45 28 -110 28q-66 0 -114 -43.5t-69 -102.5t-21 -121
q0 -61 27.5 -97t81.5 -36q39 0 80.5 21t71.5 53z" />
    <glyph glyph-name="r" unicode="r" horiz-adv-x="293" 
d="M325 486l-1 -2v-3l-11 -34q-3 -8 -11 -8q-4 0 -12 1t-13 1q-61 0 -121 -77l-61 -350q-3 -14 -15 -14h-36q-11 0 -11 12v7l79 450q3 14 16 14h34q11 0 11 -10v-2l-9 -51q55 74 136 74q5 0 19 -2q6 -2 6 -6z" />
    <glyph glyph-name="s" unicode="s" horiz-adv-x="379" 
d="M365 462q0 -5 -2 -9l-10 -24q-3 -7 -8 -7t-13 3q-47 21 -90 21q-44 0 -77 -23.5t-33 -65.5q0 -25 20.5 -43.5t50 -31t59.5 -27t50.5 -40.5t20.5 -62q0 -66 -53 -114.5t-145 -48.5q-64 0 -120 30q-5 2 -5 8q0 3 2 9l12 24q2 6 8 6q4 0 12 -4q57 -25 101 -25q49 0 87.5 28
t38.5 75q0 28 -21 48t-50.5 32.5t-59.5 26.5t-51 38.5t-21 59.5q0 68 54 108t124 40q67 0 114 -25q5 -3 5 -7z" />
    <glyph glyph-name="t" unicode="t" horiz-adv-x="328" 
d="M316 474l-4 -24q-1 -11 -13 -11h-118l-48 -266q-9 -48 -9 -77q0 -54 62 -54q30 0 67 10q9 2 9 -6l1 -26q0 -11 -16 -17q-38 -13 -80 -13q-107 0 -107 95q0 26 10 84l48 270h-57q-6 0 -9 2.5t-2 7.5l5 24q1 10 12 10h59l21 121q3 13 15 14q30 5 38 5q6 0 9 -2t2 -8
q0 -1 -1 -4v-3l-22 -123h119q11 0 9 -9z" />
    <glyph glyph-name="u" unicode="u" horiz-adv-x="517" 
d="M484 473v-1l-1 -2l-80 -455q-3 -15 -15 -15h-36q-10 0 -10 11v1l8 45q-83 -68 -173 -68q-58 0 -91.5 32.5t-33.5 90.5q0 16 6 54l53 304q3 13 15 13h37q11 0 11 -10v-3l-52 -290q-5 -25 -5 -56q0 -81 87 -81q37 0 79 20.5t75 49.5l63 356q3 14 16 14h36q11 0 11 -10z" />
    <glyph glyph-name="v" unicode="v" horiz-adv-x="433" 
d="M445 476q0 -7 -5 -15l-239 -452q-5 -9 -15 -9h-30q-13 0 -14 9l-79 457q0 1 -0.5 3.5t-0.5 3.5q0 10 12 10h43q11 0 13 -11l44 -286q4 -23 7 -48t5 -42l3 -18h1q0 1 7 16.5t18 40t23 47.5l144 289q5 12 19 12h34q10 0 10 -7z" />
    <glyph glyph-name="w" unicode="w" horiz-adv-x="672" 
d="M684 477q0 -2 -1 -5t-2.5 -5.5t-1.5 -3.5l-214 -453q-4 -10 -16 -10h-37q-10 0 -12 11l-43 380h-1l-177 -381q-4 -10 -16 -10h-35q-12 0 -14 10l-52 460v3q0 10 12 10h38q13 0 15 -11l35 -396h1l181 396q6 11 19 11h27q12 0 13 -10l43 -397h2l175 395q5 12 19 12h35
q7 0 7 -6z" />
    <glyph glyph-name="x" unicode="x" horiz-adv-x="448" 
d="M448 478q0 -5 -3 -8l-181 -212l113 -242q2 -6 2 -8q0 -8 -11 -8h-47q-14 0 -18 11l-84 197l-1 -1l-158 -196q-8 -11 -23 -11h-41q-4 0 -4 5q0 6 5 11l200 236l-100 218q-1 2 -1 5q0 8 10 8h45q13 0 18 -12l74 -169h1l137 170q8 11 20 11h41q6 0 6 -5z" />
    <glyph glyph-name="y" unicode="y" horiz-adv-x="459" 
d="M481 477q0 -3 -2 -7l-282 -528q-47 -90 -95 -125.5t-123 -35.5q-17 0 -35 3q-8 1 -8 9q0 2 2 8l8 25q3 9 11 9h3q30 -3 31 -3q86 0 132 84l40 72l-89 480q0 1 -0.5 3t-0.5 3q0 9 11 9h44q12 0 14 -12l67 -406l205 405q6 13 21 13h38q8 0 8 -6z" />
    <glyph glyph-name="z" unicode="z" horiz-adv-x="388" 
d="M395 472l-3 -15q-2 -9 -11 -21l-312 -390v-2h244q5 0 7.5 -2t1.5 -6v-2l-4 -24q-1 -10 -13 -10h-303q-7 0 -9.5 2.5t-1.5 7.5l3 16q2 12 12 25l308 387v1h-216q-7 0 -9 2t-1 7l4 24q2 11 13 11h281q11 0 9 -11z" />
    <glyph glyph-name="braceleft" unicode="{" horiz-adv-x="322" 
d="M362 694l-7 -26q-3 -8 -11 -8h-45q-40 0 -62 -29t-28 -63l-27 -136q-12 -64 -39 -103.5t-63 -42.5v-1q73 -6 50 -152l-21 -130q-1 -18 -0.5 -38.5t15.5 -37t43 -16.5h42q7 0 9 -2t1 -7l-3 -22q-2 -11 -11 -11h-51q-58 0 -86.5 33.5t-18.5 98.5l24 151q9 52 1.5 81.5
t-36.5 33.5q-14 2 -11 12l3 14q1 10 12 11q58 9 77 109l31 157q12 64 54 98t97 34h54q6 0 7 -1.5t0 -6.5z" />
    <glyph glyph-name="bar" unicode="|" horiz-adv-x="189" 
d="M125 -1q0 -18 -16 -18h-29q-16 0 -16 18v691q0 18 13 18h32q9 0 12.5 -3t3.5 -13v-693z" />
    <glyph glyph-name="braceright" unicode="}" horiz-adv-x="322" 
d="M295 292l-3 -13q-2 -11 -13 -12q-57 -9 -76 -108l-31 -158q-12 -64 -54 -98t-97 -34h-54q-10 0 -7 9l7 25q3 8 11 8h45q40 0 62 29t28 63l26 136q12 64 39.5 103.5t63.5 42.5v1q-73 6 -50 152l21 130q1 18 0.5 38.5t-15.5 37t-43 16.5h-42q-7 0 -9 2t-1 7l3 22
q2 11 11 11h51q58 0 86 -33.5t18 -98.5l-23 -150q-9 -52 -1.5 -81.5t36.5 -33.5q14 -3 11 -13z" />
    <glyph glyph-name="asciitilde" unicode="~" horiz-adv-x="520" 
d="M455 304q0 -7 -7 -12q-74 -58 -124 -58q-27 0 -68 26t-69 26t-92 -37q-8 -4 -10 -4q-5 0 -8 7l-9 22q-1 1 -1 4q0 7 13 15q67 45 114 45q32 0 77.5 -25.5t67.5 -25.5q23 0 84 41q5 4 10 4q6 0 10 -6l11 -17q1 -2 1 -5z" />
    <glyph glyph-name="nbspace" unicode="&#xa0;" horiz-adv-x="227" 
 />
    <glyph glyph-name="exclamdown" unicode="&#xa1;" horiz-adv-x="231" 
d="M214 458q0 -22 -15.5 -36.5t-37.5 -14.5q-16 0 -26.5 9.5t-10.5 25.5q0 21 15.5 36.5t36.5 15.5q16 0 27 -10t11 -26zM170 327q0 -3 -1 -5l-83 -517q-2 -11 -12 -11h-45q-9 0 -9 7v4l101 519q3 11 12 11h28q9 0 9 -8z" />
    <glyph glyph-name="cent" unicode="&#xa2;" 
d="M472 458q0 -3 -3 -9l-12 -26q-2 -6 -9 -6q-1 0 -14 5q-48 22 -84 22h-1l-72 -404q44 1 97 20q12 4 13 4q5 0 7 -6l4 -24v-1q1 -1 1 -2q0 -7 -14 -13q-55 -25 -116 -28l-14 -76q-1 -5 -2.5 -7.5t-4 -4t-7.5 -1.5h-13q-12 0 -10 15l13 75q-157 13 -157 188q0 116 68 208
t178 105l15 82q3 14 13 14h15q11 0 9 -14l-14 -80q61 -2 107 -28q7 -4 7 -8zM311 440q-54 -11 -94 -52.5t-58 -95.5t-18 -113q0 -53 25 -90.5t74 -46.5z" />
    <glyph glyph-name="sterling" unicode="&#xa3;" 
d="M520 669q0 -4 -1 -6l-12 -27q-4 -8 -11 -8q-4 0 -6 1q-49 18 -93 18q-64 0 -99.5 -43t-48.5 -112l-18 -100h160q10 0 10 -8v-3l-2 -16q-1 -10 -14 -10h-161l-12 -69h161q10 0 10 -6v-4l-3 -16q-1 -11 -14 -11h-161l-15 -80q-15 -78 -79 -113v-1h299q15 0 15 -10v-3
l-5 -29q-3 -13 -17 -13h-381q-11 0 -11 10v3l4 22q2 10 15 16q82 39 102 152l8 46h-57q-9 0 -9 7v4l3 16q2 10 13 10h56l12 69h-57q-8 0 -8 6v4l3 16q2 11 12 11h57l17 95q18 100 73 156.5t146 56.5q69 0 112 -21q7 -4 7 -10z" />
    <glyph glyph-name="yen" unicode="&#xa5;" 
d="M564 682q0 -4 -3 -7l-249 -376h93q10 0 10 -7v-4l-3 -18q-1 -10 -14 -10h-105l-10 -58h106q10 0 10 -6v-4l-3 -17q-2 -11 -14 -11h-106l-26 -149q-3 -15 -17 -15h-38q-13 0 -13 10v5l26 149h-107q-9 0 -9 6q0 1 0.5 3t0.5 3l2 16q1 10 13 10h107l11 58h-108q-9 0 -9 7v4
l3 17q1 11 13 11h93l-123 374q-1 2 -1 6q0 10 13 10h41q17 0 21 -13l106 -343h1l218 341q9 15 24 15h36q10 0 10 -7z" />
    <glyph glyph-name="brokenbar" unicode="&#xa6;" horiz-adv-x="194" 
d="M188 697q0 -1 -1 -4l-1 -3l-40 -226q-3 -14 -14 -14h-31q-12 0 -11 11v5l1 3l40 226q3 13 14 13h33q11 0 10 -11zM105 230l-1 -4v-4l-40 -226q-3 -14 -14 -14h-32q-12 0 -10 12v4l1 3l39 226q3 14 15 14h33q10 0 9 -11z" />
    <glyph glyph-name="section" unicode="&#xa7;" horiz-adv-x="453" 
d="M416 665l-14 -30q-5 -10 -17 -4q-47 21 -92 21q-41 0 -70 -18q-39 -23 -39 -71q0 -41 54 -66l67 -31q79 -36 79 -106q0 -38 -20 -73t-52 -56q35 -32 35 -79q0 -62 -47 -106q-58 -56 -150 -56q-63 0 -121 29q-8 4 -5 11l15 30q5 9 15 5q56 -27 106 -27q64 0 101 39
q25 27 25 64q0 49 -67 78l-61 27q-76 35 -76 102q0 38 23.5 71.5t59.5 51.5q-46 33 -46 82q0 61 47 102q52 45 132 45q66 0 114 -24q7 -4 4 -11zM325 343q1 49 -70 82l-41 19q-67 -20 -69 -82q-1 -25 13.5 -41.5t44.5 -30.5l52 -24q7 -3 14 -8q54 29 56 85z" />
    <glyph glyph-name="dieresis" unicode="&#xa8;" horiz-adv-x="312" 
d="M280 669q0 -20 -14.5 -35t-33.5 -15q-15 0 -25.5 9.5t-10.5 24.5q0 20 15 33.5t35 13.5q15 0 24.5 -8t9.5 -23zM118 669q0 -20 -15 -35t-34 -15q-15 0 -25.5 9.5t-10.5 24.5q0 20 14.5 33.5t35.5 13.5q15 0 25 -8.5t10 -22.5z" />
    <glyph glyph-name="copyright" unicode="&#xa9;" horiz-adv-x="810" 
d="M764 411q0 -107 -59.5 -203.5t-157 -154t-204.5 -57.5q-129 0 -213.5 81.5t-84.5 209.5q0 107 59.5 203.5t157.5 154t205 57.5q128 0 212.5 -82t84.5 -209zM716 404q0 110 -73 181.5t-184 71.5q-143 0 -254 -110t-111 -253q0 -110 73 -181.5t184 -71.5q143 0 254 110
t111 253zM554 514l-11 -19q-4 -8 -10 -4q-32 22 -76 22q-69 0 -115 -58q-51 -64 -51 -157q0 -53 26 -87t78 -34q42 0 89 21q8 4 9 -3l4 -18q1 -7 -7 -11q-52 -24 -107 -24q-69 0 -103 42t-34 110q0 110 67 186q60 68 144 68q58 0 95 -24q5 -4 2 -10z" />
    <glyph glyph-name="ordfeminine" unicode="&#xaa;" horiz-adv-x="307" 
d="M270 636q0 -6 -2 -18l-34 -202q-2 -12 -9 -12h-27q-4 0 -6.5 1t-1.5 4l3 24q-43 -35 -90 -35q-39 0 -59 23q-15 17 -15 43q0 35 22.5 61t56.5 39q46 17 110 17l4 23q2 12 2 17q0 44 -46 44q-40 0 -81 -19q-8 -4 -11 -5h-2q-3 0 -4 4l-5 18q0 1 -0.5 2t-0.5 2q0 3 8 8
q46 25 104 25q84 0 84 -64zM211 550q-48 0 -90 -19t-42 -57q0 -18 11.5 -28.5t30.5 -10.5q38 0 76 32z" />
    <glyph glyph-name="guillemotleft" unicode="&#xab;" horiz-adv-x="450" 
d="M410 376q0 -4 -2 -6l-107 -141l55 -146q1 -2 1 -5q0 -6 -7 -10l-15 -9q-3 -2 -7 -2q-6 0 -9 7l-75 143q-5 10 -5 17q0 10 10 21l128 143q7 7 10 7q1 0 5 -2l14 -9q4 -3 4 -8zM246 376q0 -4 -2 -6l-107 -141l55 -146q1 -2 1 -5q0 -6 -7 -10l-15 -9q-3 -2 -7 -2q-6 0 -9 7
l-75 143q-5 10 -5 17q0 10 10 21l128 143q7 7 10 7q1 0 5 -2l14 -9q4 -3 4 -8z" />
    <glyph glyph-name="logicalnot" unicode="&#xac;" horiz-adv-x="503" 
d="M461 389l-31 -176q-3 -15 -15 -15h-27q-13 0 -10 15l24 137h-305q-13 0 -11 12l5 29q1 11 15 11h343q9 0 11 -2.5t1 -10.5z" />
    <glyph glyph-name="registered" unicode="&#xae;" horiz-adv-x="810" 
d="M764 411q0 -107 -59.5 -203.5t-157 -154t-204.5 -57.5q-129 0 -213.5 81.5t-84.5 209.5q0 107 59.5 203.5t157.5 154t205 57.5q128 0 212.5 -82t84.5 -209zM716 404q0 110 -73 181.5t-184 71.5q-143 0 -254 -110t-111 -253q0 -110 73 -181.5t184 -71.5q143 0 254 110
t111 253zM546 456q0 -50 -30.5 -90.5t-74.5 -49.5l64 -158q4 -10 -5 -10h-30q-8 0 -10 7l-59 157h-60l-28 -157q-1 -7 -8 -7h-27q-7 0 -6 7l67 377q2 10 10 10h71q126 0 126 -86zM504 449q0 62 -86 62h-42l-30 -168h47q8 0 24 2q40 7 63.5 35t23.5 69z" />
    <glyph glyph-name="macron" unicode="&#xaf;" horiz-adv-x="312" 
d="M280 691q0 -1 -0.5 -3t-0.5 -3l-3 -17q-2 -17 -20 -17h-208q-14 0 -14 10q0 1 0.5 3t0.5 4l3 17q2 15 19 15h209q14 0 14 -9z" />
    <glyph glyph-name="degree" unicode="&#xb0;" horiz-adv-x="277" 
d="M234 622q0 -44 -32.5 -77t-76.5 -33q-34 0 -58.5 22t-24.5 56q0 44 33 77t76 33q34 0 58.5 -22t24.5 -56zM198 619q0 21 -15 34.5t-36 13.5q-27 0 -48 -23t-21 -51q0 -21 14.5 -34.5t35.5 -13.5q27 0 48.5 23t21.5 51z" />
    <glyph glyph-name="plusminus" unicode="&#xb1;" horiz-adv-x="496" 
d="M463 378l-5 -26q-3 -15 -15 -15h-158l-28 -158q-2 -13 -15 -13h-30q-13 0 -10 13l28 158h-157q-15 0 -13 13l5 27q3 14 16 14h158l28 158q3 14 16 14h27q15 0 13 -13l-29 -159h156q16 0 13 -13zM370 60l-5 -32q-3 -13 -16 -13h-298q-12 0 -10 13l5 32q2 13 14 13h299
q14 0 11 -13z" />
    <glyph glyph-name="twosuperior" unicode="&#xb2;" horiz-adv-x="331" 
d="M304 628q0 -9 -1 -13q-1 -8 -5 -24q-16 -57 -105 -143q-35 -34 -90 -82h141q13 0 13 -8v-2l-5 -20q-2 -10 -14 -10h-188q-14 0 -14 9v3l3 18q1 6 9 14q7 7 39.5 36t56 51.5t43.5 43.5q54 57 63 96q1 3 1 9q1 4 1 12q0 22 -14 35t-37 13q-32 0 -72 -20q-6 -3 -10 -3t-7 7
l-5 13q-1 2 -1 5q0 5 10 12q46 26 98 26q40 0 65 -20.5t25 -57.5z" />
    <glyph glyph-name="threesuperior" unicode="&#xb3;" horiz-adv-x="331" 
d="M282 633q0 -31 -20 -60t-49 -42q50 -18 50 -77q0 -1 -0.5 -5t-0.5 -6t-1 -7t-1 -8q-11 -47 -51 -76t-87 -29q-44 0 -77 15q-7 4 -7 10q0 3 1 4l8 20q2 5 9 5q3 0 7 -2q27 -12 62 -12q32 0 55.5 17.5t31.5 47.5q0 2 1 5.5t1 5.5q1 4 1 12q0 29 -20 44t-53 15h-11
q-10 0 -10 9v3q1 15 2 16q2 10 11 10h15q39 0 61 20t22 58q0 43 -53 43q-27 0 -58 -14q-8 -4 -13 -4t-6 5l-5 18v2q0 7 12 13q37 19 85 19q37 0 62.5 -20t25.5 -55z" />
    <glyph glyph-name="acute" unicode="&#xb4;" horiz-adv-x="312" 
d="M252 658q0 -6 -5 -9l-132 -84q-4 -2 -6 -2q-4 0 -7 5l-11 16q-3 3 -3 6q0 2 4 5l117 103q3 3 6 3q4 0 11 -7l24 -30q2 -4 2 -6z" />
    <glyph glyph-name="mu" unicode="&#xb5;" horiz-adv-x="517" 
d="M499 474v-4l-80 -454q-3 -15 -15 -15h-36q-9 0 -9 9v2q0 2 3.5 23t3.5 22q-81 -65 -161 -65q-67 0 -94 37l-32 -179q-2 -13 -16 -13h-33q-15 0 -12 13l56 316l53 304q3 13 15 13h37q10 0 10 -9v-4l-52 -303q-3 -15 -3 -43q0 -38 16 -57q20 -24 70 -24q78 0 154 69l63 358
q3 13 15 13h38q9 0 9 -9z" />
    <glyph glyph-name="paragraph" unicode="&#xb6;" horiz-adv-x="506" 
d="M489 675l-141 -803q-2 -13 -12 -13h-27q-12 0 -10 13l136 771h-97l-136 -770q-2 -14 -14 -14h-38q-13 0 -10 14l89 507q-61 3 -97 37.5t-36 88.5q0 71 54.5 127t125.5 56h203q13 0 10 -14z" />
    <glyph glyph-name="periodcentered" unicode="&#xb7;" horiz-adv-x="206" 
d="M154 302q0 -22 -17 -39.5t-39 -17.5q-17 0 -29 11t-12 28q0 23 17 38.5t40 15.5q17 0 28.5 -9.5t11.5 -26.5z" />
    <glyph glyph-name="cedilla" unicode="&#xb8;" horiz-adv-x="312" 
d="M249 -106q0 -33 -22 -57q-31 -34 -84 -34q-24 0 -51 10q-10 3 -7 12l5 13q3 8 14 3q22 -8 43 -8q33 0 50 23q10 13 10 31q0 34 -58 34h-13q-16 0 -12 16q0 2 1.5 7t2.5 8l13 54l34 -2l-13 -55h11q76 0 76 -55z" />
    <glyph glyph-name="onesuperior" unicode="&#xb9;" horiz-adv-x="331" 
d="M235 698q0 -1 -0.5 -3.5t-0.5 -4.5l-59 -331q-3 -14 -16 -14h-21q-12 0 -12 11q0 6 1 9l51 289l-73 -43q-8 -4 -10 -4q-5 0 -9 7l-7 14q-1 1 -1 4q0 6 8 11l101 60q7 5 20 5h18q10 0 10 -10z" />
    <glyph glyph-name="ordmasculine" unicode="&#xba;" horiz-adv-x="336" 
d="M301 586q0 -75 -42.5 -133t-115.5 -58q-52 0 -79 30t-27 81q0 75 43.5 134.5t115.5 59.5q51 0 78 -31.5t27 -82.5zM253 584q0 81 -63 81q-35 0 -60 -27t-35.5 -61t-10.5 -68q0 -80 63 -80q51 0 78.5 49.5t27.5 105.5z" />
    <glyph glyph-name="guillemotright" unicode="&#xbb;" horiz-adv-x="450" 
d="M375 227q0 -10 -10 -21l-128 -143q-6 -6 -10 -6q-3 0 -5 1l-14 9q-4 3 -4 8q0 4 2 6l107 141l-55 146q-1 2 -1 5q0 7 7 10l15 9q5 3 7 3q6 0 9 -8l75 -143q5 -10 5 -17zM211 227q0 -10 -10 -21l-128 -143q-6 -6 -10 -6q-3 0 -5 1l-14 9q-4 3 -4 8q0 4 2 6l107 141
l-55 146q-1 2 -1 5q0 7 7 10l15 9q4 3 7 3q6 0 9 -8l75 -143q5 -10 5 -17z" />
    <glyph glyph-name="onequarter" unicode="&#xbc;" horiz-adv-x="729" 
d="M254 698q0 -1 -0.5 -3.5t-0.5 -4.5l-59 -331q-3 -14 -16 -14h-21q-12 0 -12 11q0 6 1 9l51 289l-73 -43q-8 -4 -10 -4q-5 0 -9 7l-7 14q-1 1 -1 4q0 6 8 11l101 60q7 5 20 5h18q10 0 10 -10zM660 714q0 -4 -4 -10l-548 -719q-10 -13 -21 -13h-38q-9 0 -9 6q0 4 3 7
l548 717q12 17 28 17h33q8 0 8 -5zM641 198q0 -2 -2 -12l-34 -184q-2 -11 -14 -11h-24q-12 0 -12 10q0 1 0.5 3t0.5 4l13 66h-155q-12 0 -12 8v12q0 11 10 25l133 216q8 14 18 14h24q12 0 12 -6q0 -5 -5 -13l-129 -212h112l14 71q3 17 14 17h27q9 0 9 -8z" />
    <glyph glyph-name="onehalf" unicode="&#xbd;" horiz-adv-x="729" 
d="M678 302q0 -9 -1 -13q-1 -8 -5 -24q-16 -57 -105 -143q-35 -34 -90 -82h141q13 0 13 -8v-2l-5 -20q-2 -10 -14 -10h-188q-14 0 -14 9v3l3 18q1 6 9 14q7 7 39.5 36t56 51.5t43.5 43.5q54 57 63 96q1 3 1 9q1 4 1 12q0 22 -14 35t-37 13q-32 0 -72 -20q-6 -3 -10 -3t-7 7
l-5 13q-1 2 -1 5q0 5 10 12q46 26 98 26q40 0 65 -20.5t25 -57.5zM254 698q0 -1 -0.5 -3.5t-0.5 -4.5l-59 -331q-3 -14 -16 -14h-21q-12 0 -12 11q0 6 1 9l51 289l-73 -43q-8 -4 -10 -4q-5 0 -9 7l-7 14q-1 1 -1 4q0 6 8 11l101 60q7 5 20 5h18q10 0 10 -10zM660 714
q0 -4 -4 -10l-548 -719q-10 -13 -21 -13h-38q-9 0 -9 6q0 4 3 7l548 717q12 17 28 17h33q8 0 8 -5z" />
    <glyph glyph-name="threequarters" unicode="&#xbe;" horiz-adv-x="729" 
d="M660 714q0 -4 -4 -10l-548 -719q-10 -13 -21 -13h-38q-9 0 -9 6q0 4 3 7l548 717q12 17 28 17h33q8 0 8 -5zM641 198q0 -2 -2 -12l-34 -184q-2 -11 -14 -11h-24q-12 0 -12 10q0 1 0.5 3t0.5 4l13 66h-155q-12 0 -12 8v12q0 11 10 25l133 216q8 14 18 14h24q12 0 12 -6
q0 -5 -5 -13l-129 -212h112l14 71q3 17 14 17h27q9 0 9 -8zM282 633q0 -31 -20 -60t-49 -42q50 -18 50 -77q0 -1 -0.5 -5t-0.5 -6t-1 -7t-1 -8q-11 -47 -51 -76t-87 -29q-44 0 -77 15q-7 4 -7 10q0 3 1 4l8 20q2 5 9 5q3 0 7 -2q27 -12 62 -12q32 0 55.5 17.5t31.5 47.5
q0 2 1 5.5t1 5.5q1 4 1 12q0 29 -20 44t-53 15h-11q-10 0 -10 9v3q1 15 2 16q2 10 11 10h15q39 0 61 20t22 58q0 43 -53 43q-27 0 -58 -14q-8 -4 -13 -4t-6 5l-5 18v2q0 7 12 13q37 19 85 19q37 0 62.5 -20t25.5 -55z" />
    <glyph glyph-name="questiondown" unicode="&#xbf;" horiz-adv-x="407" 
d="M409 459q0 -21 -16 -36.5t-37 -15.5q-16 0 -27 9.5t-11 25.5q0 21 16.5 36.5t37.5 15.5q16 0 26.5 -9.5t10.5 -25.5zM361 292q0 -7 -2 -17q-5 -38 -23.5 -71.5t-35 -51t-50.5 -49.5l-80 -74q-51 -46 -51 -112q0 -41 28 -62.5t70 -21.5q53 0 113 31q6 3 7 3q5 0 7 -6
l8 -28v-2q0 -5 -10 -11q-67 -37 -145 -37q-60 0 -98.5 32t-38.5 90q0 85 70 152l71 67q4 4 21.5 20t23 22t17.5 19t19 25t13 26q12 29 14 52q2 13 12 13h31q9 0 9 -9z" />
    <glyph glyph-name="Agrave" unicode="&#xc0;" horiz-adv-x="583" 
d="M509 13q0 -13 -10 -13h-51q-13 0 -14 12l-33 200h-269l-107 -202q-6 -10 -16 -10h-45q-9 0 -9 5t2 8l360 663q7 13 17 13h40q11 0 13 -12l122 -660v-4zM392 265l-42 252q-7 41 -13 87h-2q-5 -15 -44 -88l-133 -251h234zM434 769q0 -4 -2 -6l-11 -16q-3 -5 -8 -5
q-1 0 -5 2l-132 84q-5 3 -5 9q0 4 2 6l24 30q5 7 11 7q3 0 6 -3l117 -103q3 -3 3 -5z" />
    <glyph glyph-name="Aacute" unicode="&#xc1;" horiz-adv-x="583" 
d="M509 13q0 -13 -10 -13h-51q-13 0 -14 12l-33 200h-269l-107 -202q-6 -10 -16 -10h-45q-9 0 -9 5t2 8l360 663q7 13 17 13h40q11 0 13 -12l122 -660v-4zM392 265l-42 252q-7 41 -13 87h-2q-5 -15 -44 -88l-133 -251h234zM462 833q0 -6 -5 -9l-132 -84q-4 -2 -6 -2
q-4 0 -7 5l-11 16q-3 3 -3 6q0 2 4 5l117 103q3 3 6 3q4 0 11 -7l24 -30q2 -4 2 -6z" />
    <glyph glyph-name="Acircumflex" unicode="&#xc2;" horiz-adv-x="583" 
d="M509 13q0 -13 -10 -13h-51q-13 0 -14 12l-33 200h-269l-107 -202q-6 -10 -16 -10h-45q-9 0 -9 5t2 8l360 663q7 13 17 13h40q11 0 13 -12l122 -660v-4zM392 265l-42 252q-7 41 -13 87h-2q-5 -15 -44 -88l-133 -251h234zM477 762q0 -2 -2 -4l-18 -14q-2 -2 -5 -2
q-4 0 -9 5l-75 72l-104 -77q-4 -3 -7 -3t-5 2l-13 12q-2 2 -2 5q0 6 5 10l115 105q5 5 14 5h14q7 0 11 -5l77 -103q4 -6 4 -8z" />
    <glyph glyph-name="Atilde" unicode="&#xc3;" horiz-adv-x="583" 
d="M509 13q0 -13 -10 -13h-51q-13 0 -14 12l-33 200h-269l-107 -202q-6 -10 -16 -10h-45q-9 0 -9 5t2 8l360 663q7 13 17 13h40q11 0 13 -12l122 -660v-4zM392 265l-42 252q-7 41 -13 87h-2q-5 -15 -44 -88l-133 -251h234zM518 807q0 -3 -7 -10q-61 -50 -104 -50
q-18 0 -48 22.5t-49 22.5q-22 0 -75 -32q-4 -2 -5 -2q-5 0 -8 7l-9 19q-2 4 -2 7q0 6 9 12q59 39 97 39q20 0 51.5 -22.5t46.5 -22.5q26 0 75 38q4 2 5 2q6 0 10 -7l10 -15q3 -4 3 -8z" />
    <glyph glyph-name="Adieresis" unicode="&#xc4;" horiz-adv-x="583" 
d="M509 13q0 -13 -10 -13h-51q-13 0 -14 12l-33 200h-269l-107 -202q-6 -10 -16 -10h-45q-9 0 -9 5t2 8l360 663q7 13 17 13h40q11 0 13 -12l122 -660v-4zM392 265l-42 252q-7 41 -13 87h-2q-5 -15 -44 -88l-133 -251h234zM479 795q0 -20 -14.5 -35t-33.5 -15
q-15 0 -25.5 9.5t-10.5 24.5q0 20 15 33.5t35 13.5q15 0 24.5 -8t9.5 -23zM317 795q0 -20 -15 -35t-34 -15q-15 0 -25.5 9.5t-10.5 24.5q0 20 14.5 33.5t35.5 13.5q15 0 25 -8.5t10 -22.5z" />
    <glyph glyph-name="Aring" unicode="&#xc5;" horiz-adv-x="583" 
d="M509 13q0 -13 -10 -13h-51q-13 0 -14 12l-33 200h-269l-107 -202q-6 -10 -16 -10h-45q-9 0 -9 5t2 8l360 663q7 13 17 13h40q11 0 13 -12l122 -660v-4zM392 265l-42 252q-7 41 -13 87h-2q-5 -15 -44 -88l-133 -251h234zM455 840q0 -38 -30 -68t-68 -30q-30 0 -50.5 20
t-20.5 50q0 38 31 67t69 29q30 0 49.5 -19t19.5 -49zM415 833q0 16 -10 25.5t-26 9.5q-21 0 -36.5 -14.5t-15.5 -35.5q0 -16 10.5 -25.5t26.5 -9.5q20 0 35.5 15t15.5 35z" />
    <glyph glyph-name="AE" unicode="&#xc6;" horiz-adv-x="857" 
d="M865 681l-1 -1v-3l-9 -30q-4 -12 -20 -12h-269l-44 -246h239q12 0 12 -8v-3l-5 -29q-3 -13 -16 -13h-239l-50 -283h279q11 0 11 -9v-4l-4 -26q-2 -14 -16 -14h-329q-15 0 -15 11v5l34 195h-239l-155 -197q-11 -14 -22 -14h-46q-7 0 -7 6q0 4 4 10l516 650q18 23 39 23
h340q12 0 12 -8zM493 608l-270 -346h209z" />
    <glyph glyph-name="Ccedilla" unicode="&#xc7;" horiz-adv-x="564" 
d="M583 649q0 -2 -2 -6l-20 -34q-4 -6 -9 -6h-3l-9 6q-58 34 -132 34q-68 0 -125 -35.5t-92.5 -92t-55 -121.5t-19.5 -129q0 -97 44.5 -157.5t140.5 -60.5q70 0 149 33q7 4 13 5q1 0 3 1q6 0 8 -8l7 -31q0 -1 1 -3q0 -8 -14 -14q-91 -42 -186 -40h-6l-10 -41h11
q33 0 54.5 -13.5t21.5 -41.5q0 -33 -22 -57q-31 -34 -84 -34q-24 0 -51 10q-9 4 -9 7t1 5l6 13q1 4 6 4t7 -1q24 -8 44 -8q33 0 50 23q10 13 10 31q0 34 -58 34h-13q-13 0 -13 11q0 1 0.5 2.5t0.5 2.5q0 2 1.5 7t2.5 8l10 40q-99 12 -150.5 81.5t-51.5 178.5q0 108 43 209
t130 170t198 69q101 0 166 -43q6 -5 6 -8z" />
    <glyph glyph-name="Egrave" unicode="&#xc8;" horiz-adv-x="491" 
d="M500 681v-4l-9 -32q-4 -11 -19 -11h-270l-43 -247h237q13 0 13 -9v-3l-6 -30q-3 -13 -16 -13h-238l-49 -276h280q12 0 12 -9v-3l-6 -31q-3 -13 -17 -13h-329q-15 0 -15 11q0 4 1 6l115 654q3 18 21 18h329q9 0 9 -8zM417 770q0 -4 -2 -6l-11 -16q-3 -5 -8 -5q-1 0 -5 2
l-132 84q-5 3 -5 9q0 4 2 6l24 30q5 7 11 7q3 0 6 -3l117 -103q3 -3 3 -5z" />
    <glyph glyph-name="Eacute" unicode="&#xc9;" horiz-adv-x="491" 
d="M500 681v-4l-9 -32q-4 -11 -19 -11h-270l-43 -247h237q13 0 13 -9v-3l-6 -30q-3 -13 -16 -13h-238l-49 -276h280q12 0 12 -9v-3l-6 -31q-3 -13 -17 -13h-329q-15 0 -15 11q0 4 1 6l115 654q3 18 21 18h329q9 0 9 -8zM443 834q0 -6 -5 -9l-132 -84q-4 -2 -6 -2q-4 0 -7 5
l-11 16q-3 3 -3 6q0 2 4 5l117 103q3 3 6 3q4 0 11 -7l24 -30q2 -4 2 -6z" />
    <glyph glyph-name="Ecircumflex" unicode="&#xca;" horiz-adv-x="491" 
d="M500 681v-4l-9 -32q-4 -11 -19 -11h-270l-43 -247h237q13 0 13 -9v-3l-6 -30q-3 -13 -16 -13h-238l-49 -276h280q12 0 12 -9v-3l-6 -31q-3 -13 -17 -13h-329q-15 0 -15 11q0 4 1 6l115 654q3 18 21 18h329q9 0 9 -8zM455 763q0 -2 -2 -4l-18 -14q-2 -2 -5 -2q-4 0 -9 5
l-75 72l-104 -77q-5 -3 -7 -3q-3 0 -5 2l-13 12q-2 2 -2 5q0 6 5 10l115 105q5 5 14 5h14q7 0 11 -5l77 -103q4 -6 4 -8z" />
    <glyph glyph-name="Edieresis" unicode="&#xcb;" horiz-adv-x="491" 
d="M500 681v-4l-9 -32q-4 -11 -19 -11h-270l-43 -247h237q13 0 13 -9v-3l-6 -30q-3 -13 -16 -13h-238l-49 -276h280q12 0 12 -9v-3l-6 -31q-3 -13 -17 -13h-329q-15 0 -15 11q0 4 1 6l115 654q3 18 21 18h329q9 0 9 -8zM458 797q0 -20 -14.5 -35t-33.5 -15q-15 0 -25.5 9.5
t-10.5 24.5q0 20 15 33.5t35 13.5q15 0 24.5 -8t9.5 -23zM296 797q0 -20 -15 -35t-34 -15q-15 0 -25.5 9.5t-10.5 24.5q0 20 14.5 33.5t35.5 13.5q15 0 25 -8.5t10 -22.5z" />
    <glyph glyph-name="Igrave" unicode="&#xcc;" horiz-adv-x="356" 
d="M346 681v-2l-4 -24q-1 -12 -13 -12h-67l-105 -597h67q9 0 9 -7q0 -1 -0.5 -2t-0.5 -2l-5 -25q-2 -10 -12 -10h-195q-9 0 -9 8v2l4 26q1 10 13 10h62l105 597h-66q-9 0 -9 7v4l5 25q2 10 12 10h199q10 0 10 -8zM326 767q0 -4 -2 -6l-11 -16q-3 -5 -8 -5q-1 0 -5 2l-132 84
q-5 2 -5 9q0 4 2 6l24 30q5 7 11 7q3 0 6 -3l117 -103q3 -3 3 -5z" />
    <glyph glyph-name="Iacute" unicode="&#xcd;" horiz-adv-x="356" 
d="M346 681v-2l-4 -24q-1 -12 -13 -12h-67l-105 -597h67q9 0 9 -7q0 -1 -0.5 -2t-0.5 -2l-5 -25q-2 -10 -12 -10h-195q-9 0 -9 8v2l4 26q1 10 13 10h62l105 597h-66q-9 0 -9 7v4l5 25q2 10 12 10h199q10 0 10 -8zM378 835q0 -6 -5 -9l-132 -84q-4 -2 -6 -2q-4 0 -7 5l-11 16
q-3 3 -3 6q0 2 4 5l117 103q3 3 6 3q4 0 11 -7l24 -30q2 -4 2 -6z" />
    <glyph glyph-name="Icircumflex" unicode="&#xce;" horiz-adv-x="356" 
d="M346 681v-2l-4 -24q-1 -12 -13 -12h-67l-105 -597h67q9 0 9 -7q0 -1 -0.5 -2t-0.5 -2l-5 -25q-2 -10 -12 -10h-195q-9 0 -9 8v2l4 26q1 10 13 10h62l105 597h-66q-9 0 -9 7v4l5 25q2 10 12 10h199q10 0 10 -8zM372 769q0 -2 -2 -4l-18 -14q-2 -2 -5 -2q-4 0 -9 5l-75 72
l-104 -77q-5 -3 -7 -3q-3 0 -5 2l-13 12q-2 2 -2 5q0 6 5 10l115 105q5 5 14 5h14q7 0 11 -5l77 -103q4 -6 4 -8z" />
    <glyph glyph-name="Idieresis" unicode="&#xcf;" horiz-adv-x="356" 
d="M346 681v-2l-4 -24q-1 -12 -13 -12h-67l-105 -597h67q9 0 9 -7q0 -1 -0.5 -2t-0.5 -2l-5 -25q-2 -10 -12 -10h-195q-9 0 -9 8v2l4 26q1 10 13 10h62l105 597h-66q-9 0 -9 7v4l5 25q2 10 12 10h199q10 0 10 -8zM373 796q0 -20 -14.5 -35t-33.5 -15q-15 0 -25.5 9.5
t-10.5 24.5q0 20 15 33.5t35 13.5q15 0 24.5 -8t9.5 -23zM211 796q0 -20 -15 -35t-34 -15q-15 0 -25.5 9.5t-10.5 24.5q0 20 14.5 33.5t35.5 13.5q15 0 25 -8.5t10 -22.5z" />
    <glyph glyph-name="Eth" unicode="&#xd0;" horiz-adv-x="646" 
d="M603 433q0 -106 -38 -202.5t-114 -158.5q-91 -72 -247 -72h-162q-17 0 -17 14q0 9 1 12l55 310h-66q-13 0 -13 7v3l7 29q1 7 13 7h67l51 288q2 11 6 15t16 4h120q94 0 146.5 -10.5t90.5 -39.5q84 -62 84 -206zM529 423q0 108 -52 160q-49 49 -178 49h-98l-44 -250h121
q9 0 9 -8l-1 -2v-2l-6 -25q-2 -9 -14 -9h-117l-49 -279h89q70 0 116.5 9t84.5 36q68 48 103.5 138t35.5 183z" />
    <glyph glyph-name="Ntilde" unicode="&#xd1;" horiz-adv-x="673" 
d="M648 680v-5l-117 -660q-4 -15 -15 -15h-33q-13 0 -20 15l-275 553h-1l-97 -553q-4 -15 -17 -15h-36q-13 0 -13 9q0 3 1 5l117 661q1 14 16 14h33q10 0 17 -11l276 -554h2l97 551q2 14 15 14h41q9 0 9 -9zM562 804q0 -3 -7 -10q-61 -50 -104 -50q-18 0 -48 22.5t-49 22.5
q-22 0 -75 -32q-4 -2 -5 -2q-5 0 -8 7l-9 19q-2 4 -2 7q0 6 9 12q59 39 97 39q20 0 51.5 -22.5t46.5 -22.5q26 0 75 38q4 2 5 2q6 0 10 -7l10 -15q3 -4 3 -8z" />
    <glyph glyph-name="Ograve" unicode="&#xd2;" horiz-adv-x="644" 
d="M605 450q0 -78 -22.5 -157.5t-65 -148t-111.5 -111.5t-153 -43q-108 0 -161.5 67t-53.5 180q0 91 30.5 185.5t87.5 162.5q95 115 234 115q109 0 162 -69t53 -181zM531 448q0 194 -151 194q-65 0 -118.5 -40t-85 -102t-48 -129t-16.5 -128q0 -87 36 -141.5t116 -54.5
q66 0 119.5 40t84.5 102.5t47 129.5t16 129zM466 768q0 -4 -2 -6l-11 -16q-3 -5 -8 -5q-1 0 -5 2l-132 84q-5 3 -5 9q0 4 2 6l24 30q5 7 11 7q3 0 6 -3l117 -103q3 -3 3 -5z" />
    <glyph glyph-name="Oacute" unicode="&#xd3;" horiz-adv-x="644" 
d="M605 450q0 -78 -22.5 -157.5t-65 -148t-111.5 -111.5t-153 -43q-108 0 -161.5 67t-53.5 180q0 91 30.5 185.5t87.5 162.5q95 115 234 115q109 0 162 -69t53 -181zM531 448q0 194 -151 194q-65 0 -118.5 -40t-85 -102t-48 -129t-16.5 -128q0 -87 36 -141.5t116 -54.5
q66 0 119.5 40t84.5 102.5t47 129.5t16 129zM535 838q0 -6 -5 -9l-132 -84q-4 -2 -6 -2q-4 0 -7 5l-11 16q-3 3 -3 6q0 2 4 5l117 103q3 3 6 3q4 0 11 -7l24 -30q2 -4 2 -6z" />
    <glyph glyph-name="Ocircumflex" unicode="&#xd4;" horiz-adv-x="644" 
d="M605 450q0 -78 -22.5 -157.5t-65 -148t-111.5 -111.5t-153 -43q-108 0 -161.5 67t-53.5 180q0 91 30.5 185.5t87.5 162.5q95 115 234 115q109 0 162 -69t53 -181zM531 448q0 194 -151 194q-65 0 -118.5 -40t-85 -102t-48 -129t-16.5 -128q0 -87 36 -141.5t116 -54.5
q66 0 119.5 40t84.5 102.5t47 129.5t16 129zM526 764q0 -2 -2 -4l-18 -14q-2 -2 -5 -2q-4 0 -9 5l-75 72l-104 -77q-5 -3 -7 -3q-3 0 -5 2l-13 12q-2 2 -2 5q0 6 5 10l115 105q5 5 14 5h14q7 0 11 -5l77 -103q4 -6 4 -8z" />
    <glyph glyph-name="Otilde" unicode="&#xd5;" horiz-adv-x="644" 
d="M605 450q0 -78 -22.5 -157.5t-65 -148t-111.5 -111.5t-153 -43q-108 0 -161.5 67t-53.5 180q0 91 30.5 185.5t87.5 162.5q95 115 234 115q109 0 162 -69t53 -181zM531 448q0 194 -151 194q-65 0 -118.5 -40t-85 -102t-48 -129t-16.5 -128q0 -87 36 -141.5t116 -54.5
q66 0 119.5 40t84.5 102.5t47 129.5t16 129zM588 805q0 -3 -7 -10q-61 -50 -104 -50q-18 0 -48 22.5t-49 22.5q-22 0 -75 -32q-4 -2 -5 -2q-5 0 -8 7l-9 19q-2 4 -2 7q0 6 9 12q58 39 97 39q20 0 51.5 -22.5t46.5 -22.5q26 0 75 38q4 2 5 2q6 0 10 -7l10 -15q3 -5 3 -8z" />
    <glyph glyph-name="Odieresis" unicode="&#xd6;" horiz-adv-x="644" 
d="M605 450q0 -78 -22.5 -157.5t-65 -148t-111.5 -111.5t-153 -43q-108 0 -161.5 67t-53.5 180q0 91 30.5 185.5t87.5 162.5q95 115 234 115q109 0 162 -69t53 -181zM531 448q0 194 -151 194q-65 0 -118.5 -40t-85 -102t-48 -129t-16.5 -128q0 -87 36 -141.5t116 -54.5
q66 0 119.5 40t84.5 102.5t47 129.5t16 129zM528 794q0 -20 -14.5 -35t-33.5 -15q-15 0 -25.5 9.5t-10.5 24.5q0 20 15 33.5t35 13.5q15 0 24.5 -8t9.5 -23zM366 794q0 -20 -15 -35t-34 -15q-15 0 -25.5 9.5t-10.5 24.5q0 20 14.5 33.5t35.5 13.5q15 0 25 -8.5t10 -22.5z
" />
    <glyph glyph-name="multiply" unicode="&#xd7;" horiz-adv-x="496" 
d="M418 383q0 -1 -2 -5q-6 -11 -13 -15l-112 -101l83 -111q4 -5 4 -9v-1q-1 -3 -6 -8l-25 -22q-4 -4 -9 -4t-9 5l-85 111l-121 -109q-7 -6 -11 -6q-6 0 -9 5l-16 20q-3 3 -3 8q0 1 3 5l7 7q6 7 7 8l111 100l-83 111q-4 5 -4 10v1q2 5 7 9l22 19q6 6 12 6q4 0 8 -6l85 -110
l121 108q9 7 11 7q3 0 8 -5l16 -19q3 -4 3 -9z" />
    <glyph glyph-name="Oslash" unicode="&#xd8;" horiz-adv-x="663" 
d="M654 702q0 -2 -4 -8l-68 -84q38 -62 38 -158q0 -79 -22.5 -158.5t-65 -148.5t-111.5 -112t-153 -43q-93 0 -148 52l-56 -70q-8 -9 -13 -9q-3 0 -9 4l-13 10q-6 5 -6 9q0 3 6 11l63 79q-40 60 -40 153q0 80 22.5 160.5t64 151t111 115t153.5 44.5q96 0 151 -57l60 74
q7 8 11 8q2 0 6 -2l17 -12q6 -5 6 -9zM508 589q-39 54 -117 54q-64 0 -116.5 -39.5t-83.5 -100t-47.5 -126t-16.5 -123.5q0 -68 21 -113zM545 439q0 67 -17 109l-361 -451q39 -50 115 -50q64 0 116.5 39.5t83.5 100t47 126.5t16 126z" />
    <glyph glyph-name="Ugrave" unicode="&#xd9;" horiz-adv-x="678" 
d="M660 680q0 -2 -0.5 -4.5t-0.5 -3.5l-66 -373q-28 -157 -106 -233t-207 -76q-216 0 -216 189q0 43 14 127l65 368q3 15 17 15h38q12 0 12 -11q0 -6 -1 -9l-62 -356q-14 -81 -14 -118q0 -73 36.5 -110t122.5 -37q48 0 86 15.5t62.5 39.5t42.5 60.5t28 71.5t18 81l63 360
q2 13 14 13h45q9 0 9 -9zM469 759q0 -4 -2 -6l-11 -16q-3 -5 -8 -5q-1 0 -5 2l-132 84q-5 2 -5 9q0 4 2 6l24 30q5 7 11 7q3 0 6 -3l117 -103q3 -3 3 -5z" />
    <glyph glyph-name="Uacute" unicode="&#xda;" horiz-adv-x="678" 
d="M660 680q0 -2 -0.5 -4.5t-0.5 -3.5l-66 -373q-28 -157 -106 -233t-207 -76q-216 0 -216 189q0 43 14 127l65 368q3 15 17 15h38q12 0 12 -11q0 -6 -1 -9l-62 -356q-14 -81 -14 -118q0 -73 36.5 -110t122.5 -37q48 0 86 15.5t62.5 39.5t42.5 60.5t28 71.5t18 81l63 360
q2 13 14 13h45q9 0 9 -9zM519 823q0 -6 -5 -9l-132 -84q-4 -2 -6 -2q-4 0 -7 5l-11 16q-3 3 -3 6q0 2 4 5l117 103q3 3 6 3q4 0 11 -7l24 -30q2 -4 2 -6z" />
    <glyph glyph-name="Ucircumflex" unicode="&#xdb;" horiz-adv-x="678" 
d="M660 680q0 -2 -0.5 -4.5t-0.5 -3.5l-66 -373q-28 -157 -106 -233t-207 -76q-216 0 -216 189q0 43 14 127l65 368q3 15 17 15h38q12 0 12 -11q0 -6 -1 -9l-62 -356q-14 -81 -14 -118q0 -73 36.5 -110t122.5 -37q48 0 86 15.5t62.5 39.5t42.5 60.5t28 71.5t18 81l63 360
q2 13 14 13h45q9 0 9 -9zM524 759q0 -2 -2 -4l-18 -14q-2 -2 -5 -2q-4 0 -9 5l-75 72l-104 -77q-5 -3 -7 -3q-3 0 -5 2l-13 12q-2 2 -2 5q0 6 5 10l115 105q5 5 14 5h14q7 0 11 -5l77 -103q4 -6 4 -8z" />
    <glyph glyph-name="Udieresis" unicode="&#xdc;" horiz-adv-x="678" 
d="M660 680q0 -2 -0.5 -4.5t-0.5 -3.5l-66 -373q-28 -157 -106 -233t-207 -76q-216 0 -216 189q0 43 14 127l65 368q3 15 17 15h38q12 0 12 -11q0 -6 -1 -9l-62 -356q-14 -81 -14 -118q0 -73 36.5 -110t122.5 -37q48 0 86 15.5t62.5 39.5t42.5 60.5t28 71.5t18 81l63 360
q2 13 14 13h45q9 0 9 -9zM526 797q0 -20 -14.5 -35t-33.5 -15q-15 0 -25.5 9.5t-10.5 24.5q0 20 15 33.5t35 13.5q15 0 24.5 -8t9.5 -23zM364 797q0 -20 -15 -35t-34 -15q-15 0 -25.5 9.5t-10.5 24.5q0 20 14.5 33.5t35.5 13.5q15 0 25 -8.5t10 -22.5z" />
    <glyph glyph-name="Yacute" unicode="&#xdd;" horiz-adv-x="529" 
d="M562 683q0 -3 -3 -8l-267 -403l-45 -257q-3 -15 -17 -15h-39q-13 0 -13 9q0 4 1 6l45 254l-134 404q-1 2 -1 4q0 12 14 12h40q17 0 21 -13l107 -345h1l220 343q9 15 24 15h37q9 0 9 -6zM419 825q0 -5 -5 -9l-132 -84q-4 -2 -5 -2q-5 0 -8 5l-11 16l-2 6q0 2 3 5l117 103
q3 3 6 3q7 0 11 -7l24 -30q2 -2 2 -6z" />
    <glyph glyph-name="Thorn" unicode="&#xde;" horiz-adv-x="522" 
d="M463 356q0 -115 -69 -201.5t-185 -86.5q-41 0 -75 18t-49 50l-23 -121q-3 -15 -14 -15h-36q-15 0 -11 16l108 606q2 13 11 13h41q11 0 11 -9v-2l-32 -164q30 34 74.5 53.5t90.5 19.5q80 0 119 -47.5t39 -129.5zM396 357q0 124 -112 124q-36 0 -79 -22t-73 -55l-35 -203
q12 -37 39.5 -59.5t66.5 -22.5q94 0 143.5 71t49.5 167z" />
    <glyph glyph-name="germandbls" unicode="&#xdf;" horiz-adv-x="546" 
d="M501 584q0 -67 -41 -124.5t-105 -73.5v-1q60 -7 95.5 -47.5t35.5 -99.5q0 -92 -58 -160q-35 -41 -87.5 -64t-111.5 -23q-36 0 -50 4q-8 2 -6 11l5 24q2 11 14 11q6 0 18 -0.5t19 -0.5q82 0 137.5 56.5t55.5 137.5q0 60 -42.5 91t-100.5 31h-30q-12 0 -11 11l4 23
q1 10 12 10h13q72 0 120.5 52t48.5 124q0 47 -28.5 70.5t-79.5 23.5q-41 0 -71 -16t-47.5 -46t-27 -59.5t-16.5 -70.5l-99 -558q-3 -15 -14 -15h-38q-13 0 -10 15l87 491q18 100 32 148t41 83q60 77 171 77q73 0 119 -34.5t46 -100.5z" />
    <glyph glyph-name="agrave" unicode="&#xe0;" horiz-adv-x="523" 
d="M483 31q0 -8 -11 -15q-32 -20 -67 -20q-46 0 -46 52q0 6 3 33h-2q-26 -38 -70.5 -64.5t-99.5 -26.5q-78 0 -115.5 52t-37.5 136q0 61 23.5 124t65.5 110q74 82 175 82q87 0 172 -49q8 -5 8 -12v-4l-59 -326q-5 -32 -5 -37q0 -21 16 -21q13 0 37 13q4 2 5 2q7 0 7 -7z
M414 408q-42 35 -112 35q-69 0 -122 -58q-36 -41 -56.5 -99t-20.5 -111q0 -62 27.5 -98t75.5 -36q55 0 96.5 31.5t65.5 80.5zM385 590q0 -4 -2 -6l-11 -16q-3 -5 -8 -5q-1 0 -5 2l-132 84q-5 3 -5 9q0 4 2 6l24 30q5 7 11 7q3 0 6 -3l117 -103q3 -3 3 -5z" />
    <glyph glyph-name="aacute" unicode="&#xe1;" horiz-adv-x="523" 
d="M483 31q0 -8 -11 -15q-32 -20 -67 -20q-46 0 -46 52q0 6 3 33h-2q-26 -38 -70.5 -64.5t-99.5 -26.5q-78 0 -115.5 52t-37.5 136q0 61 23.5 124t65.5 110q74 82 175 82q87 0 172 -49q8 -5 8 -12v-4l-59 -326q-5 -32 -5 -37q0 -21 16 -21q13 0 37 13q4 2 5 2q7 0 7 -7z
M414 408q-42 35 -112 35q-69 0 -122 -58q-36 -41 -56.5 -99t-20.5 -111q0 -62 27.5 -98t75.5 -36q55 0 96.5 31.5t65.5 80.5zM429 658q0 -6 -5 -9l-132 -84q-4 -2 -6 -2q-4 0 -7 5l-11 16q-3 3 -3 6q0 2 4 5l117 103q3 3 6 3q4 0 11 -7l24 -30q2 -4 2 -6z" />
    <glyph glyph-name="acircumflex" unicode="&#xe2;" horiz-adv-x="523" 
d="M483 31q0 -8 -11 -15q-32 -20 -67 -20q-46 0 -46 52q0 6 3 33h-2q-26 -38 -70.5 -64.5t-99.5 -26.5q-78 0 -115.5 52t-37.5 136q0 61 23.5 124t65.5 110q74 82 175 82q87 0 172 -49q8 -5 8 -12v-4l-59 -326q-5 -32 -5 -37q0 -21 16 -21q13 0 37 13q4 2 5 2q7 0 7 -7z
M414 408q-42 35 -112 35q-69 0 -122 -58q-36 -41 -56.5 -99t-20.5 -111q0 -62 27.5 -98t75.5 -36q55 0 96.5 31.5t65.5 80.5zM453 584q0 -2 -2 -4l-18 -14q-2 -2 -5 -2q-4 0 -9 5l-75 72l-104 -77q-4 -3 -7 -3t-5 2l-13 12q-2 2 -2 5q0 6 5 10l115 105q5 5 14 5h14
q7 0 11 -5l77 -103q4 -6 4 -8z" />
    <glyph glyph-name="atilde" unicode="&#xe3;" horiz-adv-x="523" 
d="M483 31q0 -8 -11 -15q-32 -20 -67 -20q-46 0 -46 52q0 6 3 33h-2q-26 -38 -70.5 -64.5t-99.5 -26.5q-78 0 -115.5 52t-37.5 136q0 61 23.5 124t65.5 110q74 82 175 82q87 0 172 -49q8 -5 8 -12v-4l-59 -326q-5 -32 -5 -37q0 -21 16 -21q13 0 37 13q4 2 5 2q7 0 7 -7z
M414 408q-42 35 -112 35q-69 0 -122 -58q-36 -41 -56.5 -99t-20.5 -111q0 -62 27.5 -98t75.5 -36q55 0 96.5 31.5t65.5 80.5zM492 662q0 -3 -7 -10q-61 -50 -104 -50q-18 0 -48 22.5t-49 22.5q-22 0 -75 -32q-4 -2 -5 -2q-5 0 -8 7l-9 19q-2 4 -2 7q0 6 9 12q58 39 97 39
q20 0 51.5 -22.5t46.5 -22.5q26 0 75 38q4 2 5 2q6 0 10 -7l10 -15q3 -4 3 -8z" />
    <glyph glyph-name="adieresis" unicode="&#xe4;" horiz-adv-x="523" 
d="M483 31q0 -8 -11 -15q-32 -20 -67 -20q-46 0 -46 52q0 6 3 33h-2q-26 -38 -70.5 -64.5t-99.5 -26.5q-78 0 -115.5 52t-37.5 136q0 61 23.5 124t65.5 110q74 82 175 82q87 0 172 -49q8 -5 8 -12v-4l-59 -326q-5 -32 -5 -37q0 -21 16 -21q13 0 37 13q4 2 5 2q7 0 7 -7z
M414 408q-42 35 -112 35q-69 0 -122 -58q-36 -41 -56.5 -99t-20.5 -111q0 -62 27.5 -98t75.5 -36q55 0 96.5 31.5t65.5 80.5zM453 669q0 -20 -14.5 -35t-33.5 -15q-15 0 -25.5 9.5t-10.5 24.5q0 20 15 33.5t35 13.5q15 0 24.5 -8t9.5 -23zM291 669q0 -20 -15 -35t-34 -15
q-15 0 -25.5 9.5t-10.5 24.5q0 20 14.5 33.5t35.5 13.5q15 0 25 -8.5t10 -22.5z" />
    <glyph glyph-name="aring" unicode="&#xe5;" horiz-adv-x="523" 
d="M483 31q0 -8 -11 -15q-32 -20 -67 -20q-46 0 -46 52q0 6 3 33h-2q-26 -38 -70.5 -64.5t-99.5 -26.5q-78 0 -115.5 52t-37.5 136q0 61 23.5 124t65.5 110q74 82 175 82q87 0 172 -49q8 -5 8 -12v-4l-59 -326q-5 -32 -5 -37q0 -21 16 -21q13 0 37 13q4 2 5 2q7 0 7 -7z
M414 408q-42 35 -112 35q-69 0 -122 -58q-36 -41 -56.5 -99t-20.5 -111q0 -62 27.5 -98t75.5 -36q55 0 96.5 31.5t65.5 80.5zM426 637q0 -38 -30 -68t-68 -30q-30 0 -50.5 20t-20.5 50q0 38 31 67t69 29q30 0 49.5 -19t19.5 -49zM386 630q0 16 -10 25.5t-26 9.5
q-21 0 -36.5 -14.5t-15.5 -35.5q0 -16 10.5 -25.5t26.5 -9.5q20 0 35.5 15t15.5 35z" />
    <glyph glyph-name="ae" unicode="&#xe6;" horiz-adv-x="755" 
d="M727 334q0 -24 -6 -60q0 -1 -1 -6t-1.5 -7t-1.5 -6.5t-2 -6t-2.5 -4.5t-4 -4.5t-5.5 -2.5t-7 -1h-86h-230q-3 -21 -3 -42q0 -121 90 -145q21 -6 48 -6q60 0 120 20q14 5 15 -7l2 -26q1 -7 -1.5 -9t-11.5 -6q-60 -25 -145 -25q-114 0 -155 83q-87 -84 -199 -84
q-52 0 -88.5 29t-36.5 79t28 90t74 62q71 34 177 34h35l5 29q7 35 7 62q0 32 -14 50q-18 23 -64 23q-60 0 -132 -36q-4 -2 -7 -2q-6 0 -7 6l-6 23v2q0 6 11 13q78 41 157 41q59 0 92 -30q24 -21 24 -62q0 -8 -1 -12q12 23 37 46q66 58 150 58q70 0 108 -44t38 -116zM668 336
q0 48 -24.5 79t-74.5 31q-73 0 -125 -60q-43 -50 -55 -107h272q7 30 7 57zM322 111q-7 31 -7 64q0 32 6 64q-219 0 -238 -108q-2 -14 -2 -19q0 -35 23.5 -54t56.5 -19q41 0 86.5 22t74.5 50z" />
    <glyph glyph-name="ccedilla" unicode="&#xe7;" horiz-adv-x="419" 
d="M435 458q0 -3 -3 -9l-12 -26q-2 -6 -9 -6q-1 0 -14 5q-48 22 -84 22q-67 0 -116 -41t-71 -99.5t-22 -124.5q0 -61 32 -100t97 -39q49 0 104 20q12 4 13 4q6 0 7 -6l4 -24l1 -1v-2q0 -7 -14 -13q-65 -28 -129 -28q-12 0 -32 2l-10 -43h11q33 0 54.5 -13.5t21.5 -41.5
q0 -33 -22 -57q-31 -34 -84 -34q-24 0 -51 10q-10 3 -7 12l5 13q3 8 14 3q24 -8 43 -8q33 0 50 23q10 13 10 31q0 34 -58 34h-13q-16 0 -12 16q0 2 1.5 7t2.5 8l11 46q-117 31 -117 181q0 125 78 220t200 95q64 0 113 -28q7 -4 7 -8z" />
    <glyph glyph-name="egrave" unicode="&#xe8;" horiz-adv-x="483" 
d="M454 336q0 -39 -8 -83q-2 -11 -6.5 -14.5t-16.5 -3.5h-151h-162q-5 -23 -5 -49q0 -66 32.5 -106t102.5 -40q58 0 116 20q19 6 21 -6l2 -23q1 -9 -13 -15q-62 -26 -142 -26q-91 0 -138 50t-47 139q0 141 87 234q76 81 182 81q70 0 108 -42.5t38 -115.5zM395 337
q0 49 -24 78.5t-73 29.5q-73 0 -125 -59q-37 -41 -55 -107h271q6 20 6 58zM372 590q0 -4 -2 -6l-11 -16q-3 -5 -8 -5q-1 0 -5 2l-132 84q-5 3 -5 9q0 4 2 6l24 30q5 7 11 7q3 0 6 -3l117 -103q3 -3 3 -5z" />
    <glyph glyph-name="eacute" unicode="&#xe9;" horiz-adv-x="483" 
d="M454 336q0 -39 -8 -83q-2 -11 -6.5 -14.5t-16.5 -3.5h-151h-162q-5 -23 -5 -49q0 -66 32.5 -106t102.5 -40q58 0 116 20q19 6 21 -6l2 -23q1 -9 -13 -15q-62 -26 -142 -26q-91 0 -138 50t-47 139q0 141 87 234q76 81 182 81q70 0 108 -42.5t38 -115.5zM395 337
q0 49 -24 78.5t-73 29.5q-73 0 -125 -59q-37 -41 -55 -107h271q6 20 6 58zM396 658q0 -6 -5 -9l-132 -84q-4 -2 -6 -2q-4 0 -7 5l-11 16q-3 3 -3 6q0 2 4 5l117 103q3 3 6 3q4 0 11 -7l24 -30q2 -4 2 -6z" />
    <glyph glyph-name="ecircumflex" unicode="&#xea;" horiz-adv-x="483" 
d="M454 336q0 -39 -8 -83q-2 -11 -6.5 -14.5t-16.5 -3.5h-151h-162q-5 -23 -5 -49q0 -66 32.5 -106t102.5 -40q58 0 116 20q19 6 21 -6l2 -23q1 -9 -13 -15q-62 -26 -142 -26q-91 0 -138 50t-47 139q0 141 87 234q76 81 182 81q70 0 108 -42.5t38 -115.5zM395 337
q0 49 -24 78.5t-73 29.5q-73 0 -125 -59q-37 -41 -55 -107h271q6 20 6 58zM426 584q0 -2 -2 -4l-18 -14q-2 -2 -5 -2q-4 0 -9 5l-75 72l-104 -77q-5 -3 -7 -3q-3 0 -5 2l-13 12q-2 2 -2 5q0 6 5 10l115 105q5 5 14 5h14q7 0 11 -5l77 -103q4 -6 4 -8z" />
    <glyph glyph-name="edieresis" unicode="&#xeb;" horiz-adv-x="483" 
d="M454 336q0 -39 -8 -83q-2 -11 -6.5 -14.5t-16.5 -3.5h-151h-162q-5 -23 -5 -49q0 -66 32.5 -106t102.5 -40q58 0 116 20q19 6 21 -6l2 -23q1 -9 -13 -15q-62 -26 -142 -26q-91 0 -138 50t-47 139q0 141 87 234q76 81 182 81q70 0 108 -42.5t38 -115.5zM395 337
q0 49 -24 78.5t-73 29.5q-73 0 -125 -59q-37 -41 -55 -107h271q6 20 6 58zM445 659q0 -20 -14.5 -35t-33.5 -15q-15 0 -25.5 9.5t-10.5 24.5q0 20 15 33.5t35 13.5q15 0 24.5 -8t9.5 -23zM283 659q0 -20 -15 -35t-34 -15q-15 0 -25.5 9.5t-10.5 24.5q0 20 14.5 33.5
t35.5 13.5q15 0 25 -8.5t10 -22.5z" />
    <glyph glyph-name="igrave" unicode="&#xec;" horiz-adv-x="227" 
d="M174 472v-3q-1 -3 -1 -4l-79 -451q-3 -14 -15 -14h-37q-13 0 -11 11q0 1 1 5v4l80 450q3 13 15 13h37q11 0 10 -11zM231 590q0 -4 -2 -6l-11 -16q-3 -5 -8 -5q-1 0 -5 2l-132 84q-5 3 -5 9q0 4 2 6l24 30q5 7 11 7q3 0 6 -3l117 -103q3 -3 3 -5z" />
    <glyph glyph-name="iacute" unicode="&#xed;" horiz-adv-x="227" 
d="M252 658q0 -6 -5 -9l-132 -84q-4 -2 -6 -2q-4 0 -7 5l-11 16q-3 3 -3 6q0 2 4 5l117 103q3 3 6 3q4 0 11 -7l24 -30q2 -4 2 -6zM174 472v-3q-1 -3 -1 -4l-79 -451q-3 -14 -15 -14h-37q-13 0 -11 11q0 1 1 5v4l80 450q3 13 15 13h37q11 0 10 -11z" />
    <glyph glyph-name="icircumflex" unicode="&#xee;" horiz-adv-x="227" 
d="M174 472v-3q-1 -3 -1 -4l-79 -451q-3 -14 -15 -14h-37q-13 0 -11 11q0 1 1 5v4l80 450q3 13 15 13h37q11 0 10 -11zM272 584q0 -2 -2 -4l-18 -14q-2 -2 -5 -2q-4 0 -9 5l-75 72l-104 -77q-4 -3 -7 -3t-5 2l-13 12q-2 2 -2 5q0 6 5 10l115 105q5 5 14 5h14q7 0 11 -5
l77 -103q4 -6 4 -8z" />
    <glyph glyph-name="idieresis" unicode="&#xef;" horiz-adv-x="227" 
d="M174 472v-3q-1 -3 -1 -4l-79 -451q-3 -14 -15 -14h-37q-13 0 -11 11q0 1 1 5v4l80 450q3 13 15 13h37q11 0 10 -11zM283 669q0 -20 -14.5 -35t-33.5 -15q-15 0 -25.5 9.5t-10.5 24.5q0 20 15 33.5t35 13.5q15 0 24.5 -8t9.5 -23zM121 669q0 -20 -15 -35t-34 -15
q-15 0 -25.5 9.5t-10.5 24.5q0 20 14.5 33.5t35.5 13.5q15 0 25 -8.5t10 -22.5z" />
    <glyph glyph-name="eth" unicode="&#xf0;" horiz-adv-x="518" 
d="M457 337q0 -150 -73 -246q-75 -101 -196 -101q-89 0 -130 50.5t-41 133.5q0 152 89 245q72 75 177 75q54 0 85 -33q-22 121 -115 173l-50 -76q-5 -8 -9 -8q-2 0 -6 2l-13 7q-5 3 -5 6q0 1 2 5q35 52 52 78q-63 22 -85 26q-6 2 -6 7q0 1 1 3v1l9 23q2 6 10 6h2q2 -1 3 -1
q37 -4 97 -23l46 69q4 6 8 6h2q2 0 4 -1l13 -7q5 -3 5 -5v-1q0 -1 -2 -5l-45 -69q85 -44 128 -138.5t43 -201.5zM390 303q0 63 -27.5 102.5t-88.5 39.5q-73 0 -123 -57q-34 -39 -52 -95.5t-18 -113.5q0 -63 27 -102t89 -39q67 0 112 45.5t66 116.5q6 19 12 57q3 22 3 46z
" />
    <glyph glyph-name="ntilde" unicode="&#xf1;" horiz-adv-x="525" 
d="M472 369q0 -16 -7 -60l-52 -295q-3 -14 -14 -14h-38q-10 0 -10 10q0 6 1 9l50 285q6 30 6 57q0 79 -88 79q-79 0 -162 -69l-62 -356q-3 -15 -16 -15h-37q-10 0 -10 10q0 2 0.5 4.5t0.5 3.5l80 451q3 14 14 14h36q10 0 10 -10q0 -1 -0.5 -3.5t-0.5 -3.5l-7 -40
q86 68 181 68q125 0 125 -125zM488 662q0 -4 -7 -10q-61 -50 -104 -50q-18 0 -48 22.5t-49 22.5q-22 0 -75 -32q-4 -2 -5 -2q-4 0 -8 7l-9 19q-1 2 -1 7q0 7 8 12q58 39 97 39q21 0 52 -22.5t46 -22.5q26 0 75 38q4 2 5 2q6 0 10 -7l10 -15q3 -4 3 -8z" />
    <glyph glyph-name="ograve" unicode="&#xf2;" horiz-adv-x="517" 
d="M479 309q0 -81 -30 -152.5t-93 -119t-146 -47.5q-87 0 -130 50.5t-43 135.5q0 125 72.5 221.5t194.5 96.5q87 0 131 -50t44 -135zM413 302q0 64 -27.5 103t-88.5 39q-91 0 -142.5 -82t-51.5 -182q0 -141 114 -141q63 0 109.5 43t66.5 101.5t20 118.5zM394 590q0 -4 -2 -6
l-11 -16q-3 -5 -8 -5q-1 0 -5 2l-132 84q-5 3 -5 9q0 4 2 6l24 30q5 7 11 7q3 0 6 -3l117 -103q3 -3 3 -5z" />
    <glyph glyph-name="oacute" unicode="&#xf3;" horiz-adv-x="517" 
d="M479 309q0 -81 -30 -152.5t-93 -119t-146 -47.5q-87 0 -130 50.5t-43 135.5q0 125 72.5 221.5t194.5 96.5q87 0 131 -50t44 -135zM413 302q0 64 -27.5 103t-88.5 39q-91 0 -142.5 -82t-51.5 -182q0 -141 114 -141q63 0 109.5 43t66.5 101.5t20 118.5zM410 658q0 -6 -5 -9
l-132 -84q-4 -2 -6 -2q-4 0 -7 5l-11 16q-3 3 -3 6q0 2 4 5l117 103q3 3 6 3q4 0 11 -7l24 -30q2 -4 2 -6z" />
    <glyph glyph-name="ocircumflex" unicode="&#xf4;" horiz-adv-x="517" 
d="M479 309q0 -81 -30 -152.5t-93 -119t-146 -47.5q-87 0 -130 50.5t-43 135.5q0 125 72.5 221.5t194.5 96.5q87 0 131 -50t44 -135zM413 302q0 64 -27.5 103t-88.5 39q-91 0 -142.5 -82t-51.5 -182q0 -141 114 -141q63 0 109.5 43t66.5 101.5t20 118.5zM432 584q0 -2 -2 -4
l-18 -14q-2 -2 -5 -2q-4 0 -9 5l-75 72l-104 -77q-5 -3 -7 -3q-3 0 -5 2l-13 12q-2 2 -2 5q0 6 5 10l115 105q5 5 14 5h14q7 0 11 -5l77 -103q4 -6 4 -8z" />
    <glyph glyph-name="otilde" unicode="&#xf5;" horiz-adv-x="517" 
d="M479 309q0 -81 -30 -152.5t-93 -119t-146 -47.5q-87 0 -130 50.5t-43 135.5q0 125 72.5 221.5t194.5 96.5q87 0 131 -50t44 -135zM413 302q0 64 -27.5 103t-88.5 39q-91 0 -142.5 -82t-51.5 -182q0 -141 114 -141q63 0 109.5 43t66.5 101.5t20 118.5zM478 662
q0 -3 -7 -10q-61 -50 -104 -50q-18 0 -48 22.5t-49 22.5q-22 0 -75 -32q-4 -2 -5 -2q-5 0 -8 7l-9 19q-2 4 -2 7q0 6 9 12q58 39 97 39q20 0 51.5 -22.5t46.5 -22.5q26 0 75 38q4 2 5 2q6 0 10 -7l10 -15q3 -4 3 -8z" />
    <glyph glyph-name="odieresis" unicode="&#xf6;" horiz-adv-x="517" 
d="M479 309q0 -81 -30 -152.5t-93 -119t-146 -47.5q-87 0 -130 50.5t-43 135.5q0 125 72.5 221.5t194.5 96.5q87 0 131 -50t44 -135zM413 302q0 64 -27.5 103t-88.5 39q-91 0 -142.5 -82t-51.5 -182q0 -141 114 -141q63 0 109.5 43t66.5 101.5t20 118.5zM452 669
q0 -20 -14.5 -35t-33.5 -15q-15 0 -25.5 9.5t-10.5 24.5q0 20 15 33.5t35 13.5q15 0 24.5 -8t9.5 -23zM290 669q0 -20 -15 -35t-34 -15q-15 0 -25.5 9.5t-10.5 24.5q0 20 14.5 33.5t35.5 13.5q15 0 25 -8.5t10 -22.5z" />
    <glyph glyph-name="divide" unicode="&#xf7;" horiz-adv-x="496" 
d="M326 456q0 -22 -16.5 -40t-38.5 -18q-17 0 -29.5 11.5t-12.5 28.5q0 23 17.5 39t40.5 16q17 0 28 -10t11 -27zM442 277l-5 -29q-3 -14 -16 -14h-360q-12 0 -10 13l5 30q2 12 14 12h360q8 0 10.5 -2.5t1.5 -9.5zM262 91q0 -23 -16.5 -39.5t-38.5 -16.5q-17 0 -29.5 10.5
t-12.5 27.5q0 23 17.5 39.5t40.5 16.5q17 0 28 -10.5t11 -27.5z" />
    <glyph glyph-name="oslash" unicode="&#xf8;" horiz-adv-x="522" 
d="M484 491q0 -3 -3 -8l-39 -48q37 -47 37 -126q0 -81 -30 -152.5t-93 -119t-146 -47.5q-61 0 -101 26l-31 -39q-10 -12 -16 -12q-3 0 -5 2l-14 10q-6 4 -6 9q0 4 3 8l39 49q-42 48 -42 133q0 125 72.5 221.5t194.5 96.5q67 0 109 -31l30 37q10 12 16 12q1 0 5 -2l14 -10
q6 -4 6 -9zM376 416q-30 28 -79 28q-91 0 -142.5 -82t-51.5 -182q0 -52 17 -86zM413 302q0 47 -14 79l-254 -320q27 -22 72 -22q63 0 109.5 43t66.5 101.5t20 118.5z" />
    <glyph glyph-name="ugrave" unicode="&#xf9;" horiz-adv-x="518" 
d="M484 473v-1l-1 -2l-80 -455q-3 -15 -15 -15h-36q-10 0 -10 11v1l8 45q-83 -68 -173 -68q-58 0 -91.5 32.5t-33.5 90.5q0 16 6 54l53 304q3 13 15 13h37q11 0 11 -10v-3l-52 -290q-5 -25 -5 -56q0 -81 87 -81q37 0 79 20.5t75 49.5l63 356q3 14 16 14h36q11 0 11 -10z
M380 590q0 -4 -2 -6l-11 -16q-3 -5 -8 -5q-1 0 -5 2l-132 84q-5 3 -5 9q0 4 2 6l24 30q5 7 11 7q3 0 6 -3l117 -103q3 -3 3 -5z" />
    <glyph glyph-name="uacute" unicode="&#xfa;" horiz-adv-x="518" 
d="M484 473v-1l-1 -2l-80 -455q-3 -15 -15 -15h-36q-10 0 -10 11v1l8 45q-83 -68 -173 -68q-58 0 -91.5 32.5t-33.5 90.5q0 16 6 54l53 304q3 13 15 13h37q11 0 11 -10v-3l-52 -290q-5 -25 -5 -56q0 -81 87 -81q37 0 79 20.5t75 49.5l63 356q3 14 16 14h36q11 0 11 -10z
M411 658q0 -6 -5 -9l-132 -84q-4 -2 -6 -2q-4 0 -7 5l-11 16q-3 3 -3 6q0 2 4 5l117 103q3 3 6 3q4 0 11 -7l24 -30q2 -4 2 -6z" />
    <glyph glyph-name="ucircumflex" unicode="&#xfb;" horiz-adv-x="518" 
d="M484 473v-1l-1 -2l-80 -455q-3 -15 -15 -15h-36q-10 0 -10 11v1l8 45q-83 -68 -173 -68q-58 0 -91.5 32.5t-33.5 90.5q0 16 6 54l53 304q3 13 15 13h37q11 0 11 -10v-3l-52 -290q-5 -25 -5 -56q0 -81 87 -81q37 0 79 20.5t75 49.5l63 356q3 14 16 14h36q11 0 11 -10z
M430 584q0 -2 -2 -4l-18 -14q-2 -2 -5 -2q-4 0 -9 5l-75 72l-104 -77q-5 -3 -7 -3q-3 0 -5 2l-13 12q-2 2 -2 5q0 6 5 10l115 105q5 5 14 5h14q7 0 11 -5l77 -103q4 -6 4 -8z" />
    <glyph glyph-name="udieresis" unicode="&#xfc;" horiz-adv-x="518" 
d="M484 473v-1l-1 -2l-80 -455q-3 -15 -15 -15h-36q-10 0 -10 11v1l8 45q-83 -68 -173 -68q-58 0 -91.5 32.5t-33.5 90.5q0 16 6 54l53 304q3 13 15 13h37q11 0 11 -10v-3l-52 -290q-5 -25 -5 -56q0 -81 87 -81q37 0 79 20.5t75 49.5l63 356q3 14 16 14h36q11 0 11 -10z
M445 669q0 -20 -14.5 -35t-33.5 -15q-15 0 -25.5 9.5t-10.5 24.5q0 20 15 33.5t35 13.5q15 0 24.5 -8t9.5 -23zM283 669q0 -20 -15 -35t-34 -15q-15 0 -25.5 9.5t-10.5 24.5q0 20 14.5 33.5t35.5 13.5q15 0 25 -8.5t10 -22.5z" />
    <glyph glyph-name="yacute" unicode="&#xfd;" horiz-adv-x="459" 
d="M481 477q0 -3 -2 -7l-282 -528q-47 -90 -95 -125.5t-123 -35.5q-17 0 -35 3q-8 1 -8 9q0 2 2 8l8 25q3 9 11 9h3q30 -3 31 -3q86 0 132 84l40 72l-89 480q0 1 -0.5 3t-0.5 3q0 9 11 9h44q12 0 14 -12l67 -406l205 405q6 13 21 13h38q8 0 8 -6zM401 658q0 -6 -5 -9
l-132 -84q-4 -2 -5 -2q-5 0 -8 5l-11 16q-2 4 -2 6t3 5l117 103q3 3 6 3q6 0 11 -7l24 -30q2 -2 2 -6z" />
    <glyph glyph-name="thorn" unicode="&#xfe;" horiz-adv-x="522" 
d="M485 307q0 -75 -29.5 -146.5t-90 -121.5t-137.5 -50q-41 0 -77 18t-51 50l-44 -252q-3 -14 -14 -15l-38 -3q-9 -1 -11.5 4t0.5 12l155 884q1 12 11 13l40 3q11 2 11 -9v-2l-48 -271q30 34 74.5 53.5t90.5 19.5q79 0 118.5 -52t39.5 -135zM418 308q0 64 -28.5 99t-83.5 35
q-36 0 -79 -22t-73 -55l-42 -243q12 -37 41.5 -59.5t68.5 -22.5q63 0 109.5 44t66.5 103t20 121z" />
    <glyph glyph-name="ydieresis" unicode="&#xff;" horiz-adv-x="459" 
d="M481 477q0 -3 -2 -7l-282 -528q-47 -90 -95 -125.5t-123 -35.5q-17 0 -35 3q-8 1 -8 9q0 2 2 8l8 25q3 9 11 9h3q30 -3 31 -3q86 0 132 84l40 72l-89 480q0 1 -0.5 3t-0.5 3q0 9 11 9h44q12 0 14 -12l67 -406l205 405q6 13 21 13h38q8 0 8 -6zM435 669q0 -20 -14.5 -35
t-33.5 -15q-15 0 -25.5 9.5t-10.5 24.5q0 20 15 33.5t35 13.5q15 0 24.5 -8t9.5 -23zM273 669q0 -20 -15 -35t-34 -15q-15 0 -25.5 9.5t-10.5 24.5q0 20 14.5 33.5t35.5 13.5q15 0 25 -8.5t10 -22.5z" />
    <glyph glyph-name="Cacute" unicode="&#x106;" horiz-adv-x="555" 
d="M581 649q0 -2 -2 -6l-20 -34q-5 -7 -9 -7h-1q-1 1 -2 1q-2 1 -6 4q-2 1 -3 2q-58 34 -132 34q-68 0 -125 -35.5t-92.5 -92t-55 -121.5t-19.5 -129q0 -97 44.5 -157.5t140.5 -60.5q70 0 149 33q7 4 13 5q1 0 4 1q5 0 7 -8l7 -31v-3q0 -8 -13 -14q-87 -40 -186 -40
q-119 0 -180.5 71t-61.5 191q0 108 43 209t130 170t198 69q101 0 166 -43q6 -5 6 -8zM544 836q0 -6 -5 -9l-132 -84q-4 -2 -6 -2q-4 0 -7 5l-11 16q-3 3 -3 6q0 2 4 5l117 103q3 3 6 3q4 0 11 -7l24 -30q2 -4 2 -6z" />
    <glyph glyph-name="cacute" unicode="&#x107;" horiz-adv-x="415" 
d="M435 458q0 -3 -3 -9l-12 -26q-2 -6 -9 -6q-1 0 -14 5q-48 22 -84 22q-67 0 -116 -41t-71 -99.5t-22 -124.5q0 -61 32 -100t97 -39q49 0 104 20q12 4 13 4q6 0 7 -6l4 -24l1 -1v-2q0 -7 -14 -13q-65 -28 -129 -28q-92 0 -137 49.5t-45 139.5q0 125 78 220t200 95
q64 0 113 -28q7 -4 7 -8zM452 658q0 -6 -5 -9l-132 -84q-4 -2 -6 -2q-4 0 -7 5l-11 16q-3 3 -3 6q0 2 4 5l117 103q3 3 6 3q4 0 11 -7l24 -30q2 -4 2 -6z" />
    <glyph glyph-name="Ccaron" unicode="&#x10c;" horiz-adv-x="555" 
d="M581 649q0 -2 -2 -6l-20 -34q-5 -7 -9 -7h-1q-1 1 -2 1q-2 1 -6 4q-2 1 -3 2q-58 34 -132 34q-68 0 -125 -35.5t-92.5 -92t-55 -121.5t-19.5 -129q0 -97 44.5 -157.5t140.5 -60.5q70 0 149 33q7 4 13 5q1 0 4 1q5 0 7 -8l7 -31v-3q0 -8 -13 -14q-87 -40 -186 -40
q-119 0 -180.5 71t-61.5 191q0 108 43 209t130 170t198 69q101 0 166 -43q6 -5 6 -8zM552 865q0 -5 -5 -10l-115 -105q-7 -5 -14 -5h-14q-6 0 -11 5l-77 103q-4 6 -4 9q0 1 2 3l18 14q4 2 5 2q4 0 9 -5l75 -72l104 77q5 3 7 3q4 0 5 -2l13 -12q2 -1 2 -5z" />
    <glyph glyph-name="ccaron" unicode="&#x10d;" horiz-adv-x="415" 
d="M435 458q0 -3 -3 -9l-12 -26q-2 -6 -9 -6q-1 0 -14 5q-48 22 -84 22q-67 0 -116 -41t-71 -99.5t-22 -124.5q0 -61 32 -100t97 -39q49 0 104 20q12 4 13 4q6 0 7 -6l4 -24l1 -1v-2q0 -7 -14 -13q-65 -28 -129 -28q-92 0 -137 49.5t-45 139.5q0 125 78 220t200 95
q64 0 113 -28q7 -4 7 -8zM456 681q0 -5 -5 -10l-115 -105q-7 -5 -14 -5h-14q-8 0 -11 5l-77 103q-4 4 -4 9q0 2 2 3l18 14q2 2 4 2t10 -5l75 -72l104 77q3 3 7 3q1 0 5 -2l13 -12q2 -2 2 -5z" />
    <glyph glyph-name="Dcroat" unicode="&#x110;" horiz-adv-x="643" 
d="M605 437q0 -92 -29 -181t-87 -148q-103 -108 -289 -108h-158q-17 0 -17 14v5l49 281h-57q-7 0 -10.5 3t-2.5 9l1 7q1 7 1 8q0 2 3 11.5t4 10.5q3 8 13 8h58l56 313q2 12 6 15.5t16 3.5h120q92 0 145.5 -10.5t92.5 -39.5q85 -63 85 -202zM235 344l-1 -5l-1 -5
q0 -1 -1.5 -7t-2.5 -11.5t-2 -5.5q-3 -10 -15 -10h-70l-42 -243h84q177 0 252 88q46 54 70 129t24 148q0 108 -53 161q-49 50 -177 50h-99l-49 -276h69q8 0 11.5 -3t2.5 -10z" />
    <glyph glyph-name="dcroat" unicode="&#x111;" horiz-adv-x="524" 
d="M578 612q0 -1 -0.5 -3t-0.5 -3l-3 -17q-2 -17 -20 -17h-46l-98 -559q-2 -13 -11 -13h-38q-10 0 -10 10v5l8 47q-32 -33 -76 -52.5t-88 -19.5q-80 0 -119 50.5t-39 132.5q0 145 91 244q71 77 166 77q40 0 75.5 -18t51.5 -50l25 146h-70q-14 0 -14 10q0 1 0.5 3t0.5 4l3 17
q2 15 19 15h70l12 68q3 15 14 16l37 5h6q8 0 8 -6v-1q-1 -1 -1 -2l-14 -80h47q14 0 14 -9zM409 363q-12 37 -42 59t-69 22q-75 0 -127 -62q-32 -40 -49.5 -95.5t-17.5 -109.5q0 -64 27.5 -100.5t82.5 -36.5q40 0 83 22.5t69 56.5z" />
    <glyph glyph-name="dotlessi" unicode="&#x131;" horiz-adv-x="227" 
d="M174 472v-3q-1 -3 -1 -4l-79 -451q-3 -14 -15 -14h-37q-13 0 -11 11q0 1 1 5v4l80 450q3 13 15 13h37q11 0 10 -11z" />
    <glyph glyph-name="Lslash" unicode="&#x141;" horiz-adv-x="436" 
d="M364 50v-3l-9 -39q-1 -8 -12 -8h-307q-11 0 -11 12q0 2 2 14l54 309l-82 -50q-4 -2 -6 -2q-3 0 -3 5v4l4 23q1 9 11 15l85 53l51 292q3 14 14 14h39q14 0 14 -11v-4l-42 -240l114 69q8 4 10 4q4 0 4 -6v-1l-2 -20q-2 -12 -12 -18l-122 -76l-58 -329h253q11 0 11 -7z" />
    <glyph glyph-name="lslash" unicode="&#x142;" horiz-adv-x="209" 
d="M275 500v-2l-6 -25q-1 -3 -2.5 -5.5t-3.5 -4t-5 -3.5t-5 -3l-111 -69l-66 -373q-3 -15 -15 -15h-37q-11 0 -11 9v3l1 4v5l57 320l-84 -51l-12 -6h-1l-2 -1q-6 0 -6 8v3l3 20q1 8 16 18l94 57l53 301q2 14 14 15l39 5h3q8 0 8 -9q0 -1 -0.5 -3t-0.5 -4l-45 -258l109 67
q6 3 10 3q6 0 6 -6z" />
    <glyph glyph-name="OE" unicode="&#x152;" horiz-adv-x="903" 
d="M911 676l-8 -30q-4 -12 -21 -12h-269l-43 -246h239q12 0 11 -11l-5 -30q-3 -13 -16 -13h-239l-49 -278h280q13 0 11 -12l-6 -32q-3 -12 -15 -12h-331q-16 0 -13 17l7 45q-41 -35 -93.5 -53.5t-101.5 -18.5q-104 0 -157.5 64t-53.5 183q0 79 22.5 158.5t65 148.5
t111.5 112.5t153 43.5q107 0 155 -72l12 53q1 8 13 8h331q13 0 10 -13zM533 562q-48 81 -148 81q-66 0 -120 -39.5t-85.5 -101.5t-48.5 -128.5t-17 -128.5q0 -94 38.5 -145.5t114.5 -51.5q49 0 100 20t89 57z" />
    <glyph glyph-name="oe" unicode="&#x153;" horiz-adv-x="842" 
d="M815 336q0 -59 -14 -90q-5 -10 -19 -10h-314q-4 -24 -4 -47q0 -67 33 -108t103 -41q61 0 120 22q14 5 15 -6l4 -25q1 -9 -13 -15q-62 -26 -144 -26q-138 0 -169 118q-75 -118 -203 -118q-87 0 -129.5 48.5t-42.5 127.5q0 82 28.5 155t91 123t147.5 50q131 0 158 -117
q35 55 88.5 86t116.5 31q70 0 108.5 -44t38.5 -114zM755 339q0 47 -25 77t-74 30q-72 0 -124 -60q-36 -42 -55 -107h271q7 37 7 60zM412 304q0 62 -27 101.5t-88 39.5q-63 0 -109.5 -43.5t-66 -102t-19.5 -119.5q0 -142 117 -142q81 0 129.5 66t60.5 154q3 22 3 46z" />
    <glyph glyph-name="Scaron" unicode="&#x160;" horiz-adv-x="484" 
d="M471 661q0 -2 -2 -8l-13 -30q-4 -8 -9 -8q-4 0 -10 3q-59 26 -122 26q-60 0 -106.5 -34t-46.5 -92q0 -56 64 -96l95 -60q49 -31 74.5 -65t25.5 -85q0 -95 -73 -160q-71 -62 -181 -62q-81 0 -149 26q-10 4 -10 11q0 4 3 10l14 31q4 10 11 10q2 0 8 -2q69 -27 133 -27
q68 0 118 37q56 43 56 109q0 37 -19 61.5t-54 46.5l-111 70q-78 49 -78 131q0 86 71 141t159 55q80 0 144 -29q8 -3 8 -10zM462 865q0 -5 -5 -10l-115 -105q-7 -5 -14 -5h-14q-6 0 -11 5l-77 103q-4 6 -4 9q0 1 2 3l18 14q4 2 5 2q4 0 9 -5l75 -72l104 77q5 3 7 3q4 0 5 -2
l13 -12q2 -1 2 -5z" />
    <glyph glyph-name="scaron" unicode="&#x161;" horiz-adv-x="378" 
d="M365 462q0 -5 -2 -9l-10 -24q-3 -7 -8 -7t-13 3q-47 21 -90 21q-44 0 -77 -23.5t-33 -65.5q0 -25 20.5 -43.5t50 -31t59.5 -27t50.5 -40.5t20.5 -62q0 -66 -53 -114.5t-145 -48.5q-64 0 -120 30q-5 2 -5 8q0 3 2 9l12 24q2 6 8 6q4 0 12 -4q57 -25 101 -25q49 0 87.5 28
t38.5 75q0 28 -21 48t-50.5 32.5t-59.5 26.5t-51 38.5t-21 59.5q0 68 54 108t124 40q67 0 114 -25q5 -3 5 -7zM386 681q0 -5 -5 -10l-115 -105q-7 -5 -14 -5h-14q-8 0 -11 5l-77 103q-4 4 -4 9q0 2 2 3l18 14q2 2 4 2t10 -5l75 -72l104 77q3 3 7 3q1 0 5 -2l13 -12
q2 -2 2 -5z" />
    <glyph glyph-name="Ydieresis" unicode="&#x178;" horiz-adv-x="529" 
d="M562 683q0 -3 -3 -8l-267 -403l-45 -257q-3 -15 -17 -15h-39q-13 0 -13 9q0 4 1 6l45 254l-134 404q-1 2 -1 4q0 12 14 12h40q17 0 21 -13l107 -345h1l220 343q9 15 24 15h37q9 0 9 -6zM464 798q0 -20 -14.5 -35t-33.5 -15q-15 0 -25.5 9.5t-10.5 24.5q0 20 15 33.5
t35 13.5q15 0 24.5 -8t9.5 -23zM302 798q0 -20 -15 -35t-34 -15q-15 0 -25.5 9.5t-10.5 24.5q0 20 14.5 33.5t35.5 13.5q15 0 25 -8.5t10 -22.5z" />
    <glyph glyph-name="Zcaron" unicode="&#x17d;" horiz-adv-x="524" 
d="M545 680v-3l-3 -14q-4 -14 -13 -26l-462 -580v-1h356q12 0 12 -10v-4l-5 -28q-3 -14 -15 -14h-434q-10 0 -10 8v4l3 17q1 9 10 20l464 583v2h-320q-11 0 -11 7v5l5 32q1 11 14 11h397q12 0 12 -9zM447 866q0 -5 -5 -10l-115 -105q-7 -5 -14 -5h-14q-6 0 -11 5l-77 103
q-4 6 -4 9q0 1 2 3l18 14q2 2 4 2q5 0 10 -5l75 -72l104 77q3 3 7 3q3 0 5 -2l13 -12q2 -1 2 -5z" />
    <glyph glyph-name="zcaron" unicode="&#x17e;" horiz-adv-x="389" 
d="M395 472l-3 -15q-2 -9 -11 -21l-312 -390v-2h244q5 0 7.5 -2t1.5 -6v-2l-4 -24q-1 -10 -13 -10h-303q-7 0 -9.5 2.5t-1.5 7.5l3 16q2 12 12 25l308 387v1h-216q-7 0 -9 2t-1 7l4 24q2 11 13 11h281q12 0 9 -11zM381 681q0 -5 -6 -10l-115 -105q-7 -5 -14 -5h-14
q-7 0 -11 5l-77 103q-3 5 -3 9q0 2 1 3l18 14q4 2 5 2q4 0 9 -5l75 -72l104 77q5 3 7 3q3 0 5 -2l13 -12q3 -2 3 -5z" />
    <glyph glyph-name="florin" unicode="&#x192;" 
d="M622 675l-11 -28q-3 -8 -13 -6q-3 0 -9 2q-26 8 -56 8q-56 0 -89.5 -38.5t-56.5 -102.5l-49 -136h120q10 0 8 -8l-5 -19q-1 -7 -10 -7h-125l-110 -307q-17 -47 -34 -80.5t-43.5 -66.5t-64 -50.5t-85.5 -17.5q-47 0 -73 13q-8 5 -4 13l13 28q5 11 17 6q29 -11 56 -11
q100 0 150 144l116 329h-60q-10 0 -8 9l6 17q4 8 9 8h66v1l39 109q14 39 25.5 65.5t31 57.5t42 50t55.5 31.5t73 12.5q48 0 75 -13q7 -4 4 -13z" />
    <glyph glyph-name="circumflex" unicode="&#x2c6;" horiz-adv-x="312" 
d="M269 584q0 -2 -2 -4l-18 -14q-2 -2 -5 -2q-4 0 -9 5l-75 72l-104 -77q-4 -3 -7 -3t-5 2l-13 12q-2 2 -2 5q0 6 5 10l115 105q5 5 14 5h14q7 0 11 -5l77 -103q4 -6 4 -8z" />
    <glyph glyph-name="caron" unicode="&#x2c7;" horiz-adv-x="312" 
d="M286 681q0 -5 -5 -10l-115 -105q-7 -5 -14 -5h-14q-8 0 -11 5l-77 103q-4 6 -4 9q0 1 2 3l18 14q2 2 4 2t10 -5l75 -72l104 77q3 3 7 3q1 0 5 -2l13 -12q2 -2 2 -5z" />
    <glyph glyph-name="breve" unicode="&#x2d8;" horiz-adv-x="312" 
d="M282 693q0 -24 -34 -61q-42 -44 -102 -44q-44 0 -70 26q-27 26 -27 72q0 14 12 14h22q11 0 13 -11q12 -56 58 -56q47 0 80 57q6 10 16 10h23q9 0 9 -7z" />
    <glyph glyph-name="dotaccent" unicode="&#x2d9;" horiz-adv-x="312" 
d="M200 666q0 -21 -16 -37.5t-37 -16.5q-16 0 -28 10.5t-12 26.5q0 22 16.5 36.5t38.5 14.5q16 0 27 -9t11 -25z" />
    <glyph glyph-name="ring" unicode="&#x2da;" horiz-adv-x="312" 
d="M239 637q0 -38 -30 -68t-68 -30q-30 0 -50.5 20t-20.5 50q0 38 31 67t69 29q30 0 49.5 -19t19.5 -49zM199 630q0 16 -10 25.5t-26 9.5q-21 0 -36.5 -14.5t-15.5 -35.5q0 -16 10.5 -25.5t26.5 -9.5q20 0 35.5 15t15.5 35z" />
    <glyph glyph-name="ogonek" unicode="&#x2db;" horiz-adv-x="312" 
d="M232 -181q2 -7 -8 -10q-35 -11 -71 -11q-39 0 -61 19t-22 47q0 43 41 86q27 28 75 54h34q-99 -75 -99 -130q0 -42 51 -42q20 0 48 7q9 2 10 -4z" />
    <glyph glyph-name="tilde" unicode="&#x2dc;" horiz-adv-x="312" 
d="M312 662q0 -3 -7 -10q-61 -50 -104 -50q-18 0 -48 22.5t-49 22.5q-22 0 -75 -32q-4 -2 -5 -2q-5 0 -8 7l-9 19q-2 4 -2 7q0 6 9 12q59 39 97 39q20 0 51.5 -22.5t46.5 -22.5q26 0 75 38q4 2 5 2q6 0 10 -7l10 -15q3 -4 3 -8z" />
    <glyph glyph-name="hungarumlaut" unicode="&#x2dd;" horiz-adv-x="312" 
d="M355 659q0 -5 -9 -10l-164 -85h-1q-1 -1 -2 -1q-4 0 -7 6l-7 15v2q0 3 7 8l152 104q4 2 6 2q5 0 9 -7l15 -30q1 -1 1 -4zM169 659q0 -5 -9 -10l-164 -85h-1q-1 -1 -2 -1q-4 0 -7 6l-7 15v2q0 3 7 8l152 104q4 2 6 2q5 0 9 -7l15 -30q1 -1 1 -4z" />
    <glyph glyph-name="endash" unicode="&#x2013;" horiz-adv-x="500" 
d="M503 279l-6 -32q-3 -13 -15 -13h-475q-13 0 -10 12l6 33q3 12 14 12h474q8 0 10.5 -2.5t1.5 -9.5z" />
    <glyph glyph-name="emdash" unicode="&#x2014;" horiz-adv-x="1000" 
d="M1003 279l-6 -32q-3 -13 -15 -13h-975q-13 0 -10 12l6 33q3 12 14 12h974q8 0 10.5 -2.5t1.5 -9.5z" />
    <glyph glyph-name="quoteleft" unicode="&#x2018;" horiz-adv-x="312" 
d="M288 686q0 -4 -6 -8q-17 -15 -33 -38t-16 -41q0 -13 11.5 -32t11.5 -30q0 -22 -14.5 -35.5t-34.5 -13.5q-18 0 -31 13.5t-13 34.5q0 35 26 80q28 47 76 82q7 5 11 5q3 0 6 -4l5 -8q1 -1 1 -5z" />
    <glyph glyph-name="quoteright" unicode="&#x2019;" horiz-adv-x="312" 
d="M229 650q0 -35 -26 -80q-28 -47 -76 -82q-7 -5 -11 -5q-3 0 -6 4l-5 8q-1 1 -1 5t6 8q17 15 33 38t16 41q0 13 -11.5 32t-11.5 30q0 22 14.5 35.5t34.5 13.5q18 0 31 -13.5t13 -34.5z" />
    <glyph glyph-name="quotesinglbase" unicode="&#x201a;" horiz-adv-x="197" 
d="M164 44q0 -35 -26 -80q-28 -47 -76 -82q-7 -5 -11 -5q-3 0 -6 4l-5 8q-1 1 -1 5t6 8q17 15 33 38t16 41q0 13 -11.5 32t-11.5 30q0 22 14.5 35.5t34.5 13.5q18 0 31 -13.5t13 -34.5z" />
    <glyph glyph-name="quotedblleft" unicode="&#x201c;" horiz-adv-x="342" 
d="M352 686q0 -4 -6 -8q-17 -15 -33 -38t-16 -41q0 -13 11.5 -32t11.5 -30q0 -22 -14.5 -35.5t-34.5 -13.5q-18 0 -31 13.5t-13 34.5q0 35 26 80q28 47 76 82q7 5 11 5q3 0 6 -4l5 -8q1 -1 1 -5zM198 686q0 -4 -6 -8q-17 -15 -33 -38t-16 -41q0 -13 11.5 -32t11.5 -30
q0 -22 -14.5 -35.5t-34.5 -13.5q-18 0 -31 13.5t-13 34.5q0 35 26 80q28 47 76 82q7 5 11 5q3 0 6 -4l5 -8q1 -1 1 -5z" />
    <glyph glyph-name="quotedblright" unicode="&#x201d;" horiz-adv-x="342" 
d="M346 650q0 -35 -26 -80q-28 -47 -76 -82q-7 -5 -11 -5q-3 0 -6 4l-5 8q-1 1 -1 5t6 8q17 15 33 38t16 41q0 13 -11.5 32t-11.5 30q0 22 14.5 35.5t34.5 13.5q18 0 31 -13.5t13 -34.5zM192 650q0 -35 -26 -80q-28 -47 -76 -82q-7 -5 -11 -5q-3 0 -6 4l-5 8q-1 1 -1 5t6 8
q17 15 33 38t16 41q0 13 -11.5 32t-11.5 30q0 22 14.5 35.5t34.5 13.5q18 0 31 -13.5t13 -34.5z" />
    <glyph glyph-name="quotedblbase" unicode="&#x201e;" horiz-adv-x="342" 
d="M316 39q0 -35 -26 -80q-28 -47 -76 -82q-7 -5 -11 -5q-3 0 -6 4l-5 8q-1 1 -1 5t6 8q17 15 33 38t16 41q0 13 -11.5 32t-11.5 30q0 22 14.5 35.5t34.5 13.5q18 0 31 -13.5t13 -34.5zM162 39q0 -35 -26 -80q-28 -47 -76 -82q-7 -5 -11 -5q-3 0 -6 4l-5 8q-1 1 -1 5t6 8
q17 15 33 38t16 41q0 13 -11.5 32t-11.5 30q0 22 14.5 35.5t34.5 13.5q18 0 31 -13.5t13 -34.5z" />
    <glyph glyph-name="dagger" unicode="&#x2020;" horiz-adv-x="501" 
d="M456 432l-5 -33q-1 -10 -13 -10l-151 3l-70 -380q-2 -12 -13 -12h-30q-10 0 -7 12l63 380l-151 -3q-7 0 -8.5 2t-0.5 7l6 33q1 10 12 10l150 -2l40 237q3 13 12 13h41q11 0 9 -13l-44 -237l151 2q11 0 9 -9z" />
    <glyph glyph-name="daggerdbl" unicode="&#x2021;" horiz-adv-x="501" 
d="M466 486l-6 -33q-1 -9 -12 -9l-151 2l-26 -138l149 2q10 0 9 -9l-6 -34q-1 -9 -13 -9l-147 3l-46 -249q-2 -12 -13 -12h-30q-10 0 -7 12l41 248l-148 -2q-7 0 -8.5 1.5t-0.5 7.5l6 33q1 10 12 10l147 -2l23 138l-150 -2q-7 0 -8.5 1.5t-0.5 7.5l5 32q1 10 12 10l151 -2
l30 183q3 13 12 13h41q11 0 9 -12l-35 -184l151 2q5 0 8 -2.5t2 -6.5z" />
    <glyph glyph-name="bullet" unicode="&#x2022;" horiz-adv-x="466" 
d="M391 295q0 -73 -56 -129.5t-129 -56.5q-56 0 -94 37t-38 93q0 73 57 129.5t130 56.5q56 0 93 -37t37 -93z" />
    <glyph glyph-name="ellipsis" unicode="&#x2026;" horiz-adv-x="988" 
d="M837 43q0 -22 -17 -39t-39 -17q-17 0 -28.5 10.5t-11.5 27.5q0 23 17 39t40 16q17 0 28 -10t11 -27zM531 43q0 -22 -17 -39t-39 -17q-17 0 -29 10.5t-12 27.5q0 23 17 39t40 16q17 0 28.5 -10t11.5 -27zM226 43q0 -22 -17 -39t-39 -17q-17 0 -29 10.5t-12 27.5
q0 23 17.5 39t40.5 16q17 0 28 -10t11 -27z" />
    <glyph glyph-name="perthousand" unicode="&#x2030;" horiz-adv-x="1000" 
d="M937 184q0 -45 -14.5 -88t-48.5 -74.5t-81 -31.5t-70.5 28t-23.5 76q0 73 39.5 133.5t108.5 60.5q90 0 90 -104zM345 596q0 -45 -14.5 -88t-48.5 -74.5t-81 -31.5t-70.5 28t-23.5 76q0 73 39.5 133.5t108.5 60.5q90 0 90 -104zM672 674q0 -5 -4 -9l-576 -669q-4 -5 -9 -5
q-4 0 -11 5l-16 13q-4 3 -4 8q0 6 5 11l573 667q4 6 11 6q6 0 10 -4l16 -13q5 -5 5 -10zM619 184q0 -45 -14.5 -88t-48.5 -74.5t-81 -31.5t-70.5 28t-23.5 76q0 73 39.5 133.5t108.5 60.5q90 0 90 -104zM889 179q0 70 -50 70q-31 0 -53 -28.5t-30 -62t-8 -64.5q0 -65 53 -65
q43 0 65.5 50t22.5 100zM297 591q0 69 -50 69q-31 0 -53 -28.5t-30 -62t-8 -64.5q0 -64 53 -64q43 0 65.5 50t22.5 100zM571 179q0 70 -50 70q-31 0 -53 -28.5t-30 -62t-8 -64.5q0 -65 53 -65q43 0 65.5 50t22.5 100z" />
    <glyph glyph-name="guilsinglleft" unicode="&#x2039;" horiz-adv-x="286" 
d="M246 376q0 -4 -2 -6l-107 -141l55 -146q1 -2 1 -5q0 -6 -7 -10l-15 -9q-3 -2 -7 -2q-6 0 -9 7l-75 143q-5 10 -5 17q0 10 10 21l128 143q7 7 10 7q1 0 5 -2l14 -9q4 -3 4 -8z" />
    <glyph glyph-name="guilsinglright" unicode="&#x203a;" horiz-adv-x="286" 
d="M212 227q0 -10 -10 -21l-128 -143q-6 -6 -10 -6q-3 0 -5 1l-14 9q-4 3 -4 8q0 4 2 6l107 141l-55 146q-1 2 -1 5q0 7 7 10l15 9q4 3 7 3q6 0 9 -8l75 -143q5 -10 5 -17z" />
    <glyph glyph-name="fraction" unicode="&#x2044;" horiz-adv-x="151" 
d="M366 704l-548 -719q-10 -13 -21 -13h-38q-8 0 -9 4t3 9l548 717q12 17 28 17h33q15 0 4 -15z" />
    <glyph glyph-name="Euro" unicode="&#x20ac;" horiz-adv-x="564" 
d="M561 649q0 -2 -2 -6l-20 -34q-5 -7 -8 -7h-1l-2 1q-2 1 -10 6q-58 34 -130 34q-181 0 -254 -251h272q16 0 9 -12l-8 -15q-5 -10 -18 -10h-264q-7 -38 -8 -69h259q15 0 9 -11l-8 -15q-6 -11 -18 -11h-243q4 -96 40 -149t125 -53q68 0 147 33q7 4 13 5q1 0 2 0.5t2 0.5
q5 0 7 -8l7 -31v-3q0 -8 -13 -14q-87 -40 -184 -40q-220 0 -222 259h-64q-10 0 -9 11l3 16q2 10 13 10h58q3 38 10 69h-57q-9 0 -8 10l3 16q2 11 12 11h59q18 64 46 117.5t68 97.5t95.5 68.5t121.5 24.5q99 0 164 -43q6 -5 6 -8z" />
    <glyph glyph-name="trademark" unicode="&#x2122;" horiz-adv-x="652" 
d="M613 682l-40 -303q-1 -8 -9 -8h-24q-7 0 -6 10l32 225h-1l-131 -229q-3 -6 -8 -6h-18q-6 0 -8 6l-55 229h-1l-48 -228q-1 -7 -7 -7h-25q-7 0 -5 7l65 301q2 10 10 10h18q8 0 10 -8l62 -257h2l149 259q3 6 10 6h22q7 0 6 -7zM309 682l-6 -20q-2 -6 -11 -6h-95l-49 -278
q-1 -7 -10 -7h-25q-8 0 -7 7l49 278h-97q-7 0 -6 6l4 20q2 7 8 7h239q9 0 6 -7z" />
    <glyph glyph-name="minus" unicode="&#x2212;" horiz-adv-x="496" 
d="M402 277q0 -1 -1 -5t-1 -5t-1.5 -7t-2.5 -11.5t-2 -5.5q-2 -10 -15 -10h-265q-7 0 -10.5 3t-2.5 9q0 1 1 8l1 7q0 2 3 11.5t4 10.5q3 8 13 8h265q8 0 11.5 -3t2.5 -10z" />
    <glyph glyph-name="apple" unicode="&#xf8ff;" horiz-adv-x="375" 
d="M376 324q0 -40 -30 -60t-71 -20q-35 0 -83 19q-8 3 -8 9q0 2 2 6l10 31q3 9 7 9q2 0 8 -2q37 -15 66 -15q27 0 27 17q0 13 -23 22l-45 16q-51 19 -51 70q0 37 29 56t67 19q42 0 78 -16q7 -3 7 -8q0 -4 -1 -6l-10 -35q-1 -6 -9 -6q-3 0 -5 1q-33 12 -56 12q-24 0 -24 -16
q0 -11 19 -19l51 -20q45 -17 45 -64zM199 517q0 -8 -1 -12l-4 -25q-2 -10 -8 -10q-4 0 -6 1q-19 7 -35 7q-31 0 -31 -39v-22h51q12 0 12 -11v-29q0 -11 -12 -11h-51v-177q0 -16 -14 -16h-47q-14 0 -14 15v178h-25q-9 0 -11.5 3t-2.5 13v22q0 13 12 13h27v16q0 107 94 107
q33 0 59 -12q7 -3 7 -11z" />
    <glyph glyph-name="fi" unicode="&#xfb01;" horiz-adv-x="477" 
d="M461 616q0 -18 -14.5 -31.5t-32.5 -13.5q-14 0 -23.5 8.5t-9.5 22.5q0 18 14.5 31t32.5 13q14 0 23.5 -8t9.5 -22zM427 465l-79 -451q-3 -14 -15 -14h-36q-14 0 -11 20l80 450q3 13 15 13h36q14 0 10 -18zM394 691l-7 -23q-3 -10 -22 -5q-26 8 -54 8q-53 0 -81 -35.5
t-40 -103.5l-9 -49h124q11 0 10 -11l-4 -23q-1 -10 -13 -10h-124l-111 -631q-3 -15 -15 -15h-37q-13 0 -9 20l109 626h-59q-12 0 -9 14l3 18q1 12 14 12h59l4 22q11 62 24.5 100.5t41.5 67.5q47 47 121 47q47 0 80 -14q8 -4 4 -15z" />
    <glyph glyph-name="fl" unicode="&#xfb02;" horiz-adv-x="505" 
d="M500 700q0 -4 -1 -6l-120 -679q-3 -15 -14 -15h-37q-11 0 -11 9q0 1 0.5 5t0.5 5l118 671q2 14 14 15l39 5h3q8 0 8 -10zM394 691l-7 -23q-3 -10 -22 -5q-26 8 -54 8q-53 0 -81 -35.5t-40 -103.5l-9 -49h124q11 0 10 -11l-4 -23q-1 -10 -13 -10h-124l-111 -631
q-3 -15 -15 -15h-37q-13 0 -9 20l109 626h-59q-12 0 -9 14l3 18q1 12 14 12h59l4 22q11 62 24.5 100.5t41.5 67.5q47 47 121 47q47 0 80 -14q8 -4 4 -15z" />
    </font>
</defs>
</svg>
