<?xml version="1.0" standalone="no"?>
<!DOCTYPE svg PUBLIC "-//W3C//DTD SVG 1.1//EN" "http://www.w3.org/Graphics/SVG/1.1/DTD/svg11.dtd" >
<svg xmlns="http://www.w3.org/2000/svg" xmlns:xlink="http://www.w3.org/1999/xlink" version="1.1">
<metadata>
Created by FontForge 20170731 at Thu Nov 11 22:09:53 2004
 By Aleksey,,,
Designed &#38; produced by Jason Smith. Copyright Fontsmith 2002      http://www.fontsmith.com
</metadata>
<defs>
<font id="FSAlbert-ThinItalic" horiz-adv-x="530" >
  <font-face 
    font-family="FSAlbert"
    font-weight="100"
    font-style="italic"
    font-stretch="normal"
    units-per-em="1000"
    panose-1="2 0 5 6 4 0 0 9 0 4"
    ascent="770"
    descent="-230"
    x-height="482"
    cap-height="687"
    bbox="-241.579 -225.091 1002.11 902"
    underline-thickness="50"
    underline-position="-200"
    slope="-11"
    unicode-range="U+0020-FB02"
  />
<missing-glyph horiz-adv-x="1000" 
 />
    <glyph glyph-name=".notdef" horiz-adv-x="1000" 
 />
    <glyph glyph-name=".null" horiz-adv-x="0" 
 />
    <glyph glyph-name="nonmarkingreturn" horiz-adv-x="333" 
 />
    <glyph glyph-name="space" unicode=" " horiz-adv-x="225" 
 />
    <glyph glyph-name="exclam" unicode="!" horiz-adv-x="228" 
d="M198 680l-101 -527q-2 -8 -8 -8h-15q-5 0 -5 4v4l86 527q2 7 8 7h29q7 0 6 -7zM93 32q0 -16 -12 -29t-28 -13q-12 0 -20.5 8t-8.5 21q0 17 12 28t29 11q28 0 28 -26z" />
    <glyph glyph-name="quotedbl" unicode="&#x22;" horiz-adv-x="293" 
d="M238 693v-3l-28 -159q-2 -9 -7 -9h-23q-4 0 -4 5v4l28 159q1 8 8 8h22q4 0 4 -5zM117 693v-3l-28 -159q-1 -9 -7 -9h-23q-4 0 -4 5v4l28 159q1 8 8 8h22q4 0 4 -5z" />
    <glyph glyph-name="numbersign" unicode="#" horiz-adv-x="543" 
d="M557 451v-1l-4 -11q-3 -8 -9 -8h-116l-61 -192h115q5 0 5 -5q0 -2 -1 -3l-4 -12q-2 -6 -11 -6h-115l-65 -202q-2 -11 -14 -11h-15q-9 0 -7 7v2l68 204h-187l-69 -203q-3 -10 -15 -10h-15q-6 0 -6 6q1 1 1 4l66 203h-110q-6 0 -5 5v2l5 15q1 4 7 4h6h109l60 192h-113
q-6 0 -6 4v1l5 13q1 7 10 7h116l70 224q3 7 9 7h24q4 0 4 -4v-2l-72 -225h183l72 223q3 8 11 8h21q4 0 4 -5q0 -2 -1 -3l-69 -223h113q4 0 5.5 -1.5t0.5 -3.5zM392 431h-185l-61 -192h185z" />
    <glyph glyph-name="dollar" unicode="$" 
d="M480 665q0 -1 -2 -5l-7 -16q-3 -5 -6 -5t-7 2q-50 23 -111 25l-51 -290l36 -24q49 -33 74 -66t25 -80q0 -86 -57.5 -144t-144.5 -69l-15 -84q-1 -10 -10 -10h-9q-8 0 -8 6l1 1v3l14 82h-4h-8q-73 0 -136 23q-7 3 -7 7q0 5 2 9l8 16q3 7 7 7q3 0 5 -1q65 -26 130 -26h7h3
l56 319l-62 41q-73 48 -73 124q0 77 59 129t138 58l15 85q1 9 10 9h10q8 0 6 -8l-15 -85q70 -1 122 -26q5 -2 5 -7zM321 665q-62 -7 -104.5 -46t-42.5 -99q0 -61 67 -106l32 -22zM390 194q0 70 -79 120l-23 15l-53 -300q67 10 111 54.5t44 110.5z" />
    <glyph glyph-name="percent" unicode="%" horiz-adv-x="1000" 
d="M469 601q0 -70 -33.5 -130t-97.5 -60q-84 0 -84 96q0 70 35.5 130.5t99.5 60.5q80 0 80 -97zM790 687q8 -5 -1 -13l-562 -676q-7 -7 -12 -3l-13 9q-5 4 1 12l562 675q8 8 14 4zM745 181q0 -70 -33.5 -130t-97.5 -60q-84 0 -84 96q0 70 35.5 130.5t99.5 60.5q80 0 80 -97z
M441 595q0 79 -57 79q-34 0 -58.5 -30t-33.5 -65.5t-9 -69.5q0 -74 60 -74q33 0 56.5 29.5t32.5 64t9 66.5zM717 175q0 79 -57 79q-34 0 -58.5 -30t-33.5 -65.5t-9 -69.5q0 -74 60 -74q33 0 56.5 29.5t32.5 64t9 66.5z" />
    <glyph glyph-name="ampersand" unicode="&#x26;" horiz-adv-x="650" 
d="M612 403q0 -4 -1 -6q-30 -120 -99 -217q-19 -28 -51 -63q51 -71 119 -96q4 -1 4 -4q0 -1 -2 -5l-9 -16q-3 -5 -8 -5q-4 0 -6 1q-78 22 -126 98q-109 -99 -239 -99q-69 0 -114 42.5t-45 108.5q0 26 6 50t20.5 46t26 37.5t36 36t37 30t42.5 30.5t39 27l-29 50
q-33 59 -33 99q0 61 46.5 105.5t107.5 44.5q51 0 81 -27t30 -72q0 -33 -13.5 -63t-40 -56.5t-48.5 -43.5t-55 -39l155 -255q20 21 45 57q60 85 91 197q4 11 11 11h18q4 0 4 -4zM411 594q0 35 -21 56t-58 21q-46 0 -80 -34t-34 -79q0 -43 32 -98l24 -40q38 26 63 46t49.5 56
t24.5 72zM415 113l-160 262q-181 -114 -181 -226q0 -56 38.5 -91t91.5 -35q113 0 211 90z" />
    <glyph glyph-name="quotesingle" unicode="'" horiz-adv-x="293" 
d="M174 690l-28 -159q-2 -9 -7 -9h-23q-6 0 -4 9l28 159q1 8 8 8h22q5 0 4 -8z" />
    <glyph glyph-name="parenleft" unicode="(" horiz-adv-x="310" 
d="M305 699q0 -2 -5 -7q-93 -113 -146.5 -246t-53.5 -271q0 -145 63 -280q4 -8 -3 -11l-14 -7q-7 -4 -10 2q-73 148 -73 297q0 271 215 527q6 7 10 7l2 -1l11 -6q4 -1 4 -4z" />
    <glyph glyph-name="parenright" unicode=")" horiz-adv-x="310" 
d="M248 411q0 -273 -220 -532q-4 -4 -6 -4q-1 0 -2 1l-12 8q-4 3 -4 5q0 3 3 6q204 247 204 524q0 143 -61 273q-1 2 -1 6t3 5l14 6q2 1 4 1t6 -7q72 -146 72 -292z" />
    <glyph glyph-name="asterisk" unicode="*" horiz-adv-x="298" 
d="M280 599q0 -3 -0.5 -4.5t-2.5 -2.5l-3 -1.5t-4.5 -1t-5.5 -0.5l-105 -19l60 -82q6 -7 6 -11q0 -5 -9 -9l-15 -9q-7 -4 -11 -4t-7 11l-34 100l-67 -101q-9 -12 -12 -12q-4 0 -9 4l-11 9q-7 6 -7 9q0 2 10 12l83 82l-96 17q-13 3 -13 7q0 3 3 9l8 15q5 11 10 11q1 0 11 -4
l86 -43l6 108q1 14 6 16q3 1 8 1h16q12 0 12 -6q0 -4 -3 -11l-33 -108l101 45q10 4 12 4q6 0 7 -9l2 -16q1 -2 1 -6z" />
    <glyph glyph-name="plus" unicode="+" horiz-adv-x="484" 
d="M435 269l-2 -14q-1 -9 -9 -9h-166l-33 -191q-3 -9 -9 -9h-14q-6 0 -5 9l33 191h-164q-6 0 -7.5 1.5t-0.5 5.5l2 15q1 8 11 8h165l33 191q3 10 10 10h11q10 0 7 -9l-33 -192h163q5 0 7 -1.5t1 -5.5z" />
    <glyph glyph-name="comma" unicode="," horiz-adv-x="188" 
d="M151 39q0 -30 -23 -72q-25 -44 -65 -75q-4 -4 -7 -4q-2 0 -4 2l-3 6q-1 1 -1 2q0 2 5 7q39 33 45 70q1 3 1 9q0 14 -10 32t-10 26q0 15 12 25.5t27 10.5q14 0 23.5 -10.5t9.5 -28.5z" />
    <glyph glyph-name="hyphen" unicode="-" horiz-adv-x="265" 
d="M209 270v-2l-3 -17q-1 -8 -12 -8h-128q-10 0 -10 7v1q1 1 1 2l3 16q0 8 11 8h124q14 0 14 -7z" />
    <glyph glyph-name="period" unicode="." horiz-adv-x="190" 
d="M135 32q0 -16 -12 -29t-28 -13q-12 0 -20.5 8t-8.5 21q0 17 12 28t29 11q28 0 28 -26z" />
    <glyph glyph-name="slash" unicode="/" horiz-adv-x="312" 
d="M336 689l-310 -688q-4 -10 -14 -10h-17q-9 0 -4 9l312 690q3 8 8 8h21q7 0 4 -9z" />
    <glyph glyph-name="zero" unicode="0" 
d="M485 470q0 -66 -16.5 -144t-48.5 -155t-89.5 -128.5t-129.5 -51.5q-46 0 -78.5 20.5t-48.5 55.5t-23 72.5t-7 80.5q0 51 9.5 111.5t32 126t54 118.5t80.5 87.5t108 34.5q46 0 78.5 -20.5t48.5 -55.5t23 -72t7 -80zM442 461q0 204 -119 204q-59 0 -106.5 -48t-74.5 -119
t-41 -141.5t-14 -127.5q0 -28 2.5 -52.5t10 -53.5t20.5 -49.5t35.5 -34.5t52.5 -14q58 0 105 48t74 119t41 142t14 127z" />
    <glyph glyph-name="one" unicode="1" 
d="M379 680v-4l-118 -665q-1 -11 -11 -11h-18q-7 0 -7 6v4l113 638l-165 -103q-4 -2 -8 -2t-4 2l-8 15v2q0 6 6 10l174 109q8 6 25 6h15q6 0 6 -7z" />
    <glyph glyph-name="two" unicode="2" 
d="M482 559q0 -17 -3 -35q-12 -70 -62.5 -143t-164.5 -180q-103 -98 -184 -167h318q9 0 9 -5v-3l-3 -16q-1 -10 -14 -10h-354q-6 0 -6 5v3l3 18q1 8 8 15q20 18 73 65t99.5 90.5t84.5 83.5q134 141 151 239q3 15 3 29q0 53 -34.5 84.5t-89.5 31.5q-67 0 -142 -39
q-1 0 -3.5 -1.5t-4.5 -1.5q-3 0 -4 4l-5 17v2q0 5 7 9q75 44 168 44q66 0 108 -37.5t42 -101.5z" />
    <glyph glyph-name="three" unicode="3" 
d="M459 566q0 -17 -3 -35q-10 -55 -47 -100t-96 -58v-1q52 -11 81 -50t29 -94q0 -18 -3 -37q-16 -89 -83 -144.5t-153 -55.5q-87 0 -139 28q-6 3 -6 7q0 1 2 5l9 19q2 5 7 5q1 0 7 -2q57 -27 119 -27q73 0 127 43.5t68 120.5q3 20 3 36q0 63 -41.5 96t-109.5 33h-24
q-7 0 -7 6v1l3 18q1 7 8 7h17q74 0 125 35t64 108q2 10 2 29q0 52 -35 79t-90 27q-63 0 -120 -27q-1 0 -4 -1.5t-4 -1.5q-3 0 -4 4l-5 17v2q0 4 10 10q61 30 139 30q70 0 112 -34.5t42 -97.5z" />
    <glyph glyph-name="four" unicode="4" 
d="M451 386v-4l-66 -374q-1 -7 -8 -7h-22q-7 0 -7 4v1l1 2l29 165h-332q-9 0 -9 8v3l3 15q2 10 14 29l268 451q5 8 13 8h24q6 0 6 -3q0 -1 -3 -7l-281 -471h303l31 176q1 9 9 9h20q7 0 7 -5z" />
    <glyph glyph-name="five" unicode="5" 
d="M478 683v-3l-3 -20q-1 -6 -9 -6h-133h-116l-43 -243h52q94 0 151 -41.5t57 -124.5q0 -19 -5 -46q-17 -96 -87.5 -152t-167.5 -56q-71 0 -129 34q-5 3 -5 6q0 2 2 6l10 18q3 5 6 5q1 0 5 -2q57 -32 124 -32q70 0 128 43.5t73 126.5q4 21 4 44q0 78 -54 108t-144 30h-49
q-12 0 -12 7l1 1v3l51 290q1 8 9 8h145h132q7 0 7 -4z" />
    <glyph glyph-name="six" unicode="6" 
d="M466 682q0 -2 -1 -3l-5 -17q-2 -6 -8 -6h-2q-36 9 -63 9q-124 0 -209 -161q-41 -80 -60 -169q36 38 89 58.5t94 20.5q64 0 102.5 -39.5t38.5 -110.5q0 -20 -5 -48q-17 -98 -78.5 -161.5t-145.5 -63.5q-155 0 -155 189q0 54 10 108t25.5 106t43 108.5t62.5 98.5t86.5 69.5
t110.5 27.5q30 0 62 -8q8 -2 8 -8zM402 253q0 55 -26 92t-81 37q-95 0 -185 -84q-12 -72 -12 -118q0 -159 121 -159q73 0 120 60t59 128q4 19 4 44z" />
    <glyph glyph-name="seven" unicode="7" 
d="M520 681v-2l-2 -11q-3 -16 -14 -33l-377 -627q-5 -8 -12 -8h-28q-5 0 -5 3q0 1 3 7l391 644h-307q-8 0 -8 5v2l3 19q1 7 9 7h339q8 0 8 -6z" />
    <glyph glyph-name="eight" unicode="8" 
d="M467 571q0 -30 -10.5 -56t-24 -44t-39 -38t-43.5 -30.5t-49 -27.5q134 -66 134 -173q0 -94 -71 -152.5t-167 -58.5q-75 0 -120 37.5t-45 104.5q0 143 201 234q-111 56 -111 154q0 80 60.5 128.5t142.5 48.5q65 0 103.5 -34.5t38.5 -92.5zM426 568q0 46 -28.5 72t-80.5 26
q-65 0 -109.5 -37.5t-44.5 -100.5q0 -81 107 -138q40 22 57 32.5t46 34t41 50.5t12 61zM394 199q0 54 -35 88t-97 65q-42 -22 -67 -37t-57.5 -41.5t-48 -59.5t-15.5 -72q0 -58 39 -88.5t92 -30.5q79 0 134 49t55 127z" />
    <glyph glyph-name="nine" unicode="9" 
d="M472 509q0 -54 -10 -108t-25.5 -106t-43 -108.5t-62.5 -98.5t-86.5 -69.5t-110.5 -27.5q-30 0 -62 8q-9 2 -9 8q0 2 1 3l6 17q2 6 8 6h2q36 -9 63 -9q124 0 209 161q41 80 60 169q-36 -38 -89 -58.5t-94 -20.5q-64 0 -102.5 39.5t-38.5 110.5q0 65 27.5 127t81 104
t120.5 42q155 0 155 -189zM432 509q0 159 -121 159q-79 0 -131 -74.5t-52 -157.5q0 -55 26 -92t81 -37q95 0 185 84q12 72 12 118z" />
    <glyph glyph-name="colon" unicode=":" horiz-adv-x="193" 
d="M172 460q0 -16 -12 -28.5t-29 -12.5q-12 0 -20.5 8t-8.5 20q0 17 12.5 29.5t29.5 12.5q12 0 20 -8t8 -21zM97 36q0 -17 -12.5 -29.5t-28.5 -12.5q-12 0 -20.5 8t-8.5 21q0 17 12.5 28.5t29.5 11.5q12 0 20 -7.5t8 -19.5z" />
    <glyph glyph-name="semicolon" unicode=";" horiz-adv-x="199" 
d="M187 460q0 -16 -12.5 -28.5t-28.5 -12.5q-12 0 -20.5 8t-8.5 20q0 17 12.5 29.5t29.5 12.5q12 0 20 -8t8 -21zM117 39q0 -30 -23 -72q-25 -44 -65 -75q-4 -4 -7 -4q-1 0 -3 2l-4 6q-1 1 -1 2q0 2 2.5 4t2.5 3q40 34 46 70q0 1 0.5 4t0.5 5q0 14 -10.5 32t-10.5 26
q0 15 12 25.5t27 10.5q14 0 23.5 -10.5t9.5 -28.5z" />
    <glyph glyph-name="less" unicode="&#x3c;" horiz-adv-x="484" 
d="M399 509q0 -6 -6 -10l-252 -163l196 -162q4 -3 4 -6q0 -4 -3 -7l-14 -16q-4 -6 -8 -6q-3 0 -6 3l-213 180q-4 3 -4 10l2 9q1 7 7 10l275 179q5 3 8 3q2 0 5 -4l8 -14q1 -2 1 -6z" />
    <glyph glyph-name="equal" unicode="=" horiz-adv-x="484" 
d="M400 389l-4 -20q-1 -7 -9 -7h-262q-7 0 -6 7l4 20q0 7 8 7h262q8 0 7 -7zM364 187l-4 -20q0 -7 -9 -7h-262q-6 0 -6 7l4 20q2 7 8 7h262q8 0 7 -7z" />
    <glyph glyph-name="greater" unicode="&#x3e;" horiz-adv-x="484" 
d="M391 341l-2 -9q0 -6 -6 -10l-277 -180q-7 -5 -14 5l-8 14q-4 8 5 13l254 162l-194 163q-8 7 1 16l11 14q6 7 14 1l213 -179q4 -4 3 -10z" />
    <glyph glyph-name="question" unicode="?" horiz-adv-x="393" 
d="M389 583q0 -61 -32.5 -107.5t-92.5 -96.5q-39 -33 -57 -49.5t-40 -51t-29 -72.5l-2 -11q-2 -7 -10 -7h-15q-5 0 -5 5v2l2 14q7 41 29.5 77t41.5 54.5t56 49.5q37 30 58.5 52t41.5 59t20 76q0 44 -29.5 67.5t-74.5 23.5q-55 0 -115 -32q-4 -2 -5 -2q-4 0 -5 4l-6 14v2
q0 5 8 9q65 35 133 35q56 0 92 -30.5t36 -84.5zM124 30q0 -16 -12.5 -28t-28.5 -12q-13 0 -21 7.5t-8 20.5q0 17 12 28.5t29 11.5q12 0 20.5 -7.5t8.5 -20.5z" />
    <glyph glyph-name="at" unicode="@" horiz-adv-x="787" 
d="M748 459q0 -63 -27.5 -134t-82 -124.5t-117.5 -53.5q-28 0 -46.5 15t-18.5 45q0 5 2 19l6 24q-58 -88 -138 -88q-33 0 -54 22t-21 68q0 21 4 42q14 81 72 148t128 67q25 0 48 -17t23 -54h1l17 46q3 9 9 9h17q4 0 4 -3v-6l-70 -178q-14 -37 -19 -65q-3 -15 -3 -27
q0 -43 43 -43q56 0 101.5 50t67.5 113.5t22 119.5q0 100 -61.5 157.5t-166.5 57.5t-196.5 -60.5t-143 -156.5t-51.5 -200q0 -109 67.5 -172t181.5 -63q78 0 162 41q2 1 6 1t4 -3l2 -11q0 -1 0.5 -3l0.5 -2l-6 -4q-90 -45 -179 -45q-129 0 -205.5 70.5t-76.5 188.5
q0 112 60 216t161.5 168t214.5 64q117 0 187.5 -64t70.5 -175zM512 417q0 65 -57 65q-43 0 -81 -34.5t-57.5 -74.5t-25.5 -75q-4 -19 -4 -38q0 -70 54 -70q34 0 68.5 29t57.5 69l45 117v12z" />
    <glyph glyph-name="A" unicode="A" horiz-adv-x="556" 
d="M491 12q0 -12 -5 -12h-32h-1q-7 0 -8 6l-37 225h-277l-119 -226q-2 -5 -8 -5h-26q-11 0 -6 8l360 670q6 9 12 9h21q6 0 8 -8zM404 263l-62 365l-194 -365h256z" />
    <glyph glyph-name="B" unicode="B" horiz-adv-x="523" 
d="M461 559q0 -70 -43 -125.5t-111 -68.5v-1q63 -3 104 -40.5t41 -100.5q0 -45 -19 -90.5t-50 -72.5q-65 -60 -200 -60h-141q-15 0 -12 12l117 661q1 14 16 14h125q173 0 173 -128zM419 557q0 26 -9.5 44.5t-23.5 28.5t-37 15.5t-41.5 7t-44.5 1.5h-80l-48 -276h86
q86 0 142 47.5t56 131.5zM408 224q0 121 -173 121h-106l-55 -311h105q121 0 174 50q55 51 55 140z" />
    <glyph glyph-name="C" unicode="C" horiz-adv-x="526" 
d="M561 645l-12 -19q-6 -6 -11 -2q-57 40 -140 40q-72 0 -133 -38t-99 -98t-59 -130t-21 -137q0 -105 47.5 -170.5t150.5 -65.5q80 0 161 39q9 4 11 -3l5 -17q1 -7 -10 -13q-86 -40 -180 -40q-116 0 -173.5 71t-57.5 189q0 77 24.5 155t69 144t114 107t151.5 41
q99 0 160 -43q6 -5 2 -10z" />
    <glyph glyph-name="D" unicode="D" horiz-adv-x="623" 
d="M583 439q0 -106 -37.5 -205.5t-111.5 -162.5q-84 -71 -242 -71h-149q-15 0 -13 15l116 658q2 9 4.5 11.5t11.5 2.5h109q96 0 145.5 -10t86.5 -39q80 -62 80 -199zM537 425q0 118 -55 176q-30 32 -77 42.5t-113 10.5h-109l-110 -620h95q77 0 124.5 8t87.5 34
q75 50 116 149t41 200z" />
    <glyph glyph-name="E" unicode="E" horiz-adv-x="472" 
d="M476 680l-6 -19q-2 -7 -11 -7h-278l-48 -276h240q10 0 8 -8l-3 -17q-2 -8 -10 -8h-241l-55 -311h283q9 0 9 -7l-4 -19q-1 -8 -11 -8h-310q-14 0 -11 12l117 661q1 14 17 14h308q7 0 6 -7z" />
    <glyph glyph-name="F" unicode="F" horiz-adv-x="440" 
d="M476 680l-6 -19q-2 -7 -11 -7h-278l-48 -276h240q10 0 8 -8l-3 -17q-2 -8 -10 -8h-241l-59 -331q-3 -14 -13 -14h-16q-14 0 -11 12l117 661q1 14 17 14h308q7 0 6 -7z" />
    <glyph glyph-name="G" unicode="G" horiz-adv-x="608" 
d="M566 647l-10 -19q-5 -8 -11 -3q-56 39 -141 39q-71 0 -132.5 -37.5t-100.5 -97t-61 -129.5t-22 -138q0 -106 47 -171.5t150 -65.5q76 0 156 36l50 284h-121q-8 0 -7 7l3 18q2 8 9 8h152q9 0 8 -10l-54 -305q-2 -12 -7 -18t-22 -14q-84 -40 -179 -40q-118 0 -174.5 71.5
t-56.5 196.5q0 76 26 153.5t71 141.5t115 104t150 40q101 0 160 -42q5 -4 2 -9z" />
    <glyph glyph-name="H" unicode="H" horiz-adv-x="621" 
d="M593 678l-118 -669q-1 -9 -9 -9h-24q-5 0 -6.5 1.5t-0.5 8.5l59 335h-367l-59 -336q-1 -9 -10 -9h-25q-6 0 -5 9l118 669q1 9 10 9h24q7 0 6 -10l-53 -299h367l53 301q1 8 10 8h24q7 0 6 -9z" />
    <glyph glyph-name="I" unicode="I" horiz-adv-x="335" 
d="M321 681l-3 -15q-1 -7 -7 -7h-71l-111 -630h71q6 0 5 -6l-3 -17q-2 -6 -7 -6h-177q-6 0 -5 6l3 17q2 6 7 6h66l111 630h-68q-7 0 -6 7l3 16q1 5 7 5h179q7 0 6 -6z" />
    <glyph glyph-name="J" unicode="J" horiz-adv-x="348" 
d="M318 681l-80 -453q-14 -79 -31.5 -127t-49.5 -74q-45 -36 -119 -36q-13 0 -39 4q-9 2 -6 11l5 14q3 7 11 5q26 -4 39 -4q70 0 102 45q27 38 44 137l80 456h-118q-7 0 -5 7l2 16q1 5 7 5h152q8 0 6 -6z" />
    <glyph glyph-name="K" unicode="K" horiz-adv-x="466" 
d="M501 679l-332 -324l232 -346q5 -9 -4 -9h-33q-11 0 -18 11l-218 332h-1l-59 -332q-2 -11 -11 -11h-23q-8 0 -6 11l117 666q3 10 11 10h23q8 0 6 -11l-55 -314h1l328 320q5 5 12 5h25q5 0 6.5 -2.5t-1.5 -5.5z" />
    <glyph glyph-name="L" unicode="L" horiz-adv-x="402" 
d="M332 27l-4 -21q-1 -6 -8 -6h-286q-7 0 -6 10l118 668q1 9 7 9h28q7 0 5 -9l-114 -644h253q9 0 7 -7z" />
    <glyph glyph-name="M" unicode="M" horiz-adv-x="795" 
d="M743 680l-95 -670q-2 -10 -9 -10h-26q-7 0 -5 11l78 567h-2l-325 -571q-4 -7 -11 -7h-14q-7 0 -8 7l-136 571h-2l-116 -570q-1 -8 -7 -8h-27q-6 0 -5 7l139 668q2 12 12 12h15q9 0 11 -10l143 -609h2l350 612q3 7 11 7h21q6 0 6 -7z" />
    <glyph glyph-name="N" unicode="N" horiz-adv-x="648" 
d="M619 679l-118 -670q-1 -9 -10 -9h-18q-6 0 -12 13l-287 601h-1l-107 -604q-1 -10 -11 -10h-19q-8 0 -7 9l118 670q2 8 10 8h19q6 0 9 -7l290 -600h1l105 599q2 8 9 8h25q6 0 4 -8z" />
    <glyph glyph-name="O" unicode="O" horiz-adv-x="621" 
d="M581 454q0 -76 -21 -155t-61 -149t-107 -114.5t-149 -44.5q-104 0 -153.5 66.5t-49.5 174.5q0 76 21.5 155.5t61 150t106.5 115.5t148 45q104 0 154 -68t50 -176zM535 452q0 60 -14 104.5t-52 75.5t-98 31q-69 0 -126 -43t-90 -108.5t-51 -137t-18 -135.5
q0 -94 38.5 -154t125.5 -60q69 0 126 43t90.5 109t51 138t17.5 137z" />
    <glyph glyph-name="P" unicode="P" horiz-adv-x="478" 
d="M467 534q0 -74 -35 -133q-34 -58 -95.5 -90.5t-138.5 -32.5h-83l-47 -268q-1 -10 -14 -10h-20q-8 0 -6 9l118 669q2 9 11 9h111q199 0 199 -153zM424 540q0 36 -14 60t-40 35t-53 15t-64 4h-71l-61 -343h77q122 0 184 84q42 58 42 145z" />
    <glyph glyph-name="Q" unicode="Q" horiz-adv-x="631" 
d="M590 454q0 -63 -14.5 -129t-42.5 -128t-74 -111.5t-103 -73.5q35 -13 84.5 -51t86.5 -49q6 -2 4 -8v-2l-8 -14q-3 -7 -9 -7h-2q-46 11 -98 54q-38 32 -63 44t-60 15q-18 -3 -39 -3q-104 0 -153.5 66.5t-49.5 174.5q0 76 21.5 155.5t61 150t106.5 115.5t148 45
q104 0 154 -68t50 -176zM544 452q0 60 -14 104.5t-52 75.5t-98 31q-69 0 -126 -43t-90 -108.5t-51 -137t-18 -135.5q0 -94 38.5 -154t125.5 -60q69 0 126 43t90.5 109t51 138t17.5 137z" />
    <glyph glyph-name="R" unicode="R" horiz-adv-x="493" 
d="M475 543q0 -49 -20 -98.5t-57 -82.5q-45 -41 -115 -54l113 -297q4 -11 -6 -11h-27q-8 0 -12 9l-108 295h-123l-52 -296q-2 -8 -7 -8h-28q-7 0 -5 8l118 670q2 9 11 9h129q189 0 189 -144zM430 540q0 63 -40.5 88.5t-119.5 25.5h-88l-56 -317h105q96 0 149 60
q50 55 50 143z" />
    <glyph glyph-name="S" unicode="S" horiz-adv-x="460" 
d="M436 660l-7 -16q-3 -7 -12 -3q-56 25 -116 25q-67 0 -118 -39.5t-51 -104.5q0 -64 67 -108l91 -62q48 -32 73.5 -66t25.5 -84q0 -42 -19 -83.5t-50 -69.5q-65 -58 -172 -58q-70 0 -134 23q-11 4 -6 16l7 16q5 9 12 6q63 -26 128 -26q79 0 131 42q29 21 45.5 54.5
t16.5 68.5q0 43 -20.5 70.5t-58.5 52.5l-108 72q-73 48 -73 126q0 80 66 133t148 53q75 0 131 -26q7 -3 3 -12z" />
    <glyph glyph-name="T" unicode="T" horiz-adv-x="498" 
d="M536 680l-5 -19q-2 -7 -14 -7h-198l-114 -646q-2 -8 -10 -8h-23q-6 0 -7 1.5t0 6.5l114 646h-198q-7 0 -6 7l4 20q0 6 8 6h443q8 0 6 -7z" />
    <glyph glyph-name="U" unicode="U" horiz-adv-x="666" 
d="M638 678l-67 -383q-27 -153 -99 -227q-74 -77 -198 -77q-107 0 -155 49t-48 129q0 60 14 136l65 371q1 11 11 11h22q8 0 7 -13l-64 -361q-14 -75 -14 -132q0 -76 37 -115.5t130 -39.5q52 0 93 16.5t67.5 42.5t46 65.5t30 77t18.5 86.5l65 365q0 8 7 8h28q6 0 4 -9z" />
    <glyph glyph-name="V" unicode="V" horiz-adv-x="563" 
d="M587 676l-333 -668q-4 -8 -12 -8h-35q-6 0 -7 10l-102 664q-2 13 8 13h27q12 0 13 -9l91 -622h1l306 621q4 10 14 10h24q12 0 5 -11z" />
    <glyph glyph-name="W" unicode="W" horiz-adv-x="825" 
d="M854 678l-298 -671q-2 -7 -9 -7h-36q-6 0 -7 9l-39 613h-2l-261 -615q-2 -7 -10 -7h-34q-6 0 -7 9l-56 667q-1 4 2.5 7.5t8.5 3.5h18q11 0 12 -8l50 -633h1l268 632q5 9 15 9h15q10 0 11 -8l45 -633h1l276 632q4 9 15 9h16q9 0 5 -9z" />
    <glyph glyph-name="X" unicode="X" horiz-adv-x="513" 
d="M518 678l-233 -315l136 -351q4 -12 -7 -12h-23q-15 0 -19 11l-117 312l-227 -309q-9 -14 -21 -14h-19q-13 0 -3 13l256 346l-119 315q-6 13 6 13h25q7 0 11 -7l107 -281l204 278q7 10 18 10h21q11 0 4 -9z" />
    <glyph glyph-name="Y" unicode="Y" horiz-adv-x="503" 
d="M527 679l-264 -413l-45 -254q-2 -12 -12 -12h-18q-7 0 -9 2.5t-1 8.5l45 253l-127 411q-3 12 10 12h17q6 0 9.5 -1t4.5 -2.5t2 -5.5l112 -374h1l233 371q7 12 17 12h21q8 0 4 -8z" />
    <glyph glyph-name="Z" unicode="Z" horiz-adv-x="497" 
d="M521 680l-1 -9q-1 -6 -10 -18l-485 -619h370q9 0 8 -10l-3 -15q-2 -9 -10 -9h-409q-6 0 -8 1.5t-1 6.5l2 10q2 6 7 15l486 621h-333q-9 0 -8 8l3 18q1 7 10 7h375q9 0 7 -7z" />
    <glyph glyph-name="bracketleft" unicode="[" horiz-adv-x="275" 
d="M324 691l-2 -12q-1 -8 -10 -8h-113l-138 -788h113q7 0 6 -6l-2 -13q-1 -8 -9 -8h-139q-6 0 -7.5 2.5t-0.5 9.5l144 819q2 11 12 11h139q8 0 7 -7z" />
    <glyph glyph-name="backslash" unicode="\" horiz-adv-x="334" 
d="M259 -4q2 -9 -5 -9h-19q-6 0 -8 8l-145 696q-2 12 8 12h15q9 0 10 -10z" />
    <glyph glyph-name="bracketright" unicode="]" horiz-adv-x="276" 
d="M254 686l-144 -819q-2 -11 -12 -11h-140q-8 0 -7 7l2 12q1 8 10 8h114l138 788h-114q-7 0 -6 6l2 13q1 8 9 8h140q6 0 7.5 -2.5t0.5 -9.5z" />
    <glyph glyph-name="asciicircum" unicode="^" horiz-adv-x="514" 
d="M409 402q3 -7 -4 -10l-12 -5q-9 -4 -12 4l-104 254l-195 -247q-7 -9 -14 -4l-10 9q-3 5 3 11l212 264q7 8 11 8h6q4 0 6 -6z" />
    <glyph glyph-name="underscore" unicode="_" horiz-adv-x="487" 
d="M478 -92l-2 -16q-1 -9 -13 -9h-445q-10 0 -9 10l3 16q0 8 11 8h444q6 0 9 -2.5t2 -6.5z" />
    <glyph glyph-name="grave" unicode="`" horiz-adv-x="296" 
d="M221 586q0 -3 -1 -4l-7 -9q-1 -3 -6 -3q-2 0 -3 1l-130 86q-4 3 -4 7t3 7l19 22q5 5 9 5q2 0 8 -4l111 -105q1 -1 1 -3z" />
    <glyph glyph-name="a" unicode="a" horiz-adv-x="503" 
d="M460 431l-65 -358q-3 -12 -3 -26q0 -22 16 -22q11 0 34 14q5 4 7 -1l5 -14q0 -4 -6 -7q-1 0 -9.5 -5t-20 -9t-23.5 -4q-39 0 -39 42q0 7 3 28l5 24q-23 -40 -70 -71t-110 -31q-74 0 -109 50t-35 135q0 70 29.5 141.5t90 123t135.5 51.5q84 0 161 -51q5 -4 4 -10zM422 419
q-49 44 -128 44q-65 0 -116 -49.5t-75 -115.5t-24 -129q0 -70 30 -109t82 -39q119 0 182 131z" />
    <glyph glyph-name="b" unicode="b" horiz-adv-x="505" 
d="M466 311q0 -76 -26.5 -147t-86 -122t-140.5 -51q-90 0 -163 41q-8 5 -5 22l112 639q1 11 10 12l21 3q3 1 5 -2.5t1 -6.5l-50 -284q77 77 173 77q75 0 112 -49.5t37 -131.5zM427 313q0 148 -123 148q-43 0 -89.5 -23.5t-77.5 -60.5l-56 -324q19 -14 56.5 -23.5t72.5 -9.5
q54 0 97.5 28t68.5 72t38 94t13 99z" />
    <glyph glyph-name="c" unicode="c" horiz-adv-x="402" 
d="M417 454l-9 -16q-3 -6 -9 -3q-54 27 -98 27q-79 0 -138 -57q-84 -83 -84 -235q0 -64 34.5 -106.5t105.5 -42.5q54 0 112 23q8 4 9 -3l3 -14q0 -6 -10 -10q-60 -26 -120 -26q-174 0 -174 188q0 66 25.5 132t70.5 110q71 71 172 71q61 0 106 -28q6 -5 4 -10z" />
    <glyph glyph-name="d" unicode="d" horiz-adv-x="502" 
d="M510 701l-40 -224l-83 -470q0 -7 -7 -7h-22q-7 0 -7 7l11 62q-73 -78 -171 -78q-94 0 -129.5 71t-16.5 179q19 112 88 181.5t157 69.5q43 0 80.5 -20t52.5 -57l12 69l38 211q1 9 8 10l22 3q4 1 6 -1t1 -6zM415 368q-12 43 -45.5 69t-78.5 26q-78 0 -133.5 -59.5
t-73.5 -161.5q-18 -100 12 -161.5t103 -61.5q45 0 93 26t78 66z" />
    <glyph glyph-name="e" unicode="e" horiz-adv-x="466" 
d="M431 288l-6 -30q-2 -9 -4 -11t-11 -2h-87h-237q-8 -59 -3 -109t40.5 -83t99.5 -33q63 0 121 22q10 2 10 -3v-14q1 -7 -10 -11q-56 -23 -131 -23q-103 0 -145 67.5t-21 183.5q18 108 88 179t164 71q78 0 113 -57t19 -147zM398 299q12 69 -14.5 116.5t-91.5 47.5
q-85 0 -140 -68q-39 -45 -60 -123h301z" />
    <glyph glyph-name="f" unicode="f" horiz-adv-x="293" 
d="M379 697l-3 -12q-1 -6 -11 -4q-27 9 -59 9q-60 0 -89 -38t-43 -116l-10 -54h130q8 0 7 -8l-2 -12q-1 -7 -9 -7h-131l-113 -658q-2 -9 -9 -9h-21q-8 0 -6 9l113 658h-61q-5 0 -6 1t0 6l2 12q1 8 10 8h60l4 20q12 68 16 80q17 65 58.5 100t100.5 35q41 0 70 -11q4 -2 2 -9z
" />
    <glyph glyph-name="g" unicode="g" horiz-adv-x="508" 
d="M473 406l-70 -388q-20 -113 -76.5 -175.5t-166.5 -62.5q-61 0 -118 31q-8 5 -3 13l7 12q4 6 11 3q66 -29 107 -29q54 0 92 18t60 53.5t33.5 69.5t20.5 84l8 44q-26 -36 -75 -57.5t-96 -21.5q-77 0 -115.5 48.5t-38.5 127.5q0 74 28 145t87.5 121t135.5 50q103 0 165 -67
q6 -8 4 -19zM435 404q-19 28 -54 43.5t-76 15.5q-68 0 -118 -45.5t-72 -108t-22 -128.5q0 -67 29 -109t94 -42q47 0 91.5 24.5t76.5 63.5z" />
    <glyph glyph-name="h" unicode="h" horiz-adv-x="509" 
d="M455 373q0 -25 -5 -58l-53 -305q-1 -10 -9 -10h-21q-7 0 -6 9l51 297q6 36 6 57q0 48 -21.5 73t-75.5 25q-93 0 -178 -76l-66 -376q-2 -9 -9 -9h-22q-6 0 -5 9l121 686q1 8 9 10l21 3q4 1 6 -1t1 -7l-49 -279q32 30 80.5 50.5t97.5 20.5q127 0 127 -119z" />
    <glyph glyph-name="i" unicode="i" horiz-adv-x="205" 
d="M194 612q0 -13 -9.5 -22t-22.5 -9q-23 0 -23 21q0 13 9.5 22t22.5 9q23 0 23 -21zM161 473l-82 -464q-2 -9 -8 -9h-23q-7 0 -5 9l82 464q2 9 8 9h22q7 0 6 -9z" />
    <glyph glyph-name="j" unicode="j" horiz-adv-x="229" 
d="M218 612q0 -13 -9.5 -22t-22.5 -9q-22 0 -22 21q0 13 9 22t22 9q23 0 23 -21zM184 472l-81 -460q-7 -42 -14.5 -70.5t-22 -61.5t-34 -53t-51 -33.5t-72.5 -13.5q-10 0 -36 4q-7 1 -5 9l3 13q4 7 9 6q22 -4 36 -4q56 0 89 36q39 43 61 164l82 465q1 9 8 9h23q7 0 5 -10z
" />
    <glyph glyph-name="k" unicode="k" horiz-adv-x="388" 
d="M388 474l-193 -184l135 -280q4 -10 -5 -10h-24q-10 0 -14 8l-122 255l-53 -49l-36 -205q-2 -9 -9 -9h-22q-7 0 -5 9l121 685q1 10 10 11l20 3q4 1 6 -2t1 -6l-78 -441l228 217q8 6 14 6h22q12 0 4 -8z" />
    <glyph glyph-name="l" unicode="l" horiz-adv-x="191" 
d="M199 701l-122 -691q-1 -10 -10 -10h-19q-8 0 -7 10l121 684q1 10 9 11l22 3q4 1 5.5 -1t0.5 -6z" />
    <glyph glyph-name="m" unicode="m" horiz-adv-x="797" 
d="M741 374q0 -26 -6 -58l-54 -307q-1 -9 -8 -9h-22q-8 0 -6 9l53 297q7 40 7 64q0 93 -104 93q-33 0 -77 -19.5t-80 -47.5q2 -12 2 -24q0 -21 -11 -84l-49 -279q-2 -9 -7 -9h-23q-8 0 -6 9l53 297q7 35 7 58q0 99 -100 99q-74 0 -166 -81l-66 -373q-2 -9 -8 -9h-22
q-8 0 -6 9l82 464q2 9 9 9h22q7 0 5 -9l-10 -55q82 74 176 74q86 0 114 -69q85 69 177 69q62 0 93 -31t31 -87z" />
    <glyph glyph-name="n" unicode="n" horiz-adv-x="513" 
d="M457 371q0 -25 -6 -55l-54 -308q-1 -8 -8 -8h-23q-7 0 -5 8l52 298q7 40 7 65q0 91 -99 91q-86 0 -177 -79l-66 -373q-2 -10 -10 -10h-21q-7 0 -5 9l82 464q2 9 7 9h23q8 0 6 -9l-10 -54q88 73 185 73q60 0 91 -31.5t31 -89.5z" />
    <glyph glyph-name="o" unicode="o" horiz-adv-x="497" 
d="M458 312q0 -79 -27.5 -150.5t-88 -121t-141.5 -49.5q-82 0 -122 48t-40 131q0 78 27 149.5t87 122t141 50.5q82 0 123 -48t41 -132zM418 306q0 70 -30 113.5t-97 43.5q-70 0 -120 -47.5t-71.5 -111.5t-21.5 -131q0 -154 127 -154q69 0 119 47t72 110.5t22 129.5z" />
    <glyph glyph-name="p" unicode="p" horiz-adv-x="507" 
d="M469 309q0 -88 -37 -165q-33 -68 -88.5 -110.5t-125.5 -42.5q-45 0 -82.5 20t-51.5 57l-47 -264q-1 -10 -8 -10h-21q-8 0 -7 8l119 673q0 7 7 7h22q7 0 7 -7l-11 -61q70 78 173 78q75 0 113 -51t38 -132zM430 310q0 72 -31 112t-91 40q-46 0 -93.5 -25t-76.5 -65
l-45 -254q12 -44 45 -71t77 -27q70 0 120.5 47.5t72.5 111.5t22 131z" />
    <glyph glyph-name="q" unicode="q" horiz-adv-x="497" 
d="M461 429l-112 -639q-1 -11 -10 -12l-20 -3q-7 -1 -7 9l51 281q-33 -34 -78.5 -54t-91.5 -20q-75 0 -114 51.5t-39 133.5q0 76 27.5 146t88 120t141.5 50q86 0 159 -41q9 -5 5 -22zM425 430q-45 33 -125 33q-71 0 -123.5 -47.5t-75 -111t-22.5 -130.5q0 -70 30.5 -111
t91.5 -41q44 0 90 25t79 63z" />
    <glyph glyph-name="r" unicode="r" horiz-adv-x="274" 
d="M307 484l-6 -16q-2 -6 -8 -6q-7 1 -22 1q-66 0 -129 -89l-64 -365q-2 -9 -9 -9h-22q-7 0 -5 9l82 464q2 9 8 9h21q9 0 7 -9l-11 -59q27 39 64.5 58.5t72.5 19.5q10 0 16 -1q7 0 5 -7z" />
    <glyph glyph-name="s" unicode="s" horiz-adv-x="360" 
d="M344 459l-5 -13q-3 -7 -11 -4q-46 22 -91 22q-51 0 -88.5 -27t-37.5 -76q0 -29 20.5 -49.5t50.5 -34t59.5 -28t50 -40.5t20.5 -62q0 -13 -2 -20q-11 -65 -63 -100.5t-121 -35.5q-57 0 -109 27q-6 3 -2 11l8 15q3 5 9 2q51 -27 100 -27q57 0 101 33.5t44 87.5
q0 31 -21 53.5t-50.5 36t-59.5 27.5t-51 38t-21 58q0 63 50 101t115 38q58 0 103 -23q5 -3 2 -10z" />
    <glyph glyph-name="t" unicode="t" horiz-adv-x="286" 
d="M296 476l-2 -13q-1 -8 -8 -8h-122l-51 -289q-11 -61 -11 -82q0 -66 74 -66q23 0 57 9q1 0 3 1h1q3 0 5 -5v-13q0 -5 -6 -7q-33 -12 -73 -12q-63 0 -84 33q-14 21 -14 54q0 23 11 87l52 290h-61q-8 0 -7 7l2 14q1 6 9 6h62l22 127q1 8 9 9l21 3q4 1 6 -1t1 -7l-23 -131
h122q7 0 5 -6z" />
    <glyph glyph-name="u" unicode="u" horiz-adv-x="500" 
d="M460 473l-82 -464q-2 -9 -8 -9h-23q-7 0 -5 9l9 54q-81 -73 -174 -73q-60 0 -91 31.5t-31 89.5q0 25 6 55l54 308q1 8 7 8h23q8 0 6 -8l-53 -298q-6 -35 -6 -65q0 -91 99 -91q80 0 167 79l66 373q2 10 9 10h21q8 0 6 -9z" />
    <glyph glyph-name="v" unicode="v" horiz-adv-x="404" 
d="M413 473l-239 -468q-2 -5 -6 -5h-21q-6 0 -8 5l-74 468q-1 9 8 9h23q8 0 8 -7l65 -423l208 422q5 8 13 8h20q8 0 3 -9z" />
    <glyph glyph-name="w" unicode="w" horiz-adv-x="648" 
d="M658 473l-220 -469q-1 -4 -7 -4h-23q-6 0 -7 4l-46 427l-198 -427q-1 -4 -7 -4h-21q-6 0 -8 4l-51 469q-2 9 7 9h18q10 0 10 -8l43 -431l198 432q4 7 13 7h15q7 0 7 -7l47 -431l197 431q4 7 14 7h17q6 0 2 -9z" />
    <glyph glyph-name="x" unicode="x" horiz-adv-x="419" 
d="M410 472l-176 -217l107 -244q3 -11 -6 -11h-23q-8 0 -12 8l-92 216l-174 -217q-6 -7 -15 -7h-20q-10 0 -2 8l199 244l-95 221q-5 9 7 9h19q9 0 14 -10l80 -189l154 191q7 8 15 8h19q8 0 1 -10z" />
    <glyph glyph-name="y" unicode="y" horiz-adv-x="422" 
d="M444 473l-278 -532q-47 -89 -92.5 -125t-112.5 -36q-12 0 -27 3q-8 1 -5 10l5 15q1 7 11 5q18 -2 27 -2q87 0 137 90l47 84l-85 487q-2 10 7 10h20q10 0 11 -9l73 -440l225 440q5 9 15 9h18q9 0 4 -9z" />
    <glyph glyph-name="z" unicode="z" horiz-adv-x="371" 
d="M383 477l-2 -11q-2 -6 -9 -15l-328 -424h257q6 0 5 -7l-2 -14q-1 -6 -9 -6h-286q-8 0 -7 7l2 9q1 7 10 20l324 419h-230q-8 0 -7 8l3 13q0 6 9 6h265q5 0 5 -5z" />
    <glyph glyph-name="braceleft" unicode="{" horiz-adv-x="298" 
d="M337 693l-5 -17q-1 -5 -8 -5h-50q-43 0 -66 -31.5t-31 -68.5l-26 -138q-28 -143 -91 -148v-1q35 -3 43 -41t-5 -112l-22 -132q-1 -18 -0.5 -40.5t16.5 -41t46 -18.5h47q5 0 7 -2t1 -5l-1 -13q0 -7 -6 -7h-46q-55 0 -81 31.5t-17 94.5l25 156q10 54 3.5 84.5t-34.5 35.5
q-10 1 -8 6l1 7q2 7 9 8q53 10 74 114l31 163q12 62 51 94t92 32h46q6 0 5 -5z" />
    <glyph glyph-name="bar" unicode="|" horiz-adv-x="179" 
d="M106 -10q0 -9 -6 -9h-19q-7 0 -7 9v709q0 9 6 9h20q6 0 6 -9v-709z" />
    <glyph glyph-name="braceright" unicode="}" horiz-adv-x="298" 
d="M269 287l-1 -7q0 -5 -10 -6q-30 -5 -46 -33.5t-27 -86.5l-31 -156q-25 -126 -142 -126h-46q-5 0 -4 5l5 19q1 3 10 3h47q42 0 66 32t31 68l25 132q15 78 35.5 114t56.5 39v1q-61 5 -39 148l22 138q1 19 1 41t-16 40.5t-46 18.5h-50q-6 0 -6 5l1 17q0 5 7 5h46
q53 0 80 -32t18 -94l-26 -163q-17 -104 34 -114q7 -1 5 -8z" />
    <glyph glyph-name="asciitilde" unicode="~" horiz-adv-x="514" 
d="M441 311q3 -5 -3 -11q-64 -56 -117 -56q-26 0 -66.5 26.5t-68.5 26.5q-34 0 -94 -39q-7 -4 -12 3l-6 12q-4 6 8 14q60 43 111 43q32 0 75.5 -26t66.5 -26q27 0 85 44q7 6 14 -2z" />
    <glyph glyph-name="nbspace" unicode="&#xa0;" horiz-adv-x="225" 
 />
    <glyph glyph-name="exclamdown" unicode="&#xa1;" horiz-adv-x="228" 
d="M198 463q0 -17 -12 -28t-29 -11q-28 0 -28 26q0 16 12 29t28 13q12 0 20.5 -8t8.5 -21zM153 333v-4l-86 -527q-2 -7 -7 -7h-30q-7 0 -6 7l101 527q2 8 8 8h15q5 0 5 -4z" />
    <glyph glyph-name="cent" unicode="&#xa2;" 
d="M469 457q0 -2 -1 -3l-9 -16q-1 -4 -5 -4q-3 0 -4 1q-54 27 -98 27h-5h-3l-77 -441h4h2q49 0 110 23q1 1 4 1q5 0 5 -4l3 -14v-1q0 -5 -10 -9q-58 -26 -118 -26h-2h-4l-14 -79q-1 -10 -9 -10h-9q-8 0 -8 6v4l15 81q-144 16 -144 177q0 116 61 210.5t170 109.5l15 86
q3 11 10 11h10q7 0 7 -7v-3l-15 -85h3h5q60 0 106 -28q5 -5 5 -7zM318 459q-90 -16 -139 -99t-49 -181q0 -63 27 -105t84 -51z" />
    <glyph glyph-name="sterling" unicode="&#xa3;" 
d="M503 669l-5 -16q-3 -8 -12 -5q-49 19 -94 19q-68 0 -105.5 -49t-50.5 -123l-20 -112h168q7 0 7 -8l-3 -12q0 -7 -9 -7h-169l-14 -79h169q8 0 7 -7l-2 -13q-2 -7 -9 -7h-169l-6 -29q-12 -68 -32.5 -116t-65.5 -72v-1h309q5 0 8 -2t2 -6l-3 -16q-1 -8 -13 -8h-363
q-8 0 -6 8l2 12q1 6 12 11q85 45 106 166l10 53h-60q-8 0 -6 7l2 13q1 7 8 7h60l14 79h-60q-6 0 -6 7l3 12q0 8 8 8h60l19 107q17 99 68 153.5t136 54.5q59 0 101 -19q7 -4 4 -10z" />
    <glyph glyph-name="yen" unicode="&#xa5;" 
d="M538 679l-249 -390h101q8 0 7 -7l-2 -14q-1 -7 -10 -7h-112l-11 -64h112q8 0 7 -7l-3 -14q0 -7 -9 -7h-112l-27 -157q-3 -12 -13 -12h-18q-7 0 -9 2.5t-1 8.5l28 158h-113q-6 0 -6 7l3 14q2 7 8 7h113l11 64h-113q-6 0 -5 7l2 14q2 7 8 7h101l-119 386q-3 12 11 12h17
q12 0 15 -9l112 -374h1l233 371q8 12 18 12h19q11 0 5 -8z" />
    <glyph glyph-name="brokenbar" unicode="&#xa6;" horiz-adv-x="179" 
d="M169 699l-41 -231q-2 -9 -8 -9h-19q-7 0 -5 9l41 231q1 9 7 9h20q6 0 5 -9zM84 221l-41 -231q-1 -9 -7 -9h-19q-7 0 -6 9l41 231q2 9 8 9h20q6 0 4 -9z" />
    <glyph glyph-name="section" unicode="&#xa7;" horiz-adv-x="448" 
d="M402 670q0 -3 -1 -5l-7 -13q-2 -5 -7 -5q-2 0 -3 1q-48 22 -92 22q-51 0 -87.5 -27t-36.5 -76q0 -28 15.5 -45.5t45.5 -31.5l59 -29q81 -41 81 -108q0 -37 -20.5 -71t-53.5 -55q38 -33 38 -80q0 -71 -56.5 -113.5t-129.5 -42.5q-55 0 -109 27q-4 3 -4 5q0 1 2 5l8 15
q1 4 6 4q2 0 3 -1q51 -27 101 -27q58 0 101 32.5t43 88.5q0 26 -14 46q-17 24 -61 45l-54 26q-74 35 -74 96q0 40 24 73t62 50q-50 33 -50 83q0 63 50 101t115 38q57 0 102 -23q4 -1 4 -5zM334 346q0 56 -76 91l-45 21q-37 -10 -59 -35t-22 -62q0 -28 16 -46t48 -33l56 -27
q11 -5 19 -10q63 35 63 101z" />
    <glyph glyph-name="dieresis" unicode="&#xa8;" horiz-adv-x="297" 
d="M261 672q0 -16 -12 -29t-28 -13q-12 0 -20.5 8t-8.5 21q0 17 12 28t29 11q28 0 28 -26zM108 672q0 -16 -12 -29t-28 -13q-12 0 -20.5 8t-8.5 21q0 17 12 28t29 11q28 0 28 -26z" />
    <glyph glyph-name="copyright" unicode="&#xa9;" horiz-adv-x="800" 
d="M755 411q0 -106 -59 -201.5t-155.5 -152.5t-202.5 -57q-126 0 -209.5 81.5t-83.5 207.5q0 106 59 201.5t155.5 152.5t202.5 57q126 0 209.5 -81.5t83.5 -207.5zM726 406q0 116 -76.5 190.5t-192.5 74.5q-97 0 -186 -52t-143 -140t-54 -185q0 -116 76.5 -190.5
t192.5 -74.5q97 0 186 52t143 140t54 185zM553 525l-9 -14q-2 -5 -6 -2q-33 24 -80 24q-59 0 -103.5 -39t-64.5 -93t-20 -111t29 -95.5t88 -38.5q47 0 96 23q6 3 6 -2l3 -13q1 -4 -5 -7q-51 -25 -108 -25q-70 0 -105 44.5t-35 115.5q0 98 60.5 181.5t155.5 83.5q59 0 97 -26
q3 -3 1 -6z" />
    <glyph glyph-name="ordfeminine" unicode="&#xaa;" horiz-adv-x="295" 
d="M255 631q0 -15 -5 -42l-30 -174q-2 -12 -8 -12h-17q-6 0 -6 5v6l4 21q-15 -15 -42 -26.5t-50 -11.5q-33 0 -52 18t-19 46q0 10 1 15q18 100 187 100l5 27q2 12 2 19q0 52 -48 52q-41 0 -83 -20q-10 -4 -11 -4q-3 0 -3 3l-4 10v2q0 5 8 9q44 24 97 24q40 0 57 -16.5
t17 -50.5zM213 555q-135 0 -148 -74q0 -2 -0.5 -6t-0.5 -6q0 -22 14 -34t35 -12q41 0 83 36z" />
    <glyph glyph-name="guillemotleft" unicode="&#xab;" horiz-adv-x="445" 
d="M397 379l-109 -150l54 -157q3 -7 -1 -9l-7 -4q-7 -4 -9 3l-79 157q-3 8 4 17l132 153q5 5 10 2l5 -3q5 -3 0 -9zM241 379l-109 -150l54 -157q2 -6 -2 -9l-6 -4q-7 -4 -10 3l-78 157q-5 8 4 17l132 153q5 5 9 2l6 -3q5 -3 0 -9z" />
    <glyph glyph-name="logicalnot" unicode="&#xac;" horiz-adv-x="493" 
d="M443 389l-30 -172q-1 -8 -8 -8h-13q-8 0 -6 8l26 147h-302q-7 0 -6 7l3 18q2 7 8 7h321q8 0 7 -7z" />
    <glyph glyph-name="registered" unicode="&#xae;" horiz-adv-x="800" 
d="M755 411q0 -106 -59 -201.5t-155.5 -152.5t-202.5 -57q-126 0 -209.5 81.5t-83.5 207.5q0 106 59 201.5t155.5 152.5t202.5 57q126 0 209.5 -81.5t83.5 -207.5zM726 406q0 116 -76.5 190.5t-192.5 74.5q-97 0 -186 -52t-143 -140t-54 -185q0 -116 76.5 -190.5
t192.5 -74.5q97 0 186 52t143 140t54 185zM542 466q0 -54 -30 -91.5t-84 -52.5l66 -178q2 -7 -4 -7h-21q-4 0 -7 6l-61 176h-72l-32 -177q0 -5 -5 -5h-20q-3 0 -3 5l71 402q2 6 7 6h81q114 0 114 -84zM514 461q0 69 -97 69h-51l-34 -191h59q55 0 89.5 34t33.5 88z" />
    <glyph glyph-name="macron" unicode="&#xaf;" horiz-adv-x="297" 
d="M261 687l-2 -11q-2 -12 -13 -12h-200q-5 0 -7 0.5t-3.5 3t0.5 8.5l2 11q2 11 14 11h202q9 0 7 -11z" />
    <glyph glyph-name="degree" unicode="&#xb0;" horiz-adv-x="275" 
d="M232 619q0 -43 -34.5 -76.5t-78.5 -33.5q-34 0 -57 22t-23 56q0 43 35 77t79 34q34 0 56.5 -22.5t22.5 -56.5zM207 615q0 25 -16.5 41.5t-42.5 16.5q-32 0 -57.5 -25t-25.5 -57q0 -25 17 -41t42 -16q32 0 57.5 24.5t25.5 56.5z" />
    <glyph glyph-name="plusminus" unicode="&#xb1;" horiz-adv-x="484" 
d="M444 357l-3 -14q-1 -9 -8 -9h-166l-29 -164q-3 -9 -9 -9h-14q-7 0 -5 9l29 164h-164q-6 0 -8 1.5t-1 5.5l3 15q1 8 10 8h165l29 165q1 10 10 10h11q8 0 7 -9l-29 -166h163q6 0 8 -1.5t1 -5.5zM359 44l-4 -18q0 -7 -9 -7h-302q-6 0 -6 7l4 18q0 7 8 7h302q8 0 7 -7z" />
    <glyph glyph-name="twosuperior" unicode="&#xb2;" horiz-adv-x="317" 
d="M283 615q-7 -39 -32 -76.5t-84 -95.5q-41 -41 -87 -84h150q5 0 7.5 -2t1.5 -6l-1 -5q-2 -9 -11 -9h-172q-10 0 -9 9l2 9q0 4 4 8q5 5 52.5 50t69 67.5t48 61t31.5 68.5q5 34 -10 53.5t-45 19.5t-68 -19q-4 -2 -6 -2q-3 0 -6 4l-1 4q-1 2 -1 6q3 5 6 7q39 23 85 23
q39 0 61.5 -24.5t14.5 -66.5z" />
    <glyph glyph-name="threesuperior" unicode="&#xb3;" horiz-adv-x="317" 
d="M262 623q-4 -24 -22 -49t-48 -37q30 -10 42.5 -37.5t7.5 -56.5q-8 -47 -44.5 -77.5t-80.5 -30.5q-39 0 -66 12q-7 3 -6 9v2l4 8q2 4 6 4q3 0 5 -1q24 -11 57 -11q35 0 62 22t34 61q7 40 -13.5 61.5t-58.5 21.5h-11q-8 0 -7 8l1 6q1 8 9 8h8q35 0 60 18.5t32 56.5
q11 64 -58 64q-26 0 -55 -13q-6 -2 -8 -2q-4 0 -5 5l-1 6v2q2 6 9 10q29 15 71 15q38 0 60.5 -23.5t15.5 -61.5z" />
    <glyph glyph-name="acute" unicode="&#xb4;" horiz-adv-x="297" 
d="M246 666q0 -6 -7 -9l-160 -86q-1 -1 -4 -1t-4 3l-4 9l-1 2q0 4 3 5l149 105q4 4 9 4t7 -5l11 -22q0 -1 0.5 -2.5t0.5 -2.5z" />
    <glyph glyph-name="mu" unicode="&#xb5;" horiz-adv-x="499" 
d="M477 473l-82 -463q-2 -9 -7 -9h-24q-6 0 -5 9l10 53q-89 -73 -176 -73q-69 0 -98 37q-1 1 -3 3.5t-3 3.5l-32 -184q-1 -8 -7 -8h-22q-8 0 -6 8l56 316l22 127l32 181q1 8 7 8h22q8 0 6 -8l-30 -171l-23 -127q-16 -90 10 -124q22 -32 83 -32q84 0 168 79l66 374q1 9 8 9
h23q7 0 5 -9z" />
    <glyph glyph-name="paragraph" unicode="&#xb6;" horiz-adv-x="493" 
d="M469 678l-142 -810q-1 -9 -8 -9h-23q-8 0 -6 9l140 798h-106l-140 -798q-2 -9 -8 -9h-22q-8 0 -6 9l92 526q-63 1 -98.5 34t-35.5 86q0 66 49.5 119.5t115.5 53.5h192q8 0 6 -9z" />
    <glyph glyph-name="periodcentered" unicode="&#xb7;" horiz-adv-x="195" 
d="M138 302q0 -18 -13 -32t-31 -14q-13 0 -22 9t-9 22q0 19 13 31t32 12q30 0 30 -28z" />
    <glyph glyph-name="cedilla" unicode="&#xb8;" horiz-adv-x="297" 
d="M229 -106q0 -39 -27.5 -62.5t-67.5 -23.5q-21 0 -41 7q-10 3 -8 9l4 9q1 4 9 1q19 -7 42 -7q28 0 46.5 17.5t18.5 45.5q0 38 -62 38h-10q-11 0 -8 12q0 3 1.5 8t1.5 7l13 53l20 -2l-13 -60h12q29 0 49 -12.5t20 -39.5z" />
    <glyph glyph-name="onesuperior" unicode="&#xb9;" horiz-adv-x="317" 
d="M211 698l-58 -328q-1 -10 -10 -10h-14q-8 0 -6 9l54 307l-74 -46q-8 -4 -10 -4q-4 0 -4 3l-4 9v5q2 6 6 8l87 53q5 4 15 4h12q8 0 6 -10z" />
    <glyph glyph-name="ordmasculine" unicode="&#xba;" horiz-adv-x="320" 
d="M284 585q0 -74 -39 -133t-109 -59q-50 0 -74.5 30.5t-24.5 79.5q0 72 40.5 133.5t109.5 61.5q49 0 73 -32.5t24 -80.5zM252 585q0 90 -67 90q-37 0 -65 -30t-39.5 -67.5t-11.5 -73.5q0 -89 68 -89q38 0 65.5 29.5t38.5 66.5t11 74z" />
    <glyph glyph-name="guillemotright" unicode="&#xbb;" horiz-adv-x="445" 
d="M357 224q0 -5 -5 -10l-132 -153q-4 -6 -9 -2l-5 3q-5 3 -1 9l110 150l-55 157q-1 7 2 9l7 4q6 3 9 -3l78 -157q2 -3 1 -7zM201 224q-2 -5 -5 -10l-132 -153q-5 -5 -9 -2l-6 3q-5 3 0 9l109 150l-54 157q-2 6 2 9l6 4q7 4 10 -3l78 -157q1 -1 1 -7z" />
    <glyph glyph-name="onequarter" unicode="&#xbc;" horiz-adv-x="729" 
d="M244 698l-58 -328q-1 -10 -9 -10h-14q-9 0 -7 9l54 307l-74 -46q-5 -3 -8 -3q-5 0 -9 12v5q0 4 5 7l87 53q7 4 15 4h12q8 0 6 -10zM642 713l-2 -4l-545 -727q-7 -10 -15 -10h-21q-7 0 -5 3q0 1 3 6l540 722q8 10 11 12t12 2h17q5 0 5 -4zM630 183l-33 -183q-1 -9 -9 -9
h-14q-9 0 -7 9l14 77h-161q-9 0 -8 8l1 3q1 9 7 20l132 222q5 9 14 9h12q4 0 5.5 -1.5t0.5 -3.5q0 -1 -2 -5l-135 -227h138l15 81q0 9 9 9h13q8 0 8 -9z" />
    <glyph glyph-name="onehalf" unicode="&#xbd;" horiz-adv-x="729" 
d="M231 698l-58 -328q-1 -7 -6 -7h-17q-4 0 -4 6l55 309l-80 -49q-3 -3 -6 -3t-3 2l-5 12v4q0 4 4 5l89 53q6 3 13 3h15q4 0 3 -7zM638 273q-4 -25 -18.5 -52t-41.5 -58t-45 -49t-55 -52t-45 -42h154q6 0 6 -5l-2 -9q0 -6 -7 -6h-177q-5 0 -6.5 1t-0.5 5l2 9q0 3 3 6
q12 12 55.5 52t68.5 64.5t51 63t32 69.5q6 34 -9 53t-46 19q-35 0 -70 -18q-4 -2 -5 -2q-2 0 -3 2l-2 7q-2 4 -1 5q0 2 4 5q36 22 82 22q40 0 61.5 -24t14.5 -66zM629 713l-2 -4l-545 -727q-7 -10 -15 -10h-19q-6 0 -5 3q0 1 3 6l541 722q8 10 11 12t12 2h14q5 0 5 -4z" />
    <glyph glyph-name="threequarters" unicode="&#xbe;" horiz-adv-x="729" 
d="M287 623q-4 -24 -22 -49t-48 -37q30 -10 43 -37.5t7 -56.5q-8 -47 -44 -77.5t-81 -30.5q-38 0 -66 12q-7 4 -6 9v2l4 8q2 4 6 4t5 -1q26 -11 57 -11q36 0 62.5 22t33.5 61q7 40 -13 61.5t-58 21.5h-11q-9 0 -8 8l1 6q1 8 10 8h8q35 0 60 19t31 56q11 64 -58 64
q-26 0 -55 -13q-6 -2 -8 -2q-4 0 -5 5l-1 6q0 1 0.5 1t0.5 1q0 6 8 10q29 15 71 15q38 0 60.5 -23.5t15.5 -61.5zM642 713l-2 -4l-545 -727q-7 -10 -15 -10h-21q-7 0 -5 3q0 1 3 6l540 722q8 10 11 12t12 2h17q5 0 5 -4zM630 183l-33 -183q-1 -9 -9 -9h-14q-9 0 -7 9l14 77
h-161q-9 0 -8 8l1 3q1 9 7 20l132 222q5 9 14 9h12q4 0 5.5 -1.5t0.5 -3.5q0 -1 -2 -5l-135 -227h138l15 81q0 9 9 9h13q8 0 8 -9z" />
    <glyph glyph-name="questiondown" unicode="&#xbf;" horiz-adv-x="393" 
d="M396 465q0 -17 -12 -28.5t-29 -11.5q-13 0 -21.5 7.5t-8.5 20.5q0 16 13 28t29 12q12 0 20.5 -8t8.5 -20zM344 290v-2l-3 -14q-7 -41 -29 -77t-41.5 -55t-56.5 -49t-58.5 -52t-41.5 -59t-20 -76q0 -44 30 -67.5t74 -23.5q55 0 115 32q4 2 6 2q4 0 5 -4l5 -14l1 -2
q0 -5 -9 -9q-63 -35 -133 -35q-56 0 -91.5 30.5t-35.5 84.5q0 61 32.5 107.5t91.5 96.5q31 26 43 37t34.5 35t33.5 48t16 53l2 11q1 7 9 7h15q6 0 6 -5z" />
    <glyph glyph-name="Agrave" unicode="&#xc0;" horiz-adv-x="556" 
d="M491 12q0 -12 -5 -12h-32h-1q-7 0 -8 6l-37 225h-277l-119 -226q-2 -5 -8 -5h-26q-11 0 -6 8l360 670q6 9 12 9h21q6 0 8 -8zM404 263l-62 365l-194 -365h256zM412 755q0 -3 -1 -4l-7 -9q-1 -3 -6 -3q-2 0 -3 1l-130 86q-4 3 -4 7t3 7l19 22q5 5 9 5q2 0 8 -4l111 -105
q1 -1 1 -3z" />
    <glyph glyph-name="Aacute" unicode="&#xc1;" horiz-adv-x="556" 
d="M491 12q0 -12 -5 -12h-32h-1q-7 0 -8 6l-37 225h-277l-119 -226q-2 -5 -8 -5h-26q-11 0 -6 8l360 670q6 9 12 9h21q6 0 8 -8zM404 263l-62 365l-194 -365h256zM459 828q0 -6 -7 -9l-160 -86q-1 -1 -4 -1t-4 3l-4 9l-1 2q0 4 3 5l149 105q4 4 9 4t7 -5l11 -22
q0 -1 0.5 -2.5t0.5 -2.5z" />
    <glyph glyph-name="Acircumflex" unicode="&#xc2;" horiz-adv-x="556" 
d="M491 12q0 -12 -5 -12h-32h-1q-7 0 -8 6l-37 225h-277l-119 -226q-2 -5 -8 -5h-26q-11 0 -6 8l360 670q6 9 12 9h21q6 0 8 -8zM404 263l-62 365l-194 -365h256zM453 741l-5 -5q-4 -5 -10 0l-77 79l-108 -83q-5 -3 -8 1l-5 6q-4 3 2 9l116 111l6 3h12q1 0 4 -3l73 -108
q4 -7 0 -10z" />
    <glyph glyph-name="Atilde" unicode="&#xc3;" horiz-adv-x="556" 
d="M491 12q0 -12 -5 -12h-32h-1q-7 0 -8 6l-37 225h-277l-119 -226q-2 -5 -8 -5h-26q-11 0 -6 8l360 670q6 9 12 9h21q6 0 8 -8zM404 263l-62 365l-194 -365h256zM498 806q7 -6 -3 -13q-65 -51 -105 -51q-17 0 -44.5 24.5t-48.5 24.5t-72 -34q-9 -5 -13 3l-5 11q-4 8 11 18
q49 34 89 34q20 0 50 -24t47 -24q15 0 75 40q5 4 11 -2z" />
    <glyph glyph-name="Adieresis" unicode="&#xc4;" horiz-adv-x="556" 
d="M491 12q0 -12 -5 -12h-32h-1q-7 0 -8 6l-37 225h-277l-119 -226q-2 -5 -8 -5h-26q-11 0 -6 8l360 670q6 9 12 9h21q6 0 8 -8zM404 263l-62 365l-194 -365h256zM457 780q0 -16 -12 -29t-28 -13q-12 0 -20.5 8t-8.5 21q0 17 12 28t29 11q28 0 28 -26zM304 780
q0 -16 -12 -29t-28 -13q-12 0 -20.5 8t-8.5 21q0 17 12 28t29 11q28 0 28 -26z" />
    <glyph glyph-name="Aring" unicode="&#xc5;" horiz-adv-x="556" 
d="M491 12q0 -12 -5 -12h-32h-1q-7 0 -8 6l-37 225h-277l-119 -226q-2 -5 -8 -5h-26q-11 0 -6 8l360 670q6 9 12 9h21q6 0 8 -8zM404 263l-62 365l-194 -365h256zM442 832q0 -38 -30.5 -68t-69.5 -30q-30 0 -50.5 20t-20.5 50q0 39 31 68.5t70 29.5q30 0 50 -19.5t20 -50.5z
M408 828q0 18 -12 29t-30 11q-24 0 -42.5 -17.5t-18.5 -41.5q0 -18 12.5 -29.5t31.5 -11.5q23 0 41 18t18 42z" />
    <glyph glyph-name="AE" unicode="&#xc6;" horiz-adv-x="827" 
d="M830 680l-3 -16q-3 -8 -14 -8h-277l-48 -275h242q8 0 8 -6l-3 -17q-1 -7 -11 -7h-242l-56 -321h284q9 0 7 -8l-2 -13q-2 -9 -11 -9h-312q-12 0 -10 11l39 218h-246l-172 -218q-9 -11 -18 -11h-27q-12 0 0 12l518 652q17 23 40 23h308q8 0 6 -7zM492 634l-294 -374h228z
" />
    <glyph glyph-name="Ccedilla" unicode="&#xc7;" horiz-adv-x="549" 
d="M563 645l-12 -19q-5 -7 -11 -2q-57 40 -140 40q-72 0 -133 -38t-99 -98t-59 -130t-21 -137q0 -105 48 -170.5t151 -65.5q78 0 161 39q8 4 10 -3l5 -17q2 -7 -10 -13q-84 -40 -179 -40q-19 0 -27 1l-11 -46h12q29 0 49.5 -12.5t20.5 -39.5q0 -39 -27.5 -62.5t-67.5 -23.5
q-22 0 -42 7q-1 0 -3 1q-6 2 -4 8l3 9q2 5 9 1q19 -7 42 -7q29 0 47 17.5t18 45.5q0 38 -62 38h-10q-10 0 -8 12q1 7 4 15l9 40q-92 14 -138 82.5t-46 173.5q0 77 24.5 155t69 144t114 107t151.5 41q99 0 160 -43q6 -5 2 -10z" />
    <glyph glyph-name="Egrave" unicode="&#xc8;" horiz-adv-x="470" 
d="M476 680l-6 -19q-2 -7 -11 -7h-278l-48 -276h240q10 0 8 -8l-3 -17q-2 -8 -10 -8h-241l-55 -311h283q9 0 9 -7l-4 -19q-1 -8 -11 -8h-310q-14 0 -11 12l117 661q1 14 17 14h308q7 0 6 -7zM398 755q0 -3 -1 -4l-7 -9q-2 -3 -6 -3q-2 0 -3 1l-130 86q-4 3 -4 7t3 7l19 22
q5 5 9 5q2 0 8 -4l111 -105q1 -1 1 -3z" />
    <glyph glyph-name="Eacute" unicode="&#xc9;" horiz-adv-x="470" 
d="M476 680l-6 -19q-2 -7 -11 -7h-278l-48 -276h240q10 0 8 -8l-3 -17q-2 -8 -10 -8h-241l-55 -311h283q9 0 9 -7l-4 -19q-1 -8 -11 -8h-310q-14 0 -11 12l117 661q1 14 17 14h308q7 0 6 -7zM436 832q0 -6 -7 -9l-160 -86q-1 -1 -4 -1t-4 3l-4 9l-1 2q0 4 3 5l149 105
q4 4 9 4t7 -5l11 -22q0 -1 0.5 -2.5t0.5 -2.5z" />
    <glyph glyph-name="Ecircumflex" unicode="&#xca;" horiz-adv-x="470" 
d="M476 680l-6 -19q-2 -7 -11 -7h-278l-48 -276h240q10 0 8 -8l-3 -17q-2 -8 -10 -8h-241l-55 -311h283q9 0 9 -7l-4 -19q-1 -8 -11 -8h-310q-14 0 -11 12l117 661q1 14 17 14h308q7 0 6 -7zM437 743l-5 -5q-4 -5 -10 0l-77 79l-108 -83q-5 -3 -8 1l-5 6q-4 3 2 9l116 111
l6 3h12q1 0 4 -3l73 -108q4 -7 0 -10z" />
    <glyph glyph-name="Edieresis" unicode="&#xcb;" horiz-adv-x="470" 
d="M476 680l-6 -19q-2 -7 -11 -7h-278l-48 -276h240q10 0 8 -8l-3 -17q-2 -8 -10 -8h-241l-55 -311h283q9 0 9 -7l-4 -19q-1 -8 -11 -8h-310q-14 0 -11 12l117 661q1 14 17 14h308q7 0 6 -7zM437 783q0 -16 -12 -29t-28 -13q-12 0 -20.5 8t-8.5 21q0 17 12 28t29 11
q28 0 28 -26zM284 783q0 -16 -12 -29t-28 -13q-12 0 -20.5 8t-8.5 21q0 17 12 28t29 11q28 0 28 -26z" />
    <glyph glyph-name="Igrave" unicode="&#xcc;" horiz-adv-x="336" 
d="M321 681l-3 -15q-1 -7 -7 -7h-71l-111 -630h71q6 0 5 -6l-3 -17q-2 -6 -7 -6h-177q-6 0 -5 6l3 17q2 6 7 6h66l111 630h-68q-7 0 -6 7l3 16q1 5 7 5h179q7 0 6 -6zM312 750q0 -3 -1 -4l-7 -9q-2 -3 -6 -3q-2 0 -3 1l-130 86q-4 3 -4 7t3 7l19 22q5 5 9 5q2 0 8 -4
l111 -105q1 -1 1 -3z" />
    <glyph glyph-name="Iacute" unicode="&#xcd;" horiz-adv-x="336" 
d="M321 681l-3 -15q-1 -7 -7 -7h-71l-111 -630h71q6 0 5 -6l-3 -17q-2 -6 -7 -6h-177q-6 0 -5 6l3 17q2 6 7 6h66l111 630h-68q-7 0 -6 7l3 16q1 5 7 5h179q7 0 6 -6zM369 830q0 -6 -7 -9l-160 -86q-1 -1 -4 -1q-2 0 -4 3l-4 9l-1 2q0 4 3 5l149 105q4 4 9 4t7 -5l11 -22
q0 -1 0.5 -2.5t0.5 -2.5z" />
    <glyph glyph-name="Icircumflex" unicode="&#xce;" horiz-adv-x="336" 
d="M321 681l-3 -15q-1 -7 -7 -7h-71l-111 -630h71q6 0 5 -6l-3 -17q-2 -6 -7 -6h-177q-6 0 -5 6l3 17q2 6 7 6h66l111 630h-68q-7 0 -6 7l3 16q1 5 7 5h179q7 0 6 -6zM346 750l-5 -5q-4 -5 -10 0l-77 79l-108 -83q-5 -3 -8 1l-5 6q-3 4 2 9l116 111l6 3h12q1 0 4 -3l73 -108
q4 -7 0 -10z" />
    <glyph glyph-name="Idieresis" unicode="&#xcf;" horiz-adv-x="336" 
d="M321 681l-3 -15q-1 -7 -7 -7h-71l-111 -630h71q6 0 5 -6l-3 -17q-2 -6 -7 -6h-177q-6 0 -5 6l3 17q2 6 7 6h66l111 630h-68q-7 0 -6 7l3 16q1 5 7 5h179q7 0 6 -6zM349 780q0 -16 -12 -29t-28 -13q-12 0 -20.5 8t-8.5 21q0 17 12 28t29 11q28 0 28 -26zM196 780
q0 -16 -12 -29t-28 -13q-12 0 -20.5 8t-8.5 21q0 17 12 28t29 11q28 0 28 -26z" />
    <glyph glyph-name="Eth" unicode="&#xd0;" horiz-adv-x="625" 
d="M573 339q-31 -176 -140 -268q-84 -71 -242 -71h-149q-15 0 -13 15l58 330h-66q-10 0 -9 10l3 18q2 8 12 8h67l51 292q2 9 4.5 11.5t12.5 2.5h109q96 0 145.5 -10t85.5 -39q51 -40 70 -118t1 -181zM528 340q15 78 3.5 149.5t-50.5 111.5q-30 32 -77 42.5t-113 10.5h-109
l-48 -273h118q12 0 9 -12l-1 -11q-2 -13 -14 -13h-119l-55 -311h95q77 0 124.5 8t87.5 34q117 78 149 264z" />
    <glyph glyph-name="Ntilde" unicode="&#xd1;" horiz-adv-x="648" 
d="M619 679l-118 -670q-1 -9 -10 -9h-18q-6 0 -12 13l-287 601h-1l-107 -604q-1 -10 -11 -10h-19q-8 0 -7 9l118 670q2 8 10 8h19q6 0 9 -7l290 -600h1l105 599q2 8 9 8h25q6 0 4 -8zM544 801q7 -6 -3 -13q-65 -51 -105 -51q-17 0 -44.5 24.5t-48.5 24.5t-72 -34
q-9 -5 -13 3l-5 11q-4 8 11 18q49 34 89 34q20 0 50 -24t47 -24q15 0 75 40q5 4 11 -2z" />
    <glyph glyph-name="Ograve" unicode="&#xd2;" horiz-adv-x="621" 
d="M581 454q0 -76 -21 -155t-61 -149t-107 -114.5t-149 -44.5q-104 0 -153.5 66.5t-49.5 174.5q0 76 21.5 155.5t61 150t106.5 115.5t148 45q104 0 154 -68t50 -176zM535 452q0 60 -14 104.5t-52 75.5t-98 31q-69 0 -126 -43t-90 -108.5t-51 -137t-18 -135.5
q0 -94 38.5 -154t125.5 -60q69 0 126 43t90.5 109t51 138t17.5 137zM440 752q0 -3 -1 -4l-7 -9q-1 -3 -6 -3q-2 0 -3 1l-130 86q-4 3 -4 7t3 7l19 22q5 5 9 5q2 0 8 -4l111 -105q1 -1 1 -3z" />
    <glyph glyph-name="Oacute" unicode="&#xd3;" horiz-adv-x="621" 
d="M581 454q0 -76 -21 -155t-61 -149t-107 -114.5t-149 -44.5q-104 0 -153.5 66.5t-49.5 174.5q0 76 21.5 155.5t61 150t106.5 115.5t148 45q104 0 154 -68t50 -176zM535 452q0 60 -14 104.5t-52 75.5t-98 31q-69 0 -126 -43t-90 -108.5t-51 -137t-18 -135.5
q0 -94 38.5 -154t125.5 -60q69 0 126 43t90.5 109t51 138t17.5 137zM525 834q0 -6 -7 -9l-160 -86q-1 -1 -4 -1t-4 3l-4 9l-1 2q0 4 3 5l149 105q4 4 9 4t7 -5l11 -22q0 -1 0.5 -2.5t0.5 -2.5z" />
    <glyph glyph-name="Ocircumflex" unicode="&#xd4;" horiz-adv-x="621" 
d="M581 454q0 -76 -21 -155t-61 -149t-107 -114.5t-149 -44.5q-104 0 -153.5 66.5t-49.5 174.5q0 76 21.5 155.5t61 150t106.5 115.5t148 45q104 0 154 -68t50 -176zM535 452q0 60 -14 104.5t-52 75.5t-98 31q-69 0 -126 -43t-90 -108.5t-51 -137t-18 -135.5
q0 -94 38.5 -154t125.5 -60q69 0 126 43t90.5 109t51 138t17.5 137zM497 743l-5 -5q-4 -5 -10 0l-77 79l-108 -83q-5 -3 -8 1l-5 6q-4 3 2 9l116 111l6 3h12q1 0 4 -3l73 -108q4 -7 0 -10z" />
    <glyph glyph-name="Otilde" unicode="&#xd5;" horiz-adv-x="621" 
d="M581 454q0 -76 -21 -155t-61 -149t-107 -114.5t-149 -44.5q-104 0 -153.5 66.5t-49.5 174.5q0 76 21.5 155.5t61 150t106.5 115.5t148 45q104 0 154 -68t50 -176zM535 452q0 60 -14 104.5t-52 75.5t-98 31q-69 0 -126 -43t-90 -108.5t-51 -137t-18 -135.5
q0 -94 38.5 -154t125.5 -60q69 0 126 43t90.5 109t51 138t17.5 137zM572 805q7 -6 -3 -13q-65 -51 -105 -51q-17 0 -44.5 24.5t-48.5 24.5t-72 -34q-9 -5 -13 3l-5 11q-4 8 11 18q49 34 89 34q20 0 50 -24t47 -24q15 0 75 40q5 4 11 -2z" />
    <glyph glyph-name="Odieresis" unicode="&#xd6;" horiz-adv-x="621" 
d="M581 454q0 -76 -21 -155t-61 -149t-107 -114.5t-149 -44.5q-104 0 -153.5 66.5t-49.5 174.5q0 76 21.5 155.5t61 150t106.5 115.5t148 45q104 0 154 -68t50 -176zM535 452q0 60 -14 104.5t-52 75.5t-98 31q-69 0 -126 -43t-90 -108.5t-51 -137t-18 -135.5
q0 -94 38.5 -154t125.5 -60q69 0 126 43t90.5 109t51 138t17.5 137zM502 779q0 -16 -12 -29t-28 -13q-12 0 -20.5 8t-8.5 21q0 17 12 28t29 11q28 0 28 -26zM349 779q0 -16 -12 -29t-28 -13q-12 0 -20.5 8t-8.5 21q0 17 12 28t29 11q28 0 28 -26z" />
    <glyph glyph-name="multiply" unicode="&#xd7;" horiz-adv-x="484" 
d="M396 380q0 -1 -3 -4l-125 -116l83 -114q3 -5 2 -7q0 -2 -2 -4l-12 -10l-4 -2q-4 0 -7 4l-84 113l-123 -113q-5 -5 -8 -5t-4 3l-9 11q-2 2 -2 5q0 2 5 7l123 114l-83 113q-3 5 -3 7q2 4 4 6l10 7q4 4 6 4t6 -4l84 -113l123 113q5 5 8 5t4 -3l8 -10q3 -3 3 -7z" />
    <glyph glyph-name="Oslash" unicode="&#xd8;" horiz-adv-x="646" 
d="M629 698l-67 -86q37 -62 36 -158q0 -76 -21.5 -155.5t-61 -149t-106.5 -114t-149 -44.5q-90 0 -141 53l-57 -72q-6 -9 -13 -4l-9 6q-6 4 -1 13l61 78q-40 56 -43 154q-2 77 19 159t61 154.5t107.5 119t150.5 46.5q97 0 151 -63l58 75q7 9 13 5l10 -6q7 -5 2 -11zM517 599
q-42 64 -130 64q-69 0 -125 -42t-89 -107t-51 -135.5t-19 -134.5q0 -87 28 -140zM553 445q0 78 -22 128l-384 -493q42 -55 122 -55q56 0 103.5 28t80 72.5t55.5 101t33.5 112t11.5 106.5z" />
    <glyph glyph-name="Ugrave" unicode="&#xd9;" horiz-adv-x="660" 
d="M638 678l-67 -383q-27 -153 -99 -227q-74 -77 -198 -77q-107 0 -155 49t-48 129q0 60 14 136l65 371q1 11 11 11h22q8 0 7 -13l-64 -361q-14 -75 -14 -132q0 -76 37 -115.5t130 -39.5q52 0 93 16.5t67.5 42.5t46 65.5t30 77t18.5 86.5l65 365q0 8 7 8h28q6 0 4 -9z
M450 744q0 -3 -1 -4l-7 -9q-2 -3 -6 -3q-2 0 -3 1l-130 86q-4 3 -4 7t3 7l19 22q5 5 9 5q2 0 8 -4l111 -105q1 -1 1 -3z" />
    <glyph glyph-name="Uacute" unicode="&#xda;" horiz-adv-x="660" 
d="M638 678l-67 -383q-27 -153 -99 -227q-74 -77 -198 -77q-107 0 -155 49t-48 129q0 60 14 136l65 371q1 11 11 11h22q8 0 7 -13l-64 -361q-14 -75 -14 -132q0 -76 37 -115.5t130 -39.5q52 0 93 16.5t67.5 42.5t46 65.5t30 77t18.5 86.5l65 365q0 8 7 8h28q6 0 4 -9z
M513 817q0 -5 -7 -9l-160 -86q-1 -1 -4 -1q-2 0 -4 3l-4 9l-1 2q0 3 3 5l149 105q4 4 9 4t7 -5l11 -22q0 -1 0.5 -2.5t0.5 -2.5z" />
    <glyph glyph-name="Ucircumflex" unicode="&#xdb;" horiz-adv-x="660" 
d="M638 678l-67 -383q-27 -153 -99 -227q-74 -77 -198 -77q-107 0 -155 49t-48 129q0 60 14 136l65 371q1 11 11 11h22q8 0 7 -13l-64 -361q-14 -75 -14 -132q0 -76 37 -115.5t130 -39.5q52 0 93 16.5t67.5 42.5t46 65.5t30 77t18.5 86.5l65 365q0 8 7 8h28q6 0 4 -9z
M500 740l-5 -5q-4 -5 -10 0l-77 79l-108 -83q-5 -3 -8 1l-5 6q-3 4 2 9l116 111l6 3h12q1 0 4 -3l73 -108q4 -7 0 -10z" />
    <glyph glyph-name="Udieresis" unicode="&#xdc;" horiz-adv-x="660" 
d="M638 678l-67 -383q-27 -153 -99 -227q-74 -77 -198 -77q-107 0 -155 49t-48 129q0 60 14 136l65 371q1 11 11 11h22q8 0 7 -13l-64 -361q-14 -75 -14 -132q0 -76 37 -115.5t130 -39.5q52 0 93 16.5t67.5 42.5t46 65.5t30 77t18.5 86.5l65 365q0 8 7 8h28q6 0 4 -9z
M501 784q0 -16 -12 -29t-28 -13q-12 0 -20.5 8t-8.5 21q0 17 12 28t29 11q28 0 28 -26zM348 784q0 -16 -12 -29t-28 -13q-12 0 -20.5 8t-8.5 21q0 17 12 28t29 11q28 0 28 -26z" />
    <glyph glyph-name="Yacute" unicode="&#xdd;" horiz-adv-x="500" 
d="M527 679l-264 -413l-45 -254q-2 -12 -12 -12h-18q-7 0 -9 2.5t-1 8.5l45 253l-127 411q-3 12 10 12h17q6 0 9.5 -1t4.5 -2.5t2 -5.5l112 -374h1l233 371q7 12 17 12h21q8 0 4 -8zM461 818q0 -6 -7 -10l-160 -86q-1 -1 -4 -1q-2 0 -4 3l-4 9l-1 2q0 3 3 5l149 105q4 4 9 4
t7 -5l11 -22v-2z" />
    <glyph glyph-name="Thorn" unicode="&#xde;" horiz-adv-x="508" 
d="M430 305q-19 -110 -85 -170.5t-156 -60.5q-43 0 -79 23t-52 62l-14 -77l-13 -72q-1 -10 -8 -10h-20q-8 0 -7 8l27 154l83 470q2 7 7 7h21q9 0 7 -7l-32 -184q82 87 173 87q95 0 131 -62t17 -168zM393 304q17 98 -13.5 150.5t-106.5 52.5q-44 0 -92.5 -29.5t-79.5 -71.5
l-34 -197q13 -45 46 -75.5t76 -30.5q79 0 132.5 50.5t71.5 150.5z" />
    <glyph glyph-name="germandbls" unicode="&#xdf;" horiz-adv-x="522" 
d="M475 589q0 -67 -42 -126.5t-106 -75.5v-1q60 -8 95 -50t35 -102q1 -99 -68.5 -170.5t-168.5 -71.5h-8q-33 0 -40 1q-5 1 -7 2.5t-1 4.5l3 15q1 6 10 6q6 0 17 -0.5t18 -0.5q88 0 148 62.5t59 150.5q0 66 -45 100.5t-104 34.5h-32q-5 0 -7 1.5t-1 5.5l2 11q2 7 8 7h14
q77 0 130 59t53 136q0 51 -31.5 75.5t-85.5 24.5q-64 0 -110 -43t-60 -122l-23 -135l-84 -473q-2 -10 -9 -10h-21q-7 0 -6 10l84 473l22 126q18 99 73.5 151t138.5 52q67 0 108.5 -33.5t41.5 -94.5z" />
    <glyph glyph-name="agrave" unicode="&#xe0;" horiz-adv-x="503" 
d="M460 431l-65 -358q-3 -12 -3 -26q0 -22 16 -22q11 0 34 14q5 4 7 -1l5 -14q0 -4 -6 -7q-1 0 -9.5 -5t-20 -9t-23.5 -4q-39 0 -39 42q0 7 3 28l5 24q-23 -40 -70 -71t-110 -31q-74 0 -109 50t-35 135q0 70 29.5 141.5t90 123t135.5 51.5q84 0 161 -51q5 -4 4 -10zM422 419
q-49 44 -128 44q-65 0 -116 -49.5t-75 -115.5t-24 -129q0 -70 30 -109t82 -39q119 0 182 131zM372 586q0 -3 -1 -4l-7 -9q-1 -3 -6 -3q-2 0 -3 1l-130 86q-4 3 -4 7t3 7l19 22q5 5 9 5q2 0 8 -4l111 -105q1 -1 1 -3z" />
    <glyph glyph-name="aacute" unicode="&#xe1;" horiz-adv-x="503" 
d="M460 431l-65 -358q-3 -12 -3 -26q0 -22 16 -22q11 0 34 14q5 4 7 -1l5 -14q0 -4 -6 -7q-1 0 -9.5 -5t-20 -9t-23.5 -4q-39 0 -39 42q0 7 3 28l5 24q-23 -40 -70 -71t-110 -31q-74 0 -109 50t-35 135q0 70 29.5 141.5t90 123t135.5 51.5q84 0 161 -51q5 -4 4 -10zM422 419
q-49 44 -128 44q-65 0 -116 -49.5t-75 -115.5t-24 -129q0 -70 30 -109t82 -39q119 0 182 131zM431 666q0 -6 -7 -9l-160 -86q-1 -1 -4 -1t-4 3l-4 9l-1 2q0 4 3 5l149 105q4 4 9 4t7 -5l11 -22q0 -1 0.5 -2.5t0.5 -2.5z" />
    <glyph glyph-name="acircumflex" unicode="&#xe2;" horiz-adv-x="503" 
d="M460 431l-65 -358q-3 -12 -3 -26q0 -22 16 -22q11 0 34 14q5 4 7 -1l5 -14q0 -4 -6 -7q-1 0 -9.5 -5t-20 -9t-23.5 -4q-39 0 -39 42q0 7 3 28l5 24q-23 -40 -70 -71t-110 -31q-74 0 -109 50t-35 135q0 70 29.5 141.5t90 123t135.5 51.5q84 0 161 -51q5 -4 4 -10zM422 419
q-49 44 -128 44q-65 0 -116 -49.5t-75 -115.5t-24 -129q0 -70 30 -109t82 -39q119 0 182 131zM430 577l-5 -5q-4 -5 -10 0l-77 79l-108 -83q-5 -3 -8 1l-5 6q-4 3 2 9l116 111l6 3h12q1 0 4 -3l73 -108q4 -7 0 -10z" />
    <glyph glyph-name="atilde" unicode="&#xe3;" horiz-adv-x="503" 
d="M460 431l-65 -358q-3 -12 -3 -26q0 -22 16 -22q11 0 34 14q5 4 7 -1l5 -14q0 -4 -6 -7q-1 0 -9.5 -5t-20 -9t-23.5 -4q-39 0 -39 42q0 7 3 28l5 24q-23 -40 -70 -71t-110 -31q-74 0 -109 50t-35 135q0 70 29.5 141.5t90 123t135.5 51.5q84 0 161 -51q5 -4 4 -10zM422 419
q-49 44 -128 44q-65 0 -116 -49.5t-75 -115.5t-24 -129q0 -70 30 -109t82 -39q119 0 182 131zM479 676q7 -6 -3 -13q-65 -51 -105 -51q-17 0 -44.5 24.5t-48.5 24.5t-72 -34q-9 -5 -13 3l-5 11q-4 8 11 18q49 34 89 34q20 0 50 -24t47 -24q15 0 75 40q5 4 11 -2z" />
    <glyph glyph-name="adieresis" unicode="&#xe4;" horiz-adv-x="503" 
d="M460 431l-65 -358q-3 -12 -3 -26q0 -22 16 -22q11 0 34 14q5 4 7 -1l5 -14q0 -4 -6 -7q-1 0 -9.5 -5t-20 -9t-23.5 -4q-39 0 -39 42q0 7 3 28l5 24q-23 -40 -70 -71t-110 -31q-74 0 -109 50t-35 135q0 70 29.5 141.5t90 123t135.5 51.5q84 0 161 -51q5 -4 4 -10zM422 419
q-49 44 -128 44q-65 0 -116 -49.5t-75 -115.5t-24 -129q0 -70 30 -109t82 -39q119 0 182 131zM432 672q0 -16 -12 -29t-28 -13q-12 0 -20.5 8t-8.5 21q0 17 12 28t29 11q28 0 28 -26zM279 672q0 -16 -12 -29t-28 -13q-12 0 -20.5 8t-8.5 21q0 17 12 28t29 11q28 0 28 -26z
" />
    <glyph glyph-name="aring" unicode="&#xe5;" horiz-adv-x="503" 
d="M460 431l-65 -358q-3 -12 -3 -26q0 -22 16 -22q11 0 34 14q5 4 7 -1l5 -14q0 -4 -6 -7q-1 0 -9.5 -5t-20 -9t-23.5 -4q-39 0 -39 42q0 7 3 28l5 24q-23 -40 -70 -71t-110 -31q-74 0 -109 50t-35 135q0 70 29.5 141.5t90 123t135.5 51.5q84 0 161 -51q5 -4 4 -10zM422 419
q-49 44 -128 44q-65 0 -116 -49.5t-75 -115.5t-24 -129q0 -70 30 -109t82 -39q119 0 182 131zM425 635q0 -38 -30.5 -68t-69.5 -30q-30 0 -50.5 20t-20.5 50q0 39 31 68.5t70 29.5q30 0 50 -19.5t20 -50.5zM391 631q0 18 -12 29t-30 11q-24 0 -42.5 -17.5t-18.5 -41.5
q0 -18 12.5 -29.5t31.5 -11.5q23 0 41 18t18 42z" />
    <glyph glyph-name="ae" unicode="&#xe6;" horiz-adv-x="743" 
d="M712 340q0 -30 -5 -52l-5 -30q-2 -9 -4 -11t-11 -2h-87h-238q-6 -33 -6 -66q0 -72 34 -115.5t110 -43.5q63 0 121 22q1 1 5 1t4 -4l1 -14q0 -6 -10 -11q-56 -23 -131 -23q-117 0 -152 89q-93 -90 -204 -90q-48 0 -80.5 27.5t-33.5 77.5q0 12 3 27q26 150 268 150h40
l11 60q6 33 6 58q0 38 -19 56.5t-65 18.5q-55 0 -130 -38q-1 -1 -4 -1q-5 0 -6 4l-4 11v1q0 6 7 9q76 41 147 41q62 0 93 -34q17 -19 17 -62q0 -9 -2 -25q10 25 35 52q67 69 158 69q66 0 101.5 -41t35.5 -111zM678 341q0 54 -27.5 88.5t-82.5 34.5q-83 0 -141 -69
q-20 -25 -37.5 -60t-22.5 -63h302l5 27q4 19 4 42zM327 105q-8 40 -8 68q0 31 7 66l1 6h-35q-210 0 -230 -119q-2 -8 -2 -23q0 -41 26 -62t63 -21q89 0 178 85z" />
    <glyph glyph-name="ccedilla" unicode="&#xe7;" horiz-adv-x="405" 
d="M419 454l-8 -16q-4 -6 -10 -3q-52 27 -97 27q-81 0 -138 -57q-85 -84 -85 -235q0 -63 35 -106t105 -43q55 0 112 23q9 3 10 -3l2 -14q1 -5 -10 -10q-58 -26 -119 -26q-18 0 -26 1l-11 -46h12q30 0 50 -12.5t20 -39.5q0 -39 -27.5 -62.5t-67.5 -23.5q-21 0 -42 7
q-1 0 -3 1q-6 2 -4 8l3 9q2 4 10 1q18 -7 41 -7q29 0 47.5 17.5t18.5 45.5q0 38 -63 38h-10q-10 0 -8 12q0 2 1.5 7t2.5 8l9 40q-127 23 -127 184q0 66 25.5 132t70.5 110q71 71 171 71q61 0 106 -28q7 -5 6 -7q-1 -1 -2 -3z" />
    <glyph glyph-name="egrave" unicode="&#xe8;" horiz-adv-x="468" 
d="M431 288l-6 -30q-2 -9 -4 -11t-11 -2h-87h-237q-8 -59 -3 -109t40.5 -83t99.5 -33q63 0 121 22q10 2 10 -3v-14q1 -7 -10 -11q-56 -23 -131 -23q-103 0 -145 67.5t-21 183.5q18 108 88 179t164 71q78 0 113 -57t19 -147zM398 299q12 69 -14.5 116.5t-91.5 47.5
q-85 0 -140 -68q-39 -45 -60 -123h301zM356 586q0 -3 -1 -4l-7 -9q-2 -3 -6 -3q-2 0 -3 1l-130 86q-4 3 -4 7t3 7l19 22q5 5 9 5q2 0 8 -4l111 -105q1 -1 1 -3z" />
    <glyph glyph-name="eacute" unicode="&#xe9;" horiz-adv-x="468" 
d="M431 288l-6 -30q-2 -9 -4 -11t-11 -2h-87h-237q-8 -59 -3 -109t40.5 -83t99.5 -33q63 0 121 22q10 2 10 -3v-14q1 -7 -10 -11q-56 -23 -131 -23q-103 0 -145 67.5t-21 183.5q18 108 88 179t164 71q78 0 113 -57t19 -147zM398 299q12 69 -14.5 116.5t-91.5 47.5
q-85 0 -140 -68q-39 -45 -60 -123h301zM389 666q0 -6 -7 -9l-160 -86q-1 -1 -4 -1q-2 0 -4 3l-4 9l-1 2q0 4 3 5l149 105q4 4 9 4t7 -5l11 -22q0 -1 0.5 -2.5t0.5 -2.5z" />
    <glyph glyph-name="ecircumflex" unicode="&#xea;" horiz-adv-x="468" 
d="M431 288l-6 -30q-2 -9 -4 -11t-11 -2h-87h-237q-8 -59 -3 -109t40.5 -83t99.5 -33q63 0 121 22q10 2 10 -3v-14q1 -7 -10 -11q-56 -23 -131 -23q-103 0 -145 67.5t-21 183.5q18 108 88 179t164 71q78 0 113 -57t19 -147zM398 299q12 69 -14.5 116.5t-91.5 47.5
q-85 0 -140 -68q-39 -45 -60 -123h301zM401 577l-5 -5q-4 -5 -10 0l-77 79l-108 -83q-5 -3 -8 1l-5 6q-4 3 2 9l116 111l6 3h12q1 0 4 -3l73 -108q4 -7 0 -10z" />
    <glyph glyph-name="edieresis" unicode="&#xeb;" horiz-adv-x="468" 
d="M431 288l-6 -30q-2 -9 -4 -11t-11 -2h-87h-237q-8 -59 -3 -109t40.5 -83t99.5 -33q63 0 121 22q10 2 10 -3v-14q1 -7 -10 -11q-56 -23 -131 -23q-103 0 -145 67.5t-21 183.5q18 108 88 179t164 71q78 0 113 -57t19 -147zM398 299q12 69 -14.5 116.5t-91.5 47.5
q-85 0 -140 -68q-39 -45 -60 -123h301zM428 658q0 -16 -12 -29t-28 -13q-12 0 -20.5 8t-8.5 21q0 17 12 28t29 11q28 0 28 -26zM275 658q0 -16 -12 -29t-28 -13q-12 0 -20.5 8t-8.5 21q0 17 12 28t29 11q28 0 28 -26z" />
    <glyph glyph-name="igrave" unicode="&#xec;" horiz-adv-x="210" 
d="M151 473l-82 -464q-2 -9 -8 -9h-23q-7 0 -5 9l82 464q2 9 8 9h22q7 0 6 -9zM215 586q0 -3 -1 -4l-7 -9q-1 -3 -6 -3q-2 0 -3 1l-130 86q-4 3 -4 7t3 7l19 22q5 5 9 5q2 0 8 -4l111 -105q1 -1 1 -3z" />
    <glyph glyph-name="iacute" unicode="&#xed;" horiz-adv-x="210" 
d="M151 473l-82 -464q-2 -9 -8 -9h-23q-7 0 -5 9l82 464q2 9 8 9h22q7 0 6 -9zM247 666q0 -6 -7 -9l-160 -86q-1 -1 -4 -1t-4 3l-4 9l-1 2q0 4 3 5l149 105q4 4 9 4t7 -5l11 -22q0 -1 0.5 -2.5t0.5 -2.5z" />
    <glyph glyph-name="icircumflex" unicode="&#xee;" horiz-adv-x="210" 
d="M151 473l-82 -464q-2 -9 -8 -9h-23q-7 0 -5 9l82 464q2 9 8 9h22q7 0 6 -9zM245 577l-5 -5q-4 -5 -10 0l-77 79l-108 -83q-5 -3 -8 1l-5 6q-4 3 2 9l116 111l6 3h12q1 0 4 -3l73 -108q4 -7 0 -10z" />
    <glyph glyph-name="idieresis" unicode="&#xef;" horiz-adv-x="210" 
d="M151 473l-82 -464q-2 -9 -8 -9h-23q-7 0 -5 9l82 464q2 9 8 9h22q7 0 6 -9zM261 672q0 -16 -12 -29t-28 -13q-12 0 -20.5 8t-8.5 21q0 17 12 28t29 11q28 0 28 -26zM108 672q0 -16 -12 -29t-28 -13q-12 0 -20.5 8t-8.5 21q0 17 12 28t29 11q28 0 28 -26z" />
    <glyph glyph-name="eth" unicode="&#xf0;" horiz-adv-x="505" 
d="M438 300q-2 -32 -7 -59v-2q-19 -104 -84 -176t-166 -72q-53 0 -89 21t-51 56.5t-19.5 81t6.5 93.5q18 104 83 176.5t165 72.5q71 0 100 -44q-28 142 -129 199l-52 -79q-5 -7 -8 -7q-1 0 -3 1l-10 5q-4 2 -3 5q0 2 3 6l53 79q-73 26 -89 29q-7 2 -6 6v1l4 11q1 5 8 5h3
q33 -3 99 -26l48 70q2 5 7 5q2 0 3 -1l9 -4q3 -1 3 -5l-3 -6l-45 -69q90 -49 133 -154t37 -219zM394 240q9 39 6 79t-14.5 72.5t-41 52.5t-73.5 20q-85 0 -137.5 -64.5t-68.5 -155.5q-9 -39 -6.5 -79.5t13.5 -73t40.5 -53t74.5 -20.5q85 0 138 65.5t69 156.5z" />
    <glyph glyph-name="ntilde" unicode="&#xf1;" horiz-adv-x="509" 
d="M457 371q0 -25 -6 -55l-54 -308q-1 -8 -8 -8h-23q-7 0 -5 8l52 298q7 40 7 65q0 91 -99 91q-86 0 -177 -79l-66 -373q-2 -10 -10 -10h-21q-7 0 -5 9l82 464q2 9 7 9h23q8 0 6 -9l-10 -54q88 73 185 73q60 0 91 -31.5t31 -89.5zM478 676q7 -6 -3 -13q-65 -51 -105 -51
q-17 0 -44.5 24.5t-48.5 24.5t-72 -34q-9 -5 -13 3l-5 11q-4 8 11 18q49 34 89 34q20 0 50 -24t47 -24q15 0 75 40q5 4 11 -2z" />
    <glyph glyph-name="ograve" unicode="&#xf2;" horiz-adv-x="502" 
d="M458 312q0 -79 -27.5 -150.5t-88 -121t-141.5 -49.5q-82 0 -122 48t-40 131q0 78 27 149.5t87 122t141 50.5q82 0 123 -48t41 -132zM418 306q0 70 -30 113.5t-97 43.5q-70 0 -120 -47.5t-71.5 -111.5t-21.5 -131q0 -154 127 -154q69 0 119 47t72 110.5t22 129.5zM381 586
q0 -3 -1 -4l-7 -9q-1 -3 -6 -3q-2 0 -3 1l-130 86q-4 3 -4 7t3 7l19 22q5 5 9 5q2 0 8 -4l111 -105q1 -1 1 -3z" />
    <glyph glyph-name="oacute" unicode="&#xf3;" horiz-adv-x="502" 
d="M458 312q0 -79 -27.5 -150.5t-88 -121t-141.5 -49.5q-82 0 -122 48t-40 131q0 78 27 149.5t87 122t141 50.5q82 0 123 -48t41 -132zM418 306q0 70 -30 113.5t-97 43.5q-70 0 -120 -47.5t-71.5 -111.5t-21.5 -131q0 -154 127 -154q69 0 119 47t72 110.5t22 129.5zM412 666
q0 -6 -7 -9l-160 -86q-1 -1 -4 -1t-4 3l-4 9l-1 2q0 4 3 5l149 105q4 4 9 4t7 -5l11 -22q0 -1 0.5 -2.5t0.5 -2.5z" />
    <glyph glyph-name="ocircumflex" unicode="&#xf4;" horiz-adv-x="502" 
d="M458 312q0 -79 -27.5 -150.5t-88 -121t-141.5 -49.5q-82 0 -122 48t-40 131q0 78 27 149.5t87 122t141 50.5q82 0 123 -48t41 -132zM418 306q0 70 -30 113.5t-97 43.5q-70 0 -120 -47.5t-71.5 -111.5t-21.5 -131q0 -154 127 -154q69 0 119 47t72 110.5t22 129.5zM411 577
l-5 -5q-4 -5 -10 0l-77 79l-108 -83q-5 -3 -8 1l-5 6q-4 3 2 9l116 111l6 3h12q1 0 4 -3l73 -108q4 -7 0 -10z" />
    <glyph glyph-name="otilde" unicode="&#xf5;" horiz-adv-x="502" 
d="M458 312q0 -79 -27.5 -150.5t-88 -121t-141.5 -49.5q-82 0 -122 48t-40 131q0 78 27 149.5t87 122t141 50.5q82 0 123 -48t41 -132zM418 306q0 70 -30 113.5t-97 43.5q-70 0 -120 -47.5t-71.5 -111.5t-21.5 -131q0 -154 127 -154q69 0 119 47t72 110.5t22 129.5z" />
    <glyph glyph-name="odieresis" unicode="&#xf6;" horiz-adv-x="502" 
d="M458 312q0 -79 -27.5 -150.5t-88 -121t-141.5 -49.5q-82 0 -122 48t-40 131q0 78 27 149.5t87 122t141 50.5q82 0 123 -48t41 -132zM418 306q0 70 -30 113.5t-97 43.5q-70 0 -120 -47.5t-71.5 -111.5t-21.5 -131q0 -154 127 -154q69 0 119 47t72 110.5t22 129.5zM438 672
q0 -16 -12 -29t-28 -13q-12 0 -20.5 8t-8.5 21q0 17 12 28t29 11q28 0 28 -26zM285 672q0 -16 -12 -29t-28 -13q-12 0 -20.5 8t-8.5 21q0 17 12 28t29 11q28 0 28 -26z" />
    <glyph glyph-name="divide" unicode="&#xf7;" horiz-adv-x="484" 
d="M310 458q0 -18 -13 -32.5t-31 -14.5q-14 0 -23 9.5t-9 22.5q0 19 13.5 32t31.5 13q14 0 22.5 -8.5t8.5 -21.5zM421 270l-3 -18q-1 -7 -9 -7h-344q-7 0 -6 7l3 18q2 7 8 7h344q8 0 7 -7zM244 85q0 -18 -12.5 -31.5t-30.5 -13.5q-14 0 -23.5 8.5t-9.5 21.5q0 19 13.5 32.5
t32.5 13.5q13 0 21.5 -8.5t8.5 -22.5z" />
    <glyph glyph-name="oslash" unicode="&#xf8;" horiz-adv-x="509" 
d="M478 494l-49 -62q32 -45 32 -117q0 -57 -16.5 -113.5t-47 -104t-81 -77t-111.5 -29.5q-59 0 -99 29l-38 -48q-6 -8 -13 -4l-9 6q-6 5 -1 13l41 51q-41 47 -41 133q0 57 16.5 113t47 103t80.5 76t111 29q68 0 112 -39l41 53q7 8 14 4l9 -5q7 -4 2 -11zM389 425
q-34 39 -92 39q-65 0 -115.5 -44t-74.5 -105.5t-24 -124.5q0 -85 26 -123zM424 304q0 60 -20 97l-277 -355q31 -28 82 -28q52 0 94 27t67.5 70t39.5 92t14 97z" />
    <glyph glyph-name="ugrave" unicode="&#xf9;" horiz-adv-x="500" 
d="M460 473l-82 -464q-2 -9 -8 -9h-23q-7 0 -5 9l9 54q-81 -73 -174 -73q-60 0 -91 31.5t-31 89.5q0 25 6 55l54 308q1 8 7 8h23q8 0 6 -8l-53 -298q-6 -35 -6 -65q0 -91 99 -91q80 0 167 79l66 373q2 10 9 10h21q8 0 6 -9zM367 586q0 -3 -1 -4l-7 -9q-1 -3 -6 -3q-2 0 -3 1
l-130 86q-4 3 -4 7t3 7l19 22q5 5 9 5q2 0 8 -4l111 -105q1 -1 1 -3z" />
    <glyph glyph-name="uacute" unicode="&#xfa;" horiz-adv-x="500" 
d="M460 473l-82 -464q-2 -9 -8 -9h-23q-7 0 -5 9l9 54q-81 -73 -174 -73q-60 0 -91 31.5t-31 89.5q0 25 6 55l54 308q1 8 7 8h23q8 0 6 -8l-53 -298q-6 -35 -6 -65q0 -91 99 -91q80 0 167 79l66 373q2 10 9 10h21q8 0 6 -9zM412 666q0 -6 -7 -9l-160 -86q-1 -1 -4 -1t-4 3
l-4 9l-1 2q0 4 3 5l149 105q4 4 9 4t7 -5l11 -22q0 -1 0.5 -2.5t0.5 -2.5z" />
    <glyph glyph-name="ucircumflex" unicode="&#xfb;" horiz-adv-x="500" 
d="M460 473l-82 -464q-2 -9 -8 -9h-23q-7 0 -5 9l9 54q-81 -73 -174 -73q-60 0 -91 31.5t-31 89.5q0 25 6 55l54 308q1 8 7 8h23q8 0 6 -8l-53 -298q-6 -35 -6 -65q0 -91 99 -91q80 0 167 79l66 373q2 10 9 10h21q8 0 6 -9zM408 577l-5 -5q-4 -5 -10 0l-77 79l-108 -83
q-5 -3 -8 1l-5 6q-4 3 2 9l116 111l6 3h12q1 0 4 -3l73 -108q4 -7 0 -10z" />
    <glyph glyph-name="udieresis" unicode="&#xfc;" horiz-adv-x="500" 
d="M460 473l-82 -464q-2 -9 -8 -9h-23q-7 0 -5 9l9 54q-81 -73 -174 -73q-60 0 -91 31.5t-31 89.5q0 25 6 55l54 308q1 8 7 8h23q8 0 6 -8l-53 -298q-6 -35 -6 -65q0 -91 99 -91q80 0 167 79l66 373q2 10 9 10h21q8 0 6 -9zM429 672q0 -16 -12 -29t-28 -13q-12 0 -20.5 8
t-8.5 21q0 17 12 28t29 11q28 0 28 -26zM276 672q0 -16 -12 -29t-28 -13q-12 0 -20.5 8t-8.5 21q0 17 12 28t29 11q28 0 28 -26z" />
    <glyph glyph-name="yacute" unicode="&#xfd;" horiz-adv-x="434" 
d="M444 473l-278 -532q-47 -89 -92.5 -125t-112.5 -36q-12 0 -27 3q-8 1 -5 10l5 15q1 7 11 5q18 -2 27 -2q87 0 137 90l47 84l-85 487q-2 10 7 10h20q10 0 11 -9l73 -440l225 440q5 9 15 9h18q9 0 4 -9zM366 666q0 -6 -7 -9l-160 -86q-1 -1 -3 -1t-4 3l-5 9v2q0 3 2 5
l149 105q5 4 10 4q4 0 7 -5l10 -22q1 -2 1 -5z" />
    <glyph glyph-name="thorn" unicode="&#xfe;" horiz-adv-x="508" 
d="M457 244q-19 -110 -82.5 -181.5t-159.5 -71.5q-90 0 -134 82l-49 -278q-2 -9 -12 -9h-16q-10 0 -8 9l159 898q1 11 10 12l20 3h1q8 0 6 -9l-50 -284q75 77 172 77q92 0 127 -70t16 -178zM418 238q18 103 -9 164t-106 61q-43 0 -90 -24.5t-78 -61.5l-46 -262
q18 -42 52 -69t77 -27q82 0 132.5 62.5t67.5 156.5z" />
    <glyph glyph-name="ydieresis" unicode="&#xff;" horiz-adv-x="434" 
d="M444 473l-278 -532q-47 -89 -92.5 -125t-112.5 -36q-12 0 -27 3q-8 1 -5 10l5 15q1 7 11 5q18 -2 27 -2q87 0 137 90l47 84l-85 487q-2 10 7 10h20q10 0 11 -9l73 -440l225 440q5 9 15 9h18q9 0 4 -9zM413 672q0 -16 -12 -29t-28 -13q-12 0 -20.5 8t-8.5 21q0 17 12 28
t29 11q28 0 28 -26zM260 672q0 -16 -12 -29t-28 -13q-12 0 -20.5 8t-8.5 21q0 17 12 28t29 11q28 0 28 -26z" />
    <glyph glyph-name="Cacute" unicode="&#x106;" horiz-adv-x="526" 
d="M561 645l-12 -19q-6 -6 -11 -2q-57 40 -140 40q-72 0 -133 -38t-99 -98t-59 -130t-21 -137q0 -105 47.5 -170.5t150.5 -65.5q80 0 161 39q9 4 11 -3l5 -17q1 -7 -10 -13q-86 -40 -180 -40q-116 0 -173.5 71t-57.5 189q0 77 24.5 155t69 144t114 107t151.5 41
q99 0 160 -43q6 -5 2 -10zM553 832q0 -6 -7 -9l-160 -86q-1 -1 -4 -1q-2 0 -4 3l-4 9l-1 2q0 4 3 5l149 105q4 4 9 4t7 -5l11 -22q0 -1 0.5 -2.5t0.5 -2.5z" />
    <glyph glyph-name="cacute" unicode="&#x107;" horiz-adv-x="402" 
d="M417 454l-9 -16q-3 -6 -9 -3q-54 27 -98 27q-79 0 -138 -57q-84 -83 -84 -235q0 -64 34.5 -106.5t105.5 -42.5q54 0 112 23q8 4 9 -3l3 -14q0 -6 -10 -10q-60 -26 -120 -26q-174 0 -174 188q0 66 25.5 132t70.5 110q71 71 172 71q61 0 106 -28q6 -5 4 -10zM456 666
q0 -6 -7 -9l-160 -86q-1 -1 -4 -1t-4 3l-4 9l-1 2q0 4 3 5l149 105q4 4 9 4t7 -5l11 -22q0 -1 0.5 -2.5t0.5 -2.5z" />
    <glyph glyph-name="Ccaron" unicode="&#x10c;" horiz-adv-x="526" 
d="M561 645l-12 -19q-6 -6 -11 -2q-57 40 -140 40q-72 0 -133 -38t-99 -98t-59 -130t-21 -137q0 -105 47.5 -170.5t150.5 -65.5q80 0 161 39q9 4 11 -3l5 -17q1 -7 -10 -13q-86 -40 -180 -40q-116 0 -173.5 71t-57.5 189q0 77 24.5 155t69 144t114 107t151.5 41
q99 0 160 -43q6 -5 2 -10zM534 863q4 -6 -1 -9l-117 -111q-2 -3 -5 -3h-12q-3 0 -5 3l-73 108q-3 6 0 10l5 5q6 4 10 0l77 -79l109 83q4 4 8 -1z" />
    <glyph glyph-name="ccaron" unicode="&#x10d;" horiz-adv-x="402" 
d="M417 454l-9 -16q-3 -6 -9 -3q-54 27 -98 27q-79 0 -138 -57q-84 -83 -84 -235q0 -64 34.5 -106.5t105.5 -42.5q54 0 112 23q8 4 9 -3l3 -14q0 -6 -10 -10q-60 -26 -120 -26q-174 0 -174 188q0 66 25.5 132t70.5 110q71 71 172 71q61 0 106 -28q6 -5 4 -10zM441 691
q3 -4 -2 -9l-117 -111q-3 -3 -5 -3h-12q-2 0 -5 3l-73 108q-4 6 0 10l5 5q5 5 10 0l77 -79l109 83q4 3 8 -1z" />
    <glyph glyph-name="Dcroat" unicode="&#x110;" horiz-adv-x="623" 
d="M583 439q0 -106 -37.5 -205.5t-111.5 -162.5q-84 -71 -242 -71h-149q-15 0 -13 15l50 285h-69q-12 0 -9 10l3 18q2 8 11 8h70l60 337q2 9 4.5 11.5t11.5 2.5h109q96 0 145.5 -10t86.5 -39q80 -62 80 -199zM211 324l-2 -11q-2 -13 -13 -13h-76l-47 -266h95q77 0 124.5 8
t87.5 34q75 50 116 149t41 200q0 118 -55 176q-30 32 -77 42.5t-113 10.5h-109l-57 -318h75q13 0 10 -12z" />
    <glyph glyph-name="dcroat" unicode="&#x111;" horiz-adv-x="502" 
d="M553 615l-2 -11q-2 -12 -13 -12h-48l-20 -115l-83 -470q0 -7 -7 -7h-22q-7 0 -7 7l11 62q-73 -78 -171 -78q-94 0 -129.5 71t-16.5 179q19 112 88 181.5t157 69.5q43 0 80.5 -20t52.5 -57l12 69l19 108h-76q-5 0 -7 0.5t-3.5 3t0.5 8.5l2 11q2 11 14 11h76l13 69
q1 9 8 10l22 3q4 1 6 -1t1 -6l-14 -75h50q9 0 7 -11zM415 368q-12 43 -45.5 69t-78.5 26q-78 0 -133.5 -59.5t-73.5 -161.5q-18 -100 12 -161.5t103 -61.5q45 0 93 26t78 66z" />
    <glyph glyph-name="dotlessi" unicode="&#x131;" horiz-adv-x="210" 
d="M151 473l-82 -464q-2 -9 -8 -9h-23q-7 0 -5 9l82 464q2 9 8 9h22q7 0 6 -9z" />
    <glyph glyph-name="Lslash" unicode="&#x141;" horiz-adv-x="410" 
d="M332 27l-4 -21q0 -6 -8 -6h-286q-7 0 -6 10l64 359l-79 -44q-6 -3 -8.5 0.5t-0.5 9.5l3 18q0 2 11 8l80 45l48 272q1 9 8 9h28q6 0 4 -9l-44 -247l126 70q5 3 8.5 1.5t2.5 -8.5l-2 -11q-2 -12 -15 -18l-126 -71l-64 -360h253q9 0 7 -7z" />
    <glyph glyph-name="lslash" unicode="&#x142;" horiz-adv-x="192" 
d="M251 494l-2 -11q-2 -11 -14 -18l-113 -63l-69 -392q-1 -10 -9 -10h-19q-9 0 -8 10l66 370l-98 -55q-6 -3 -8.5 0.5t-0.5 9.5l3 18q0 1 11 8l99 55l49 278q1 9 9 11l22 3h2q5 0 4 -7l-46 -262l111 62q5 3 8.5 1.5t2.5 -8.5z" />
    <glyph glyph-name="OE" unicode="&#x152;" horiz-adv-x="873" 
d="M879 678l-4 -15q-2 -8 -14 -8h-276l-49 -275h243q8 0 7 -7l-3 -18q-1 -8 -11 -8h-242l-55 -313h285q5 0 6.5 -1.5t0.5 -4.5l-4 -21q0 -7 -9 -7h-314q-10 0 -9 11l11 61q-89 -81 -205 -81q-98 0 -148 62t-50 182q0 76 22 155t62 149t107 114.5t148 44.5q113 0 160 -83
l11 62q1 10 12 10h311q8 0 7 -9zM529 566q-40 97 -155 97q-68 0 -125 -42t-91 -107t-52.5 -136t-18.5 -135q0 -102 40.5 -159.5t122.5 -57.5q52 0 105.5 23.5t94.5 66.5z" />
    <glyph glyph-name="oe" unicode="&#x153;" horiz-adv-x="834" 
d="M803 340q0 -22 -5 -52l-5 -30q-2 -9 -4 -11t-11 -2h-87h-238q-8 -59 -3 -109t41 -83t100 -33q62 0 120 22q2 1 5 1q4 0 4 -4l2 -14q0 -6 -10 -11q-56 -23 -131 -23q-147 0 -170 134q-73 -134 -209 -134q-81 0 -121 47.5t-40 121.5q0 47 9.5 93t29.5 89.5t49.5 76.5
t72.5 53t94 20q139 0 160 -134q34 62 89.5 98t120.5 36q66 0 101.5 -41.5t35.5 -110.5zM769 344q0 52 -28 86t-82 34q-82 0 -140 -69q-41 -50 -61 -123h302l5 27q4 20 4 45zM415 240q7 55 3.5 105t-36 84.5t-89.5 34.5q-53 0 -95 -27t-67.5 -70.5t-38.5 -93t-13 -98.5
q0 -70 30.5 -113.5t98.5 -43.5q85 0 138 65.5t69 156.5z" />
    <glyph glyph-name="Scaron" unicode="&#x160;" horiz-adv-x="458" 
d="M436 660l-7 -16q-3 -7 -12 -3q-56 25 -116 25q-67 0 -118 -39.5t-51 -104.5q0 -64 67 -108l91 -62q48 -32 73.5 -66t25.5 -84q0 -42 -19 -83.5t-50 -69.5q-65 -58 -172 -58q-70 0 -134 23q-11 4 -6 16l7 16q5 9 12 6q63 -26 128 -26q79 0 131 42q29 21 45.5 54.5
t16.5 68.5q0 43 -20.5 70.5t-58.5 52.5l-108 72q-73 48 -73 126q0 80 66 133t148 53q75 0 131 -26q7 -3 3 -12zM394 863q4 -6 -1 -9l-117 -111q-2 -3 -5 -3h-12q-3 0 -5 3l-73 108q-3 6 0 10l5 5q6 4 10 0l77 -79l109 83q4 4 8 -1z" />
    <glyph glyph-name="scaron" unicode="&#x161;" horiz-adv-x="363" 
d="M344 459l-5 -13q-3 -7 -11 -4q-46 22 -91 22q-51 0 -88.5 -27t-37.5 -76q0 -29 20.5 -49.5t50.5 -34t59.5 -28t50 -40.5t20.5 -62q0 -13 -2 -20q-11 -65 -63 -100.5t-121 -35.5q-57 0 -109 27q-6 3 -2 11l8 15q3 5 9 2q51 -27 100 -27q57 0 101 33.5t44 87.5
q0 31 -21 53.5t-50.5 36t-59.5 27.5t-51 38t-21 58q0 63 50 101t115 38q58 0 103 -23q5 -3 2 -10zM361 691q3 -4 -2 -9l-117 -111q-3 -3 -5 -3h-12q-2 0 -5 3l-73 108q-4 6 0 10l5 5q5 5 10 0l77 -79l109 83q4 3 8 -1z" />
    <glyph glyph-name="Ydieresis" unicode="&#x178;" horiz-adv-x="500" 
d="M527 679l-264 -413l-45 -254q-2 -12 -12 -12h-18q-7 0 -9 2.5t-1 8.5l45 253l-127 411q-3 12 10 12h17q6 0 9.5 -1t4.5 -2.5t2 -5.5l112 -374h1l233 371q7 12 17 12h21q8 0 4 -8zM438 785q0 -16 -12 -29t-28 -13q-12 0 -20.5 8t-8.5 20q0 17 12 28.5t29 11.5q12 0 20 -7
t8 -19zM285 785q0 -16 -12 -29t-28 -13q-12 0 -20.5 8t-8.5 20q0 17 12 28.5t29 11.5q12 0 20 -7t8 -19z" />
    <glyph glyph-name="Zcaron" unicode="&#x17d;" horiz-adv-x="497" 
d="M522 680l-2 -9q-1 -6 -10 -18l-485 -619h370q9 0 8 -10l-3 -15q-2 -9 -10 -9h-409q-6 0 -8 1.5t-1 6.5l2 10q2 6 7 15l486 621h-333q-9 0 -8 8l4 18q0 7 9 7h375q8 0 8 -7zM421 863q3 -4 -2 -9l-117 -111q-3 -3 -5 -3h-12q-2 0 -5 3l-72 108q-5 6 -1 10l5 5q6 6 10 0
l77 -79l109 83q4 3 8 -1z" />
    <glyph glyph-name="zcaron" unicode="&#x17e;" horiz-adv-x="370" 
d="M383 477l-2 -11q-2 -6 -9 -15l-328 -424h257q6 0 5 -7l-2 -14q-1 -6 -9 -6h-286q-8 0 -7 7l2 9q1 7 10 20l324 419h-230q-8 0 -7 8l3 13q0 6 9 6h265q5 0 5 -5zM321 691q4 -4 -1 -9l-117 -111q-3 -3 -5 -3h-12q-2 0 -5 3l-73 108q-4 6 0 10l5 5q5 5 10 0l77 -79l109 83
q3 4 8 -1z" />
    <glyph glyph-name="florin" unicode="&#x192;" 
d="M602 679l-5 -13q-2 -7 -11 -4q-31 9 -59 9q-33 0 -59.5 -13t-45 -37t-31 -48.5t-24.5 -56.5l-51 -144h131l-8 -24h-132l-109 -310q-13 -37 -24 -62.5t-30 -57t-40 -50.5t-52 -32t-68 -13q-43 0 -64 10q-7 3 -3 9l7 14q2 6 12 3q33 -9 54 -9q108 0 163 154l120 344h-62
l10 24h61l38 109q1 3 12 35t18 47q31 65 74 100t109 35q41 0 65 -9q8 -3 4 -10z" />
    <glyph glyph-name="circumflex" unicode="&#x2c6;" horiz-adv-x="297" 
d="M245 577l-5 -5q-4 -5 -10 0l-77 79l-108 -83q-5 -3 -8 1l-5 6q-4 3 2 9l116 111l6 3h12q1 0 4 -3l73 -108q4 -7 0 -10z" />
    <glyph glyph-name="caron" unicode="&#x2c7;" horiz-adv-x="297" 
d="M265 691q4 -4 -1 -9l-117 -111q-3 -3 -5 -3h-12q-2 0 -5 3l-73 108q-4 6 0 10l5 5q5 5 10 0l77 -79l109 83q3 4 8 -1z" />
    <glyph glyph-name="breve" unicode="&#x2d8;" horiz-adv-x="297" 
d="M267 693l-3 -6q-13 -41 -48 -68.5t-77 -27.5q-43 0 -67 26t-24 70q0 11 7 11h17q7 0 8 -8q13 -68 65 -68q53 0 89 68q5 8 10 8h16q7 0 7 -5z" />
    <glyph glyph-name="dotaccent" unicode="&#x2d9;" horiz-adv-x="297" 
d="M184 670q0 -18 -13 -32t-31 -14q-13 0 -22 9t-9 22q0 19 13 31t32 12q30 0 30 -28z" />
    <glyph glyph-name="ring" unicode="&#x2da;" horiz-adv-x="297" 
d="M232 635q0 -38 -30.5 -68t-69.5 -30q-30 0 -50.5 20t-20.5 50q0 39 31 68.5t70 29.5q30 0 50 -19.5t20 -50.5zM198 631q0 18 -12 29t-30 11q-24 0 -42.5 -17.5t-18.5 -41.5q0 -18 12.5 -29.5t31.5 -11.5q23 0 41 18t18 42z" />
    <glyph glyph-name="ogonek" unicode="&#x2db;" horiz-adv-x="297" 
d="M220 -170l-1 -9q0 -7 -6 -9q-28 -11 -67 -11q-36 0 -55 19.5t-19 45.5q0 42 32.5 79t75.5 61h19q-93 -73 -93 -134q0 -47 55 -47q21 0 49 7q10 3 10 -2z" />
    <glyph glyph-name="tilde" unicode="&#x2dc;" horiz-adv-x="297" 
d="M297 676q7 -6 -3 -13q-65 -51 -105 -51q-17 0 -44.5 24.5t-48.5 24.5t-72 -34q-9 -5 -13 3l-5 11q-4 8 11 18q49 34 89 34q20 0 50 -24t47 -24q15 0 75 40q5 4 11 -2z" />
    <glyph glyph-name="hungarumlaut" unicode="&#x2dd;" horiz-adv-x="297" 
d="M351 671q3 -9 -6 -14l-160 -86q-6 -4 -9 2l-4 9q-2 3 3 7l149 105q11 7 15 -1zM151 671q3 -9 -6 -14l-160 -86q-6 -4 -9 2l-4 9q-2 3 3 7l149 105q11 7 15 -1z" />
    <glyph glyph-name="endash" unicode="&#x2013;" horiz-adv-x="500" 
d="M502 271l-4 -18q0 -7 -9 -7h-485q-6 0 -6 7l4 18q0 7 8 7h485q8 0 7 -7z" />
    <glyph glyph-name="emdash" unicode="&#x2014;" horiz-adv-x="1000" 
d="M1002 271l-4 -18q0 -7 -9 -7h-985q-6 0 -6 7l4 18q0 7 8 7h985q8 0 7 -7z" />
    <glyph glyph-name="quoteleft" unicode="&#x2018;" horiz-adv-x="277" 
d="M263 690q0 -2 -2.5 -4t-2.5 -3q-38 -33 -46 -70q0 -1 -0.5 -4t-0.5 -5q0 -14 10.5 -31.5t10.5 -26.5q0 -15 -12 -25.5t-27 -10.5q-14 0 -23.5 10.5t-9.5 28.5q0 30 23 72q25 44 65 75q4 4 7 4q1 0 3 -2l4 -6q1 -1 1 -2z" />
    <glyph glyph-name="quoteright" unicode="&#x2019;" horiz-adv-x="277" 
d="M230 659q0 -30 -23 -72q-25 -44 -65 -75q-4 -4 -7 -4q-2 0 -4 2l-3 6q-1 1 -1 2q0 2 5 7q39 33 45 70q1 3 1 9q0 14 -10 32t-10 26q0 15 12 25.5t27 10.5q14 0 23.5 -10.5t9.5 -28.5z" />
    <glyph glyph-name="quotesinglbase" unicode="&#x201a;" horiz-adv-x="188" 
d="M151 39q0 -30 -23 -72q-25 -44 -65 -75q-4 -4 -7 -4q-1 0 -3 2l-4 6q-1 1 -1 2q0 2 5 7q38 33 46 70v9q0 14 -10 32t-10 26q0 15 12 25.5t27 10.5q14 0 23.5 -10.5t9.5 -28.5z" />
    <glyph glyph-name="quotedblleft" unicode="&#x201c;" horiz-adv-x="304" 
d="M298 690q0 -2 -2.5 -4t-2.5 -3q-38 -33 -46 -70q0 -1 -0.5 -4t-0.5 -5q0 -14 10.5 -31.5t10.5 -26.5q0 -15 -12 -25.5t-27 -10.5q-14 0 -23.5 10.5t-9.5 28.5q0 30 23 72q25 44 65 75q4 4 7 4q1 0 3 -2l4 -6q1 -1 1 -2zM160 690q0 -2 -2.5 -4t-2.5 -3q-38 -33 -46 -70
q0 -1 -0.5 -4t-0.5 -5q0 -14 10.5 -31.5t10.5 -26.5q0 -15 -12 -25.5t-27 -10.5q-14 0 -23.5 10.5t-9.5 28.5q0 30 23 72q25 44 65 75q4 4 7 4q1 0 3 -2l4 -6q1 -1 1 -2z" />
    <glyph glyph-name="quotedblright" unicode="&#x201d;" horiz-adv-x="304" 
d="M294 659q0 -30 -23 -72q-25 -44 -65 -75q-4 -4 -7 -4q-2 0 -4 2l-3 6q-1 1 -1 2q0 2 5 7q39 33 45 70q1 3 1 9q0 14 -10 32t-10 26q0 15 12 25.5t27 10.5q14 0 23.5 -10.5t9.5 -28.5zM156 659q0 -30 -23 -72q-25 -44 -65 -75q-4 -4 -7 -4q-2 0 -4 2l-3 6q-1 1 -1 2
q0 2 5 7q39 33 45 70q1 3 1 9q0 14 -10 32t-10 26q0 15 12 25.5t27 10.5q14 0 23.5 -10.5t9.5 -28.5z" />
    <glyph glyph-name="quotedblbase" unicode="&#x201e;" horiz-adv-x="304" 
d="M280 39q0 -30 -23 -72q-25 -44 -65 -75q-4 -4 -7 -4q-1 0 -3 2l-4 6q-1 1 -1 2q0 2 5 7q38 33 46 70v9q0 14 -10 32t-10 26q0 15 12 25.5t27 10.5q14 0 23.5 -10.5t9.5 -28.5zM142 39q0 -30 -23 -72q-25 -44 -65 -75q-4 -4 -7 -4q-1 0 -3 2l-4 6q-1 1 -1 2q0 2 5 7
q38 33 46 70v9q0 14 -10 32t-10 26q0 15 12 25.5t27 10.5q14 0 23.5 -10.5t9.5 -28.5z" />
    <glyph glyph-name="dagger" unicode="&#x2020;" horiz-adv-x="496" 
d="M441 426l-4 -19q0 -6 -9 -6l-152 3l-74 -396q-1 -8 -9 -8h-13q-5 0 -4 8l66 396l-154 -3q-8 0 -6 6l3 18q1 7 10 7l151 -3l42 248q1 10 9 10h23q7 0 6 -10l-46 -248l154 3q7 0 7 -6z" />
    <glyph glyph-name="daggerdbl" unicode="&#x2021;" horiz-adv-x="496" 
d="M449 477l-3 -19q-2 -6 -9 -6l-152 3l-29 -156l154 3q3 0 5.5 -2t1.5 -4l-3 -19q-2 -6 -9 -6l-154 3l-49 -266q-1 -8 -8 -8h-13q-6 0 -5 8l44 266l-155 -3q-7 0 -6 6l3 18q1 7 9 7l154 -3l26 156l-154 -3q-7 0 -6 6l3 18q1 7 9 7l152 -3l33 197q2 10 9 10h23q7 0 6 -10
l-37 -197l153 3q3 0 5.5 -2t1.5 -4z" />
    <glyph glyph-name="bullet" unicode="&#x2022;" horiz-adv-x="449" 
d="M377 295q0 -72 -54.5 -129t-125.5 -57q-55 0 -90.5 37t-35.5 92q0 71 55.5 128.5t126.5 57.5q55 0 89.5 -37t34.5 -92z" />
    <glyph glyph-name="ellipsis" unicode="&#x2026;" horiz-adv-x="983" 
d="M814 33q0 -18 -13 -32t-31 -14q-13 0 -22 9t-9 22q0 19 13 31t32 12q30 0 30 -28zM513 33q0 -18 -13 -32t-31 -14q-13 0 -22 9t-9 22q0 19 13 31t32 12q30 0 30 -28zM214 33q0 -18 -13 -32t-31 -14q-13 0 -22 9t-9 22q0 19 13 31t32 12q30 0 30 -28z" />
    <glyph glyph-name="perthousand" unicode="&#x2030;" horiz-adv-x="1000" 
d="M932 181q0 -43 -12.5 -84.5t-44 -73.5t-75.5 -32q-83 0 -83 96q0 70 35.5 130.5t99.5 60.5q80 0 80 -97zM349 601q0 -70 -33.5 -130t-97.5 -60q-84 0 -84 96q0 70 35.5 130.5t99.5 60.5q80 0 80 -97zM670 687q8 -5 -1 -13l-562 -676q-7 -7 -12 -3l-13 9q-5 4 1 12
l562 675q8 8 14 4zM625 181q0 -70 -33.5 -130t-97.5 -60q-84 0 -84 96q0 70 35.5 130.5t99.5 60.5q80 0 80 -97zM904 175q0 79 -57 79q-34 0 -58.5 -30t-33.5 -65.5t-9 -69.5q0 -74 60 -74q33 0 56.5 29.5t32.5 64t9 66.5zM321 595q0 79 -57 79q-34 0 -58.5 -30t-33.5 -65.5
t-9 -69.5q0 -74 60 -74q33 0 56.5 29.5t32.5 64t9 66.5zM597 175q0 79 -57 79q-34 0 -58.5 -30t-33.5 -65.5t-9 -69.5q0 -74 60 -74q33 0 56.5 29.5t32.5 64t9 66.5z" />
    <glyph glyph-name="guilsinglleft" unicode="&#x2039;" horiz-adv-x="289" 
d="M241 379l-109 -150l54 -157q2 -6 -2 -9l-6 -4q-7 -4 -10 3l-78 157q-5 8 4 17l132 153q5 5 9 2l6 -3q5 -3 0 -9z" />
    <glyph glyph-name="guilsinglright" unicode="&#x203a;" horiz-adv-x="289" 
d="M200 224q-2 -8 -5 -10l-132 -153q-5 -5 -9 -2l-6 3q-4 4 0 9l109 150l-54 157q-2 6 2 9l6 4q7 3 10 -3l78 -157q3 -3 1 -7z" />
    <glyph glyph-name="fraction" unicode="&#x2044;" horiz-adv-x="144" 
d="M343 709l-545 -727q-7 -10 -15 -10h-17q-12 0 -5 9l541 722q8 10 11 12t12 2h15q9 0 3 -8z" />
    <glyph glyph-name="Euro" unicode="&#x20ac;" 
d="M574 646l-12 -19q-5 -7 -11 -3q-57 40 -133 40q-57 0 -105 -23.5t-80.5 -65t-54.5 -89t-35 -102.5h287q9 0 7 -7l-6 -14q-3 -7 -9 -7h-285l-1 -7q0 -1 -0.5 -2t-0.5 -2q-6 -37 -7 -53h246q9 0 7 -7l-6 -14q-3 -7 -9 -7h-240q-13 -239 179 -239q71 0 154 39q2 2 5.5 1
t4.5 -4l3 -18q1 -7 -8 -12q-84 -40 -172 -40q-118 0 -169 74t-44 199h-88q-7 0 -6 7l3 14q0 7 8 7h85q1 24 6 48l1 2v2l2 12h-70q-7 0 -6 7l3 14q2 7 8 7h71q33 136 117 225t206 89q93 0 153 -43q6 -4 2 -9z" />
    <glyph glyph-name="trademark" unicode="&#x2122;" horiz-adv-x="610" 
d="M596 684l-44 -322q-2 -5 -5 -5h-18q-4 0 -3 6l36 265h-1l-152 -267q-4 -4 -7 -4h-14q-4 0 -4 4l-64 267h-1l-56 -267q-1 -4 -5 -4h-18q-3 0 -3 3l69 321q2 6 7 6h13q5 0 6 -5l70 -288h2l166 290q1 3 5 3h17q4 0 4 -3zM290 684l-4 -17q-1 -3 -8 -3h-110l-53 -303
q-2 -4 -6 -4h-18q-5 0 -4 4l53 303h-111q-5 0 -3 3l3 17q0 3 4 3h253q4 0 4 -3z" />
    <glyph glyph-name="minus" unicode="&#x2212;" horiz-adv-x="484" 
d="M371 267l-2 -11q-2 -13 -13 -13h-225q-12 0 -9 10l3 18q2 8 11 8h225q13 0 10 -12z" />
    <glyph glyph-name="apple" unicode="&#xf8ff;" horiz-adv-x="375" 
d="M376 324q0 -40 -30 -60t-71 -20q-39 0 -83 18q-8 4 -8 10v2q1 2 1 3l10 32q5 9 8 9q2 0 8 -2q40 -16 66 -16q27 0 27 18q0 13 -23 21l-45 17q-51 19 -51 70q0 37 29 56t66 19q43 0 79 -16q7 -3 7 -8q0 -4 -1 -6l-10 -35q-3 -6 -9 -6q-4 0 -5 1q-33 12 -56 12
q-24 0 -24 -16q0 -11 19 -19l50 -20q46 -18 46 -64zM199 517q0 -1 -0.5 -5.5t-0.5 -6.5l-5 -25q0 -10 -7 -10q-4 0 -6 1q-21 7 -35 7q-31 0 -31 -39v-22h50q13 0 13 -11v-29q0 -11 -12 -11h-51v-177q0 -16 -14 -16h-47q-14 0 -14 15v177h-25q-9 0 -11.5 3.5t-2.5 13.5v21
q0 13 11 13h28v17q0 107 93 107q35 0 59 -12q8 -3 8 -11z" />
    <glyph glyph-name="fi" unicode="&#xfb01;" horiz-adv-x="462" 
d="M428 612q0 -13 -9.5 -22t-22.5 -9q-9 0 -16 6t-7 15q0 12 10 21.5t22 9.5q23 0 23 -21zM395 473l-82 -464q0 -9 -7 -9h-23q-6 0 -6 9l79 446h-207l-79 -446q0 -9 -8 -9h-20q-8 0 -7 9l79 446h-61q-9 0 -7 7l2 12q2 8 11 8h60l3 20q10 57 16 80q18 65 59.5 100t99.5 35
q41 0 70 -11q5 -2 3 -9l-3 -12q-2 -6 -11 -4q-27 9 -60 9q-60 0 -89.5 -38.5t-43.5 -115.5l-9 -54h236q6 0 5 -9z" />
    <glyph glyph-name="fl" unicode="&#xfb02;" horiz-adv-x="473" 
d="M456 701l-121 -691q-3 -10 -10 -10h-19q-10 0 -7 10l120 684q2 10 9 11l23 3q4 1 5 -1t0 -6zM371 697l-3 -12q-2 -6 -11 -4q-27 9 -56 9q-60 0 -91.5 -39t-45.5 -115l-9 -54h131q9 0 6 -8l-2 -12q-2 -7 -8 -7h-132l-79 -446q0 -9 -8 -9h-20q-9 0 -7 9l79 446h-61
q-9 0 -7 7l2 12q2 8 11 8h60l3 20q10 57 16 80q18 65 59.5 100t99.5 35q41 0 70 -11q5 -2 3 -9z" />
    </font>
</defs>
</svg>
