<?xml version="1.0" standalone="no"?>
<!DOCTYPE svg PUBLIC "-//W3C//DTD SVG 1.1//EN" "http://www.w3.org/Graphics/SVG/1.1/DTD/svg11.dtd" >
<svg xmlns="http://www.w3.org/2000/svg" xmlns:xlink="http://www.w3.org/1999/xlink" version="1.1">
<metadata>
Created by FontForge 20170731 at Thu Nov 11 22:02:28 2004
 By Aleksey,,,
Designed &#38; produced by Jason Smith. Copyright Fontsmith 2002      http://www.fontsmith.com
</metadata>
<defs>
<font id="FSAlbert-Light" horiz-adv-x="310" >
  <font-face 
    font-family="FSAlbert"
    font-weight="300"
    font-stretch="normal"
    units-per-em="1000"
    panose-1="2 0 5 3 4 0 0 2 0 4"
    ascent="770"
    descent="-230"
    x-height="482"
    cap-height="687"
    bbox="-193 -220 1000 918"
    underline-thickness="50"
    underline-position="-200"
    unicode-range="U+0020-FB02"
  />
<missing-glyph horiz-adv-x="1000" 
 />
    <glyph glyph-name=".notdef" horiz-adv-x="1000" 
 />
    <glyph glyph-name=".null" horiz-adv-x="0" 
 />
    <glyph glyph-name="nonmarkingreturn" horiz-adv-x="333" 
 />
    <glyph glyph-name="space" unicode=" " horiz-adv-x="220" 
 />
    <glyph glyph-name="exclam" unicode="!" horiz-adv-x="254" 
d="M180 671l-8 -515q0 -17 -16 -17h-24q-16 0 -16 17l-8 513v1q0 17 13 17h43q16 0 16 -15v-1zM194 37q0 -22 -15.5 -36t-35.5 -14t-36.5 14t-16.5 36q0 23 15.5 36t37.5 13q21 0 36 -13.5t15 -35.5z" />
    <glyph glyph-name="quotedbl" unicode="&#x22;" horiz-adv-x="300" 
d="M243 540q0 -18 -16 -18h-32q-16 0 -16 18v140q0 18 16 18h32q16 0 16 -18v-140zM119 540q0 -18 -16 -18h-32q-15 0 -15 18v140q0 18 15 18h32q16 0 16 -18v-140z" />
    <glyph glyph-name="numbersign" unicode="#" horiz-adv-x="550" 
d="M567 454q0 -1 -0.5 -3.5t-0.5 -4.5l-2 -13q-2 -12 -5.5 -16t-11.5 -4h-111l-24 -156h108q14 0 14 -10q0 -1 -0.5 -4t-0.5 -5l-1 -18q-1 -16 -21 -16h-109l-29 -186q-3 -18 -27 -18h-19q-20 0 -20 12q0 1 0.5 3.5t0.5 4.5l31 184h-162l-31 -183q-2 -9 -3.5 -12.5t-7.5 -6
t-17 -2.5h-20q-18 0 -18 12q0 6 1 10l29 182h-103q-15 0 -15 12q0 1 0.5 3t0.5 4l3 19q2 15 26 15h100l23 156h-107q-14 0 -14 12q0 1 0.5 3t0.5 3l3 20q2 8 5 11t13 3h110l31 207q3 15 15 15h35q15 0 15 -11v-4l-32 -207h159l32 206q2 16 18 16h30q17 0 17 -12
q0 -1 -0.5 -3.5t-0.5 -4.5l-30 -202h109q13 0 13 -11zM372 413h-161l-25 -156h161z" />
    <glyph glyph-name="dollar" unicode="$" horiz-adv-x="540" 
d="M479 178q0 -77 -48 -123.5t-124 -59.5v-75q0 -9 -0.5 -12.5t-5 -6t-13.5 -2.5h-11q-12 0 -15 4.5t-3 16.5v71h-5h-3q-74 0 -152 26q-13 4 -13 14q0 4 1 7l10 33q3 9 11 9q2 0 10 -2q75 -28 137 -28h1h3v283l-70 40q-106 60 -106 156q0 72 51 116.5t125 51.5v81
q0 16 15 16h16q10 0 13.5 -3.5t3.5 -13.5v-79q66 -3 124 -27q13 -6 13 -15q0 -4 -1 -7l-10 -28q-3 -9 -12 -9q-3 0 -9 2q-55 23 -105 27v-258l34 -19q68 -38 103 -79.5t35 -106.5zM259 411v229q-41 -7 -66 -26q-39 -29 -39 -73q0 -73 83 -118zM410 174q0 80 -97 129l-6 3
v-251q46 11 74.5 40.5t28.5 78.5z" />
    <glyph glyph-name="percent" unicode="%" horiz-adv-x="1000" 
d="M426 545q0 -64 -30 -107.5t-91 -43.5t-92 43t-31 107t32 109t93 45q62 0 90.5 -44t28.5 -109zM825 142q0 -64 -30 -107.5t-91 -43.5t-92 43t-31 107t32 109t93 45q62 0 90.5 -44t28.5 -109zM758 670q0 -6 -4 -11l-461 -662q-4 -7 -11 -7q-5 0 -14 6l-19 13q-6 5 -6 11
q0 7 4 12l460 660q4 7 11 7q6 0 15 -6l17 -10q8 -5 8 -13zM376 548q0 42 -17 78.5t-54 36.5q-40 0 -56 -38t-16 -84q0 -44 17 -79t56 -35q27 0 43.5 22.5t21.5 47t5 51.5zM775 145q0 42 -17 78.5t-54 36.5q-40 0 -56 -38t-16 -84q0 -44 17 -79t56 -35q27 0 43.5 22.5
t21.5 47t5 51.5z" />
    <glyph glyph-name="ampersand" unicode="&#x26;" horiz-adv-x="669" 
d="M655 32l-10 -26q-5 -14 -24 -9q-82 20 -150 86q-101 -92 -232 -92q-84 0 -141 53t-57 135q0 29 10.5 56.5t24.5 47t39.5 42.5t44 36t50.5 35l-33 40q-57 69 -57 128q0 55 41.5 94.5t104.5 39.5q65 0 106 -37t41 -96q0 -48 -32 -87.5t-90 -82.5l188 -225q70 100 82 235
q1 14 11 14h35q10 0 9 -13q-10 -158 -102 -276q52 -51 131 -80q15 -5 10 -18zM352 563q0 37 -23 61.5t-61 24.5q-35 0 -59 -24t-24 -60q0 -43 49 -101l27 -33q91 68 91 132zM437 122l-196 236q-63 -47 -96 -85t-33 -85q0 -61 42.5 -100.5t100.5 -39.5q105 0 182 74z" />
    <glyph glyph-name="quotesingle" unicode="'" horiz-adv-x="300" 
d="M177 540q0 -18 -16 -18h-32q-15 0 -15 18v140q0 18 15 18h32q16 0 16 -18v-140z" />
    <glyph glyph-name="parenleft" unicode="(" horiz-adv-x="322" 
d="M259 693q0 -6 -4 -11q-60 -94 -85 -168q-36 -105 -36 -228q0 -201 117 -371q4 -5 4 -11t-6 -11l-15 -11q-4 -4 -9 -4q-4 0 -11 10q-145 202 -145 411q0 200 151 407q4 6 11 6q5 0 8 -2l15 -9q5 -3 5 -8z" />
    <glyph glyph-name="parenright" unicode=")" horiz-adv-x="322" 
d="M253 293q0 -202 -150 -407q-5 -6 -11 -6q-5 0 -8 2l-16 10q-5 3 -5 8t4 10q60 94 85 168q37 108 37 228q0 201 -117 371q-4 5 -4 11t6 11l16 11q8 4 9 4q4 0 11 -10q143 -199 143 -411z" />
    <glyph glyph-name="asterisk" unicode="*" 
d="M284 587q0 -9 -12 -11l-93 -12l68 -71q4 -4 4 -9q0 -9 -8 -14l-24 -18q-8 -5 -11 -5q-5 0 -10 10l-43 98l-42 -102q-3 -6 -8 -6q-3 0 -9 4l-32 23q-5 3 -5 7q0 2 8 13l69 71l-98 11q-11 2 -11 8q0 4 1 6l14 44q3 8 10 8q4 0 9 -3l85 -51l-19 101q-1 4 -1 9q0 8 12 8h36
q13 0 13 -8q0 -6 -1 -9l-19 -101l88 52q4 2 7 2q6 0 10 -12l10 -34q2 -6 2 -9z" />
    <glyph glyph-name="plus" unicode="+" horiz-adv-x="500" 
d="M456 252q0 -11 -3.5 -15t-13.5 -4h-160v-167q0 -12 -3 -16t-12 -4h-26q-9 0 -12 3.5t-3 13.5v170h-158q-12 0 -16 3t-4 12v26q0 9 3.5 12t13.5 3h161v168q0 13 3 16.5t14 3.5h20q11 0 15 -3.5t4 -13.5v-171h157q13 0 16.5 -3t3.5 -14v-20z" />
    <glyph glyph-name="comma" unicode="," horiz-adv-x="192" 
d="M152 26q0 -37 -20.5 -75.5t-50.5 -59.5q-8 -5 -12 -5q-6 0 -10 6l-5 6q-3 3 -3 8q0 3 5 8q31 31 31 62q0 12 -15 31t-15 32q0 19 13 32t33 13q22 0 35.5 -17.5t13.5 -40.5z" />
    <glyph glyph-name="hyphen" unicode="-" horiz-adv-x="271" 
d="M226 252q0 -11 -3.5 -15t-13.5 -4h-144q-12 0 -16 3t-4 12v26q0 9 3.5 12t13.5 3h144q13 0 16.5 -3t3.5 -14v-20z" />
    <glyph glyph-name="period" unicode="." horiz-adv-x="195" 
d="M155 37q0 -21 -15.5 -35.5t-36.5 -14.5t-37 14.5t-16 35.5q0 22 15.5 35.5t37.5 13.5q21 0 36.5 -14t15.5 -35z" />
    <glyph glyph-name="slash" unicode="/" horiz-adv-x="325" 
d="M300 690q0 -3 -2 -11l-193 -668q-4 -13 -9.5 -16.5t-17.5 -3.5h-20q-15 0 -15 8q0 1 2 11l196 670q3 11 6.5 14.5t13.5 3.5h27q12 0 12 -8z" />
    <glyph glyph-name="zero" unicode="0" horiz-adv-x="540" 
d="M504 346q0 -46 -6.5 -91.5t-23.5 -94t-42 -85.5t-67 -60.5t-94 -23.5q-65 0 -112 34.5t-71 90.5t-35 112.5t-11 115.5q0 58 11.5 115t36 113.5t72 91t112.5 34.5q52 0 93.5 -23.5t66.5 -59.5t41.5 -84.5t22.5 -93.5t6 -91zM429 345q0 44 -6.5 89t-22 94.5t-48.5 80.5
t-79 31t-79.5 -31t-48.5 -80.5t-21.5 -94t-6.5 -89.5t6.5 -89.5t21.5 -94t48.5 -80.5t79.5 -31t79 31t48.5 80.5t22 94.5t6.5 89z" />
    <glyph glyph-name="one" unicode="1" horiz-adv-x="540" 
d="M343 21q0 -21 -18 -21h-30q-19 0 -19 21v593l-136 -90q-6 -4 -11 -4q-7 0 -13 9l-13 22q-2 3 -2 7q0 8 10 15l160 106q11 8 32 8h22q18 0 18 -21v-645z" />
    <glyph glyph-name="two" unicode="2" horiz-adv-x="540" 
d="M475 17q0 -17 -20 -17h-369q-16 0 -16 17v24q0 12 9 22q24 27 75 79t75 78q85 93 126 161.5t41 130.5q0 57 -36.5 91.5t-94.5 34.5q-70 0 -142 -41q-6 -2 -7 -2q-9 0 -12 10l-9 22q-3 6 -3 10q0 6 9 12q76 49 175 49q82 0 138.5 -47t56.5 -130q0 -74 -38 -144t-138 -179
q-25 -27 -74.5 -77.5t-60.5 -62.5h294q21 0 21 -16v-25z" />
    <glyph glyph-name="three" unicode="3" horiz-adv-x="540" 
d="M469 199q0 -91 -65 -149.5t-158 -58.5q-97 0 -162 33q-8 5 -8 12q0 4 1 6l11 26q4 9 10 9q1 0 7 -2q64 -29 134 -29q69 0 112 40.5t43 109.5q0 70 -46 108.5t-121 38.5h-35q-13 0 -13 12v30q0 11 12 11h27q70 0 110.5 33t40.5 99q0 58 -36.5 87t-96.5 29q-61 0 -120 -33
q-4 -3 -8 -3t-7 7l-12 26q-2 4 -2 6q0 6 6 9q70 42 157 42q78 0 136 -46t58 -121q0 -53 -32.5 -96.5t-83.5 -59.5q63 -14 102 -63t39 -113z" />
    <glyph glyph-name="four" unicode="4" horiz-adv-x="540" 
d="M469 15q0 -15 -13 -15h-39q-15 0 -15 16v150h-330q-18 0 -18 19v11v4q0 20 9 39l192 432q7 16 19 16h37q6 0 10 -4.5t4 -9.5q0 -4 -1 -6l-194 -443h272v163q0 10 3.5 13t12.5 3h35q9 0 12.5 -3t3.5 -12v-373z" />
    <glyph glyph-name="five" unicode="5" horiz-adv-x="540" 
d="M478 205q0 -99 -66.5 -156.5t-170.5 -57.5q-73 0 -146 38q-13 7 -13 15q0 1 2 7l12 25q4 9 12 9q4 0 10 -3q65 -32 130 -32q66 0 110.5 39.5t44.5 112.5q0 92 -57 128t-155 36h-51q-27 0 -27 25v280q0 16 15 16h156h138q19 0 19 -17v-24q0 -10 -3.5 -13t-13.5 -3h-141
h-103v-210h37q114 0 187.5 -53t73.5 -162z" />
    <glyph glyph-name="six" unicode="6" horiz-adv-x="540" 
d="M495 221q0 -99 -55.5 -164.5t-147.5 -65.5q-113 0 -164.5 82.5t-51.5 216.5q0 105 28 197t83 147q64 64 165 64q35 0 78 -10q9 -3 9 -11q0 -5 -1 -8l-5 -22q-3 -12 -13 -12q-1 0 -2.5 0.5t-2.5 0.5q-32 6 -67 6q-67 0 -110 -45q-69 -69 -85 -240q63 67 153 67
q81 0 135 -55.5t54 -147.5zM420 214q0 64 -30 108.5t-93 44.5q-82 0 -146 -72v-8v-16q0 -223 142 -223q66 0 96.5 51.5t30.5 114.5z" />
    <glyph glyph-name="seven" unicode="7" horiz-adv-x="540" 
d="M483 644q0 -11 -8 -27l-272 -601q-6 -16 -23 -16h-37q-13 0 -13 12q0 3 2 9l279 608h-300q-10 0 -14 2.5t-4 11.5v28q0 16 16 16h357q17 0 17 -16v-20v-5v-2z" />
    <glyph glyph-name="eight" unicode="8" horiz-adv-x="540" 
d="M489 191q0 -89 -63.5 -144.5t-156.5 -55.5q-96 0 -156.5 50t-60.5 140q0 57 43 107.5t116 76.5q-60 26 -95 69t-35 98q0 71 55.5 118.5t136.5 47.5t133 -44.5t52 -117.5q0 -47 -37 -92.5t-92 -70.5q160 -67 160 -182zM383 537q0 50 -30 80.5t-84 30.5q-50 0 -81.5 -31.5
t-31.5 -79.5q0 -49 30 -79.5t86 -59.5q44 21 77.5 57t33.5 82zM414 182q0 54 -36 90t-114 69q-137 -54 -137 -157q0 -65 44 -103.5t101 -38.5q58 0 100 37t42 103z" />
    <glyph glyph-name="nine" unicode="9" horiz-adv-x="540" 
d="M479 399q0 -108 -29 -202t-87 -148q-63 -58 -164 -58q-38 0 -74 10q-9 3 -9 11q0 5 1 8l5 22q3 11 11 11h4q27 -6 60 -6q77 0 122 47q67 69 83 238q-63 -67 -154 -67q-81 0 -134.5 55.5t-53.5 147.5q0 99 55 164.5t147 65.5q113 0 165 -82.5t52 -216.5zM404 394v8v16
q0 104 -35 163.5t-108 59.5q-66 0 -96 -51.5t-30 -114.5q0 -64 29.5 -108.5t92.5 -44.5q83 0 147 72z" />
    <glyph glyph-name="colon" unicode=":" horiz-adv-x="205" 
d="M160 441q0 -22 -16 -35.5t-36 -13.5t-36.5 13.5t-16.5 35.5q0 23 16 37t37 14t36.5 -14.5t15.5 -36.5zM160 41q0 -22 -16 -36t-36 -14t-36.5 14t-16.5 36q0 23 15.5 36t37.5 13q21 0 36.5 -13.5t15.5 -35.5z" />
    <glyph glyph-name="semicolon" unicode=";" horiz-adv-x="206" 
d="M161 441q0 -22 -16 -35.5t-36 -13.5t-36.5 13.5t-16.5 35.5q0 23 16 37t37 14t36.5 -14.5t15.5 -36.5zM157 9q0 -72 -70 -120q-8 -5 -12 -5q-5 0 -10 6l-7 9q-3 3 -3 8q0 3 5 8q26 24 26 45q0 9 -13 28.5t-13 32.5q0 20 13.5 32.5t33.5 12.5q22 0 36 -17.5t14 -39.5z" />
    <glyph glyph-name="less" unicode="&#x3c;" horiz-adv-x="500" 
d="M398 179q0 -5 -2 -7l-20 -31q-5 -9 -12 -9q-5 0 -14 6l-256 173q-11 8 -11 18v15q0 10 11 18l256 173q9 6 14 6q7 0 12 -9l20 -31q2 -2 2 -7q0 -9 -10 -15l-217 -143l217 -142q10 -6 10 -15z" />
    <glyph glyph-name="equal" unicode="=" horiz-adv-x="500" 
d="M405 359q0 -11 -3.5 -15t-13.5 -4h-274q-12 0 -16 3t-4 12v26q0 9 3.5 12t13.5 3h274q13 0 16.5 -3t3.5 -14v-20zM405 179q0 -11 -3.5 -15t-13.5 -4h-274q-12 0 -16 3t-4 12v26q0 9 3.5 12t13.5 3h274q13 0 16.5 -3t3.5 -14v-20z" />
    <glyph glyph-name="greater" unicode="&#x3e;" horiz-adv-x="500" 
d="M398 329q0 -10 -11 -18l-256 -173q-9 -6 -14 -6q-7 0 -12 9l-20 31q-2 2 -2 7q0 9 10 15l217 143l-217 142q-10 6 -10 15q0 5 2 7l20 31q5 9 12 9q5 0 14 -6l256 -173q11 -8 11 -18v-15z" />
    <glyph glyph-name="question" unicode="?" horiz-adv-x="407" 
d="M362 545q0 -75 -58 -139l-73 -81q-18 -19 -26.5 -31.5t-16 -37.5t-7.5 -58q0 -11 -1.5 -14.5t-8.5 -3.5h-27q-5 0 -7.5 1.5t-4 4.5t-2.5 9q-3 23 -3 46t12 51t30 47l72 78q57 63 57 116q0 61 -35 87.5t-84 26.5q-45 0 -94 -22q-6 -2 -8 -2q-8 0 -11 9l-7 18q-2 6 -2 7
q0 7 7 11q59 30 129 30t119.5 -42.5t49.5 -110.5zM216 37q0 -22 -16.5 -36t-36.5 -14t-36 14t-16 36q0 23 15 36t37 13q21 0 37 -13.5t16 -35.5z" />
    <glyph glyph-name="at" unicode="@" horiz-adv-x="810" 
d="M757 386q0 -88 -49 -165t-130 -77q-43 0 -73.5 23t-30.5 71q-40 -71 -110 -71q-52 0 -79 39t-27 96q0 78 46.5 145.5t119.5 67.5q77 0 93 -71l12 47q3 10 14 10h20q13 0 13 -8v-2q-1 -2 -1 -3l-45 -198q-7 -28 -7 -63q0 -51 57 -51q36 0 63 23.5t40.5 59t20 69t6.5 62.5
q0 116 -76.5 188t-196.5 72q-75 0 -133 -30q-84 -42 -128.5 -122t-44.5 -177q0 -129 79.5 -208t207.5 -79q85 0 163 42q3 2 7 2q6 0 9 -7l7 -17l2 -6q0 -4 -8 -9q-90 -48 -189 -48q-156 0 -255 90.5t-99 235.5q0 160 112 270.5t273 110.5q140 0 228.5 -86t88.5 -226z
M498 393q0 31 -15 57.5t-48 26.5q-40 0 -67 -33t-36.5 -71t-9.5 -73q0 -89 60 -89q59 0 95 83z" />
    <glyph glyph-name="A" unicode="A" horiz-adv-x="584" 
d="M576 8q0 -8 -12 -8h-47q-12 0 -15.5 2.5t-7.5 12.5l-75 209h-263l-78 -210q-4 -9 -7.5 -11.5t-13.5 -2.5h-43q-7 0 -7 7q0 6 2 10l255 660q3 10 13 10h36q8 0 12 -9l249 -662zM401 276l-110 310l-116 -310h226z" />
    <glyph glyph-name="B" unicode="B" horiz-adv-x="549" 
d="M502 195q0 -195 -252 -195h-155q-11 0 -14.5 3t-3.5 14v651q0 11 4.5 15t18.5 4h126q224 0 224 -167q0 -57 -33 -99.5t-92 -54.5v-1q76 -2 126.5 -48t50.5 -122zM380 519q0 66 -44 90t-120 24h-69v-246h77q156 0 156 132zM430 194q0 139 -188 139h-62h-33v-279h95
q90 0 139 31.5t49 108.5z" />
    <glyph glyph-name="C" unicode="C" horiz-adv-x="579" 
d="M556 48q0 -7 -12 -13q-87 -44 -189 -44q-76 0 -135.5 28.5t-95.5 78t-54.5 112t-18.5 134.5q0 145 83 249.5t226 104.5q105 0 180 -46q11 -6 11 -13q0 -5 -3 -9l-13 -24q-4 -8 -10 -8q-5 0 -9 3q-68 42 -151 42q-104 0 -170 -80q-68 -83 -68 -214q0 -58 13.5 -110
t40.5 -96.5t74 -71t109 -26.5q89 0 162 39q6 3 10 3q6 0 9 -8l9 -21q2 -4 2 -10z" />
    <glyph glyph-name="D" unicode="D" horiz-adv-x="653" 
d="M604 339q0 -174 -99 -267q-76 -72 -245 -72h-160q-14 0 -18.5 4.5t-4.5 16.5v639q0 14 6.5 20.5t21.5 6.5h112q104 0 156.5 -10t97.5 -39q63 -41 98 -119t35 -180zM529 340q0 77 -23 141t-66 100q-63 52 -188 52h-105v-579h89q82 0 131 11.5t83 46.5q79 79 79 228z" />
    <glyph glyph-name="E" unicode="E" horiz-adv-x="489" 
d="M446 14q0 -14 -17 -14h-334q-11 0 -14.5 3.5t-3.5 14.5v652q0 10 3.5 13.5t13.5 3.5h335q14 0 14 -12v-4l-3 -25q-1 -13 -23 -13h-270v-242h238q17 0 17 -15v-24q0 -15 -16 -15h-239v-283h281q18 0 18 -13v-27z" />
    <glyph glyph-name="F" unicode="F" horiz-adv-x="480" 
d="M443 671l-3 -25q-1 -13 -23 -13h-270v-242h238q17 0 17 -15v-24q0 -15 -16 -15h-239v-318q0 -12 -3 -15.5t-14 -3.5h-36q-11 0 -14 3.5t-3 15.5v651q0 10 3.5 13.5t13.5 3.5h335q14 0 14 -12v-4z" />
    <glyph glyph-name="G" unicode="G" horiz-adv-x="642" 
d="M569 74q0 -18 -3 -24t-17 -14q-34 -20 -84.5 -32.5t-94.5 -12.5q-161 0 -240 95.5t-79 257.5q0 155 88.5 254.5t244.5 99.5q84 0 155 -30q11 -4 11 -10l-2 -8l-8 -28q-3 -10 -10 -10q-1 0 -9 2q-68 27 -137 27q-126 0 -192 -85t-66 -211q0 -46 7.5 -88t25.5 -81.5
t45 -68.5t68 -46.5t92 -17.5q80 0 136 30v264h-115h-8t-4.5 2t-3 5t-0.5 9v25q0 8 3 10.5t12 2.5h169q10 0 13 -3t3 -14v-300z" />
    <glyph glyph-name="H" unicode="H" horiz-adv-x="639" 
d="M562 18q0 -18 -15 -18h-38q-16 0 -16 18v319h-346v-319q0 -18 -16 -18h-38q-16 0 -16 18v651q0 18 16 18h38q16 0 16 -18v-278h346v278q0 18 16 18h38q15 0 15 -18v-651z" />
    <glyph glyph-name="I" unicode="I" horiz-adv-x="349" 
d="M284 14q0 -9 -2 -11.5t-9 -2.5h-198q-7 0 -9.5 2t-2.5 10v28q0 6 2 8t10 2h64v588h-67q-8 0 -10 2t-2 9v26q0 7 2 9.5t9 2.5h199q14 0 14 -11v-25q0 -9 -2 -11t-12 -2h-64v-588h64q14 0 14 -11v-25z" />
    <glyph glyph-name="J" unicode="J" horiz-adv-x="363" 
d="M284 232q0 -78 -10 -126t-42 -77q-43 -38 -124 -38q-32 0 -55 7q-9 3 -9 10v2q1 2 1 3l6 32q1 9 8 9q1 0 3 -0.5t3 -0.5q27 -5 48 -5q63 0 84 36q19 34 19 124v430h-111q-11 0 -14 2.5t-3 11.5v23q0 12 18 12h162q16 0 16 -17v-438z" />
    <glyph glyph-name="K" unicode="K" horiz-adv-x="517" 
d="M508 7q0 -7 -9 -7h-49q-19 0 -32 15l-270 314h-1v-311q0 -18 -16 -18h-38q-16 0 -16 18v651q0 18 16 18h38q16 0 16 -18v-294h1l262 302q9 10 23 10h43q8 0 8 -7q0 -2 -3 -7l-272 -315l293 -339q6 -7 6 -12z" />
    <glyph glyph-name="L" unicode="L" horiz-adv-x="428" 
d="M413 13q0 -8 -2.5 -10.5t-10.5 -2.5h-307q-16 0 -16 18v651q0 18 16 18h38q16 0 16 -18v-615h250q10 0 13 -2.5t3 -9.5v-29z" />
    <glyph glyph-name="M" unicode="M" horiz-adv-x="814" 
d="M737 14q0 -9 -3 -11.5t-12 -2.5h-42q-8 0 -10.5 3.5t-3.5 13.5l-20 531h-1l-207 -539q-4 -9 -13 -9h-33q-9 0 -14 11l-221 537l-14 -535q0 -8 -3 -10.5t-12 -2.5h-38q-13 0 -13 13v2l21 655q0 11 2.5 14t9.5 3h33q17 0 21 -11l250 -576h1l232 575q5 12 15 12h39
q12 0 12 -14l24 -656v-3z" />
    <glyph glyph-name="N" unicode="N" horiz-adv-x="672" 
d="M595 18q0 -18 -13 -18h-32q-13 0 -26 18l-382 542h-2v-542q0 -18 -16 -18h-31q-16 0 -16 18v651q0 18 16 18h25q14 0 22 -13l391 -556h2v551q0 18 15 18h31q16 0 16 -17v-652z" />
    <glyph glyph-name="O" unicode="O" horiz-adv-x="662" 
d="M617 348q0 -166 -80.5 -261.5t-204.5 -95.5q-128 0 -201.5 93t-73.5 257q0 162 80 259.5t205 97.5q130 0 202.5 -95t72.5 -255zM542 345q0 138 -52.5 217t-149.5 79q-93 0 -150.5 -84t-57.5 -213q0 -137 54 -217t149 -80q92 0 149.5 82.5t57.5 215.5z" />
    <glyph glyph-name="P" unicode="P" horiz-adv-x="494" 
d="M463 482q0 -104 -69.5 -158t-175.5 -54h-71v-252q0 -18 -16 -18h-38q-16 0 -16 18v651q0 18 16 18h121q112 0 180.5 -48.5t68.5 -156.5zM391 482q0 84 -49.5 117.5t-137.5 33.5h-57v-309h67q82 0 129.5 38.5t47.5 119.5z" />
    <glyph glyph-name="Q" unicode="Q" horiz-adv-x="656" 
d="M641 -74q0 -4 -6 -34q-3 -11 -13 -11q-1 0 -3 0.5t-3 0.5q-66 12 -122 54q-3 2 -18.5 13.5t-20 14.5t-17.5 11t-21 10.5t-20.5 5t-25.5 2.5q-7 0 -22 -1t-23 -1q-73 0 -128 29.5t-86 80t-46 110.5t-15 129q0 67 17 129t50.5 114.5t89.5 83.5t128 31q59 0 106 -20
t78 -53.5t52 -79.5t30 -95t9 -103q0 -104 -38.5 -192.5t-121.5 -132.5q17 -6 33.5 -15t37 -22.5t30.5 -19.5q27 -16 74 -28q15 -5 15 -11zM536 344q0 53 -9.5 101.5t-30.5 94t-63 73t-99 27.5q-54 0 -96.5 -28.5t-65.5 -74t-34.5 -95t-11.5 -99.5q0 -53 9.5 -101t31.5 -94
t63.5 -73.5t98.5 -27.5q55 0 97 28.5t65 74t34 95t11 99.5z" />
    <glyph glyph-name="R" unicode="R" horiz-adv-x="530" 
d="M489 6q0 -6 -10 -6h-45q-17 0 -26 16l-153 279h-108v-277q0 -18 -16 -18h-38q-16 0 -16 18v651q0 18 16 18h140q236 0 236 -195q0 -71 -42 -119.5t-105 -66.5l163 -288q4 -7 4 -12zM396 492q0 75 -44.5 108t-132.5 33h-72v-284h86q72 0 117.5 37.5t45.5 105.5z" />
    <glyph glyph-name="S" unicode="S" horiz-adv-x="486" 
d="M445 178q0 -90 -65 -138.5t-160 -48.5q-75 0 -155 26q-13 4 -13 14q0 4 1 7l10 33q3 9 11 9q2 0 10 -2q77 -28 138 -28q64 0 109 31t45 93q0 43 -25 72.5t-72 56.5l-124 70q-106 60 -106 156q0 79 59.5 124t141.5 45t147 -27q13 -6 13 -15q0 -4 -1 -7l-10 -28
q-3 -9 -12 -9q-3 0 -9 2q-70 28 -124 28q-58 0 -95 -28q-39 -29 -39 -73q0 -71 83 -118l104 -59q68 -38 103 -79.5t35 -106.5z" />
    <glyph glyph-name="T" unicode="T" horiz-adv-x="531" 
d="M514 676l-5 -30q-2 -13 -21 -13h-193v-615q0 -18 -16 -18h-37q-16 0 -16 18v615h-196q-8 0 -10.5 2t-2.5 9v31q0 7 2 9.5t9 2.5h472q14 0 14 -8v-3z" />
    <glyph glyph-name="U" unicode="U" horiz-adv-x="681" 
d="M604 297q0 -148 -62 -225q-65 -81 -199 -81q-160 0 -220 93q-46 71 -46 222v363q0 18 16 18h38q16 0 16 -18v-355q0 -112 21 -164q39 -100 174 -100q130 0 170 97q23 57 23 168v354q0 18 16 18h37q16 0 16 -18v-372z" />
    <glyph glyph-name="V" unicode="V" horiz-adv-x="582" 
d="M564 677q0 -2 -2 -8l-228 -652q-7 -17 -23 -17h-36q-15 0 -22 19l-233 646q-3 7 -3 13q0 9 13 9h42q14 0 19 -3.5t9 -14.5l198 -566h1l192 565q4 12 9 15.5t17 3.5h31q16 0 16 -10z" />
    <glyph glyph-name="W" unicode="W" horiz-adv-x="863" 
d="M844 677q0 -5 -1 -8l-194 -652q-5 -17 -22 -17h-36q-18 0 -22 19l-139 555h-1l-141 -557q-4 -17 -23 -17h-35q-10 0 -14 3.5t-8 15.5l-188 646q-2 5 -2 13q0 9 12 9h42q14 0 19.5 -3.5t8.5 -14.5l152 -566h1l139 565q3 12 8 15.5t18 3.5h30q16 0 21 -18l145 -566h1
l156 565q4 12 8.5 15.5t17.5 3.5h31q16 0 16 -10z" />
    <glyph glyph-name="X" unicode="X" horiz-adv-x="533" 
d="M513 10q0 -10 -14 -10h-37q-22 0 -33 18l-164 283l-164 -281q-7 -12 -13 -16t-19 -4h-35q-14 0 -14 7q0 5 5 13l207 337l-188 314q-2 3 -2 7q0 9 10 9h46q13 0 22 -14l150 -253l146 253q8 14 22 14h44q10 0 10 -7q0 -4 -3 -9l-186 -306l204 -339q6 -10 6 -16z" />
    <glyph glyph-name="Y" unicode="Y" horiz-adv-x="522" 
d="M505 680q0 -3 -5 -15l-200 -401v-249q0 -15 -13 -15h-43q-13 0 -13 16v247l-212 406q-3 6 -3 9q0 9 15 9h33q22 0 30 -16l176 -348h1l168 345q6 13 10.5 16t17.5 3h24q14 0 14 -7z" />
    <glyph glyph-name="Z" unicode="Z" horiz-adv-x="511" 
d="M488 13q0 -8 -2.5 -10.5t-11.5 -2.5h-443q-12 0 -12 11v17q0 10 7 22l370 583h-321q-13 0 -16 2t-3 10v30q0 8 2 10t11 2h398q16 0 16 -12v-13q0 -13 -7 -25l-372 -583h369q15 0 15 -11v-30z" />
    <glyph glyph-name="bracketleft" unicode="[" horiz-adv-x="288" 
d="M273 -128q0 -16 -17 -16h-155q-16 0 -16 18v805q0 19 18 19h153q17 0 17 -16v-22q0 -16 -17 -16h-107v-734h107q17 0 17 -16v-22z" />
    <glyph glyph-name="backslash" unicode="\" horiz-adv-x="347" 
d="M304 -5q0 -8 -12 -8h-27q-10 0 -14 3.5t-7 14.5l-195 679q-2 10 -2 11q0 8 15 8h20q12 0 17.5 -3.5t9.5 -16.5l193 -677q2 -10 2 -11z" />
    <glyph glyph-name="bracketright" unicode="]" horiz-adv-x="288" 
d="M203 -125q0 -19 -18 -19h-152q-18 0 -18 16v22q0 16 18 16h107v734h-107q-18 0 -18 16v22q0 16 18 16h154q16 0 16 -18v-805z" />
    <glyph glyph-name="asciicircum" unicode="^" horiz-adv-x="535" 
d="M467 406q0 -4 -8 -9l-25 -13q-7 -4 -12 -4q-6 0 -13 10l-142 219l-144 -215q-7 -10 -13 -10q-4 0 -9 3l-25 18q-8 6 -8 11q0 4 5 12l171 243q11 16 20 16h11q11 0 19 -12l169 -260q4 -8 4 -9z" />
    <glyph glyph-name="underscore" unicode="_" horiz-adv-x="510" 
d="M505 -120q0 -11 -3.5 -15t-13.5 -4h-463q-12 0 -16 3t-4 12v26q0 9 3.5 12t13.5 3h463q13 0 16.5 -3t3.5 -14v-20z" />
    <glyph glyph-name="grave" unicode="`" 
d="M254 597q0 -3 -3 -9l-9 -14q-4 -7 -12 -7q-2 0 -8 2l-158 74q-9 5 -9 12q0 5 3 11l17 27q6 9 13 9t12 -4l147 -90q7 -4 7 -11z" />
    <glyph glyph-name="a" unicode="a" horiz-adv-x="519" 
d="M492 10q0 -10 -12 -10h-38q-28 0 -42 20.5t-14 51.5v13q-15 -38 -60 -66t-94 -28q-96 0 -145.5 70t-49.5 172q0 119 60.5 189t150.5 70q38 0 75.5 -16t61.5 -47l1 37q0 16 18 16h30q15 0 15 -18v-351q0 -47 4 -55q5 -12 21 -12h7q11 0 11 -11v-25zM385 166v192
q-19 39 -55.5 61.5t-77.5 22.5q-66 0 -107.5 -55.5t-41.5 -149.5q0 -91 38.5 -141.5t95.5 -50.5q52 0 92 35.5t56 85.5z" />
    <glyph glyph-name="b" unicode="b" horiz-adv-x="525" 
d="M484 243q0 -109 -56 -180.5t-162 -71.5q-40 0 -77 18.5t-61 46.5l-1 -38q0 -18 -19 -18h-25q-16 0 -16 15v671q0 16 13 18l35 5h1h3q12 0 12 -16v-264q59 63 151 63q101 0 151.5 -70.5t50.5 -178.5zM418 238q0 95 -36.5 149t-109.5 54q-37 0 -76 -20t-65 -49v-254
q22 -35 57.5 -56t74.5 -21q77 0 116 55.5t39 141.5z" />
    <glyph glyph-name="c" unicode="c" horiz-adv-x="422" 
d="M409 30q0 -7 -10 -11q-59 -28 -129 -28q-114 0 -171.5 68.5t-57.5 183.5q0 109 62.5 179t170.5 70q70 0 125 -30q9 -4 9 -11q0 -2 -2 -8l-6 -18q-4 -11 -10 -11q-1 0 -7 2q-58 27 -110 27q-75 0 -120.5 -54t-45.5 -144q0 -88 39.5 -147t123.5 -59q61 0 116 24q6 2 7 2
q8 0 10 -9l5 -18q1 -3 1 -8z" />
    <glyph glyph-name="d" unicode="d" horiz-adv-x="526" 
d="M459 18q0 -18 -12 -18h-29q-19 0 -19 18l-1 42q-26 -32 -67.5 -50.5t-86.5 -18.5q-69 0 -116 36t-67 90.5t-20 122.5q0 113 61 182.5t157 69.5q37 0 75.5 -16.5t60.5 -44.5v39v216q0 17 13 18l36 5h1h3q11 0 11 -16v-221v-454zM395 117v243q-17 35 -54 58.5t-77 23.5
q-72 0 -114.5 -53t-42.5 -147q0 -91 39.5 -146t107.5 -55q39 0 79.5 22t61.5 54z" />
    <glyph glyph-name="e" unicode="e" horiz-adv-x="487" 
d="M452 266q0 -17 -5 -22t-23 -5h-88h-229q0 -85 43 -139.5t125 -54.5q72 0 125 23q6 2 7 2q8 0 10 -9l5 -23q1 -3 1 -8q0 -7 -10 -11q-59 -28 -144 -28q-111 0 -169.5 68t-58.5 183q0 107 61.5 178.5t163.5 71.5q86 0 136 -58.5t50 -148.5v-19zM388 304q0 60 -32 99.5
t-92 39.5q-67 0 -107.5 -46t-47.5 -113h278q1 7 1 20z" />
    <glyph glyph-name="f" unicode="f" horiz-adv-x="341" 
d="M336 690v-2q-1 -1 -1 -2l-7 -27q-2 -6 -7 -6l-8 2q-28 12 -65 12q-53 0 -74 -33t-21 -104v-48h130q12 0 12 -10v-26q0 -11 -11 -11h-131v-417q0 -18 -16 -18h-32q-16 0 -16 18v417h-61q-6 0 -7.5 1.5t-1.5 8.5v27q0 10 11 10h59v14q0 55 3 79q7 67 46 104.5t105 37.5
q41 0 82 -15q11 -5 11 -12z" />
    <glyph glyph-name="g" unicode="g" horiz-adv-x="526" 
d="M460 22q0 -136 -66 -194q-56 -48 -152 -48q-67 0 -139 35q-10 5 -10 12q0 4 1 6l10 26q4 9 10 9t9 -2q72 -32 119 -32q77 0 113 37q41 43 41 144v49q-25 -30 -67 -47t-83 -17q-102 0 -153 68.5t-51 174.5t57.5 177.5t159.5 71.5q89 0 137 -61l1 35q0 16 18 16h30
q15 0 15 -18v-339v-103zM396 124v236q-17 35 -55 58.5t-79 23.5q-73 0 -113.5 -53.5t-40.5 -141.5q0 -51 12.5 -92.5t46 -72t85.5 -30.5q40 0 81.5 20.5t62.5 51.5z" />
    <glyph glyph-name="h" unicode="h" horiz-adv-x="523" 
d="M456 18q0 -18 -16 -18h-32q-16 0 -16 18v285q0 67 -23.5 103t-86.5 36q-37 0 -79.5 -18.5t-71.5 -45.5v-360q0 -18 -16 -18h-32q-16 0 -16 18v668q0 16 13 18l35 5h1h3q12 0 12 -16v-263q70 62 167 62q158 0 158 -180v-294z" />
    <glyph glyph-name="i" unicode="i" horiz-adv-x="220" 
d="M151 594q0 -17 -12 -28t-30 -11q-17 0 -29 11t-12 28t12 28t29 11q18 0 30 -11t12 -28zM141 18q0 -18 -16 -18h-32q-16 0 -16 18v446q0 18 16 18h32q16 0 16 -18v-446z" />
    <glyph glyph-name="j" unicode="j" horiz-adv-x="246" 
d="M179 594q0 -17 -12 -28t-29 -11t-29 11t-12 28t12 28t29 11t29 -11t12 -28zM169 26q0 -141 -46 -195q-42 -51 -125 -51q-20 0 -49 6q-9 1 -9 11v4l4 25q1 7 8 7h3q24 -4 47 -4q46 0 72 32q31 38 31 154v449q0 18 16 18h33q15 0 15 -18v-438z" />
    <glyph glyph-name="k" unicode="k" horiz-adv-x="415" 
d="M400 8q0 -8 -14 -8h-37q-18 0 -28 14l-161 233l-29 -30v-199q0 -18 -16 -18h-32q-16 0 -16 18v668q0 16 13 18l35 5h1h3q12 0 12 -16v-404h2l169 183q9 10 18 10h50q7 0 7 -5q0 -1 -4 -7l-167 -180l189 -269q5 -6 5 -13z" />
    <glyph glyph-name="l" unicode="l" horiz-adv-x="199" 
d="M131 18q0 -18 -16 -18h-32q-16 0 -16 18v668q0 16 13 18l35 5h1h3q12 0 12 -16v-675z" />
    <glyph glyph-name="m" unicode="m" horiz-adv-x="813" 
d="M746 18q0 -18 -16 -18h-32q-16 0 -16 18v285q0 68 -25 103.5t-90 35.5q-66 0 -132 -49q10 -34 10 -81v-294q0 -18 -16 -18h-32q-16 0 -16 18v285q0 66 -23.5 102.5t-85.5 36.5q-72 0 -141 -64v-360q0 -18 -16 -18h-32q-16 0 -16 18v446q0 18 16 18h31q16 0 16 -18l1 -34
q67 62 155 62q94 0 132 -61q70 61 165 61q163 0 163 -180v-294z" />
    <glyph glyph-name="n" unicode="n" horiz-adv-x="523" 
d="M456 18q0 -18 -16 -18h-32q-16 0 -16 18v285q0 68 -23.5 103.5t-87.5 35.5q-36 0 -78.5 -18.5t-71.5 -45.5v-360q0 -18 -16 -18h-32q-16 0 -16 18v446q0 18 16 18h31q16 0 16 -18l1 -34q70 62 167 62q158 0 158 -180v-294z" />
    <glyph glyph-name="o" unicode="o" horiz-adv-x="522" 
d="M481 242q0 -109 -59.5 -180t-164.5 -71q-108 0 -162 69.5t-54 181.5q0 109 59 179.5t163 70.5q108 0 163 -68.5t55 -181.5zM415 240q0 85 -36.5 144t-115.5 59q-43 0 -74.5 -17.5t-48.5 -47.5t-25 -63.5t-8 -70.5q0 -86 35.5 -145.5t115.5 -59.5q42 0 73.5 17t49 46.5
t26 64t8.5 73.5z" />
    <glyph glyph-name="p" unicode="p" horiz-adv-x="525" 
d="M484 244q0 -107 -57 -180t-159 -73q-40 0 -77.5 16t-60.5 46v-252q0 -16 -19 -16h-29q-16 0 -16 18v568v96q0 15 16 15h25q20 0 20 -18v-39q25 30 67.5 48.5t86.5 18.5q91 0 147 -64t56 -184zM418 244q0 98 -40 148t-107 50q-40 0 -80 -21t-61 -53v-245q17 -35 55 -58.5
t79 -23.5q73 0 113.5 55.5t40.5 147.5z" />
    <glyph glyph-name="q" unicode="q" horiz-adv-x="526" 
d="M459 -197q0 -18 -12 -18h-36q-16 0 -16 16v259q-58 -69 -154 -69q-101 0 -150.5 71t-49.5 178q0 106 57.5 179t159.5 73q89 0 137 -61l1 35q0 16 18 16h30q15 0 15 -18v-583v-78zM395 120v239q-18 35 -55 59t-78 24q-80 0 -117.5 -57.5t-37.5 -142.5q0 -92 38 -146
t106 -54q40 0 81 23t63 55z" />
    <glyph glyph-name="r" unicode="r" horiz-adv-x="293" 
d="M280 478l-5 -33q-2 -8 -8 -8h-2q-20 4 -32 4q-27 0 -54.5 -18.5t-47.5 -48.5v-356q0 -18 -16 -18h-32q-16 0 -16 18v446q0 18 16 18h31q16 0 16 -18l1 -35q17 25 47 44t65 19q14 0 29 -3q8 -1 8 -9v-2z" />
    <glyph glyph-name="s" unicode="s" horiz-adv-x="376" 
d="M346 137q0 -64 -48.5 -105t-128.5 -41q-67 0 -127 30q-9 5 -9 9q0 3 1 5l12 31q2 6 6 6q3 0 5 -1q60 -30 115 -30q51 0 81 23.5t30 64.5q0 32 -21.5 52.5t-62.5 37.5l-60 24q-103 41 -103 121q0 59 46 93.5t114 34.5q64 0 121 -27q8 -3 8 -8q0 -1 -1 -3l-10 -28
q-3 -8 -8 -8q-1 0 -7 2q-48 24 -103 24q-43 0 -68.5 -20t-25.5 -52q0 -30 16.5 -47t53.5 -32l71 -30q103 -43 103 -126z" />
    <glyph glyph-name="t" unicode="t" horiz-adv-x="327" 
d="M312 17q0 -7 -10 -11q-41 -15 -82 -15q-70 0 -103 34q-19 20 -24.5 48t-5.5 77v285h-59q-11 0 -11 10v27q0 6 1.5 8t7.5 2h61v117q0 16 13 18l35 5h1h3q12 0 12 -16v-124h121q11 0 11 -11v-26q0 -10 -12 -10h-120v-295q0 -60 20 -80q19 -19 59 -19q24 0 62 11q3 1 8 1
t7 -7l5 -25v-4z" />
    <glyph glyph-name="u" unicode="u" horiz-adv-x="513" 
d="M446 18q0 -18 -16 -18h-31q-16 0 -16 18l-1 35q-70 -62 -157 -62q-71 0 -113 40q-45 45 -45 142v291q0 18 16 18h32q16 0 16 -18v-282q0 -77 29 -110q26 -29 81 -29q34 0 74.5 20t66.5 46v355q0 18 16 18h32q16 0 16 -18v-446z" />
    <glyph glyph-name="v" unicode="v" horiz-adv-x="433" 
d="M416 472q0 -3 -1 -5l-161 -453q-6 -14 -19 -14h-39q-16 0 -21 14l-159 452q-1 2 -1 5q0 11 14 11h35q17 0 21 -11l134 -396h2l131 393q4 14 21 14h30q13 0 13 -10z" />
    <glyph glyph-name="w" unicode="w" horiz-adv-x="671" 
d="M654 473q0 -4 -1 -6l-135 -453q-4 -14 -20 -14h-41q-17 0 -20 14l-103 366l-102 -366q-4 -14 -20 -14h-40q-16 0 -21 14l-135 452v3l-1 2q0 11 14 11h35q18 0 21 -11l110 -395h2l111 394q4 12 16 12h32q10 0 12 -10l115 -396h2l106 392q4 14 21 14h30q12 0 12 -9z" />
    <glyph glyph-name="x" unicode="x" horiz-adv-x="439" 
d="M422 4q0 -4 -6 -4h-59q-11 0 -18 10l-123 191l-129 -192q-6 -9 -19 -9h-46q-7 0 -7 4q0 2 2 6l168 238l-146 222q-3 4 -3 7q0 5 7 5h55q11 0 16 -8l110 -170l114 167q8 11 18 11h46q7 0 7 -5q0 -3 -3 -7l-151 -213l162 -241q5 -8 5 -12z" />
    <glyph glyph-name="y" unicode="y" horiz-adv-x="465" 
d="M455 474q0 -2 -2 -8l-195 -526q-33 -89 -74.5 -124.5t-115.5 -35.5q-14 0 -40 4q-10 2 -10 11v3l5 32q1 11 11 11h3q30 -3 37 -3q78 0 109 77l31 76l-177 477q-1 2 -1 6q0 8 9 8h47q12 0 16 -11l141 -400l139 400q4 11 16 11h39q12 0 12 -8z" />
    <glyph glyph-name="z" unicode="z" horiz-adv-x="382" 
d="M363 12q0 -12 -10 -12h-318q-14 0 -14 14v15q0 13 9 27l248 379h-225q-13 0 -13 12v23q0 12 13 12h284q15 0 15 -13v-16q0 -9 -8 -22l-254 -384h261q12 0 12 -12v-23z" />
    <glyph glyph-name="braceleft" unicode="{" horiz-adv-x="309" 
d="M294 -125q0 -9 -18 -9h-52q-61 0 -98 37t-38 104l-3 151q-1 53 -9.5 78t-35.5 28q-11 1 -14 4t-3 10v12q0 15 15 16q27 3 36.5 28t10.5 71l3 158q1 66 39 103.5t97 37.5h58q12 0 12 -7v-2q-1 -2 -1 -3l-5 -21q-3 -12 -14 -12h-57q-37 0 -54 -33t-18 -65l-3 -133
q-2 -72 -14 -106t-42 -36v-1q31 -2 42.5 -34.5t13.5 -114.5l3 -127q1 -32 18 -65t54 -33h53q13 0 16 -9l7 -23q0 -1 0.5 -2t0.5 -2z" />
    <glyph glyph-name="bar" unicode="|" horiz-adv-x="189" 
d="M125 -1q0 -18 -16 -18h-29q-16 0 -16 18v691q0 18 13 18h32q9 0 12.5 -3t3.5 -13v-693z" />
    <glyph glyph-name="braceright" unicode="}" horiz-adv-x="309" 
d="M286 280q0 -15 -14 -16q-27 -3 -37 -28.5t-11 -70.5l-3 -158q-1 -66 -39 -103.5t-97 -37.5h-58q-12 0 -12 7l1 2v3l5 21q3 12 14 12h57q37 0 54 33t18 65l3 134q2 71 14 105t42 36v1q-31 2 -42.5 34.5t-13.5 115.5l-3 126q-1 32 -18 65t-54 33h-53q-13 0 -16 9l-7 23
q0 1 -0.5 2t-0.5 2q0 9 18 9h52q61 0 98 -37t38 -104l3 -151q1 -53 10 -78t36 -28q16 -2 16 -13v-13z" />
    <glyph glyph-name="asciitilde" unicode="~" horiz-adv-x="535" 
d="M470 303q0 -8 -7 -12q-4 -3 -15.5 -12t-16.5 -12.5l-15 -10.5t-17 -10t-16.5 -7t-19 -5.5t-20.5 -1.5q-33 0 -72 21q-48 26 -77 26q-20 0 -84 -33q-12 -7 -14 -7q-4 0 -8 7l-19 27q-4 5 -4 10q0 6 13 14q70 46 109 46q35 0 80 -21q59 -27 78 -27q8 0 20 4.5t20.5 9
t22.5 12.5t17 10q11 6 14 6t11 -8l16 -17q4 -4 4 -9z" />
    <glyph glyph-name="nbspace" unicode="&#xa0;" horiz-adv-x="220" 
 />
    <glyph glyph-name="exclamdown" unicode="&#xa1;" horiz-adv-x="264" 
d="M199 442q0 -23 -15.5 -36t-37.5 -13q-21 0 -36 13.5t-15 35.5t15.5 36t35.5 14t36.5 -14t16.5 -36zM181 -191q0 -17 -13 -17h-43q-16 0 -16 15v1l8 515q0 17 16 17h24q16 0 16 -17l8 -513v-1z" />
    <glyph glyph-name="cent" unicode="&#xa2;" horiz-adv-x="540" 
d="M458 30q0 -7 -10 -11q-54 -26 -122 -28v-66q0 -9 -1 -12.5t-5 -6t-13 -2.5h-11q-12 0 -15 4.5t-3 16.5v69q-94 12 -141 78.5t-47 170.5q0 97 50 163.5t138 81.5v83q0 16 15 16h16q10 0 13.5 -3.5t3.5 -13.5v-78q70 -2 122 -30q9 -4 9 -11q0 -2 -2 -8l-6 -18
q-4 -11 -10 -11q-1 0 -7 2q-53 26 -106 27v-404q59 1 109 24q6 2 7 2q8 0 10 -9l5 -18q1 -3 1 -8zM278 43v395q-57 -15 -89.5 -66t-32.5 -127t29.5 -131.5t92.5 -70.5z" />
    <glyph glyph-name="sterling" unicode="&#xa3;" horiz-adv-x="540" 
d="M490 14q0 -14 -17 -14h-382q-11 0 -14.5 3t-3.5 12v18q0 14 17 23q71 38 71 147v37h-53q-10 0 -12.5 3t-2.5 13v21q0 10 4 13.5t13 3.5h51v48h-53q-10 0 -12.5 3t-2.5 13v21q0 10 4 13.5t13 3.5h51v88q0 100 46 157t139 57q66 0 116 -21q12 -5 12 -15q0 -4 -1 -6l-5 -22
q-3 -11 -12 -11q-5 0 -7 1q-52 20 -102 20q-116 0 -116 -155v-93h166q14 0 14 -16v-24q0 -9 -3 -11.5t-13 -2.5h-165v-48h167q14 0 14 -16v-24q0 -9 -3 -11.5t-13 -2.5h-165v-59q0 -82 -56 -124v-3h298q18 0 18 -13v-27z" />
    <glyph glyph-name="yen" unicode="&#xa5;" horiz-adv-x="540" 
d="M509 679q0 -3 -5 -15l-175 -345h96q14 0 14 -16v-24q0 -10 -3 -12.5t-13 -2.5h-112v-47h114q14 0 14 -16v-24q0 -10 -3 -12.5t-13 -2.5h-112v-147q0 -9 -2.5 -12t-9.5 -3h-44q-13 0 -13 16v146h-106q-10 0 -12.5 3t-2.5 14v21q0 10 4 13.5t13 3.5h104v47h-106
q-10 0 -12.5 3t-2.5 14v21q0 10 4 13.5t13 3.5h85l-182 349q-3 6 -3 10q0 8 14 8h38q22 0 30 -16l163 -324h1l155 321q6 13 10.5 16t17.5 3h28q14 0 14 -7z" />
    <glyph glyph-name="brokenbar" unicode="&#xa6;" horiz-adv-x="189" 
d="M125 461q0 -18 -16 -18h-29q-16 0 -16 18v229q0 18 13 18h32q9 0 12.5 -3t3.5 -13v-231zM125 -1q0 -18 -16 -18h-29q-16 0 -16 18v229q0 18 13 18h32q9 0 12.5 -3t3.5 -13v-231z" />
    <glyph glyph-name="section" unicode="&#xa7;" horiz-adv-x="464" 
d="M399 340q0 -70 -54 -110q48 -40 48 -94q0 -63 -48 -104t-128 -41q-71 0 -128 25q-9 3 -9 9q0 3 1 5l10 30q2 6 7 6q3 0 5 -1q63 -25 116 -25q49 0 80.5 24t31.5 64q0 31 -21.5 52t-62.5 39l-61 26q-103 44 -103 122q0 70 65 105q-59 39 -59 99q0 59 47 93t116 34
q57 0 117 -22q8 -3 8 -8l-1 -1v-2l-9 -27q-3 -8 -8 -8q-1 0 -7 2q-55 19 -99 19q-43 0 -70.5 -20.5t-27.5 -51.5q0 -28 17.5 -46.5t53.5 -34.5l70 -31q103 -46 103 -127zM337 332q0 31 -21.5 52t-62.5 39l-45 19q-27 -8 -42.5 -26t-15.5 -41q0 -28 17 -45.5t53 -34.5l70 -32
l5 -2q42 24 42 71z" />
    <glyph glyph-name="dieresis" unicode="&#xa8;" 
d="M288 653q0 -20 -14 -32t-32 -12t-33 12t-15 32q0 21 14.5 33t33.5 12t32.5 -12.5t13.5 -32.5zM116 653q0 -20 -14 -32t-32 -12t-33 12t-15 32q0 21 14.5 33t33.5 12t32.5 -12.5t13.5 -32.5z" />
    <glyph glyph-name="copyright" unicode="&#xa9;" horiz-adv-x="831" 
d="M775 346q0 -149 -104.5 -253.5t-254.5 -104.5t-255 104.5t-105 253.5t104.5 252.5t255.5 103.5t255 -103.5t104 -252.5zM724 345q0 128 -89.5 217.5t-218.5 89.5t-219 -89.5t-90 -217.5t90 -217.5t219 -89.5t218.5 89.5t89.5 217.5zM555 167q0 -5 -10 -11
q-54 -28 -114 -28q-90 0 -137 62t-47 154q0 88 50 153t137 65q62 0 110 -29q7 -4 7 -11q0 -2 -2 -8l-7 -14q-2 -6 -10 -6q-5 0 -7 2q-41 25 -87 25q-59 0 -98 -47q-40 -50 -40 -126q0 -74 34.5 -126.5t102.5 -52.5q50 0 94 23q5 3 8 3q6 0 9 -8l5 -13q2 -6 2 -7z" />
    <glyph glyph-name="ordfeminine" unicode="&#xaa;" horiz-adv-x="307" 
d="M262 415q0 -7 -2 -9.5t-9 -2.5h-21q-10 0 -11.5 1.5t-2.5 9.5l-3 21q-50 -39 -90 -39q-39 0 -62 21.5t-23 59.5q0 41 29.5 65.5t65.5 32t80 7.5q0 10 -2 26q-3 27 -16 39.5t-44 12.5q-34 0 -76 -22q-7 -4 -10 -4t-8 9l-5 10q-2 6 -2 7q0 4 12 11q44 27 92 27
q108 0 108 -109v-174zM212 471v78q-49 0 -76 -9q-45 -15 -45 -59q0 -45 48 -45q38 0 73 35z" />
    <glyph glyph-name="guillemotleft" unicode="&#xab;" horiz-adv-x="461" 
d="M384 374q0 -4 -2 -7l-85 -139l84 -144q2 -3 2 -8t-6 -9l-17 -10q-4 -3 -7 -3q-5 0 -11 9l-112 152q-5 6 -5 12q0 7 6 14l111 147q6 7 11 7q4 0 7 -2l20 -11q4 -2 4 -8zM214 373q0 -2 -2 -6l-85 -139l84 -144q2 -4 2 -7q0 -6 -7 -10l-17 -10q-5 -3 -7 -3q-5 0 -11 9
l-112 152q-4 5 -4 12q0 8 5 14l111 147q6 7 11 7q4 0 7 -2l20 -11q5 -2 5 -9z" />
    <glyph glyph-name="logicalnot" unicode="&#xac;" horiz-adv-x="510" 
d="M454 229q0 -13 -3 -16.5t-14 -3.5h-20q-11 0 -15 3.5t-4 13.5v130h-323q-12 0 -16 3t-4 12v26q0 9 3.5 12t13.5 3h362q13 0 16.5 -3t3.5 -14v-166z" />
    <glyph glyph-name="registered" unicode="&#xae;" horiz-adv-x="831" 
d="M775 346q0 -149 -104.5 -253.5t-254.5 -104.5t-255 104.5t-105 253.5t104.5 252.5t255.5 103.5t255 -103.5t104 -252.5zM724 345q0 128 -89.5 217.5t-218.5 89.5t-219 -89.5t-90 -217.5t90 -217.5t219 -89.5t218.5 89.5t89.5 217.5zM571 143q0 -8 -11 -8h-30
q-12 0 -19 12l-103 163h-53v-160q0 -15 -13 -15h-23q-13 0 -13 15v387q0 15 13 15h83q145 0 145 -120q0 -42 -24.5 -71.5t-61.5 -41.5l107 -167q3 -6 3 -9zM495 432q0 42 -25 60.5t-76 18.5h-39v-160h47q41 0 67 21t26 60z" />
    <glyph glyph-name="macron" unicode="&#xaf;" 
d="M282 655q0 -12 -5.5 -16.5t-23.5 -4.5h-200q-16 0 -21 4.5t-5 16.5v23q0 11 5 15.5t21 4.5h200q18 0 23.5 -4t5.5 -16v-23z" />
    <glyph glyph-name="degree" unicode="&#xb0;" horiz-adv-x="286" 
d="M236 605q0 -38 -27.5 -65.5t-65.5 -27.5t-65.5 27.5t-27.5 65.5t27.5 65.5t65.5 27.5t65.5 -27.5t27.5 -65.5zM187 605q0 18 -13 31t-31 13t-31.5 -13t-13.5 -31t13.5 -31t31.5 -13t31 13t13 31z" />
    <glyph glyph-name="plusminus" unicode="&#xb1;" horiz-adv-x="500" 
d="M456 339q0 -11 -3.5 -15t-13.5 -4h-160v-144q0 -12 -3 -16t-12 -4h-26q-9 0 -12 3.5t-3 13.5v147h-158q-12 0 -16 3t-4 12v26q0 9 3.5 12t13.5 3h161v145q0 13 3 16.5t14 3.5h20q11 0 15 -3.5t4 -13.5v-148h157q13 0 16.5 -3t3.5 -14v-20zM426 38q0 -11 -3.5 -15
t-13.5 -4h-314q-12 0 -16 3t-4 12v26q0 9 3.5 12t13.5 3h314q13 0 16.5 -3t3.5 -14v-20z" />
    <glyph glyph-name="twosuperior" unicode="&#xb2;" horiz-adv-x="330" 
d="M288 351q0 -11 -13 -11h-193q-11 0 -11 12v16q0 9 6 15q7 8 43.5 45.5t55.5 59.5t38.5 56t19.5 59t-16 40.5t-42 15.5q-33 0 -68 -20q-3 -2 -8 -2q-6 0 -9 7l-8 17q-2 4 -2 6q0 4 9 10q41 26 91 26q43 0 74 -25t31 -70q0 -39 -20 -75.5t-70 -91.5q-18 -20 -56 -58h134
q9 0 11.5 -2t2.5 -9v-21z" />
    <glyph glyph-name="threesuperior" unicode="&#xb3;" horiz-adv-x="330" 
d="M275 449q0 -49 -34.5 -80t-83.5 -31q-48 0 -79 15q-12 6 -12 12q0 4 1 6l7 19q2 5 8 5q1 0 7 -2q31 -14 64 -14q32 0 51.5 18.5t19.5 49.5q0 32 -21 49.5t-56 17.5h-17q-14 0 -14 13v15q0 12 13 12h14q68 0 68 59q0 51 -59 51q-27 0 -57 -16q-3 -2 -7 -2q-6 0 -9 6l-8 17
q-1 2 -1 4q0 6 7 10q37 22 82 22q42 0 73 -24.5t31 -65.5q0 -51 -46 -78q26 -11 42 -35t16 -53z" />
    <glyph glyph-name="acute" unicode="&#xb4;" 
d="M255 651q0 -7 -9 -12l-158 -74q-6 -2 -8 -2q-8 0 -12 7l-9 14q-3 6 -3 9q0 7 7 11l147 90q5 4 12 4t13 -9l17 -27q3 -6 3 -11z" />
    <glyph glyph-name="mu" unicode="&#xb5;" horiz-adv-x="513" 
d="M446 18q0 -18 -16 -18h-31q-16 0 -16 18l-1 31q-63 -63 -147 -63q-76 0 -104 34v-169q0 -17 -16 -17h-32q-16 0 -16 17v613q0 18 16 18h32q16 0 16 -18v-287q0 -77 29 -110q27 -30 82 -30q72 0 140 63v364q0 18 16 18h32q16 0 16 -18v-446z" />
    <glyph glyph-name="paragraph" unicode="&#xb6;" horiz-adv-x="510" 
d="M423 -123q0 -18 -16 -18h-29q-16 0 -16 18v762h-90v-762q0 -18 -16 -18h-28q-16 0 -16 18v499q-69 1 -115 46t-46 110q0 64 44.5 109.5t109.5 45.5h202q9 0 12.5 -3t3.5 -13v-794z" />
    <glyph glyph-name="periodcentered" unicode="&#xb7;" horiz-adv-x="205" 
d="M160 288q0 -22 -16 -35.5t-36 -13.5t-36.5 13.5t-16.5 35.5q0 23 15.5 36.5t37.5 13.5q21 0 36.5 -14t15.5 -36z" />
    <glyph glyph-name="cedilla" unicode="&#xb8;" 
d="M250 -121q0 -33 -23 -55t-69 -22q-30 0 -61 12q-14 6 -14 12q0 3 1 5l4 12q3 8 8 8q1 0 9 -2q27 -10 53 -10q17 0 30.5 9t14.5 26v4q0 36 -53 36h-16q-25 0 -25 23q0 9 1 14l5 49h43l-3 -50h8q36 0 61.5 -16.5t25.5 -54.5z" />
    <glyph glyph-name="onesuperior" unicode="&#xb9;" horiz-adv-x="330" 
d="M198 362q0 -6 -0.5 -8t-3 -4t-8.5 -2h-23q-12 0 -12 14v286l-59 -37q-5 -4 -9 -4q-3 0 -6 4l-13 18q-3 5 -3 7q0 6 8 10l82 54q9 5 20 5h14q13 0 13 -14v-329z" />
    <glyph glyph-name="ordmasculine" unicode="&#xba;" horiz-adv-x="334" 
d="M299 545q0 -65 -35.5 -108.5t-98.5 -43.5q-65 0 -97.5 42.5t-32.5 109.5q0 65 35.5 109t98.5 44q65 0 97.5 -42.5t32.5 -110.5zM254 544q0 49 -21 84.5t-65 35.5q-46 0 -67 -35t-21 -83q0 -51 20 -85.5t65 -34.5t67 34t22 84z" />
    <glyph glyph-name="guillemotright" unicode="&#xbb;" horiz-adv-x="461" 
d="M406 223q0 -8 -5 -14l-111 -147q-6 -7 -11 -7q-4 0 -7 2l-20 11q-5 2 -5 9q0 2 2 6l86 140l-84 143q-2 3 -2 8t6 9l17 10q4 3 7 3q5 0 11 -9l112 -152q4 -5 4 -12zM236 223q0 -8 -5 -14l-112 -147q-6 -7 -10 -7t-7 2l-20 11q-5 2 -5 9q0 2 2 6l85 140l-84 143q-2 4 -2 7
q0 6 7 10l17 10q4 3 7 3q4 0 10 -9l112 -152q5 -6 5 -12z" />
    <glyph glyph-name="onequarter" unicode="&#xbc;" horiz-adv-x="750" 
d="M680 5q0 -5 -0.5 -7t-2.5 -3.5t-6 -1.5h-28q-7 0 -8.5 2t-1.5 10v71h-162q-8 0 -10 2.5t-2 10.5v9q0 12 5 24l96 216q4 13 16 13h21q14 0 14 -8q0 -4 -3 -10l-94 -214h119v75q0 15 10 15h26q7 0 9 -2.5t2 -10.5v-191zM611 708q0 -7 -6 -16l-428 -704q-6 -10 -9.5 -13
t-13.5 -3h-33q-11 0 -11 11q0 5 3 9l429 705q7 12 13 16t19 4h24q13 0 13 -9zM194 362q0 -6 -0.5 -8t-3 -4t-8.5 -2h-23q-12 0 -12 14v286l-59 -37q-5 -4 -9 -4q-3 0 -6 4l-13 18q-3 5 -3 7q0 6 8 10l82 54q9 5 20 5h14q13 0 13 -14v-329z" />
    <glyph glyph-name="onehalf" unicode="&#xbd;" horiz-adv-x="750" 
d="M676 4q0 -11 -13 -11h-193q-11 0 -11 12v16q0 8 7 15q6 7 43 45t55.5 59.5t38 56t19.5 59.5t-16 40.5t-42 15.5q-33 0 -68 -20q-3 -2 -8 -2q-6 0 -9 7l-8 17q-1 2 -1 6q0 5 8 10q41 26 91 26q43 0 74 -25t31 -70q0 -39 -20 -75.5t-70 -91.5q-18 -20 -56 -58h134
q9 0 11.5 -2t2.5 -9v-21zM598 708q0 -7 -6 -16l-428 -704q-6 -10 -9.5 -13t-13.5 -3h-33q-11 0 -11 11q0 5 3 9l429 705q7 12 13 16t19 4h24q13 0 13 -9zM181 362q0 -6 -0.5 -8t-3 -4t-8.5 -2h-23q-12 0 -12 14v286l-59 -37q-5 -4 -9 -4q-3 0 -6 4l-13 18q-3 5 -3 7
q0 6 8 10l82 54q9 5 20 5h14q13 0 13 -14v-329z" />
    <glyph glyph-name="threequarters" unicode="&#xbe;" horiz-adv-x="750" 
d="M689 5q0 -5 -0.5 -7t-2.5 -3.5t-6 -1.5h-28q-7 0 -8.5 2t-1.5 10v71h-162q-8 0 -10 2.5t-2 10.5v9q0 12 5 24l96 216q4 13 16 13h21q14 0 14 -8q0 -4 -3 -10l-94 -214h119v75q0 15 10 15h26q7 0 9 -2.5t2 -10.5v-191zM620 708q0 -7 -6 -16l-428 -704q-6 -10 -9.5 -13
t-13.5 -3h-33q-11 0 -11 11q0 5 3 9l429 705q7 12 13 16t19 4h24q13 0 13 -9zM266 449q0 -49 -34.5 -80t-83.5 -31q-48 0 -79 15q-12 6 -12 12q0 4 1 6l7 19q2 5 8 5q1 0 7 -2q31 -14 64 -14q32 0 51.5 18.5t19.5 49.5q0 32 -21 49.5t-56 17.5h-17q-14 0 -14 13v15
q0 12 13 12h14q68 0 68 59q0 51 -59 51q-27 0 -57 -16q-3 -2 -7 -2q-6 0 -9 6l-8 17q-1 2 -1 4q0 6 7 10q37 22 82 22q42 0 73 -24.5t31 -65.5q0 -51 -46 -78q26 -11 42 -35t16 -53z" />
    <glyph glyph-name="questiondown" unicode="&#xbf;" horiz-adv-x="407" 
d="M308 442q0 -23 -15 -36t-37 -13q-21 0 -37 13.5t-16 35.5t16.5 36t36.5 14t36 -14t16 -36zM362 -178q0 -8 -7 -11q-59 -30 -129 -30t-119.5 42.5t-49.5 110.5q0 75 58 139l73 81q18 19 26.5 31.5t16 37.5t7.5 58q0 8 0.5 11.5t2.5 5t7 1.5h27q5 0 7.5 -1.5t4 -4.5t2.5 -9
q3 -22 3 -46q0 -23 -12 -51t-30 -47l-72 -78q-57 -63 -57 -116q0 -61 35 -87.5t84 -26.5q45 0 94 22q6 2 8 2q8 0 11 -9l7 -18q2 -6 2 -7z" />
    <glyph glyph-name="Agrave" unicode="&#xc0;" horiz-adv-x="584" 
d="M576 8q0 -8 -12 -8h-47q-12 0 -15.5 2.5t-7.5 12.5l-75 209h-263l-78 -210q-4 -9 -7.5 -11.5t-13.5 -2.5h-43q-7 0 -7 7q0 6 2 10l255 660q3 10 13 10h36q8 0 12 -9l249 -662zM401 276l-110 310l-116 -310h226zM364 782q0 -3 -3 -9l-9 -14q-4 -7 -12 -7q-2 0 -8 2
l-158 74q-9 5 -9 12q0 5 3 11l17 27q6 9 13 9t12 -4l147 -90q7 -4 7 -11z" />
    <glyph glyph-name="Aacute" unicode="&#xc1;" horiz-adv-x="584" 
d="M576 8q0 -8 -12 -8h-47q-12 0 -15.5 2.5t-7.5 12.5l-75 209h-263l-78 -210q-4 -9 -7.5 -11.5t-13.5 -2.5h-43q-7 0 -7 7q0 6 2 10l255 660q3 10 13 10h36q8 0 12 -9l249 -662zM401 276l-110 310l-116 -310h226zM407 840q0 -7 -9 -12l-158 -74q-6 -2 -8 -2q-8 0 -12 7
l-9 14q-3 6 -3 9q0 7 7 11l147 90q5 4 12 4t13 -9l17 -27q3 -6 3 -11z" />
    <glyph glyph-name="Acircumflex" unicode="&#xc2;" horiz-adv-x="584" 
d="M576 8q0 -8 -12 -8h-47q-12 0 -15.5 2.5t-7.5 12.5l-75 209h-263l-78 -210q-4 -9 -7.5 -11.5t-13.5 -2.5h-43q-7 0 -7 7q0 6 2 10l255 660q3 10 13 10h36q8 0 12 -9l249 -662zM401 276l-110 310l-116 -310h226zM432 773q0 -5 -4 -9l-9 -10q-6 -6 -10 -6q-5 0 -10 4
l-111 83l-111 -83q-5 -4 -10 -4q-6 0 -10 6l-8 10q-5 7 -5 11t6 10l118 107q8 6 14 6h12q6 0 14 -6l118 -107q6 -5 6 -12z" />
    <glyph glyph-name="Atilde" unicode="&#xc3;" horiz-adv-x="584" 
d="M576 8q0 -8 -12 -8h-47q-12 0 -15.5 2.5t-7.5 12.5l-75 209h-263l-78 -210q-4 -9 -7.5 -11.5t-13.5 -2.5h-43q-7 0 -7 7q0 6 2 10l255 660q3 10 13 10h36q8 0 12 -9l249 -662zM401 276l-110 310l-116 -310h226zM457 818q0 -8 -8 -14q-56 -43 -104 -43q-20 0 -53 17.5
t-50 17.5q-18 0 -65 -25q-11 -6 -16 -6q-8 0 -11 10l-8 26q-4 10 -4 11q0 7 14 16q52 32 90 32q22 0 59 -18t50 -18q11 0 62 28q9 5 15 5q9 0 14 -9l10 -18q5 -8 5 -12z" />
    <glyph glyph-name="Adieresis" unicode="&#xc4;" horiz-adv-x="584" 
d="M576 8q0 -8 -12 -8h-47q-12 0 -15.5 2.5t-7.5 12.5l-75 209h-263l-78 -210q-4 -9 -7.5 -11.5t-13.5 -2.5h-43q-7 0 -7 7q0 6 2 10l255 660q3 10 13 10h36q8 0 12 -9l249 -662zM401 276l-110 310l-116 -310h226zM420 813q0 -20 -14 -32t-32 -12t-33 12t-15 32
q0 21 14.5 33t33.5 12t32.5 -12.5t13.5 -32.5zM248 813q0 -20 -14 -32t-32 -12t-33 12t-15 32q0 21 14.5 33t33.5 12t32.5 -12.5t13.5 -32.5z" />
    <glyph glyph-name="Aring" unicode="&#xc5;" horiz-adv-x="584" 
d="M576 8q0 -8 -12 -8h-47q-12 0 -15.5 2.5t-7.5 12.5l-75 209h-263l-78 -210q-4 -9 -7.5 -11.5t-13.5 -2.5h-43q-7 0 -7 7q0 6 2 10l255 660q3 10 13 10h36q8 0 12 -9l249 -662zM401 276l-110 310l-116 -310h226zM374 838q0 -32 -23.5 -55.5t-56.5 -23.5q-32 0 -56.5 23.5
t-24.5 55.5t24.5 56t56.5 24q33 0 56.5 -24t23.5 -56zM326 838q0 14 -9.5 23t-22.5 9q-14 0 -23.5 -9.5t-9.5 -22.5t9.5 -22.5t23.5 -9.5q13 0 22.5 9t9.5 23z" />
    <glyph glyph-name="AE" unicode="&#xc6;" horiz-adv-x="850" 
d="M807 14q0 -14 -17 -14h-333q-11 0 -14.5 3.5t-3.5 14.5v207h-225l-138 -211q-4 -7 -5.5 -9t-5.5 -3.5t-10 -1.5h-41q-8 0 -8 8q0 3 3 9l431 656q10 14 27 14h324q14 0 14 -12v-4l-3 -25q-1 -13 -23 -13h-271v-242h239q17 0 17 -15v-24q0 -15 -16 -15h-240v-283h282
q10 0 13.5 -2.5t3.5 -10.5v-27zM439 277v299l-195 -299h195z" />
    <glyph glyph-name="Ccedilla" unicode="&#xc7;" horiz-adv-x="579" 
d="M556 48q0 -7 -12 -13q-89 -46 -189 -44h-9l-2 -41h8q36 0 61.5 -16.5t25.5 -54.5q0 -33 -23 -55t-69 -22q-29 0 -61 12q-14 6 -14 12q0 3 1 5l4 12q3 8 8 8q1 0 9 -2q27 -10 53 -10q17 0 30.5 9t14.5 26v4q0 36 -53 36h-16q-25 0 -25 23q0 9 1 14l4 44
q-123 18 -187.5 115t-64.5 234q0 145 83 249.5t226 104.5q105 0 180 -46q11 -6 11 -13q0 -5 -3 -9l-13 -24q-4 -8 -10 -8q-5 0 -9 3q-68 42 -151 42q-104 0 -170 -80q-68 -83 -68 -214q0 -58 13.5 -110t40.5 -96.5t74 -71t109 -26.5q89 0 162 39q6 3 10 3q6 0 9 -8l9 -21
q2 -4 2 -10z" />
    <glyph glyph-name="Egrave" unicode="&#xc8;" horiz-adv-x="489" 
d="M446 14q0 -14 -17 -14h-334q-11 0 -14.5 3.5t-3.5 14.5v652q0 10 3.5 13.5t13.5 3.5h335q14 0 14 -12v-4l-3 -25q-1 -13 -23 -13h-270v-242h238q17 0 17 -15v-24q0 -15 -16 -15h-239v-283h281q18 0 18 -13v-27zM345 786q0 -3 -3 -9l-9 -14q-4 -7 -12 -7q-2 0 -8 2
l-158 74q-9 5 -9 12q0 5 3 11l17 27q6 9 13 9t12 -4l147 -90q7 -4 7 -11z" />
    <glyph glyph-name="Eacute" unicode="&#xc9;" horiz-adv-x="489" 
d="M446 14q0 -14 -17 -14h-334q-11 0 -14.5 3.5t-3.5 14.5v652q0 10 3.5 13.5t13.5 3.5h335q14 0 14 -12v-4l-3 -25q-1 -13 -23 -13h-270v-242h238q17 0 17 -15v-24q0 -15 -16 -15h-239v-283h281q18 0 18 -13v-27zM374 842q0 -7 -9 -12l-158 -74q-6 -2 -8 -2q-8 0 -12 7
l-9 14q-3 6 -3 9q0 7 7 11l147 90q5 4 12 4t13 -9l17 -27q3 -6 3 -11z" />
    <glyph glyph-name="Ecircumflex" unicode="&#xca;" horiz-adv-x="489" 
d="M446 14q0 -14 -17 -14h-334q-11 0 -14.5 3.5t-3.5 14.5v652q0 10 3.5 13.5t13.5 3.5h335q14 0 14 -12v-4l-3 -25q-1 -13 -23 -13h-270v-242h238q17 0 17 -15v-24q0 -15 -16 -15h-239v-283h281q18 0 18 -13v-27zM390 788q0 -5 -4 -9l-9 -10q-6 -6 -10 -6q-5 0 -10 4
l-111 83l-111 -83q-5 -4 -10 -4q-6 0 -10 6l-8 10q-5 7 -5 11t6 10l118 107q8 6 14 6h12q6 0 14 -6l118 -107q6 -5 6 -12z" />
    <glyph glyph-name="Edieresis" unicode="&#xcb;" horiz-adv-x="489" 
d="M446 14q0 -14 -17 -14h-334q-11 0 -14.5 3.5t-3.5 14.5v652q0 10 3.5 13.5t13.5 3.5h335q14 0 14 -12v-4l-3 -25q-1 -13 -23 -13h-270v-242h238q17 0 17 -15v-24q0 -15 -16 -15h-239v-283h281q18 0 18 -13v-27zM377 812q0 -20 -14 -32t-32 -12t-33 12t-15 32
q0 21 14.5 33t33.5 12t32.5 -12.5t13.5 -32.5zM205 812q0 -20 -14 -32t-32 -12t-33 12t-15 32q0 21 14.5 33t33.5 12t32.5 -12.5t13.5 -32.5z" />
    <glyph glyph-name="Igrave" unicode="&#xcc;" horiz-adv-x="349" 
d="M284 14q0 -9 -2 -11.5t-9 -2.5h-198q-7 0 -9.5 2t-2.5 10v28q0 6 2 8t10 2h64v588h-67q-8 0 -10 2t-2 9v26q0 7 2 9.5t9 2.5h199q14 0 14 -11v-25q0 -9 -2 -11t-12 -2h-64v-588h64q14 0 14 -11v-25zM268 788q0 -3 -3 -9l-9 -14q-4 -7 -12 -7q-2 0 -8 2l-158 74
q-9 5 -9 12q0 5 3 11l17 27q6 9 13 9t12 -4l147 -90q7 -4 7 -11z" />
    <glyph glyph-name="Iacute" unicode="&#xcd;" horiz-adv-x="349" 
d="M284 14q0 -9 -2 -11.5t-9 -2.5h-198q-7 0 -9.5 2t-2.5 10v28q0 6 2 8t10 2h64v588h-67q-8 0 -10 2t-2 9v26q0 7 2 9.5t9 2.5h199q14 0 14 -11v-25q0 -9 -2 -11t-12 -2h-64v-588h64q14 0 14 -11v-25zM287 844q0 -7 -9 -12l-158 -74q-6 -2 -8 -2q-8 0 -12 7l-9 14
q-3 6 -3 9q0 7 7 11l147 90q5 4 12 4t13 -9l17 -27q3 -6 3 -11z" />
    <glyph glyph-name="Icircumflex" unicode="&#xce;" horiz-adv-x="349" 
d="M284 14q0 -9 -2 -11.5t-9 -2.5h-198q-7 0 -9.5 2t-2.5 10v28q0 6 2 8t10 2h64v588h-67q-8 0 -10 2t-2 9v26q0 7 2 9.5t9 2.5h199q14 0 14 -11v-25q0 -9 -2 -11t-12 -2h-64v-588h64q14 0 14 -11v-25zM314 790q0 -5 -4 -9l-9 -10q-6 -6 -10 -6q-5 0 -10 4l-111 83l-111 -83
q-5 -4 -10 -4q-6 0 -10 6l-8 10q-5 7 -5 11t6 10l118 107q8 6 14 6h12q6 0 14 -6l118 -107q6 -5 6 -12z" />
    <glyph glyph-name="Idieresis" unicode="&#xcf;" horiz-adv-x="349" 
d="M284 14q0 -9 -2 -11.5t-9 -2.5h-198q-7 0 -9.5 2t-2.5 10v28q0 6 2 8t10 2h64v588h-67q-8 0 -10 2t-2 9v26q0 7 2 9.5t9 2.5h199q14 0 14 -11v-25q0 -9 -2 -11t-12 -2h-64v-588h64q14 0 14 -11v-25zM305 811q0 -20 -14 -32t-32 -12t-33 12t-15 32q0 21 14.5 33t33.5 12
t32.5 -12.5t13.5 -32.5zM133 811q0 -20 -14 -32t-32 -12t-33 12t-15 32q0 21 14.5 33t33.5 12t32.5 -12.5t13.5 -32.5z" />
    <glyph glyph-name="Eth" unicode="&#xd0;" horiz-adv-x="653" 
d="M604 339q0 -174 -99 -267q-76 -72 -245 -72h-160q-14 0 -18.5 4.5t-4.5 16.5v284h-59q-12 0 -16 3t-4 12v26q0 9 3.5 12t13.5 3h62v299q0 14 6.5 20.5t21.5 6.5h112q104 0 156.5 -10t97.5 -39q63 -41 98 -119t35 -180zM529 340q0 77 -23 141t-66 100q-63 52 -188 52h-105
v-272h112q13 0 16.5 -3t3.5 -14v-20q0 -11 -3.5 -15t-13.5 -4h-115v-251h89q82 0 131 11.5t83 46.5q79 79 79 228z" />
    <glyph glyph-name="Ntilde" unicode="&#xd1;" horiz-adv-x="672" 
d="M595 18q0 -18 -13 -18h-32q-13 0 -26 18l-382 542h-2v-542q0 -18 -16 -18h-31q-16 0 -16 18v651q0 18 16 18h25q14 0 22 -13l391 -556h2v551q0 18 15 18h31q16 0 16 -17v-652zM500 818q0 -8 -8 -14q-56 -43 -104 -43q-20 0 -53 17.5t-50 17.5q-18 0 -65 -25
q-11 -6 -16 -6q-8 0 -11 10l-8 26q-4 10 -4 11q0 7 14 16q52 32 90 32q22 0 59 -18t50 -18q11 0 62 28q9 5 15 5q9 0 14 -9l10 -18q5 -8 5 -12z" />
    <glyph glyph-name="Ograve" unicode="&#xd2;" horiz-adv-x="662" 
d="M617 348q0 -166 -80.5 -261.5t-204.5 -95.5q-128 0 -201.5 93t-73.5 257q0 162 80 259.5t205 97.5q130 0 202.5 -95t72.5 -255zM542 345q0 138 -52.5 217t-149.5 79q-93 0 -150.5 -84t-57.5 -213q0 -137 54 -217t149 -80q92 0 149.5 82.5t57.5 215.5zM432 785q0 -3 -3 -9
l-9 -14q-4 -7 -12 -7q-2 0 -8 2l-158 74q-9 5 -9 12q0 5 3 11l17 27q6 9 13 9t12 -4l147 -90q7 -4 7 -11z" />
    <glyph glyph-name="Oacute" unicode="&#xd3;" horiz-adv-x="662" 
d="M617 348q0 -166 -80.5 -261.5t-204.5 -95.5q-128 0 -201.5 93t-73.5 257q0 162 80 259.5t205 97.5q130 0 202.5 -95t72.5 -255zM542 345q0 138 -52.5 217t-149.5 79q-93 0 -150.5 -84t-57.5 -213q0 -137 54 -217t149 -80q92 0 149.5 82.5t57.5 215.5zM470 843
q0 -7 -9 -12l-158 -74q-6 -2 -8 -2q-8 0 -12 7l-9 14q-3 6 -3 9q0 7 7 11l147 90q5 4 12 4t13 -9l17 -27q3 -6 3 -11z" />
    <glyph glyph-name="Ocircumflex" unicode="&#xd4;" horiz-adv-x="662" 
d="M617 348q0 -166 -80.5 -261.5t-204.5 -95.5q-128 0 -201.5 93t-73.5 257q0 162 80 259.5t205 97.5q130 0 202.5 -95t72.5 -255zM542 345q0 138 -52.5 217t-149.5 79q-93 0 -150.5 -84t-57.5 -213q0 -137 54 -217t149 -80q92 0 149.5 82.5t57.5 215.5zM480 786q0 -5 -4 -9
l-9 -10q-6 -6 -10 -6q-5 0 -10 4l-111 83l-111 -83q-5 -4 -10 -4q-6 0 -10 6l-8 10q-5 7 -5 11t6 10l118 107q8 6 14 6h12q6 0 14 -6l118 -107q6 -5 6 -12z" />
    <glyph glyph-name="Otilde" unicode="&#xd5;" horiz-adv-x="662" 
d="M617 348q0 -166 -80.5 -261.5t-204.5 -95.5q-128 0 -201.5 93t-73.5 257q0 162 80 259.5t205 97.5q130 0 202.5 -95t72.5 -255zM542 345q0 138 -52.5 217t-149.5 79q-93 0 -150.5 -84t-57.5 -213q0 -137 54 -217t149 -80q92 0 149.5 82.5t57.5 215.5zM501 815
q0 -8 -8 -14q-56 -43 -104 -43q-20 0 -53 17.5t-50 17.5q-18 0 -65 -25q-11 -6 -16 -6q-8 0 -11 10l-8 26q-4 10 -4 11q0 7 14 16q52 32 90 32q22 0 59 -18t50 -18q11 0 62 28q9 5 15 5q9 0 14 -9l10 -18q5 -8 5 -12z" />
    <glyph glyph-name="Odieresis" unicode="&#xd6;" horiz-adv-x="662" 
d="M617 348q0 -166 -80.5 -261.5t-204.5 -95.5q-128 0 -201.5 93t-73.5 257q0 162 80 259.5t205 97.5q130 0 202.5 -95t72.5 -255zM542 345q0 138 -52.5 217t-149.5 79q-93 0 -150.5 -84t-57.5 -213q0 -137 54 -217t149 -80q92 0 149.5 82.5t57.5 215.5zM470 813
q0 -20 -14 -32t-32 -12t-33 12t-15 32q0 21 14.5 33t33.5 12t32.5 -12.5t13.5 -32.5zM298 813q0 -20 -14 -32t-32 -12t-33 12t-15 32q0 21 14.5 33t33.5 12t32.5 -12.5t13.5 -32.5z" />
    <glyph glyph-name="multiply" unicode="&#xd7;" horiz-adv-x="500" 
d="M411 136q0 -2 -6 -10l-18 -19q-6 -6 -11 -6q-4 0 -12 8l-113 113l-112 -112q-9 -9 -15 -9q-4 0 -10 6l-18 18q-6 6 -6 10q0 6 7 13l114 113l-112 112q-9 9 -9 15q0 4 7 11l14 15q7 8 14 8q5 0 12 -7l114 -114l111 111q10 10 14 10t12 -8l14 -14q5 -5 5 -12l-3 -13
l-114 -114l111 -111q10 -10 10 -14z" />
    <glyph glyph-name="Oslash" unicode="&#xd8;" horiz-adv-x="666" 
d="M613 348q0 -166 -80.5 -261.5t-204.5 -95.5q-88 0 -149 42l-36 -59q-9 -16 -17 -16q-2 0 -4.5 1.5t-3.5 1.5l-18 9q-11 6 -11 12q0 2 2 6l49 79q-87 93 -87 274q0 161 80 258.5t205 97.5q94 0 161 -53l41 66q11 18 17 18q2 0 6 -2l18 -11q12 -7 12 -12q0 -2 -2 -6
l-55 -90q77 -95 77 -259zM465 589q-52 55 -129 55q-93 0 -150.5 -85.5t-57.5 -214.5q0 -135 51 -215zM538 345q0 120 -42 199l-283 -456q48 -45 118 -45q92 0 149.5 84.5t57.5 217.5z" />
    <glyph glyph-name="Ugrave" unicode="&#xd9;" horiz-adv-x="681" 
d="M604 297q0 -148 -62 -225q-65 -81 -199 -81q-160 0 -220 93q-46 71 -46 222v363q0 18 16 18h38q16 0 16 -18v-355q0 -112 21 -164q39 -100 174 -100q130 0 170 97q23 57 23 168v354q0 18 16 18h37q16 0 16 -18v-372zM413 776q0 -3 -3 -9l-9 -14q-4 -7 -12 -7q-2 0 -8 2
l-158 74q-9 5 -9 12q0 5 3 11l17 27q6 9 13 9t12 -4l147 -90q7 -4 7 -11z" />
    <glyph glyph-name="Uacute" unicode="&#xda;" horiz-adv-x="681" 
d="M604 297q0 -148 -62 -225q-65 -81 -199 -81q-160 0 -220 93q-46 71 -46 222v363q0 18 16 18h38q16 0 16 -18v-355q0 -112 21 -164q39 -100 174 -100q130 0 170 97q23 57 23 168v354q0 18 16 18h37q16 0 16 -18v-372zM483 836q0 -7 -9 -12l-158 -74q-6 -2 -8 -2
q-8 0 -12 7l-9 14q-3 6 -3 9q0 7 7 11l147 90q5 4 12 4t13 -9l17 -27q3 -6 3 -11z" />
    <glyph glyph-name="Ucircumflex" unicode="&#xdb;" horiz-adv-x="681" 
d="M604 297q0 -148 -62 -225q-65 -81 -199 -81q-160 0 -220 93q-46 71 -46 222v363q0 18 16 18h38q16 0 16 -18v-355q0 -112 21 -164q39 -100 174 -100q130 0 170 97q23 57 23 168v354q0 18 16 18h37q16 0 16 -18v-372zM477 783q0 -5 -4 -9l-9 -10q-6 -6 -10 -6q-5 0 -10 4
l-111 83l-111 -83q-5 -4 -10 -4q-6 0 -10 6l-8 10q-5 7 -5 11t6 10l118 107q8 6 14 6h12q6 0 14 -6l118 -107q6 -5 6 -12z" />
    <glyph glyph-name="Udieresis" unicode="&#xdc;" horiz-adv-x="681" 
d="M604 297q0 -148 -62 -225q-65 -81 -199 -81q-160 0 -220 93q-46 71 -46 222v363q0 18 16 18h38q16 0 16 -18v-355q0 -112 21 -164q39 -100 174 -100q130 0 170 97q23 57 23 168v354q0 18 16 18h37q16 0 16 -18v-372zM464 810q0 -20 -14 -32t-32 -12t-33 12t-15 32
q0 21 14.5 33t33.5 12t32.5 -12.5t13.5 -32.5zM292 810q0 -20 -14 -32t-32 -12t-33 12t-15 32q0 21 14.5 33t33.5 12t32.5 -12.5t13.5 -32.5z" />
    <glyph glyph-name="Yacute" unicode="&#xdd;" horiz-adv-x="522" 
d="M505 680q0 -3 -5 -15l-200 -401v-249q0 -15 -13 -15h-43q-13 0 -13 16v247l-212 406q-3 6 -3 9q0 9 15 9h33q22 0 30 -16l176 -348h1l168 345q6 13 10.5 16t17.5 3h24q14 0 14 -7zM393 843q0 -7 -9 -12l-158 -74q-6 -2 -8 -2q-8 0 -12 7l-9 14q-3 6 -3 9q0 7 7 11l147 90
q5 4 12 4t13 -9l17 -27q3 -6 3 -11z" />
    <glyph glyph-name="Thorn" unicode="&#xde;" horiz-adv-x="516" 
d="M474 307q0 -103 -55 -165t-158 -62q-40 0 -78 16t-61 46v-126q0 -16 -19 -16h-29q-16 0 -16 18v353v251q0 6 2 9t4.5 4t9.5 2l25 4h5q15 0 15 -18v-156q25 30 67.5 48.5t86.5 18.5q93 0 147 -55t54 -172zM408 307q0 177 -145 177q-40 0 -80 -21t-61 -53v-198
q17 -35 55.5 -58.5t79.5 -23.5q151 0 151 177z" />
    <glyph glyph-name="germandbls" unicode="&#xdf;" horiz-adv-x="541" 
d="M500 202q0 -101 -64.5 -156t-153.5 -55h-7q-34 0 -42 1q-14 1 -18 4t-4 11v16q0 11 4 14t15 3h2q6 0 22 -0.5t22 -0.5q81 0 119 47t38 118q0 72 -51 110.5t-115 38.5h-36q-14 0 -17 2t-3 11v22q0 9 2.5 11.5t12.5 2.5h16q52 0 98.5 38t46.5 100q0 128 -132 128
q-57 0 -90.5 -40t-33.5 -112v-131v-462q0 -18 -16 -18h-32q-16 0 -16 18v462v122q0 102 51.5 156t141.5 54q85 0 139.5 -44.5t54.5 -127.5q0 -53 -33 -99t-85 -59v-1q71 -8 117.5 -59.5t46.5 -124.5z" />
    <glyph glyph-name="agrave" unicode="&#xe0;" horiz-adv-x="519" 
d="M492 10q0 -10 -12 -10h-38q-28 0 -42 20.5t-14 51.5v13q-15 -38 -60 -66t-94 -28q-96 0 -145.5 70t-49.5 172q0 119 60.5 189t150.5 70q38 0 75.5 -16t61.5 -47l1 37q0 16 18 16h30q15 0 15 -18v-351q0 -47 4 -55q5 -12 21 -12h7q11 0 11 -11v-25zM385 166v192
q-19 39 -55.5 61.5t-77.5 22.5q-66 0 -107.5 -55.5t-41.5 -149.5q0 -91 38.5 -141.5t95.5 -50.5q52 0 92 35.5t56 85.5zM341 597q0 -3 -3 -9l-9 -14q-4 -7 -12 -7q-2 0 -8 2l-158 74q-9 5 -9 12q0 5 3 11l17 27q6 9 13 9t12 -4l147 -90q7 -4 7 -11z" />
    <glyph glyph-name="aacute" unicode="&#xe1;" horiz-adv-x="519" 
d="M492 10q0 -10 -12 -10h-38q-28 0 -42 20.5t-14 51.5v13q-15 -38 -60 -66t-94 -28q-96 0 -145.5 70t-49.5 172q0 119 60.5 189t150.5 70q38 0 75.5 -16t61.5 -47l1 37q0 16 18 16h30q15 0 15 -18v-351q0 -47 4 -55q5 -12 21 -12h7q11 0 11 -11v-25zM385 166v192
q-19 39 -55.5 61.5t-77.5 22.5q-66 0 -107.5 -55.5t-41.5 -149.5q0 -91 38.5 -141.5t95.5 -50.5q52 0 92 35.5t56 85.5zM347 651q0 -7 -9 -12l-158 -74q-6 -2 -8 -2q-8 0 -12 7l-9 14q-3 6 -3 9q0 7 7 11l147 90q5 4 12 4t13 -9l17 -27q3 -6 3 -11z" />
    <glyph glyph-name="acircumflex" unicode="&#xe2;" horiz-adv-x="519" 
d="M492 10q0 -10 -12 -10h-38q-28 0 -42 20.5t-14 51.5v13q-15 -38 -60 -66t-94 -28q-96 0 -145.5 70t-49.5 172q0 119 60.5 189t150.5 70q38 0 75.5 -16t61.5 -47l1 37q0 16 18 16h30q15 0 15 -18v-351q0 -47 4 -55q5 -12 21 -12h7q11 0 11 -11v-25zM385 166v192
q-19 39 -55.5 61.5t-77.5 22.5q-66 0 -107.5 -55.5t-41.5 -149.5q0 -91 38.5 -141.5t95.5 -50.5q52 0 92 35.5t56 85.5zM400 573q0 -5 -4 -9l-9 -10q-6 -6 -10 -6q-5 0 -10 4l-111 83l-111 -83q-5 -4 -10 -4q-6 0 -10 6l-8 10q-5 7 -5 11t6 10l118 107q8 6 14 6h12
q6 0 14 -6l118 -107q6 -5 6 -12z" />
    <glyph glyph-name="atilde" unicode="&#xe3;" horiz-adv-x="519" 
d="M492 10q0 -10 -12 -10h-38q-28 0 -42 20.5t-14 51.5v13q-15 -38 -60 -66t-94 -28q-96 0 -145.5 70t-49.5 172q0 119 60.5 189t150.5 70q38 0 75.5 -16t61.5 -47l1 37q0 16 18 16h30q15 0 15 -18v-351q0 -47 4 -55q5 -12 21 -12h7q11 0 11 -11v-25zM385 166v192
q-19 39 -55.5 61.5t-77.5 22.5q-66 0 -107.5 -55.5t-41.5 -149.5q0 -91 38.5 -141.5t95.5 -50.5q52 0 92 35.5t56 85.5zM418 656q0 -8 -8 -14q-56 -43 -104 -43q-20 0 -53 17.5t-50 17.5q-18 0 -65 -25q-11 -6 -16 -6q-8 0 -11 10l-8 26q-4 10 -4 11q0 7 14 16q52 32 90 32
q22 0 59 -18t50 -18q11 0 62 28q9 5 15 5q9 0 14 -9l10 -18q5 -8 5 -12z" />
    <glyph glyph-name="adieresis" unicode="&#xe4;" horiz-adv-x="519" 
d="M492 10q0 -10 -12 -10h-38q-28 0 -42 20.5t-14 51.5v13q-15 -38 -60 -66t-94 -28q-96 0 -145.5 70t-49.5 172q0 119 60.5 189t150.5 70q38 0 75.5 -16t61.5 -47l1 37q0 16 18 16h30q15 0 15 -18v-351q0 -47 4 -55q5 -12 21 -12h7q11 0 11 -11v-25zM385 166v192
q-19 39 -55.5 61.5t-77.5 22.5q-66 0 -107.5 -55.5t-41.5 -149.5q0 -91 38.5 -141.5t95.5 -50.5q52 0 92 35.5t56 85.5zM392 653q0 -20 -14 -32t-32 -12t-33 12t-15 32q0 21 14.5 33t33.5 12t32.5 -12.5t13.5 -32.5zM220 653q0 -20 -14 -32t-32 -12t-33 12t-15 32
q0 21 14.5 33t33.5 12t32.5 -12.5t13.5 -32.5z" />
    <glyph glyph-name="aring" unicode="&#xe5;" horiz-adv-x="519" 
d="M492 10q0 -10 -12 -10h-38q-28 0 -42 20.5t-14 51.5v13q-15 -38 -60 -66t-94 -28q-96 0 -145.5 70t-49.5 172q0 119 60.5 189t150.5 70q38 0 75.5 -16t61.5 -47l1 37q0 16 18 16h30q15 0 15 -18v-351q0 -47 4 -55q5 -12 21 -12h7q11 0 11 -11v-25zM385 166v192
q-19 39 -55.5 61.5t-77.5 22.5q-66 0 -107.5 -55.5t-41.5 -149.5q0 -91 38.5 -141.5t95.5 -50.5q52 0 92 35.5t56 85.5zM328 618q0 -32 -23.5 -55.5t-56.5 -23.5q-32 0 -56.5 23.5t-24.5 55.5t24.5 56t56.5 24q33 0 56.5 -24t23.5 -56zM280 618q0 14 -9.5 23t-22.5 9
q-14 0 -23.5 -9.5t-9.5 -22.5t9.5 -22.5t23.5 -9.5q13 0 22.5 9t9.5 23z" />
    <glyph glyph-name="ae" unicode="&#xe6;" horiz-adv-x="758" 
d="M723 256q-1 -17 -28 -17h-88h-229q0 -85 43 -139.5t125 -54.5q72 0 125 23q6 2 7 2q8 0 10 -9l5 -23q1 -3 1 -8q0 -7 -10 -11q-59 -28 -144 -28q-75 0 -126 34q-20 13 -32 26q-2 3 -7.5 9.5t-8.5 9.5q-26 -34 -73.5 -57t-110.5 -23q-61 0 -104 36.5t-43 102.5
q0 60 44 100q69 64 217 64h29v34q0 60 -23.5 89.5t-78.5 29.5q-64 0 -134 -40q-5 -3 -8 -3q-4 0 -7 6l-9 20q-2 4 -2 6q0 6 8 11q78 46 157 46q72 0 112 -35q22 -20 33 -44q58 79 164 79q86 0 136 -58.5t50 -148.5v-19v-10zM659 304q0 60 -32 99.5t-92 39.5
q-67 0 -107.5 -46t-47.5 -113h278q1 7 1 20zM346 107q-24 56 -24 135v7v3h-26q-34 0 -65 -5.5t-61.5 -17.5t-49 -37.5t-18.5 -60.5q0 -45 28 -68.5t66 -23.5q44 0 85 21t65 47z" />
    <glyph glyph-name="ccedilla" unicode="&#xe7;" horiz-adv-x="422" 
d="M409 30q0 -7 -10 -11q-57 -28 -128 -28l-2 -41h8q36 0 61.5 -16.5t25.5 -54.5q0 -33 -23 -55t-69 -22q-30 0 -61 12q-14 6 -14 12q0 3 1 5l4 12q3 8 8 8q1 0 9 -2q27 -10 53 -10q17 0 30.5 9t14.5 26v4q0 36 -53 36h-16q-25 0 -25 23q0 9 1 14l4 43q-94 12 -140.5 78.5
t-46.5 170.5q0 109 62.5 179t170.5 70q70 0 125 -30q9 -4 9 -11q0 -2 -2 -8l-6 -18q-4 -11 -10 -11q-1 0 -7 2q-58 27 -110 27q-75 0 -120.5 -54t-45.5 -144q0 -88 39.5 -147t123.5 -59q61 0 116 24q6 2 7 2q8 0 10 -9l5 -18q1 -3 1 -8z" />
    <glyph glyph-name="egrave" unicode="&#xe8;" horiz-adv-x="487" 
d="M452 266q0 -17 -5 -22t-23 -5h-88h-229q0 -85 43 -139.5t125 -54.5q72 0 125 23q6 2 7 2q8 0 10 -9l5 -23q1 -3 1 -8q0 -7 -10 -11q-59 -28 -144 -28q-111 0 -169.5 68t-58.5 183q0 107 61.5 178.5t163.5 71.5q86 0 136 -58.5t50 -148.5v-19zM388 304q0 60 -32 99.5
t-92 39.5q-67 0 -107.5 -46t-47.5 -113h278q1 7 1 20zM341 597q0 -3 -3 -9l-9 -14q-4 -7 -12 -7q-2 0 -8 2l-158 74q-9 5 -9 12q0 5 3 11l17 27q6 9 13 9t12 -4l147 -90q7 -4 7 -11z" />
    <glyph glyph-name="eacute" unicode="&#xe9;" horiz-adv-x="487" 
d="M452 266q0 -17 -5 -22t-23 -5h-88h-229q0 -85 43 -139.5t125 -54.5q72 0 125 23q6 2 7 2q8 0 10 -9l5 -23q1 -3 1 -8q0 -7 -10 -11q-59 -28 -144 -28q-111 0 -169.5 68t-58.5 183q0 107 61.5 178.5t163.5 71.5q86 0 136 -58.5t50 -148.5v-19zM388 304q0 60 -32 99.5
t-92 39.5q-67 0 -107.5 -46t-47.5 -113h278q1 7 1 20zM345 651q0 -7 -9 -12l-158 -74q-6 -2 -8 -2q-8 0 -12 7l-9 14q-3 6 -3 9q0 7 7 11l147 90q5 4 12 4t13 -9l17 -27q3 -6 3 -11z" />
    <glyph glyph-name="ecircumflex" unicode="&#xea;" horiz-adv-x="487" 
d="M452 266q0 -17 -5 -22t-23 -5h-88h-229q0 -85 43 -139.5t125 -54.5q72 0 125 23q6 2 7 2q8 0 10 -9l5 -23q1 -3 1 -8q0 -7 -10 -11q-59 -28 -144 -28q-111 0 -169.5 68t-58.5 183q0 107 61.5 178.5t163.5 71.5q86 0 136 -58.5t50 -148.5v-19zM388 304q0 60 -32 99.5
t-92 39.5q-67 0 -107.5 -46t-47.5 -113h278q1 7 1 20zM403 573q0 -5 -4 -9l-9 -10q-6 -6 -10 -6q-5 0 -10 4l-111 83l-111 -83q-5 -4 -10 -4q-6 0 -10 6l-8 10q-5 7 -5 11t6 10l118 107q8 6 14 6h12q6 0 14 -6l118 -107q6 -5 6 -12z" />
    <glyph glyph-name="edieresis" unicode="&#xeb;" horiz-adv-x="487" 
d="M452 266q0 -17 -5 -22t-23 -5h-88h-229q0 -85 43 -139.5t125 -54.5q72 0 125 23q6 2 7 2q8 0 10 -9l5 -23q1 -3 1 -8q0 -7 -10 -11q-59 -28 -144 -28q-111 0 -169.5 68t-58.5 183q0 107 61.5 178.5t163.5 71.5q86 0 136 -58.5t50 -148.5v-19zM388 304q0 60 -32 99.5
t-92 39.5q-67 0 -107.5 -46t-47.5 -113h278q1 7 1 20zM390 653q0 -20 -14 -32t-32 -12t-33 12t-15 32q0 21 14.5 33t33.5 12t32.5 -12.5t13.5 -32.5zM218 653q0 -20 -14 -32t-32 -12t-33 12t-15 32q0 21 14.5 33t33.5 12t32.5 -12.5t13.5 -32.5z" />
    <glyph glyph-name="igrave" unicode="&#xec;" horiz-adv-x="220" 
d="M141 18q0 -18 -16 -18h-32q-16 0 -16 18v446q0 18 16 18h32q16 0 16 -18v-446zM209 597q0 -3 -3 -9l-9 -14q-4 -7 -12 -7q-2 0 -8 2l-158 74q-9 5 -9 12q0 5 3 11l17 27q6 9 13 9t12 -4l147 -90q7 -4 7 -11z" />
    <glyph glyph-name="iacute" unicode="&#xed;" horiz-adv-x="220" 
d="M141 18q0 -18 -16 -18h-32q-16 0 -16 18v446q0 18 16 18h32q16 0 16 -18v-446zM222 651q0 -7 -9 -12l-158 -74q-6 -2 -8 -2q-8 0 -12 7l-9 14q-3 6 -3 9q0 7 7 11l147 90q5 4 12 4t13 -9l17 -27q3 -6 3 -11z" />
    <glyph glyph-name="icircumflex" unicode="&#xee;" horiz-adv-x="220" 
d="M141 18q0 -18 -16 -18h-32q-16 0 -16 18v446q0 18 16 18h32q16 0 16 -18v-446zM259 573q0 -5 -4 -9l-9 -10q-6 -6 -10 -6q-5 0 -10 4l-111 83l-111 -83q-5 -4 -10 -4q-6 0 -10 6l-8 10q-5 7 -5 11t6 10l118 107q8 6 14 6h12q6 0 14 -6l118 -107q6 -5 6 -12z" />
    <glyph glyph-name="idieresis" unicode="&#xef;" horiz-adv-x="220" 
d="M141 18q0 -18 -16 -18h-32q-16 0 -16 18v446q0 18 16 18h32q16 0 16 -18v-446zM244 653q0 -20 -14 -32t-32 -12t-33 12t-15 32q0 21 14.5 33t33.5 12t32.5 -12.5t13.5 -32.5zM72 653q0 -20 -14 -32t-32 -12t-33 12t-15 32q0 21 14.5 33t33.5 12t32.5 -12.5t13.5 -32.5z
" />
    <glyph glyph-name="eth" unicode="&#xf0;" horiz-adv-x="521" 
d="M482 244q0 -108 -58.5 -180.5t-166.5 -72.5t-162 69.5t-54 181.5q0 109 59 179.5t163 70.5q42 0 78 -11q-17 48 -55.5 84.5t-82.5 57.5l-37 -77q-4 -7 -7 -7t-9 3l-18 9q-7 4 -7 8q0 3 3 8l38 73q-49 16 -87 22q-12 1 -12 11v4l3 17q1 9 4.5 11t11.5 2h8q46 -4 100 -18
l34 66q5 8 8 8q2 0 7 -3l18 -10q7 -4 7 -8t-2 -7l-32 -63q78 -36 136 -111.5t85 -158t27 -158.5zM415 240q0 85 -36.5 144t-115.5 59q-43 0 -74.5 -17.5t-48.5 -47.5t-25 -63.5t-8 -70.5q0 -86 35.5 -145.5t115.5 -59.5q42 0 73.5 17t49 46.5t26 64t8.5 73.5z" />
    <glyph glyph-name="ntilde" unicode="&#xf1;" horiz-adv-x="523" 
d="M456 18q0 -18 -16 -18h-32q-16 0 -16 18v285q0 68 -23.5 103.5t-87.5 35.5q-36 0 -78.5 -18.5t-71.5 -45.5v-360q0 -18 -16 -18h-32q-16 0 -16 18v446q0 18 16 18h31q16 0 16 -18l1 -34q70 62 167 62q158 0 158 -180v-294zM424 656q0 -8 -8 -14q-56 -43 -104 -43
q-20 0 -53 17.5t-50 17.5q-18 0 -65 -25q-11 -6 -16 -6q-8 0 -11 10l-8 26q-4 10 -4 11q0 7 14 16q52 32 90 32q22 0 59 -18t50 -18q11 0 62 28q9 5 15 5q9 0 14 -9l10 -18q5 -8 5 -12z" />
    <glyph glyph-name="ograve" unicode="&#xf2;" horiz-adv-x="522" 
d="M481 242q0 -109 -59.5 -180t-164.5 -71q-108 0 -162 69.5t-54 181.5q0 109 59 179.5t163 70.5q108 0 163 -68.5t55 -181.5zM415 240q0 85 -36.5 144t-115.5 59q-43 0 -74.5 -17.5t-48.5 -47.5t-25 -63.5t-8 -70.5q0 -86 35.5 -145.5t115.5 -59.5q42 0 73.5 17t49 46.5
t26 64t8.5 73.5zM354 597q0 -3 -3 -9l-9 -14q-4 -7 -12 -7q-2 0 -8 2l-158 74q-9 5 -9 12q0 5 3 11l17 27q6 9 13 9t12 -4l147 -90q7 -4 7 -11z" />
    <glyph glyph-name="oacute" unicode="&#xf3;" horiz-adv-x="522" 
d="M481 242q0 -109 -59.5 -180t-164.5 -71q-108 0 -162 69.5t-54 181.5q0 109 59 179.5t163 70.5q108 0 163 -68.5t55 -181.5zM415 240q0 85 -36.5 144t-115.5 59q-43 0 -74.5 -17.5t-48.5 -47.5t-25 -63.5t-8 -70.5q0 -86 35.5 -145.5t115.5 -59.5q42 0 73.5 17t49 46.5
t26 64t8.5 73.5zM367 651q0 -7 -9 -12l-158 -74q-6 -2 -8 -2q-8 0 -12 7l-9 14q-3 6 -3 9q0 7 7 11l147 90q5 4 12 4t13 -9l17 -27q3 -6 3 -11z" />
    <glyph glyph-name="ocircumflex" unicode="&#xf4;" horiz-adv-x="522" 
d="M481 242q0 -109 -59.5 -180t-164.5 -71q-108 0 -162 69.5t-54 181.5q0 109 59 179.5t163 70.5q108 0 163 -68.5t55 -181.5zM415 240q0 85 -36.5 144t-115.5 59q-43 0 -74.5 -17.5t-48.5 -47.5t-25 -63.5t-8 -70.5q0 -86 35.5 -145.5t115.5 -59.5q42 0 73.5 17t49 46.5
t26 64t8.5 73.5zM406 573q0 -5 -4 -9l-9 -10q-6 -6 -10 -6q-5 0 -10 4l-111 83l-111 -83q-5 -4 -10 -4q-6 0 -10 6l-8 10q-5 7 -5 11t6 10l118 107q8 6 14 6h12q6 0 14 -6l118 -107q6 -5 6 -12z" />
    <glyph glyph-name="otilde" unicode="&#xf5;" horiz-adv-x="522" 
d="M481 242q0 -109 -59.5 -180t-164.5 -71q-108 0 -162 69.5t-54 181.5q0 109 59 179.5t163 70.5q108 0 163 -68.5t55 -181.5zM415 240q0 85 -36.5 144t-115.5 59q-43 0 -74.5 -17.5t-48.5 -47.5t-25 -63.5t-8 -70.5q0 -86 35.5 -145.5t115.5 -59.5q42 0 73.5 17t49 46.5
t26 64t8.5 73.5zM422 656q0 -8 -8 -14q-56 -43 -104 -43q-20 0 -53 17.5t-50 17.5q-18 0 -65 -25q-11 -6 -16 -6q-8 0 -11 10l-8 26q-4 10 -4 11q0 7 14 16q52 32 90 32q22 0 59 -18t50 -18q11 0 62 28q9 5 15 5q9 0 14 -9l10 -18q5 -8 5 -12z" />
    <glyph glyph-name="odieresis" unicode="&#xf6;" horiz-adv-x="522" 
d="M481 242q0 -109 -59.5 -180t-164.5 -71q-108 0 -162 69.5t-54 181.5q0 109 59 179.5t163 70.5q108 0 163 -68.5t55 -181.5zM415 240q0 85 -36.5 144t-115.5 59q-43 0 -74.5 -17.5t-48.5 -47.5t-25 -63.5t-8 -70.5q0 -86 35.5 -145.5t115.5 -59.5q42 0 73.5 17t49 46.5
t26 64t8.5 73.5zM396 653q0 -20 -14 -32t-32 -12t-33 12t-15 32q0 21 14.5 33t33.5 12t32.5 -12.5t13.5 -32.5zM224 653q0 -20 -14 -32t-32 -12t-33 12t-15 32q0 21 14.5 33t33.5 12t32.5 -12.5t13.5 -32.5z" />
    <glyph glyph-name="divide" unicode="&#xf7;" horiz-adv-x="500" 
d="M299 438q0 -22 -15.5 -36t-35.5 -14t-36.5 14t-16.5 36q0 23 15.5 36.5t37.5 13.5q21 0 36 -14t15 -36zM451 252q0 -11 -3.5 -15t-13.5 -4h-369q-12 0 -16 3t-4 12v26q0 9 3.5 12t13.5 3h369q13 0 16.5 -3t3.5 -14v-20zM299 89q0 -22 -15.5 -35.5t-35.5 -13.5t-36.5 13.5
t-16.5 35.5q0 23 15.5 36.5t37.5 13.5q21 0 36 -14t15 -36z" />
    <glyph glyph-name="oslash" unicode="&#xf8;" horiz-adv-x="526" 
d="M483 243q0 -108 -59.5 -180t-164.5 -72q-56 0 -99 20l-12 -20q-9 -16 -17 -16q-2 0 -4.5 1.5t-3.5 1.5l-18 9q-11 5 -11 11q0 2 2 6l22 35q-75 68 -75 204q0 107 59.5 178t163.5 71q70 0 116 -28l17 26q12 18 18 18q2 0 6 -2l18 -10q12 -7 12 -12q0 -2 -2 -6l-29 -47
q61 -67 61 -188zM417 241q0 78 -31 133l-198 -318q32 -19 72 -19q80 0 118.5 59.5t38.5 144.5zM352 415q-35 30 -87 30q-43 0 -74.5 -18t-48.5 -48t-25 -63.5t-8 -70.5q0 -98 41 -154z" />
    <glyph glyph-name="ugrave" unicode="&#xf9;" horiz-adv-x="513" 
d="M446 18q0 -18 -16 -18h-31q-16 0 -16 18l-1 35q-70 -62 -157 -62q-71 0 -113 40q-45 45 -45 142v291q0 18 16 18h32q16 0 16 -18v-282q0 -77 29 -110q26 -29 81 -29q34 0 74.5 20t66.5 46v355q0 18 16 18h32q16 0 16 -18v-446zM355 597q0 -3 -3 -9l-9 -14q-4 -7 -12 -7
q-2 0 -8 2l-158 74q-9 5 -9 12q0 5 3 11l17 27q6 9 13 9t12 -4l147 -90q7 -4 7 -11z" />
    <glyph glyph-name="uacute" unicode="&#xfa;" horiz-adv-x="513" 
d="M446 18q0 -18 -16 -18h-31q-16 0 -16 18l-1 35q-70 -62 -157 -62q-71 0 -113 40q-45 45 -45 142v291q0 18 16 18h32q16 0 16 -18v-282q0 -77 29 -110q26 -29 81 -29q34 0 74.5 20t66.5 46v355q0 18 16 18h32q16 0 16 -18v-446zM365 651q0 -7 -9 -12l-158 -74q-6 -2 -8 -2
q-8 0 -12 7l-9 14q-3 6 -3 9q0 7 7 11l147 90q5 4 12 4t13 -9l17 -27q3 -6 3 -11z" />
    <glyph glyph-name="ucircumflex" unicode="&#xfb;" horiz-adv-x="513" 
d="M446 18q0 -18 -16 -18h-31q-16 0 -16 18l-1 35q-70 -62 -157 -62q-71 0 -113 40q-45 45 -45 142v291q0 18 16 18h32q16 0 16 -18v-282q0 -77 29 -110q26 -29 81 -29q34 0 74.5 20t66.5 46v355q0 18 16 18h32q16 0 16 -18v-446zM396 573q0 -5 -4 -9l-9 -10q-6 -6 -10 -6
q-5 0 -10 4l-111 83l-111 -83q-5 -4 -10 -4q-6 0 -10 6l-8 10q-5 7 -5 11t6 10l118 107q8 6 14 6h12q6 0 14 -6l118 -107q6 -5 6 -12z" />
    <glyph glyph-name="udieresis" unicode="&#xfc;" horiz-adv-x="513" 
d="M446 18q0 -18 -16 -18h-31q-16 0 -16 18l-1 35q-70 -62 -157 -62q-71 0 -113 40q-45 45 -45 142v291q0 18 16 18h32q16 0 16 -18v-282q0 -77 29 -110q26 -29 81 -29q34 0 74.5 20t66.5 46v355q0 18 16 18h32q16 0 16 -18v-446zM393 653q0 -20 -14 -32t-32 -12t-33 12
t-15 32q0 21 14.5 33t33.5 12t32.5 -12.5t13.5 -32.5zM221 653q0 -20 -14 -32t-32 -12t-33 12t-15 32q0 21 14.5 33t33.5 12t32.5 -12.5t13.5 -32.5z" />
    <glyph glyph-name="yacute" unicode="&#xfd;" horiz-adv-x="465" 
d="M455 474q0 -2 -2 -8l-195 -526q-33 -89 -74.5 -124.5t-115.5 -35.5q-14 0 -40 4q-10 2 -10 11v3l5 32q1 11 11 11h3q30 -3 37 -3q78 0 109 77l31 76l-177 477q-1 2 -1 6q0 8 9 8h47q12 0 16 -11l141 -400l139 400q4 11 16 11h39q12 0 12 -8zM362 651q0 -7 -9 -12
l-158 -74q-6 -2 -8 -2q-8 0 -12 7l-9 14q-3 6 -3 9q0 7 7 11l147 90q5 4 12 4t13 -9l17 -27q3 -6 3 -11z" />
    <glyph glyph-name="thorn" unicode="&#xfe;" horiz-adv-x="516" 
d="M476 244q0 -107 -57 -180t-159 -73q-40 0 -77.5 16t-60.5 46v-252q0 -16 -19 -16h-29q-16 0 -16 18v568v316q0 6 2 9t4.5 4t9.5 2l25 4h5q15 0 15 -18v-263q25 30 67.5 48.5t86.5 18.5q91 0 147 -64t56 -184zM410 244q0 98 -40 148t-107 50q-40 0 -80 -21t-61 -53v-245
q17 -35 55 -58.5t79 -23.5q73 0 113.5 55.5t40.5 147.5z" />
    <glyph glyph-name="ydieresis" unicode="&#xff;" horiz-adv-x="465" 
d="M455 474q0 -2 -2 -8l-195 -526q-33 -89 -74.5 -124.5t-115.5 -35.5q-14 0 -40 4q-10 2 -10 11v3l5 32q1 11 11 11h3q30 -3 37 -3q78 0 109 77l31 76l-177 477q-1 2 -1 6q0 8 9 8h47q12 0 16 -11l141 -400l139 400q4 11 16 11h39q12 0 12 -8zM377 653q0 -20 -14 -32
t-32 -12t-33 12t-15 32q0 21 14.5 33t33.5 12t32.5 -12.5t13.5 -32.5zM205 653q0 -20 -14 -32t-32 -12t-33 12t-15 32q0 21 14.5 33t33.5 12t32.5 -12.5t13.5 -32.5z" />
    <glyph glyph-name="Cacute" unicode="&#x106;" horiz-adv-x="579" 
d="M556 48q0 -7 -12 -13q-87 -44 -189 -44q-76 0 -135.5 28.5t-95.5 78t-54.5 112t-18.5 134.5q0 145 83 249.5t226 104.5q105 0 180 -46q11 -6 11 -13q0 -5 -3 -9l-13 -24q-4 -8 -10 -8q-5 0 -9 3q-68 42 -151 42q-104 0 -170 -80q-68 -83 -68 -214q0 -58 13.5 -110
t40.5 -96.5t74 -71t109 -26.5q89 0 162 39q6 3 10 3q6 0 9 -8l9 -21q2 -4 2 -10zM516 845q0 -7 -9 -12l-158 -74q-6 -2 -8 -2q-8 0 -12 7l-9 14q-3 6 -3 9q0 7 7 11l147 90q5 4 12 4t13 -9l17 -27q3 -6 3 -11z" />
    <glyph glyph-name="cacute" unicode="&#x107;" horiz-adv-x="422" 
d="M409 30q0 -7 -10 -11q-59 -28 -129 -28q-114 0 -171.5 68.5t-57.5 183.5q0 109 62.5 179t170.5 70q70 0 125 -30q9 -4 9 -11q0 -2 -2 -8l-6 -18q-4 -11 -10 -11q-1 0 -7 2q-58 27 -110 27q-75 0 -120.5 -54t-45.5 -144q0 -88 39.5 -147t123.5 -59q61 0 116 24q6 2 7 2
q8 0 10 -9l5 -18q1 -3 1 -8zM425 651q0 -7 -9 -12l-158 -74q-6 -2 -8 -2q-8 0 -12 7l-9 14q-3 6 -3 9q0 7 7 11l147 90q5 4 12 4t13 -9l17 -27q3 -6 3 -11z" />
    <glyph glyph-name="Ccaron" unicode="&#x10c;" horiz-adv-x="579" 
d="M556 48q0 -7 -12 -13q-87 -44 -189 -44q-76 0 -135.5 28.5t-95.5 78t-54.5 112t-18.5 134.5q0 145 83 249.5t226 104.5q105 0 180 -46q11 -6 11 -13q0 -5 -3 -9l-13 -24q-4 -8 -10 -8q-5 0 -9 3q-68 42 -151 42q-104 0 -170 -80q-68 -83 -68 -214q0 -58 13.5 -110
t40.5 -96.5t74 -71t109 -26.5q89 0 162 39q6 3 10 3q6 0 9 -8l9 -21q2 -4 2 -10zM493 889q0 -5 -6 -10l-118 -107q-6 -6 -14 -6h-12q-8 0 -14 6l-118 107q-6 5 -6 11t4 10l9 10q6 6 11 6q3 0 9 -4l111 -83l111 83q5 4 10 4q6 0 10 -6l8 -10q5 -7 5 -11z" />
    <glyph glyph-name="ccaron" unicode="&#x10d;" horiz-adv-x="422" 
d="M409 30q0 -7 -10 -11q-59 -28 -129 -28q-114 0 -171.5 68.5t-57.5 183.5q0 109 62.5 179t170.5 70q70 0 125 -30q9 -4 9 -11q0 -2 -2 -8l-6 -18q-4 -11 -10 -11q-1 0 -7 2q-58 27 -110 27q-75 0 -120.5 -54t-45.5 -144q0 -88 39.5 -147t123.5 -59q61 0 116 24q6 2 7 2
q8 0 10 -9l5 -18q1 -3 1 -8zM410 671q0 -5 -6 -10l-118 -107q-6 -6 -14 -6h-12q-8 0 -14 6l-118 107q-6 5 -6 11t4 10l9 10q6 6 11 6q3 0 9 -4l111 -83l111 83q5 4 10 4t10 -6l8 -10q5 -7 5 -11z" />
    <glyph glyph-name="Dcroat" unicode="&#x110;" horiz-adv-x="653" 
d="M604 339q0 -174 -99 -267q-76 -72 -245 -72h-160q-14 0 -18.5 4.5t-4.5 16.5v282h-47q-12 0 -16 3t-4 12v26q0 9 3.5 12t13.5 3h50v301q0 14 6.5 20.5t21.5 6.5h112q104 0 156.5 -10t97.5 -39q63 -41 98 -119t35 -180zM221 322q0 -11 -3.5 -15t-13.5 -4h-57v-249h89
q82 0 131 11.5t83 46.5q79 79 79 228q0 77 -23 141t-66 100q-63 52 -188 52h-105v-274h54q13 0 16.5 -3t3.5 -14v-20z" />
    <glyph glyph-name="dcroat" unicode="&#x111;" horiz-adv-x="526" 
d="M519 593q0 -12 -5.5 -16.5t-23.5 -4.5h-31v-554q0 -18 -12 -18h-29q-19 0 -19 18l-1 42q-26 -32 -67.5 -50.5t-86.5 -18.5q-69 0 -116 36t-67 90.5t-20 122.5q0 113 61 182.5t157 69.5q37 0 75.5 -16.5t60.5 -44.5v141h-45q-16 0 -21 4.5t-5 16.5v23q0 11 5 15.5t21 4.5
h45v50q0 17 13 18l36 5h4q11 0 11 -16v-57h31q18 0 23.5 -4t5.5 -16v-23zM395 117v243q-17 35 -54 58.5t-77 23.5q-72 0 -114.5 -53t-42.5 -147q0 -91 39.5 -146t107.5 -55q39 0 79.5 22t61.5 54z" />
    <glyph glyph-name="dotlessi" unicode="&#x131;" horiz-adv-x="220" 
d="M141 18q0 -18 -16 -18h-32q-16 0 -16 18v446q0 18 16 18h32q16 0 16 -18v-446z" />
    <glyph glyph-name="Lslash" unicode="&#x141;" horiz-adv-x="428" 
d="M413 13q0 -8 -2.5 -10.5t-10.5 -2.5h-307q-16 0 -16 18v253l-53 -52q-9 -9 -14.5 -7.5t-5.5 10.5v26q0 10 17 27l56 56v338q0 18 16 18h38q16 0 16 -18v-269l65 65q10 9 15 7t5 -13v-21q0 -13 -17 -30l-68 -67v-287h250q10 0 13 -2.5t3 -9.5v-29z" />
    <glyph glyph-name="lslash" unicode="&#x142;" horiz-adv-x="199" 
d="M218 438q0 -13 -17 -30l-70 -69v-321q0 -18 -16 -18h-32q-16 0 -16 18v257l-57 -56q-9 -9 -14.5 -7.5t-5.5 10.5v26q0 10 17 27l60 60v351q0 16 13 18l35 5h1h3q12 0 12 -16v-295l67 67q10 9 15 7t5 -13v-21z" />
    <glyph glyph-name="OE" unicode="&#x152;" horiz-adv-x="914" 
d="M869 14q0 -8 -3 -11t-13 -3h-334q-11 0 -14.5 3.5t-3.5 14.5v42q-72 -69 -181 -69q-128 0 -197.5 91.5t-69.5 258.5q0 163 79.5 260t205.5 97q111 0 163 -69v41q0 10 3.5 13.5t13.5 3.5h335q14 0 14 -12v-4l-3 -24q-1 -13 -23 -13h-271v-243h239q17 0 17 -15v-24
q0 -15 -16 -15h-240v-283h282q10 0 13.5 -2.5t3.5 -10.5v-27zM501 127v430q-53 85 -165 85q-93 0 -150.5 -84t-57.5 -214q0 -135 52.5 -216t146.5 -81q49 0 96.5 21.5t77.5 58.5z" />
    <glyph glyph-name="oe" unicode="&#x153;" horiz-adv-x="860" 
d="M823 284q0 -20 -1 -29q-1 -17 -28 -17h-88h-228q0 -87 38 -143q40 -59 128 -59q71 0 126 24q6 2 7 2q8 0 10 -9l5 -17q1 -3 1 -8q0 -7 -10 -11q-57 -27 -143 -27q-106 0 -163 60q-20 22 -36 53q-55 -113 -181 -113q-107 0 -162 70t-55 181q0 107 59.5 179t163.5 72
q132 0 179 -113q60 113 192 113q86 0 136 -59t50 -149zM758 302q0 61 -32 102.5t-92 41.5q-67 0 -107 -47.5t-47 -115.5h277q1 7 1 19zM417 239q0 83 -37 144.5t-115 61.5q-81 0 -118.5 -60t-37.5 -142q0 -85 36 -146t116 -61t118 59t38 144z" />
    <glyph glyph-name="Scaron" unicode="&#x160;" horiz-adv-x="486" 
d="M445 178q0 -90 -65 -138.5t-160 -48.5q-75 0 -155 26q-13 4 -13 14q0 4 1 7l10 33q3 9 11 9q2 0 10 -2q77 -28 138 -28q64 0 109 31t45 93q0 43 -25 72.5t-72 56.5l-124 70q-106 60 -106 156q0 79 59.5 124t141.5 45t147 -27q13 -6 13 -15q0 -4 -1 -7l-10 -28
q-3 -9 -12 -9q-3 0 -9 2q-70 28 -124 28q-58 0 -95 -28q-39 -29 -39 -73q0 -71 83 -118l104 -59q68 -38 103 -79.5t35 -106.5zM386 887q0 -5 -6 -10l-118 -107q-6 -6 -14 -6h-12q-8 0 -14 6l-118 107q-6 5 -6 11t4 10l9 10q6 6 11 6q3 0 9 -4l111 -83l111 83q5 4 10 4t10 -6
l8 -10q5 -7 5 -11z" />
    <glyph glyph-name="scaron" unicode="&#x161;" horiz-adv-x="376" 
d="M346 137q0 -64 -48.5 -105t-128.5 -41q-67 0 -127 30q-9 5 -9 9q0 3 1 5l12 31q2 6 6 6q3 0 5 -1q60 -30 115 -30q51 0 81 23.5t30 64.5q0 32 -21.5 52.5t-62.5 37.5l-60 24q-103 41 -103 121q0 59 46 93.5t114 34.5q64 0 121 -27q8 -3 8 -8q0 -1 -1 -3l-10 -28
q-3 -8 -8 -8q-1 0 -7 2q-48 24 -103 24q-43 0 -68.5 -20t-25.5 -52q0 -30 16.5 -47t53.5 -32l71 -30q103 -43 103 -126zM330 671q0 -5 -6 -10l-118 -107q-6 -6 -14 -6h-12q-8 0 -14 6l-118 107q-6 5 -6 11t4 10l9 10q6 6 11 6q3 0 9 -4l111 -83l111 83q5 4 10 4t10 -6l8 -10
q5 -7 5 -11z" />
    <glyph glyph-name="Ydieresis" unicode="&#x178;" horiz-adv-x="522" 
d="M505 680q0 -3 -5 -15l-200 -401v-249q0 -15 -13 -15h-43q-13 0 -13 16v247l-212 406q-3 6 -3 9q0 9 15 9h33q22 0 30 -16l176 -348h1l168 345q6 13 10.5 16t17.5 3h24q14 0 14 -7zM395 814q0 -20 -14 -32t-32 -12t-33 12t-15 32q0 21 14.5 33t33.5 12t32.5 -12.5
t13.5 -32.5zM223 814q0 -20 -14 -32t-32 -12t-33 12t-15 32q0 21 14.5 33t33.5 12t32.5 -12.5t13.5 -32.5z" />
    <glyph glyph-name="Zcaron" unicode="&#x17d;" horiz-adv-x="511" 
d="M488 13q0 -8 -2.5 -10.5t-11.5 -2.5h-443q-12 0 -12 11v17q0 10 7 22l370 583h-321q-13 0 -16 2t-3 10v30q0 8 2 10t11 2h398q16 0 16 -12v-13q0 -13 -7 -25l-372 -583h369q15 0 15 -11v-30zM425 883q0 -5 -6 -10l-118 -107q-6 -6 -14 -6h-12q-8 0 -14 6l-118 107
q-6 5 -6 11t4 10l9 10q6 6 11 6q3 0 9 -4l111 -83l111 83q5 4 10 4t10 -6l8 -10q5 -7 5 -11z" />
    <glyph glyph-name="zcaron" unicode="&#x17e;" horiz-adv-x="382" 
d="M363 12q0 -12 -10 -12h-318q-14 0 -14 14v15q0 13 9 27l248 379h-225q-13 0 -13 12v23q0 12 13 12h284q15 0 15 -13v-16q0 -9 -8 -22l-254 -384h261q12 0 12 -12v-23zM343 671q0 -5 -6 -10l-118 -107q-6 -6 -14 -6h-12q-8 0 -14 6l-118 107q-6 5 -6 11t4 10l9 10
q6 6 11 6q3 0 9 -4l111 -83l111 83q5 4 10 4t10 -6l8 -10q5 -7 5 -11z" />
    <glyph glyph-name="florin" unicode="&#x192;" horiz-adv-x="540" 
d="M558 677q0 -4 -1 -6l-10 -26q-2 -5 -6 -5q-5 0 -9 2q-27 12 -62 12q-66 0 -96 -55q-15 -27 -28 -97l-24 -127h130q11 0 11 -6q0 -1 -0.5 -2t-0.5 -2l-6 -26q-2 -11 -13 -11h-130l-57 -294q-8 -45 -19 -80q-20 -67 -66.5 -104t-112.5 -37q-39 0 -76 15q-8 3 -8 10q0 4 1 6
l8 25q2 6 8 6q2 0 8 -2q29 -13 61 -13q66 0 97 56q15 27 28 97l61 315h-61q-8 0 -8 5l1 2v3l5 27q1 10 13 10h60l19 106q8 43 19 79q20 67 67 104.5t113 37.5q39 0 76 -15q8 -3 8 -10z" />
    <glyph glyph-name="circumflex" unicode="&#x2c6;" 
d="M300 573q0 -5 -4 -9l-9 -10q-6 -6 -10 -6q-5 0 -10 4l-111 83l-111 -83q-5 -4 -10 -4q-6 0 -10 6l-8 10q-5 7 -5 11t6 10l118 107q8 6 14 6h12q6 0 14 -6l118 -107q6 -5 6 -12z" />
    <glyph glyph-name="caron" unicode="&#x2c7;" 
d="M300 671q0 -5 -6 -10l-118 -107q-6 -6 -14 -6h-12q-8 0 -14 6l-118 107q-6 5 -6 11t4 10l9 10q6 6 11 6q3 0 9 -4l111 -83l111 83q5 4 10 4t10 -6l8 -10q5 -7 5 -11z" />
    <glyph glyph-name="breve" unicode="&#x2d8;" 
d="M282 686q0 -24 -16 -46.5t-39 -35.5q-31 -17 -70 -17q-43 0 -76 19q-22 13 -37.5 35t-15.5 45q0 12 15 12h24q10 0 13.5 -2.5t8.5 -11.5q21 -43 66 -43t66 43q5 9 8.5 11.5t13.5 2.5h24q15 0 15 -12z" />
    <glyph glyph-name="dotaccent" unicode="&#x2d9;" 
d="M216 638q0 -27 -19.5 -44t-43.5 -17q-25 0 -45 16.5t-20 43.5q0 28 19.5 44.5t45.5 16.5q25 0 44 -16.5t19 -43.5z" />
    <glyph glyph-name="ring" unicode="&#x2da;" 
d="M235 618q0 -32 -23.5 -55.5t-56.5 -23.5q-32 0 -56.5 23.5t-24.5 55.5t24.5 56t56.5 24q33 0 56.5 -24t23.5 -56zM187 618q0 14 -9.5 23t-22.5 9q-14 0 -23.5 -9.5t-9.5 -22.5t9.5 -22.5t23.5 -9.5q13 0 22.5 9t9.5 23z" />
    <glyph glyph-name="ogonek" unicode="&#x2db;" 
d="M257 -170q0 -11 -12 -15q-39 -15 -81 -15q-46 0 -70.5 23t-24.5 55q0 73 96 122h54q-89 -67 -89 -111q0 -42 55 -42q27 0 54 9h1l2 1q9 0 10 -7l4 -14q1 -2 1 -6z" />
    <glyph glyph-name="tilde" unicode="&#x2dc;" 
d="M317 656q0 -8 -8 -14q-56 -43 -104 -43q-20 0 -53 17.5t-50 17.5q-18 0 -65 -25q-11 -6 -16 -6q-8 0 -11 10l-8 26q-4 10 -4 11q0 7 14 16q52 32 90 32q22 0 59 -18t50 -18q11 0 62 28q9 5 15 5q9 0 14 -9l10 -18q5 -8 5 -12z" />
    <glyph glyph-name="hungarumlaut" unicode="&#x2dd;" 
d="M387 650q0 -8 -9 -12l-158 -74q-6 -2 -8 -2q-8 0 -12 7l-9 14q-3 6 -3 9q0 7 7 11l147 90q5 4 11 4q8 0 14 -9l17 -27q3 -6 3 -11zM162 650q0 -8 -9 -12l-158 -74q-6 -2 -9 -2q-7 0 -11 7l-9 14q-4 8 -4 9q0 6 8 11l147 90q5 4 11 4q7 0 13 -9l17 -27q4 -8 4 -11z" />
    <glyph glyph-name="endash" unicode="&#x2013;" horiz-adv-x="500" 
d="M500 252q0 -11 -3.5 -15t-13.5 -4h-463q-12 0 -16 3t-4 12v26q0 9 3.5 12t13.5 3h463q13 0 16.5 -3t3.5 -14v-20z" />
    <glyph glyph-name="emdash" unicode="&#x2014;" horiz-adv-x="1000" 
d="M1000 252q0 -11 -3.5 -15t-13.5 -4h-963q-12 0 -16 3t-4 12v26q0 9 3.5 12t13.5 3h963q13 0 16.5 -3t3.5 -14v-20z" />
    <glyph glyph-name="quoteleft" unicode="&#x2018;" 
d="M195 682q0 -3 -5 -8q-31 -31 -31 -62q0 -12 15 -31t15 -32q0 -19 -13 -32t-33 -13q-22 0 -35.5 17.5t-13.5 40.5q0 37 20.5 75.5t50.5 59.5q8 5 12 5q5 0 10 -6l5 -6q3 -3 3 -8z" />
    <glyph glyph-name="quoteright" unicode="&#x2019;" 
d="M212 644q0 -37 -20.5 -75.5t-50.5 -59.5q-8 -5 -12 -5q-5 0 -10 6l-5 6q-3 3 -3 8q0 3 5 8q31 31 31 62q0 12 -15 31t-15 32q0 19 13 32t33 13q22 0 35.5 -17.5t13.5 -40.5z" />
    <glyph glyph-name="quotesinglbase" unicode="&#x201a;" 
d="M212 8q0 -37 -20.5 -75.5t-50.5 -59.5q-8 -5 -12 -5q-5 0 -10 6l-5 6q-3 3 -3 8q0 3 5 8q31 31 31 62q0 12 -15 31t-15 32q0 19 13 32t33 13q22 0 35.5 -17.5t13.5 -40.5z" />
    <glyph glyph-name="quotedblleft" unicode="&#x201c;" horiz-adv-x="320" 
d="M290 682q0 -3 -5 -8q-31 -31 -31 -62q0 -12 15 -31t15 -32q0 -19 -13 -32t-33 -13q-22 0 -35.5 17.5t-13.5 40.5q0 37 20.5 75.5t50.5 59.5q8 5 12 5q6 0 10 -6l5 -6q3 -3 3 -8zM123 682q0 -3 -5 -8q-31 -31 -31 -62q0 -12 15 -31t15 -32q0 -19 -13 -32t-33 -13
q-22 0 -35.5 17.5t-13.5 40.5q0 37 20.5 75.5t50.5 59.5q8 5 12 5q5 0 10 -6l5 -6q3 -3 3 -8z" />
    <glyph glyph-name="quotedblright" unicode="&#x201d;" horiz-adv-x="320" 
d="M299 644q0 -37 -20.5 -75.5t-50.5 -59.5q-8 -5 -12 -5q-6 0 -10 6l-5 6q-3 3 -3 8q0 3 5 8q31 31 31 62q0 12 -15 31t-15 32q0 19 13 32t33 13q22 0 35.5 -17.5t13.5 -40.5zM132 644q0 -37 -20.5 -75.5t-50.5 -59.5q-8 -5 -12 -5q-5 0 -10 6l-5 6q-3 3 -3 8q0 3 5 8
q31 31 31 62q0 12 -15 31t-15 32q0 19 13 32t33 13q22 0 35.5 -17.5t13.5 -40.5z" />
    <glyph glyph-name="quotedblbase" unicode="&#x201e;" horiz-adv-x="320" 
d="M299 8q0 -37 -20.5 -75.5t-50.5 -59.5q-8 -5 -12 -5q-6 0 -10 6l-5 6q-3 3 -3 8q0 3 5 8q31 31 31 62q0 12 -15 31t-15 32q0 19 13 32t33 13q22 0 35.5 -17.5t13.5 -40.5zM132 8q0 -37 -20.5 -75.5t-50.5 -59.5q-8 -5 -12 -5q-5 0 -10 6l-5 6q-3 3 -3 8q0 3 5 8
q31 31 31 62q0 12 -15 31t-15 32q0 19 13 32t33 13q22 0 35.5 -17.5t13.5 -40.5z" />
    <glyph glyph-name="dagger" unicode="&#x2020;" horiz-adv-x="513" 
d="M452 398q0 -13 -16 -13h-1l-148 2l-4 -369q0 -18 -16 -18h-22q-16 0 -16 18l-4 369l-146 -2h-1q-17 0 -17 13v28q0 16 15 16h1l148 -2l-2 229v1q0 17 13 17h37q16 0 16 -16v0l-2 -231l150 2h1q14 0 14 -16v-28z" />
    <glyph glyph-name="daggerdbl" unicode="&#x2021;" horiz-adv-x="513" 
d="M452 451q0 -12 -15 -12h-2l-148 2l-2 -135l132 2h1q15 0 15 -16v-28q0 -13 -17 -13h-1l-130 2l-2 -235q0 -18 -16 -18h-22q-16 0 -16 18l-2 235l-128 -2h-1q-17 0 -17 13v28q0 16 15 16h1l129 -2l-1 135l-146 -2h-2q-16 0 -16 12v28q0 16 15 16h1l148 -2l-2 176v1
q0 17 13 17h37q16 0 16 -15v-1l-2 -178l150 2h1q14 0 14 -16v-28z" />
    <glyph glyph-name="bullet" unicode="&#x2022;" horiz-adv-x="510" 
d="M420 266q0 -65 -49 -111t-118 -46t-118.5 46t-49.5 111t49.5 111.5t118.5 46.5t118 -46.5t49 -111.5z" />
    <glyph glyph-name="ellipsis" unicode="&#x2026;" horiz-adv-x="1000" 
d="M867 37q0 -22 -15.5 -36t-35.5 -14t-37 14t-17 36q0 23 16 36t38 13q21 0 36 -13.5t15 -35.5zM550 37q0 -22 -15.5 -36t-35.5 -14t-36.5 14t-16.5 36q0 23 15.5 36t37.5 13q21 0 36 -13.5t15 -35.5zM234 37q0 -22 -16 -36t-36 -14t-36.5 14t-16.5 36q0 23 15.5 36
t37.5 13q21 0 36.5 -13.5t15.5 -35.5z" />
    <glyph glyph-name="perthousand" unicode="&#x2030;" horiz-adv-x="1000" 
d="M940 142q0 -64 -30 -107.5t-91 -43.5t-92 43t-31 107t32 109t93 45q62 0 90.5 -44t28.5 -109zM318 545q0 -64 -30 -107.5t-91 -43.5t-92 43t-31 107t32 109t93 45q62 0 90.5 -44t28.5 -109zM610 670q0 -6 -4 -11l-461 -662q-4 -7 -11 -7q-5 0 -14 6l-19 13q-6 5 -6 11
q0 7 4 12l460 660q4 7 11 7q6 0 15 -6l17 -10q8 -5 8 -13zM632 142q0 -64 -30 -107.5t-91 -43.5t-92 43t-31 107t32 109t93 45q62 0 90.5 -44t28.5 -109zM890 145q0 42 -17 78.5t-54 36.5q-40 0 -56 -38t-16 -84q0 -44 17 -79t56 -35q27 0 43.5 22.5t21.5 47t5 51.5z
M268 548q0 42 -17 78.5t-54 36.5q-40 0 -56 -38t-16 -84q0 -44 17 -79t56 -35q27 0 43.5 22.5t21.5 47t5 51.5zM582 145q0 42 -17 78.5t-54 36.5q-40 0 -56 -38t-16 -84q0 -44 17 -79t56 -35q27 0 43.5 22.5t21.5 47t5 51.5z" />
    <glyph glyph-name="guilsinglleft" unicode="&#x2039;" horiz-adv-x="291" 
d="M214 373q0 -2 -2 -6l-86 -139l85 -144q2 -4 2 -7q0 -6 -7 -10l-17 -10q-5 -3 -7 -3q-5 0 -11 9l-112 152q-4 5 -4 12q0 8 5 14l111 147q6 7 11 7q4 0 7 -2l20 -11q5 -2 5 -9z" />
    <glyph glyph-name="guilsinglright" unicode="&#x203a;" horiz-adv-x="291" 
d="M236 223q0 -7 -6 -14l-111 -147q-6 -7 -11 -7q-4 0 -7 2l-19 11q-5 3 -5 9q0 2 2 6l85 140l-84 143q-2 4 -2 7q0 6 7 10l16 10q4 3 7 3q5 0 11 -9l112 -152q5 -6 5 -12z" />
    <glyph glyph-name="fraction" unicode="&#x2044;" horiz-adv-x="153" 
d="M308 708q0 -7 -6 -16l-428 -704q-6 -10 -9.5 -13t-13.5 -3h-33q-11 0 -11 11q0 5 3 9l429 705q7 12 13 16t19 4h24q13 0 13 -9z" />
    <glyph glyph-name="Euro" unicode="&#x20ac;" horiz-adv-x="540" 
d="M565 49q0 -7 -11 -13q-88 -45 -190 -45q-120 0 -187 67t-87 182h-85q-10 0 -12.5 3t-2.5 13v21q0 10 4 13.5t13 3.5h76q-2 32 -2 48h-66q-10 0 -12.5 3t-2.5 13v21q0 10 4 13.5t13 3.5h67q8 85 39.5 151t95 108.5t150.5 42.5q102 0 177 -47q10 -6 10 -13q0 -1 -2 -9
l-9 -24q-3 -8 -10 -8q-5 0 -9 3q-69 43 -151 43q-101 0 -153.5 -70t-61.5 -177h277q15 0 15 -11v-2q-1 -2 -1 -3l-5 -24q-2 -10 -4.5 -12t-11.5 -2h-272q0 -16 2 -48h258q15 0 15 -11l-1 -2v-3l-5 -24q-2 -10 -4.5 -12t-11.5 -2h-244q38 -194 207 -194q89 0 162 39q6 3 10 3
q6 0 9 -8l8 -21q2 -4 2 -10z" />
    <glyph glyph-name="trademark" unicode="&#x2122;" horiz-adv-x="568" 
d="M517 420q0 -8 -7 -8h-23q-8 0 -8 9l-4 196l-78 -200q-1 -5 -7 -5h-16q-4 0 -7 6l-85 199l-2 -198q0 -7 -8 -7h-21q-7 0 -7 8l4 259q0 8 7 8h23q8 0 10 -5l95 -221l89 220q3 6 8 6h24q7 0 7 -7l6 -259v-1zM239 680l-2 -17q-1 -7 -10 -7h-72v-235q0 -9 -8 -9h-21q-9 0 -9 9
v235h-73q-7 0 -7 6v18q0 7 6 7h189q7 0 7 -6v-1z" />
    <glyph glyph-name="minus" unicode="&#x2212;" horiz-adv-x="500" 
d="M395 252q0 -11 -3.5 -15t-13.5 -4h-244q-12 0 -16 3t-4 12v26q0 9 3.5 12t13.5 3h244q13 0 16.5 -3t3.5 -14v-20z" />
    <glyph glyph-name="apple" unicode="&#xf8ff;" horiz-adv-x="374" 
d="M376 324q0 -40 -30 -60t-71 -20q-39 0 -83 18q-8 4 -8 10v2q1 2 1 3l10 32q5 9 8 9q2 0 8 -2q40 -16 66 -16q27 0 27 18q0 13 -23 21l-45 17q-51 19 -51 70q0 37 29 56t66 19q43 0 79 -16q7 -3 7 -8q0 -4 -1 -6l-10 -35q-3 -6 -9 -6q-4 0 -5 1q-33 12 -56 12
q-24 0 -24 -16q0 -11 19 -19l50 -20q46 -18 46 -64zM199 517q0 -1 -0.5 -5.5t-0.5 -6.5l-5 -25q0 -10 -7 -10q-4 0 -6 1q-21 7 -35 7q-31 0 -31 -39v-22h50q13 0 13 -11v-29q0 -11 -12 -11h-51v-177q0 -16 -14 -16h-47q-14 0 -14 15v177h-25q-9 0 -11.5 3.5t-2.5 13.5v21
q0 13 11 13h28v17q0 107 93 107q35 0 59 -12q8 -3 8 -11z" />
    <glyph glyph-name="fi" unicode="&#xfb01;" horiz-adv-x="479" 
d="M406 18q0 -18 -16 -18h-32q-15 0 -15 18v417h-188v-417q0 -18 -16 -18h-32q-16 0 -16 18v417h-61q-6 0 -7.5 1.5t-1.5 8.5v27q0 10 11 10h59v14q0 90 36 145q50 76 151 76q67 0 105 -15q10 -4 10 -12v-4l-5 -27q-2 -6 -6 -6q-1 0 -9 2q-44 14 -94 14q-61 0 -91 -40
q-33 -43 -33 -132v-15h235q16 0 16 -18v-446z" />
    <glyph glyph-name="fl" unicode="&#xfb02;" horiz-adv-x="491" 
d="M420 18q0 -18 -16 -18h-32q-15 0 -15 18v640q-40 11 -94 11q-59 0 -85 -37q-23 -33 -23 -132v-18h120q12 0 12 -10v-26q0 -11 -11 -11h-121v-417q0 -18 -16 -18h-32q-16 0 -16 18v417h-61q-6 0 -7.5 1.5t-1.5 8.5v27q0 10 11 10h59v14q0 67 7.5 103t31.5 66q42 52 129 52
q51 0 113 -16l32 8h1h3q12 0 12 -16v-675z" />
    </font>
</defs>
</svg>
