<?xml version="1.0" standalone="no"?>
<!DOCTYPE svg PUBLIC "-//W3C//DTD SVG 1.1//EN" "http://www.w3.org/Graphics/SVG/1.1/DTD/svg11.dtd" >
<svg xmlns="http://www.w3.org/2000/svg" xmlns:xlink="http://www.w3.org/1999/xlink" version="1.1">
<metadata>
Created by FontForge 20170731 at Thu Nov 11 21:52:01 2004
 By Aleksey,,,
Designed &#38; produced by Jason Smith.Copyright Fontsmith 2002      http://www.fontsmith.com
</metadata>
<defs>
<font id="FSAlbert-Italic" horiz-adv-x="323" >
  <font-face 
    font-family="FSAlbert"
    font-weight="400"
    font-style="italic"
    font-stretch="normal"
    units-per-em="1000"
    panose-1="2 0 6 3 4 0 0 9 0 4"
    ascent="770"
    descent="-230"
    x-height="484"
    cap-height="690"
    bbox="-256 -227 1005 913"
    underline-thickness="50"
    underline-position="-200"
    slope="-11"
    unicode-range="U+0020-FB02"
  />
<missing-glyph horiz-adv-x="1000" 
 />
    <glyph glyph-name=".notdef" horiz-adv-x="1000" 
 />
    <glyph glyph-name=".null" horiz-adv-x="0" 
 />
    <glyph glyph-name="nonmarkingreturn" horiz-adv-x="333" 
 />
    <glyph glyph-name="space" unicode=" " horiz-adv-x="230" 
 />
    <glyph glyph-name="exclam" unicode="!" horiz-adv-x="233" 
d="M227 681q0 -1 -0.5 -2.5t-0.5 -2.5l-100 -512q-3 -14 -16 -14h-37q-12 0 -12 10q0 1 0.5 3t0.5 3l81 510q2 14 15 14h57q12 0 12 -9zM123 50q0 -24 -19 -42.5t-43 -18.5q-19 0 -32 11.5t-13 29.5q0 25 19.5 42.5t44.5 17.5q19 0 31 -11t12 -29z" />
    <glyph glyph-name="quotedbl" unicode="&#x22;" horiz-adv-x="319" 
d="M321 693q0 -1 -0.5 -3.5t-0.5 -3.5l-31 -149q-3 -14 -14 -14h-39q-10 0 -10 9v4l23 152q1 14 14 14h48q10 0 10 -9zM189 693q0 -1 -0.5 -3.5t-0.5 -3.5l-30 -149q-3 -14 -15 -14h-39q-10 0 -10 9v4l23 152q1 14 15 14h47q10 0 10 -9z" />
    <glyph glyph-name="numbersign" unicode="#" horiz-adv-x="555" 
d="M581 465l-1 -1v-3l-10 -34q-5 -17 -19 -17h-107l-47 -147h106q9 0 9 -6q0 -4 -1 -6l-9 -33q-5 -17 -19 -17h-108l-61 -186q-5 -15 -19 -15h-47q-11 0 -11 6q0 2 2 8l63 187h-141l-64 -186q-6 -15 -21 -15h-36q-18 0 -18 11q0 4 1 7l61 183h-101q-9 0 -9 6q0 5 1 7l12 38
q4 11 17 11h104l46 147h-104q-9 0 -9 6q0 4 1 6l10 32q5 17 18 17h107l66 207q4 12 15 12h52q9 0 9 -7q0 -4 -1 -7l-66 -205h137l67 206q4 13 16 13h51q9 0 9 -7q0 -5 -1 -8l-65 -204h105q10 0 10 -6zM369 410h-138l-48 -147h138z" />
    <glyph glyph-name="dollar" unicode="$" horiz-adv-x="547" 
d="M513 656q0 -6 -3 -10l-21 -39q-5 -9 -13 -9q-7 0 -13 3q-51 23 -106 28l-42 -237l40 -23q106 -61 106 -150q0 -20 -2 -31q-13 -81 -72 -132.5t-142 -63.5l-14 -77q-1 -7 -2 -10t-4.5 -5t-9.5 -2h-18q-13 0 -13 10q0 1 0.5 2.5t0.5 2.5l13 76q-15 0 -55 4q-56 6 -104 24
q-12 4 -12 13q0 2 1 6q2 2 2 4l18 45q4 10 14 10q5 0 8 -1q63 -19 77 -22q29 -6 65 -6l46 259l-70 41q-82 48 -82 130q0 15 3 31q13 74 74 120.5t141 53.5l15 82q2 12 13 12h21q11 0 11 -8v-5l-14 -80q67 -3 132 -32q11 -5 11 -14zM311 628q-49 -7 -81.5 -37.5t-32.5 -77.5
q0 -50 51 -82l26 -16zM375 200q0 53 -58 91l-17 11l-41 -231q45 9 76 37t38 70q2 14 2 22z" />
    <glyph glyph-name="percent" unicode="%" horiz-adv-x="857" 
d="M422 592q0 -75 -41 -136.5t-113 -61.5q-50 0 -76 30t-26 81q0 75 43 135.5t115 60.5q49 0 73.5 -29.5t24.5 -79.5zM751 670q0 -4 -5 -11l-586 -665q-4 -6 -11 -6t-13 6l-22 20q-5 4 -5 10q0 5 7 14l581 660q8 8 13 8q4 0 12 -6l23 -19q6 -5 6 -11zM693 187
q0 -76 -40.5 -137t-112.5 -61q-50 0 -76.5 29.5t-26.5 80.5q0 75 43 136t115 61q49 0 73.5 -29.5t24.5 -79.5zM358 587q0 63 -45 63q-29 0 -49 -27.5t-27 -59.5t-7 -61q0 -57 48 -57q28 0 47.5 27t26 57.5t6.5 57.5zM629 182q0 63 -44 63q-29 0 -49 -27.5t-27 -59.5t-7 -61
q0 -57 48 -57q40 0 59.5 47.5t19.5 94.5z" />
    <glyph glyph-name="ampersand" unicode="&#x26;" horiz-adv-x="658" 
d="M645 413q-18 -86 -72 -177q-36 -58 -76 -100q43 -54 116 -80q14 -5 5 -20l-17 -35q-4 -10 -15 -10q-6 0 -18 3q-38 9 -74.5 33.5t-58.5 53.5q-105 -92 -238 -92q-76 0 -127.5 43t-51.5 116q0 36 13 69t29.5 55.5t49 49t52 40t57.5 37.5l-28 45q-31 50 -31 93
q0 70 56.5 117.5t127.5 47.5q56 0 93.5 -30t37.5 -82q0 -60 -42 -106.5t-109 -89.5l135 -208q34 37 67.5 98t50.5 126q2 9 5.5 12t11.5 3h39q15 0 12 -12zM400 578q0 28 -17.5 45t-46.5 17q-36 0 -63.5 -26.5t-27.5 -62.5t27 -77l20 -31q108 71 108 135zM396 130l-144 221
q-64 -41 -105.5 -85.5t-41.5 -100.5q0 -49 31.5 -77t78.5 -28q48 0 97 19.5t84 50.5z" />
    <glyph glyph-name="quotesingle" unicode="'" horiz-adv-x="319" 
d="M259 694q0 -1 -0.5 -3t-0.5 -3l-31 -151q-3 -14 -14 -14h-39q-10 0 -10 8q0 1 0.5 3t0.5 4l22 150q1 14 14 14h48q10 0 10 -8z" />
    <glyph glyph-name="parenleft" unicode="(" horiz-adv-x="319" 
d="M335 689q0 -6 -5 -11q-204 -238 -204 -493q0 -142 68 -269q2 -3 2 -8q0 -8 -9 -12l-29 -17q-8 -4 -12 -4q-7 0 -11 7q-87 153 -87 308q0 265 233 519q7 9 15 9q2 0 6 -2l29 -20q4 -3 4 -7z" />
    <glyph glyph-name="parenright" unicode=")" horiz-adv-x="319" 
d="M271 404q0 -264 -235 -520q-6 -8 -12 -8q-2 0 -6 2l-30 21q-4 3 -4 7t4 10q206 240 206 498q0 129 -68 267q-2 4 -2 7q0 6 9 11l31 16q5 3 10 3q7 0 11 -8q86 -153 86 -306z" />
    <glyph glyph-name="asterisk" unicode="*" horiz-adv-x="336" 
d="M305 592q0 -10 -17 -13l-96 -14l59 -75q3 -5 3 -8q0 -7 -11 -13l-34 -22q-5 -3 -9 -3q-6 0 -9 10l-27 95l-59 -96q-6 -11 -13 -11q-3 0 -6 3l-29 26q-4 3 -4 7q0 5 9 14l80 73l-95 12q-9 1 -9 10q0 4 1 6l19 41q4 10 12 10q2 0 6 -2l82 -48l1 101q0 7 0.5 10t4 5.5
t10.5 2.5h35q15 0 15 -7q0 -4 -1 -6l-37 -106l98 48q4 3 8 3q7 0 8 -11l5 -38v-4z" />
    <glyph glyph-name="plus" unicode="+" horiz-adv-x="505" 
d="M466 287q0 -1 -0.5 -3t-0.5 -3l-6 -35q-3 -19 -20 -19h-152l-30 -170q-2 -17 -20 -17h-43q-14 0 -14 11q0 1 0.5 3t0.5 3l30 170h-152q-16 0 -16 11q0 1 0.5 3t0.5 3l7 37q3 17 19 17h153l30 169q4 18 20 18h41q17 0 17 -12q0 -1 -0.5 -3t-0.5 -3l-30 -169h149
q17 0 17 -11z" />
    <glyph glyph-name="comma" unicode="," horiz-adv-x="204" 
d="M175 48q0 -42 -30 -89q-31 -50 -83 -85q-8 -6 -14 -6q-4 0 -9 7l-6 9q-1 2 -1 6q0 6 7 11q18 15 34.5 38t16.5 40q0 13 -12.5 34t-12.5 33q0 26 17 41.5t41 15.5q22 0 37 -15.5t15 -39.5z" />
    <glyph glyph-name="hyphen" unicode="-" horiz-adv-x="277" 
d="M236 284l-7 -43q-3 -18 -22 -18h-149q-16 0 -16 14q0 6 1 10l7 37q3 17 20 17h148q18 0 18 -12v-5z" />
    <glyph glyph-name="period" unicode="." horiz-adv-x="206" 
d="M164 51q0 -25 -20 -44t-45 -19q-19 0 -32.5 12t-13.5 31q0 26 19.5 44t45.5 18q19 0 32.5 -11.5t13.5 -30.5z" />
    <glyph glyph-name="slash" unicode="/" horiz-adv-x="319" 
d="M366 696q0 -5 -4 -13l-318 -678q-7 -16 -23 -16h-47q-10 0 -10 7q0 3 4 11l320 679q8 16 23 16h45q10 0 10 -6z" />
    <glyph glyph-name="zero" unicode="0" horiz-adv-x="547" 
d="M516 467q0 -56 -10.5 -117.5t-34.5 -126.5t-58 -116.5t-86.5 -84.5t-115.5 -33q-50 0 -86 20t-55 54.5t-28 74.5t-9 87q0 55 10.5 117t35 126.5t59 116t87.5 84.5t115 33q50 0 85.5 -19.5t54.5 -54.5t27.5 -74.5t8.5 -86.5zM423 463q0 163 -97 163q-52 0 -93.5 -45
t-63.5 -111t-33 -129t-11 -112q0 -163 100 -163q51 0 91.5 44.5t62.5 110t33 129t11 113.5z" />
    <glyph glyph-name="one" unicode="1" horiz-adv-x="547" 
d="M425 669l-115 -648q-4 -21 -25 -21h-43q-19 0 -19 14q0 5 1 8l101 573l-162 -91q-6 -3 -10 -3q-8 0 -12 10l-12 33q-1 2 -1 6q0 8 14 17l198 114q17 9 38 9h32q15 0 15 -16v-5z" />
    <glyph glyph-name="two" unicode="2" horiz-adv-x="547" 
d="M514 555q0 -39 -17.5 -82.5t-40 -77t-61.5 -75t-63.5 -64t-63.5 -56.5q-6 -5 -146 -126h289q17 0 17 -11v-5l-6 -38q-3 -20 -25 -20h-375q-18 0 -18 12q0 1 0.5 3t0.5 4l6 36q2 17 17 30q13 12 102.5 88.5t133.5 118.5q30 29 51 51.5t49 57.5t43.5 69.5t15.5 64.5
q0 43 -29 67.5t-76 24.5q-53 0 -115 -27q-6 -2 -18 -8t-18 -8t-8 -2q-8 0 -11 10l-11 36q-1 2 -1 6q0 10 14 18q88 50 191 50q76 0 124.5 -39t48.5 -108z" />
    <glyph glyph-name="three" unicode="3" horiz-adv-x="547" 
d="M485 562q0 -64 -39.5 -117.5t-101.5 -69.5v-1q48 -11 78.5 -51t30.5 -94q0 -70 -41 -126.5t-101 -85t-123 -28.5q-98 0 -160 35q-9 4 -9 13q0 3 2 7l20 39q5 11 13 11q4 0 14 -5q57 -26 121 -26q65 0 120 50.5t55 115.5q0 55 -41.5 82t-104.5 27h-21q-13 0 -13 12v5l5 34
q3 16 20 16h24q81 0 124 43q38 38 38 99q0 40 -28.5 62t-75.5 22q-57 0 -130 -33q-6 -3 -10 -3q-6 0 -9 10l-9 36q0 1 -1 3v1q0 9 14 16q76 41 171 41q74 0 121 -37t47 -103z" />
    <glyph glyph-name="four" unicode="4" horiz-adv-x="547" 
d="M484 406q0 -6 -1 -10l-67 -379q-3 -17 -21 -17h-50q-15 0 -15 14v5l25 141h-323q-17 0 -17 14q0 1 0.5 3.5t0.5 3.5l4 22q4 23 19 47l263 422q11 18 28 18h51q11 0 11 -8q0 -9 -6 -17l-266 -431h248l29 165q2 17 22 17h49q16 0 16 -10z" />
    <glyph glyph-name="five" unicode="5" horiz-adv-x="547" 
d="M515 673l-6 -36q-3 -22 -23 -22h-238l-34 -189h33q98 0 161 -42.5t63 -125.5q0 -120 -80.5 -194.5t-203.5 -74.5q-85 0 -154 40q-9 5 -9 13q0 4 3 10l19 35q6 12 15 12q2 0 12 -4q60 -32 130 -32q79 0 128 53.5t49 131.5q0 111 -177 111h-62q-21 0 -21 20q0 1 0.5 3.5
t0.5 4.5l50 280q4 23 25 23h301q18 0 18 -14v-3z" />
    <glyph glyph-name="six" unicode="6" horiz-adv-x="547" 
d="M500 679q0 -3 -2 -9l-13 -38q-4 -13 -15 -13q-4 0 -6 1q-35 8 -69 8q-90 0 -158 -93q-51 -68 -75 -161q32 28 77 43t82 15q73 0 115.5 -40.5t42.5 -114.5q0 -55 -22 -111t-59 -97q-73 -80 -176 -80q-93 0 -136.5 56t-43.5 150q0 106 43 224.5t111 189.5q90 93 209 93
q45 0 84 -11q11 -3 11 -12zM387 257q0 46 -22.5 75t-69.5 29q-79 0 -152 -64q-12 -52 -12 -99q0 -137 103 -137q67 0 110 63t43 133z" />
    <glyph glyph-name="seven" unicode="7" horiz-adv-x="547" 
d="M550 669l-4 -27q-2 -17 -18 -43l-366 -581q-11 -18 -33 -18h-59q-11 0 -11 11q0 7 5 15l377 588h-295q-16 0 -16 13q0 1 0.5 2.5t0.5 2.5l8 42q4 16 20 16h375q16 0 16 -16v-5z" />
    <glyph glyph-name="eight" unicode="8" horiz-adv-x="547" 
d="M501 565q0 -114 -150 -191q59 -28 90.5 -69t31.5 -89q0 -81 -64 -147q-78 -80 -202 -80q-82 0 -136 39.5t-54 115.5q0 77 52 134t130 91q-92 48 -92 139q0 77 60 132q67 62 170 62q71 0 117.5 -35.5t46.5 -101.5zM411 552q0 38 -24.5 59.5t-65.5 21.5q-50 0 -87.5 -32
t-37.5 -82q0 -67 89 -115q28 15 46 26.5t38.5 30t31 41.5t10.5 50zM382 208q0 76 -117 129q-70 -34 -113 -74t-43 -101q0 -49 33 -76t80 -27q65 0 112.5 42.5t47.5 106.5z" />
    <glyph glyph-name="nine" unicode="9" horiz-adv-x="547" 
d="M507 497q0 -106 -42.5 -224.5t-111.5 -190.5q-90 -93 -207 -93q-43 0 -86 12q-11 3 -11 13q0 3 2 9l13 38q4 12 16 12q1 0 2.5 -0.5t2.5 -0.5q44 -10 69 -10q88 0 157 94q52 70 76 162q-32 -28 -77 -43.5t-82 -15.5q-72 0 -115 41t-43 116q0 111 73.5 198.5t183.5 87.5
q180 0 180 -205zM418 494q0 136 -103 136q-67 0 -110 -62.5t-43 -133.5q0 -45 22.5 -74t69.5 -29q80 0 152 63q12 52 12 100z" />
    <glyph glyph-name="colon" unicode=":" horiz-adv-x="235" 
d="M220 450q0 -25 -19.5 -43.5t-44.5 -18.5q-19 0 -32.5 12t-13.5 31q0 26 19.5 44.5t45.5 18.5q19 0 32 -12.5t13 -31.5zM151 54q0 -25 -20 -44t-45 -19q-19 0 -32.5 12t-13.5 31q0 26 19.5 43.5t45.5 17.5q20 0 33 -11t13 -30z" />
    <glyph glyph-name="semicolon" unicode=";" horiz-adv-x="247" 
d="M236 450q0 -25 -19.5 -43.5t-44.5 -18.5q-19 0 -33 12t-14 31q0 26 19.5 44.5t45.5 18.5q19 0 32.5 -12.5t13.5 -31.5zM167 48q0 -42 -30 -89q-31 -50 -83 -85q-8 -6 -14 -6q-4 0 -9 7l-6 9q-1 2 -1 6q0 6 7 11q18 15 34.5 38t16.5 40q0 13 -12.5 34t-12.5 33
q0 26 17 41.5t41 15.5q22 0 37 -15.5t15 -39.5z" />
    <glyph glyph-name="less" unicode="&#x3c;" horiz-adv-x="505" 
d="M440 499q0 -7 -9 -13l-243 -148l190 -147q6 -5 6 -11q0 -4 -3 -8l-35 -44q-8 -9 -13 -9t-10 4l-236 185q-8 6 -8 15q0 1 0.5 2.5t0.5 2.5l4 18q2 10 15 19l304 185q4 3 8 3q6 0 10 -8l18 -40q1 -2 1 -6z" />
    <glyph glyph-name="equal" unicode="=" horiz-adv-x="505" 
d="M435 386q0 -1 -0.5 -3t-0.5 -3l-6 -34q-3 -18 -20 -18h-293q-15 0 -15 12q0 1 0.5 2.5t0.5 2.5l7 36q3 16 19 16h292q16 0 16 -11zM403 205q0 -1 -0.5 -3t-0.5 -3l-6 -34q-3 -18 -20 -18h-293q-15 0 -15 12q0 1 0.5 2.5t0.5 2.5l7 36q3 16 19 16h292q16 0 16 -11z" />
    <glyph glyph-name="greater" unicode="&#x3e;" horiz-adv-x="505" 
d="M422 351q0 -1 -0.5 -3t-0.5 -3l-3 -18q-2 -11 -15 -19l-302 -184q-8 -4 -11 -4q-6 0 -11 9l-17 38q-2 4 -2 7q0 6 10 13l244 148l-186 142q-7 4 -7 13q0 6 4 11l29 43q7 10 15 10q6 0 13 -5l233 -184q7 -5 7 -14z" />
    <glyph glyph-name="question" unicode="?" horiz-adv-x="419" 
d="M420 574q0 -89 -78 -160l-77 -70q-24 -21 -35.5 -32.5t-25 -31t-21.5 -41.5q-7 -21 -12 -45q0 -2 -0.5 -5t-1 -4.5t-1.5 -3.5t-3.5 -2.5t-5.5 -0.5h-43q-12 0 -12 15q0 92 98 180l81 74q57 51 57 111q0 39 -26.5 58.5t-66.5 19.5q-47 0 -111 -31q-13 -7 -16 5l-11 35
q-3 11 12 19q71 38 150 38q63 0 106 -34t43 -94zM166 49q0 -24 -19 -42t-43 -18q-19 0 -32 11.5t-13 29.5q0 25 18.5 42.5t43.5 17.5q19 0 32 -11t13 -30z" />
    <glyph glyph-name="at" unicode="@" horiz-adv-x="812" 
d="M777 457q0 -66 -29 -136t-85 -121t-123 -51q-33 0 -54.5 16t-21.5 47q0 6 2 22h-1q-57 -74 -129 -74q-40 0 -62.5 25t-22.5 72q0 57 28 117.5t79.5 103.5t109.5 43q25 0 47 -15t24 -45h1l12 31q5 14 16 14h32q8 0 8 -6q0 -4 -1 -6l-77 -191q-11 -28 -15 -47
q-4 -18 -4 -28q0 -39 38 -39q50 0 91 46t60.5 104.5t19.5 107.5q0 95 -61 146.5t-160 51.5q-150 0 -261 -120t-111 -271q0 -103 65 -157.5t171 -54.5q74 0 173 37q2 1 5 1q6 0 7 -7l6 -26v-3l1 -1q0 -5 -11 -10q-89 -44 -198 -44q-131 0 -216.5 67.5t-85.5 190.5
q0 118 65.5 224t173 168.5t225.5 62.5q119 0 194 -65t75 -180zM515 415q0 54 -49 54q-54 0 -98.5 -68t-44.5 -127q0 -56 43 -56q26 0 55 22.5t47 50.5z" />
    <glyph glyph-name="A" unicode="A" horiz-adv-x="604" 
d="M533 16q0 -16 -14 -16h-64q-18 0 -20 16l-31 182h-263l-97 -184q-8 -14 -21 -14h-61q-9 0 -9 7q0 4 3 10l358 658q8 15 23 15h53q14 0 18 -14l125 -655v-5zM393 266l-39 238q-1 7 -6 42.5t-6 40.5h-1q-4 -10 -41 -84l-124 -237h217z" />
    <glyph glyph-name="B" unicode="B" horiz-adv-x="567" 
d="M503 556q0 -81 -55 -134q-41 -41 -92 -51v-1q63 -4 102.5 -41t39.5 -99q0 -44 -18 -87.5t-49 -73.5q-73 -69 -226 -69h-165q-18 0 -18 14q0 1 0.5 3t0.5 4l114 648q4 21 26 21h139q92 0 146.5 -32.5t54.5 -101.5zM413 546q0 45 -33.5 60t-93.5 15h-69l-40 -226h62
q95 0 139 51q35 40 35 100zM406 227q0 54 -41 79q-39 24 -115 24h-84l-47 -260h88q87 0 132 29q31 20 49 54.5t18 73.5z" />
    <glyph glyph-name="C" unicode="C" horiz-adv-x="572" 
d="M596 649q0 -3 -3 -8l-24 -46q-5 -8 -10 -8t-13 5q-60 35 -133 35q-65 0 -119 -33.5t-87.5 -87t-52 -115.5t-18.5 -123q0 -91 43 -147.5t133 -56.5q69 0 148 33q9 3 14 3q9 0 11 -8l9 -42v-3q0 -10 -16 -17q-88 -41 -191 -41q-121 0 -185.5 71t-64.5 193q0 111 44.5 212
t133.5 169t202 68q104 0 171 -43q8 -5 8 -10z" />
    <glyph glyph-name="D" unicode="D" horiz-adv-x="660" 
d="M623 429q0 -95 -32.5 -179t-86.5 -142q-101 -108 -295 -108h-168q-20 0 -20 15q0 1 0.5 3t0.5 4l114 645q2 13 7.5 18t19.5 5h126q170 0 243 -51q41 -29 66 -86t25 -124zM526 417q0 100 -50 149q-55 52 -169 52h-91l-95 -546h69q134 0 200 49q63 47 99.5 129.5
t36.5 166.5z" />
    <glyph glyph-name="E" unicode="E" horiz-adv-x="506" 
d="M512 680q0 -3 -1 -5l-12 -43q-3 -14 -25 -14h-263l-40 -224h235q16 0 16 -12v-4l-7 -39q-3 -17 -20 -17h-236l-45 -249h275q15 0 15 -12v-4l-7 -40q-3 -17 -20 -17h-344q-18 0 -18 12q0 5 1 8l115 650q3 20 23 20h345q13 0 13 -10z" />
    <glyph glyph-name="F" unicode="F" horiz-adv-x="492" 
d="M518 680q0 -3 -1 -5l-12 -43q-3 -14 -25 -14h-263l-40 -224h235q16 0 16 -12v-4l-7 -39q-3 -17 -20 -17h-236l-54 -302q-4 -20 -22 -20h-50q-18 0 -18 12q0 5 1 8l115 650q3 20 23 20h345q13 0 13 -10z" />
    <glyph glyph-name="G" unicode="G" horiz-adv-x="644" 
d="M600 651q0 -4 -3 -10l-23 -41q-6 -10 -13 -10q-5 0 -9 3q-61 34 -135 34q-102 0 -178 -79q-89 -93 -103 -239q-2 -30 -2 -43q0 -94 43.5 -148t129.5 -54q72 0 134 26l41 232h-103q-14 0 -14 12v4l8 41q3 15 18 15h175q16 0 16 -11q0 -1 -0.5 -3t-0.5 -3l-54 -309
q-2 -14 -8 -21t-22 -14q-94 -44 -209 -44q-124 0 -187.5 70.5t-63.5 192.5q0 27 3 54q16 161 123.5 278.5t260.5 117.5q98 0 169 -40q7 -4 7 -11z" />
    <glyph glyph-name="H" unicode="H" horiz-adv-x="658" 
d="M638 677q0 -1 -0.5 -2.5t-0.5 -2.5l-116 -654q-3 -18 -19 -18h-55q-16 0 -16 12q0 1 0.5 3t0.5 3l54 304h-321l-54 -304q-3 -18 -21 -18h-54q-16 0 -16 13q0 1 0.5 2.5t0.5 2.5l116 654q3 18 21 18h54q15 0 15 -12q0 -1 -0.5 -3t-0.5 -3l-49 -278h322l49 279q3 17 21 17
h54q15 0 15 -13z" />
    <glyph glyph-name="I" unicode="I" horiz-adv-x="374" 
d="M365 677l-6 -31q-3 -15 -17 -15h-63l-101 -572h65q11 0 11 -10v-4l-5 -31q-2 -14 -15 -14h-214q-11 0 -11 10v3l6 33q3 13 16 13h59l100 572h-62q-12 0 -12 10v4l6 31q4 14 15 14h215q13 0 13 -10v-3z" />
    <glyph glyph-name="J" unicode="J" horiz-adv-x="383" 
d="M361 674l-78 -445q-26 -149 -95 -200q-52 -39 -138 -39q-18 0 -54 6q-10 1 -10 9q0 2 2 10l11 37q3 11 14 11h4q27 -5 47 -5q57 0 86 35q27 34 41 112l74 426h-115q-12 0 -12 11v4l5 30q3 14 17 14h188q13 0 13 -12v-4z" />
    <glyph glyph-name="K" unicode="K" horiz-adv-x="536" 
d="M558 682q0 -6 -4 -10l-306 -315l219 -336q4 -8 4 -12q0 -9 -12 -9h-70q-20 0 -32 19l-191 301h-1l-53 -301q-3 -19 -21 -19h-54q-15 0 -15 12q0 1 0.5 3t0.5 4l115 653q3 18 21 18h54q15 0 15 -12q0 -1 -0.5 -3t-0.5 -3l-52 -297h1l289 303q12 12 28 12h55q10 0 10 -8z
" />
    <glyph glyph-name="L" unicode="L" horiz-adv-x="455" 
d="M388 58l-8 -42q-3 -16 -19 -16h-325q-15 0 -15 12q0 5 1 8l115 652q3 18 19 18h57q14 0 14 -12q0 -1 -0.5 -3t-0.5 -4l-105 -597h253q14 0 14 -11v-5z" />
    <glyph glyph-name="M" unicode="M" horiz-adv-x="839" 
d="M790 674l-88 -655q-3 -19 -20 -19h-56q-14 0 -14 13q0 6 1 10l66 479h-1l-281 -489q-7 -13 -22 -13h-25q-15 0 -19 14l-125 488h-2l-97 -485q-3 -17 -20 -17h-50q-15 0 -15 10q0 4 1 7l138 652q4 21 22 21h39q17 0 21 -17l144 -546h2l321 547q9 16 25 16h42q13 0 13 -12
v-4z" />
    <glyph glyph-name="N" unicode="N" horiz-adv-x="692" 
d="M671 678q0 -1 -0.5 -3.5t-0.5 -3.5l-115 -652q-4 -19 -20 -19h-45q-16 0 -25 17l-265 516h-2l-90 -514q-3 -19 -22 -19h-48q-17 0 -17 12q0 1 0.5 3t0.5 3l115 653q3 19 22 19h44q15 0 22 -14l267 -518h1l91 514q3 18 21 18h52q14 0 14 -12z" />
    <glyph glyph-name="O" unicode="O" horiz-adv-x="662" 
d="M625 448q0 -63 -14.5 -127.5t-45 -124t-72.5 -106t-102 -74t-129 -27.5q-112 0 -168.5 68t-56.5 184q0 94 32 187.5t92 161.5q99 112 239 112q113 0 169 -69t56 -185zM529 445q0 181 -142 181q-63 0 -113.5 -38.5t-79.5 -97.5t-44.5 -122.5t-15.5 -121.5q0 -83 34 -132
t108 -49q64 0 114.5 38t79.5 97t44 122.5t15 122.5z" />
    <glyph glyph-name="P" unicode="P" horiz-adv-x="522" 
d="M514 524q0 -89 -58 -162q-83 -103 -232 -103q-60 0 -71 1l-43 -242q-3 -18 -22 -18h-53q-14 0 -14 14q0 1 1 4.5t1 4.5l114 648q3 19 21 19h129q227 0 227 -166zM422 524q0 58 -37.5 77t-106.5 19h-61l-51 -291h62q95 0 147 60q47 55 47 135z" />
    <glyph glyph-name="Q" unicode="Q" horiz-adv-x="662" 
d="M625 448q0 -130 -58.5 -251.5t-163.5 -173.5q18 -8 80 -45q39 -24 71 -35q8 -3 8 -9q0 -4 -1 -6l-17 -38q-6 -14 -17 -14q-5 0 -8 1q-57 13 -132 73q-30 23 -48.5 32t-44.5 9q-5 0 -15.5 -1t-16.5 -1q-112 0 -168.5 68t-56.5 184q0 94 32 187.5t92 161.5q99 112 239 112
q113 0 169 -69t56 -185zM528 445q0 181 -141 181q-63 0 -113.5 -38.5t-79.5 -97.5t-44.5 -122.5t-15.5 -121.5q0 -83 34 -132t108 -49q64 0 114.5 38t79 97t43.5 122.5t15 122.5z" />
    <glyph glyph-name="R" unicode="R" horiz-adv-x="547" 
d="M519 532q0 -106 -72 -178q-43 -43 -107 -62l117 -273q1 -2 1 -6q0 -13 -12 -13h-62q-19 0 -25 15l-105 262h-98l-46 -260q-3 -17 -18 -17h-58q-14 0 -14 12q0 1 0.5 2.5t0.5 2.5l116 653q2 12 6.5 16t15.5 4h139q150 0 197 -71q24 -36 24 -87zM426 521q0 55 -36 78
t-105 23h-68l-49 -277h82q82 0 131 52q45 48 45 124z" />
    <glyph glyph-name="S" unicode="S" horiz-adv-x="503" 
d="M494 659q0 -5 -3 -12l-18 -40q-4 -10 -11 -10q-4 0 -11 3q-61 27 -127 27q-55 0 -98 -30t-43 -82q0 -50 62 -87l97 -58q50 -29 76 -63.5t26 -86.5q0 -99 -77 -166q-76 -65 -188 -65q-83 0 -160 28q-11 4 -11 12q0 3 4 13l18 43q6 12 15 12q2 0 10 -2q69 -28 137 -28
q62 0 107 32q51 38 51 99v1q0 56 -67 96l-114 68q-82 50 -82 135q0 90 75 147t168 57q86 0 154 -31q10 -4 10 -12z" />
    <glyph glyph-name="T" unicode="T" horiz-adv-x="538" 
d="M583 679l-1 -1v-3l-12 -43q-4 -14 -26 -14h-188l-106 -602q-3 -16 -18 -16h-59q-14 0 -14 9q0 1 0.5 3t0.5 4l106 602h-192q-14 0 -14 10q0 1 0.5 3t0.5 3l7 41q3 15 18 15h481q16 0 16 -11z" />
    <glyph glyph-name="U" unicode="U" horiz-adv-x="693" 
d="M675 676q0 -5 -1 -8l-65 -366q-28 -158 -112 -237q-81 -76 -212 -76q-224 0 -224 198q0 56 11 120l64 365q3 18 22 18h51q16 0 16 -14q0 -6 -1 -10l-61 -349q-12 -70 -12 -110q0 -72 34 -107t115 -35q45 0 81 14.5t59 36.5t40 57t26.5 68t17.5 76l63 356q3 17 19 17h57
q12 0 12 -14z" />
    <glyph glyph-name="V" unicode="V" horiz-adv-x="611" 
d="M646 681q0 -5 -3 -10l-342 -655q-9 -16 -24 -16h-53q-16 0 -19 18l-119 650q0 1 -0.5 3t-0.5 3q0 16 16 16h61q20 0 23 -16l91 -551h2l277 549q9 18 30 18h49q12 0 12 -9z" />
    <glyph glyph-name="W" unicode="W" horiz-adv-x="890" 
d="M926 681q0 -3 -2 -9l-299 -654q-9 -18 -25 -18h-52q-17 0 -18 18l-45 528h-2l-233 -527q-8 -19 -26 -19h-51q-16 0 -18 21l-69 648v3q0 18 17 18h60q21 0 22 -18l45 -538h1l236 540q7 16 25 16h43q17 0 18 -15l46 -541h1l236 539q8 17 26 17h55q9 0 9 -9z" />
    <glyph glyph-name="X" unicode="X" horiz-adv-x="564" 
d="M581 683q0 -7 -5 -12l-242 -306l146 -344q2 -6 2 -8q0 -13 -16 -13h-63q-21 0 -28 17l-106 268h-1l-200 -267q-13 -18 -34 -18h-54q-12 0 -12 7q0 5 7 14l260 336l-130 313q-1 2 -1 7q0 13 12 13h66q17 0 23 -16l96 -239h1l181 240q11 15 28 15h60q10 0 10 -7z" />
    <glyph glyph-name="Y" unicode="Y" horiz-adv-x="551" 
d="M587 683q0 -6 -4 -11l-269 -395l-46 -259q-3 -18 -20 -18h-54q-16 0 -16 13q0 1 0.5 3t0.5 3l45 254l-139 398q-1 2 -1 5q0 14 16 14h58q22 0 26 -15l102 -324h1l210 322q12 17 29 17h50q11 0 11 -7z" />
    <glyph glyph-name="Z" unicode="Z" horiz-adv-x="545" 
d="M564 674l-3 -18q-3 -15 -16 -31l-448 -551v-1h350q15 0 15 -12q0 -1 -0.5 -3t-0.5 -3l-7 -38q-3 -17 -19 -17h-452q-12 0 -12 11v4l3 22q1 9 13 24l448 555v2h-310q-15 0 -15 11v5l7 42q3 14 18 14h415q14 0 14 -12v-4z" />
    <glyph glyph-name="bracketleft" unicode="[" horiz-adv-x="315" 
d="M361 686l-6 -33q-2 -9 -6 -12.5t-14 -3.5h-102l-126 -717h101q11 0 14 -2.5t1 -11.5l-6 -34q-2 -9 -5.5 -12t-14.5 -3h-165q-12 0 -15 4t-1 16l142 804q2 13 7 17t16 4h164q12 0 15 -3t1 -13z" />
    <glyph glyph-name="backslash" unicode="\" horiz-adv-x="341" 
d="M267 6q4 -19 -12 -19h-45q-9 0 -12.5 3.5t-5.5 12.5l-115 684q-4 18 13 18h45q10 0 14 -3t5 -12z" />
    <glyph glyph-name="bracketright" unicode="]" horiz-adv-x="315" 
d="M299 681l-142 -804q-2 -13 -6.5 -16.5t-15.5 -3.5h-164q-12 0 -15 2.5t-1 12.5l6 34q2 9 5.5 12t13.5 3h102l127 717h-102q-11 0 -13.5 2.5t-0.5 11.5l6 34q2 9 5.5 12.5t14.5 3.5h165q11 0 14 -4t1 -17z" />
    <glyph glyph-name="asciicircum" unicode="^" horiz-adv-x="525" 
d="M450 395q5 -12 -7 -19l-40 -19q-14 -6 -20 6l-98 228l-179 -224q-13 -17 -24 -7l-32 27q-11 10 2 24l219 265q10 13 21 13h17q11 0 16 -12z" />
    <glyph glyph-name="underscore" unicode="_" horiz-adv-x="497" 
d="M492 -97l-3 -18q-3 -15 -17 -15h-455q-9 0 -11.5 3t-1.5 10l3 22q1 11 17 11h454q10 0 13 -2.5t1 -10.5z" />
    <glyph glyph-name="grave" unicode="`" 
d="M246 590q0 -3 -4 -9l-13 -17q-5 -6 -10 -6q-2 0 -10 4l-130 81q-7 4 -7 11q0 3 4 9l26 32q7 8 13 8q4 0 11 -5l113 -97q7 -7 7 -11z" />
    <glyph glyph-name="a" unicode="a" horiz-adv-x="543" 
d="M508 67l-3 -30q-2 -14 -15 -20q-1 0 -7.5 -3.5t-12.5 -6t-15 -5.5t-20 -5t-22 -2q-30 0 -44 17q-11 15 -11 41q0 5 2 19h-2q-27 -36 -70 -59.5t-94 -23.5q-80 0 -120 53.5t-40 136.5q0 62 24 125.5t68 110.5q75 80 180 80q90 0 181 -48q13 -7 10 -22l-54 -300
q-5 -23 -5 -41q0 -24 15 -24q18 0 43 14q4 3 8.5 1t3.5 -8zM409 399q-43 29 -101 29q-67 0 -115 -53q-34 -37 -52.5 -91t-18.5 -105q0 -55 25 -87t71 -32q47 0 86.5 28.5t60.5 68.5z" />
    <glyph glyph-name="b" unicode="b" horiz-adv-x="533" 
d="M499 317q0 -85 -31 -158t-96.5 -121.5t-153.5 -48.5q-91 0 -170 35q-13 5 -13 23q0 8 1 12l110 625q3 17 19 20l50 7h4q13 0 13 -12q0 -1 -0.5 -3t-0.5 -3l-46 -259q69 61 154 61q77 0 118.5 -49.5t41.5 -128.5zM412 309q0 54 -25 85t-75 31q-35 0 -73.5 -17.5
t-65.5 -44.5l-50 -286q37 -20 98 -20t106.5 41t65 96.5t19.5 114.5z" />
    <glyph glyph-name="c" unicode="c" horiz-adv-x="427" 
d="M447 457q0 -3 -3 -9l-16 -36q-4 -9 -10 -9l-13 5q-47 22 -85 22q-68 0 -120 -47q-78 -72 -78 -198q0 -58 30 -93.5t90 -35.5q49 0 106 21q8 3 11 3q6 0 9 -10l9 -32q0 -1 1 -3v-2q0 -8 -19 -16q-66 -28 -138 -28q-93 0 -140 50.5t-47 140.5q0 70 28 136t78 111
q76 68 181 68q67 0 118 -28q8 -5 8 -10z" />
    <glyph glyph-name="d" unicode="d" horiz-adv-x="536" 
d="M548 701q0 -1 -0.5 -3t-0.5 -4l-120 -677q-3 -17 -14 -17h-49q-15 0 -15 13q0 1 0.5 3.5t0.5 3.5l6 37q-30 -31 -72.5 -49.5t-85.5 -18.5q-83 0 -122.5 51.5t-39.5 135.5q0 146 94 245q72 75 167 75q38 0 71.5 -16t49.5 -45l44 250q3 16 18 19l51 7h6q11 0 11 -10z
M405 360q-11 31 -39 50t-63 19q-52 0 -94 -34q-41 -34 -63.5 -95.5t-22.5 -121.5q0 -57 25.5 -89t75.5 -32q35 0 77 22.5t64 51.5z" />
    <glyph glyph-name="e" unicode="e" horiz-adv-x="492" 
d="M466 333q0 -35 -9 -84q-2 -13 -7.5 -17t-19.5 -4h-200h-105q-3 -27 -3 -37q0 -61 31.5 -98t95.5 -37q60 0 121 21q5 2 13 2q9 0 9 -9l3 -34v-3q0 -11 -15 -17q-70 -27 -148 -27q-95 0 -146.5 52t-51.5 142q0 135 85 228q78 84 192 84q74 0 114.5 -43.5t40.5 -118.5z
M387 333q0 98 -88 98q-60 0 -103 -42.5t-61 -104.5h247q5 27 5 49z" />
    <glyph glyph-name="f" unicode="f" horiz-adv-x="325" 
d="M428 695q0 -5 -1 -7l-11 -34q-2 -10 -12 -10q-2 0 -10 2q-28 10 -60 10q-46 0 -76 -37q-30 -38 -41 -98l-7 -37h119q13 0 13 -9q0 -1 -0.5 -2.5t-0.5 -2.5l-5 -31q-3 -13 -16 -13h-120l-108 -610q-3 -20 -20 -20h-49q-14 0 -14 14l1 4v5l107 607h-52q-18 0 -18 11
q0 1 0.5 3t0.5 4l4 25q3 15 17 15h58l5 25q20 104 70 157q54 57 133 57q51 0 86 -16q7 -3 7 -12z" />
    <glyph glyph-name="g" unicode="g" horiz-adv-x="538" 
d="M508 412q0 -6 -1 -10l-68 -376q-21 -120 -84 -182.5t-180 -62.5q-68 0 -132 31q-9 4 -9 12q0 4 3 10l17 33q4 10 11 10q4 0 16 -5q59 -25 102 -25q81 0 119 46.5t53 127.5l8 42q-27 -28 -71 -46t-83 -18q-89 0 -131 58q-33 44 -33 122q0 127 77 221.5t202 94.5
q47 0 94 -19t79 -45q11 -8 11 -19zM420 387q-41 41 -108 41q-82 0 -130.5 -73.5t-48.5 -159.5q0 -128 105 -128q36 0 74.5 19t62.5 47z" />
    <glyph glyph-name="h" unicode="h" horiz-adv-x="542" 
d="M494 371q0 -28 -7 -66l-51 -289q-3 -16 -14 -16h-58q-11 0 -11 9q0 6 1 10l50 283q6 42 6 50q0 71 -76 71q-36 0 -80 -17.5t-74 -43.5l-62 -347q-3 -15 -16 -15h-57q-10 0 -10 9q0 5 1 8l118 669q2 15 19 18l48 7h6q12 0 12 -11q0 -1 -0.5 -3t-0.5 -3l-46 -260
q75 61 170 61q58 0 92 -29q40 -34 40 -95z" />
    <glyph glyph-name="i" unicode="i" horiz-adv-x="236" 
d="M231 618q0 -23 -17.5 -39t-40.5 -16q-17 0 -29.5 10.5t-12.5 27.5q0 23 18 39t41 16q18 0 29.5 -10t11.5 -28zM198 472q0 -5 -1 -8l-78 -446q-3 -18 -20 -18h-49q-14 0 -14 12q0 7 1 10l78 445q3 17 21 17h48q14 0 14 -12z" />
    <glyph glyph-name="j" unicode="j" horiz-adv-x="271" 
d="M266 618q0 -23 -18 -39t-41 -16q-17 0 -29 10t-12 27q0 23 17.5 39.5t40.5 16.5q18 0 30 -10.5t12 -27.5zM231 471q0 -1 -0.5 -3.5t-0.5 -3.5l-78 -446q-23 -135 -86 -190q-53 -47 -142 -47q-24 0 -52 6q-9 1 -9 11q0 5 1 7l12 36q3 10 12 10h3q15 -3 30 -3q70 0 103 43
q30 37 43 116l81 460q3 17 19 17h50q14 0 14 -13z" />
    <glyph glyph-name="k" unicode="k" horiz-adv-x="441" 
d="M446 477q0 -6 -7 -13q-142 -143 -179 -177l124 -262q4 -8 4 -14q0 -11 -14 -11h-58q-19 0 -26 15l-97 212l-46 -44l-29 -165q-3 -18 -18 -18h-51q-14 0 -14 13q0 1 0.5 3.5t0.5 3.5l118 666q3 15 18 18l50 7h5q11 0 11 -10q0 -6 -1 -9l-73 -415l194 196q10 11 25 11h54
q9 0 9 -7z" />
    <glyph glyph-name="l" unicode="l" horiz-adv-x="229" 
d="M241 701q0 -5 -1 -8l-119 -675q-3 -18 -19 -18h-51q-14 0 -14 12q0 5 1 8l118 666q3 17 17 18l53 7h4q11 0 11 -10z" />
    <glyph glyph-name="m" unicode="m" horiz-adv-x="826" 
d="M778 369q0 -29 -8 -74l-49 -277q-3 -18 -19 -18h-48q-15 0 -15 13q0 6 1 9l49 280q5 28 5 47q0 37 -18 56.5t-61 19.5q-30 0 -68.5 -16t-69.5 -39q0 -40 -10 -97l-45 -255q-3 -18 -20 -18h-46q-15 0 -15 13q0 6 1 9l50 280q5 27 5 47q0 76 -76 76q-66 0 -142 -64
l-61 -343q-3 -18 -20 -18h-48q-15 0 -15 13q0 6 1 9l79 445q3 17 19 17h46q14 0 14 -11q0 -1 -0.5 -3.5t-0.5 -3.5l-5 -35q77 64 165 64q87 0 115 -66q80 66 175 66q68 0 105 -37q30 -30 30 -89z" />
    <glyph glyph-name="n" unicode="n" horiz-adv-x="539" 
d="M491 368q0 -26 -6 -64l-51 -286q-3 -18 -19 -18h-50q-17 0 -13 22l50 280q5 28 5 51q0 70 -79 70q-34 0 -75.5 -17t-74.5 -44l-60 -344q-3 -18 -20 -18h-50q-17 0 -13 20l79 446q3 18 19 18h46q18 0 14 -18l-6 -35q78 64 175 64q68 0 99 -34q30 -31 30 -93z" />
    <glyph glyph-name="o" unicode="o" horiz-adv-x="528" 
d="M494 307q0 -128 -76.5 -223t-202.5 -95q-90 0 -135.5 52t-45.5 139q0 126 76 220.5t201 94.5q90 0 136.5 -51.5t46.5 -136.5zM407 299q0 131 -106 131q-83 0 -131.5 -75.5t-48.5 -169.5q0 -131 104 -131q58 0 101.5 40.5t62 94.5t18.5 110z" />
    <glyph glyph-name="p" unicode="p" horiz-adv-x="536" 
d="M502 306q0 -76 -31 -148t-92.5 -121t-138.5 -49q-38 0 -71.5 16t-49.5 45l-43 -243q-3 -18 -18 -19l-52 -6h-4q-11 0 -11 10q0 1 0.5 3.5t0.5 4.5l118 668q3 17 14 17h49q14 0 14 -12v-3l-6 -42q66 68 159 68q80 0 121 -53.5t41 -135.5zM415 307q0 56 -26.5 88t-77.5 32
q-34 0 -74.5 -20t-63.5 -48l-41 -233q12 -31 39 -51t62 -20q59 0 102 40q37 34 58.5 92.5t21.5 119.5z" />
    <glyph glyph-name="q" unicode="q" horiz-adv-x="524" 
d="M498 438q0 -8 -1 -12l-111 -626q-3 -17 -18 -20l-50 -7h-5q-12 0 -12 11q0 1 0.5 3t0.5 3l46 259q-67 -60 -153 -60q-77 0 -119 50.5t-42 129.5q0 132 76 229t207 97q87 0 168 -37q13 -6 13 -20zM410 404q-42 23 -96 23q-61 0 -107 -40.5t-66 -96t-20 -113.5
q0 -54 25 -86t75 -32q35 0 73.5 18t66.5 46z" />
    <glyph glyph-name="r" unicode="r" horiz-adv-x="310" 
d="M350 486q0 -4 -1 -6l-16 -49q-3 -10 -12 -10q-4 0 -13.5 1t-14.5 1q-61 0 -115 -66l-59 -339q-3 -18 -20 -18h-50q-14 0 -14 13q0 1 0.5 3.5t0.5 4.5l78 445q3 18 21 18h44q15 0 15 -12v-3l-7 -44q58 70 134 70q14 0 22 -2q7 -1 7 -7z" />
    <glyph glyph-name="s" unicode="s" horiz-adv-x="392" 
d="M382 459q0 -3 -2 -9l-14 -35q-3 -8 -11 -8q-6 0 -12 3q-53 22 -96 22q-38 0 -67 -20t-29 -57q0 -23 20.5 -40t50 -29t59 -26.5t50 -40.5t20.5 -62q0 -78 -55.5 -123t-145.5 -45q-32 0 -71 9.5t-63 22.5q-6 3 -6 9q0 5 3 11l14 33q4 9 11 9q5 0 11 -3q61 -27 108 -27
q44 0 78 23.5t34 64.5q0 25 -21 43t-51 30t-60 26t-51 39.5t-21 61.5q0 71 57 112.5t131 41.5q73 0 123 -27q6 -2 6 -9z" />
    <glyph glyph-name="t" unicode="t" horiz-adv-x="348" 
d="M340 472l-5 -32q-1 -14 -17 -14h-116l-44 -248q-9 -54 -9 -70q0 -50 58 -50q26 0 67 13h3q10 0 10 -11l1 -36q0 -8 -2.5 -11.5t-12.5 -7.5q-43 -16 -95 -16q-53 0 -84 25t-31 76q0 19 11 83l45 253h-53q-15 0 -15 9v3l6 32q3 14 16 14h56l21 117q3 15 20 17l51 6h3
q10 0 10 -10q0 -6 -1 -9l-21 -121h117q11 0 11 -10v-2z" />
    <glyph glyph-name="u" unicode="u" horiz-adv-x="534" 
d="M499 467l-79 -448q-3 -19 -21 -19h-40q-17 0 -17 14v3l5 36q-82 -64 -171 -64q-61 0 -94.5 31.5t-33.5 92.5q0 24 5 54l53 300q3 17 20 17h49q14 0 14 -13v-4l-50 -284q-5 -28 -5 -51q0 -71 76 -71q34 0 76.5 19t69.5 43l60 343q3 18 21 18h48q14 0 14 -13v-4z" />
    <glyph glyph-name="v" unicode="v" horiz-adv-x="453" 
d="M469 474q0 -5 -4 -13l-243 -448q-7 -13 -22 -13h-38q-15 0 -18 12l-84 453q0 1 -0.5 3.5t-0.5 3.5q0 12 15 12h59q15 0 17 -15l41 -267q14 -97 14 -99h1q23 55 44 95l135 270q9 16 25 16h47q12 0 12 -10z" />
    <glyph glyph-name="w" unicode="w" horiz-adv-x="687" 
d="M707 476q0 -5 -4 -13l-213 -448q-8 -15 -23 -15h-48q-15 0 -17 16l-39 347h-2l-161 -349q-7 -14 -23 -14h-47q-16 0 -18 15l-52 453v2q0 14 16 14h53q16 0 18 -14l28 -369h1l171 368q7 15 22 15h38q15 0 16 -13l40 -370h1l161 367q6 16 24 16h48q10 0 10 -8z" />
    <glyph glyph-name="x" unicode="x" horiz-adv-x="467" 
d="M474 476q0 -5 -7 -13l-179 -202l117 -241q2 -6 2 -8v-1q0 -11 -14 -11h-65q-17 0 -23 14l-78 180h-1l-145 -180q-11 -14 -30 -14h-51q-10 0 -10 9q0 7 8 15l199 227l-103 216q-2 4 -2 7q0 10 13 10h65q14 0 21 -14l68 -154h1l126 155q12 13 24 13h53q11 0 11 -8z" />
    <glyph glyph-name="y" unicode="y" horiz-adv-x="468" 
d="M500 476q0 -6 -5 -15l-281 -519q-48 -90 -98.5 -125.5t-130.5 -35.5q-24 0 -41 4q-9 1 -9 10q0 4 2 10l11 35q4 12 15 12h1q6 0 17.5 -1.5t16.5 -1.5q83 0 128 78l36 63l-93 475q0 1 -0.5 3t-0.5 3q0 13 13 13h62q15 0 17 -14l62 -380l191 377q9 17 25 17h49q13 0 13 -8z
" />
    <glyph glyph-name="z" unicode="z" horiz-adv-x="404" 
d="M414 469l-4 -20q-3 -11 -13 -24l-299 -366v-1h234q12 0 12 -10v-4l-5 -31q-1 -13 -17 -13h-315q-15 0 -15 12q0 1 0.5 2.5t0.5 2.5l3 17q3 14 14 28l295 363v1h-205q-14 0 -14 10q0 5 1 9l4 24q2 15 17 15h293q13 0 13 -11v-4z" />
    <glyph glyph-name="braceleft" unicode="{" horiz-adv-x="341" 
d="M382 698v-2q-1 -1 -1 -2l-9 -32q-2 -10 -14 -10h-39q-39 0 -59.5 -27t-26.5 -59l-26 -135q-12 -63 -42.5 -101t-68.5 -42v-1q29 -2 46 -27.5t17 -73.5q0 -26 -4 -51l-20 -129q-2 -14 -2 -23q0 -63 56 -63h38q12 0 12 -8v-3l-5 -29q-3 -14 -15 -14h-54q-52 0 -81 27.5
t-29 80.5q0 9 2 29l20 147q4 36 4 46q0 59 -42 65q-13 2 -13 11v4l4 21q3 14 16 15q60 8 79 104l29 153q12 65 57 101t102 36h56q13 0 13 -8z" />
    <glyph glyph-name="bar" unicode="|" horiz-adv-x="206" 
d="M143 0q0 -20 -19 -20h-40q-21 0 -21 20v691q0 20 16 20h45q19 0 19 -18v-693z" />
    <glyph glyph-name="braceright" unicode="}" horiz-adv-x="341" 
d="M315 298l-5 -24q-3 -12 -16 -14q-59 -8 -78 -107l-29 -150q-13 -66 -56.5 -101.5t-102.5 -35.5h-59q-10 0 -10 6q0 4 1 6l9 33q3 9 13 9h40q39 0 59.5 27t26.5 59l26 133q13 68 44 106t67 40v1q-29 2 -46 28t-17 73q0 24 4 47l20 132q2 14 2 23q0 63 -56 63h-39
q-12 0 -12 9v2l5 31q2 12 16 12h54q52 0 82 -27.5t30 -79.5q0 -20 -2 -30l-23 -150q-4 -30 -4 -41q0 -60 44 -67q12 -1 12 -9v-4z" />
    <glyph glyph-name="asciitilde" unicode="~" horiz-adv-x="525" 
d="M465 301q0 -8 -9 -15q-27 -20 -43 -30.5t-40 -20t-47 -9.5q-28 0 -69.5 25.5t-68.5 25.5t-91 -35q-8 -5 -13 -5q-6 0 -9 9l-11 29q-1 2 -1 5q0 9 15 18q76 47 116 47q32 0 79 -26t68 -26q19 0 85 40q8 5 13 5q7 0 11 -8l13 -22q2 -4 2 -7z" />
    <glyph glyph-name="nbspace" unicode="&#xa0;" horiz-adv-x="230" 
 />
    <glyph glyph-name="exclamdown" unicode="&#xa1;" horiz-adv-x="233" 
d="M227 454q0 -25 -19.5 -42.5t-44.5 -17.5q-19 0 -31 11t-12 29q0 24 19 42.5t43 18.5q19 0 32 -11.5t13 -29.5zM181 318l-81 -510q-2 -14 -15 -14h-57q-12 0 -12 9q0 1 0.5 2.5t0.5 2.5l100 512q3 14 16 14h37q11 0 11 -10v-6z" />
    <glyph glyph-name="cent" unicode="&#xa2;" horiz-adv-x="550" 
d="M474 457q0 -3 -3 -9l-16 -36q-4 -9 -10 -9q-1 0 -13 5q-46 22 -83 22l-65 -374q40 2 91 21q7 3 11 3q6 0 9 -10l9 -32v-3l1 -2q0 -8 -19 -16q-51 -22 -114 -27l-13 -74q-1 -9 -5 -12t-13 -3h-15q-15 0 -12 15l13 74q-83 6 -124.5 55.5t-41.5 134.5q0 70 28 136t78 111
q64 57 149 66l14 80q2 15 15 15h19q14 0 11 -13l-14 -80q60 -3 105 -28q8 -5 8 -10zM304 424q-44 -12 -77 -42q-78 -72 -78 -197q0 -50 22.5 -83.5t67.5 -42.5z" />
    <glyph glyph-name="sterling" unicode="&#xa3;" horiz-adv-x="550" 
d="M534 667q0 -5 -3 -9l-17 -35q-4 -10 -11 -10q-3 0 -9 2q-51 17 -94 17q-113 0 -140 -142l-17 -91h154q14 0 14 -9l-1 -2v-2l-4 -20q-2 -12 -17 -12h-155l-10 -60h155q13 0 13 -8q0 -1 -0.5 -3t-0.5 -3l-3 -17q-2 -15 -18 -15h-155l-4 -26q-17 -114 -82 -149v-1h291
q21 0 21 -11q0 -1 -0.5 -3t-0.5 -3l-7 -38q-3 -17 -21 -17h-395q-15 0 -15 13v4l5 29q3 14 19 21q79 34 97 140l7 41h-54q-11 0 -11 7q0 5 1 8l3 17q2 8 5 11t11 3h54l10 60h-54q-11 0 -11 8v5l3 18q2 14 16 14h54l15 85q18 101 76.5 159.5t154.5 58.5q72 0 121 -24
q10 -4 10 -11z" />
    <glyph glyph-name="yen" unicode="&#xa5;" horiz-adv-x="547" 
d="M583 682q0 -4 -4 -10l-250 -366h88q12 0 12 -8v-5l-3 -21q-2 -12 -18 -12h-100l-11 -60h102q13 0 13 -7q0 -1 -0.5 -3t-0.5 -3l-3 -18q-1 -10 -4.5 -12.5t-12.5 -2.5h-102l-24 -136q-3 -18 -19 -18h-55q-15 0 -15 13q0 1 0.5 3t0.5 3l24 135h-103q-12 0 -12 8q0 1 0.5 3
t0.5 4l3 18q2 13 17 13h102l10 60h-103q-12 0 -12 7q0 1 0.5 3t0.5 3l3 19q3 14 17 14h87l-127 365q-1 2 -1 6q0 13 16 13h58q22 0 26 -15l101 -319h1l207 317q12 17 29 17h49q12 0 12 -8z" />
    <glyph glyph-name="brokenbar" unicode="&#xa6;" horiz-adv-x="206" 
d="M202 698q0 -6 -1 -9l-40 -228q-3 -19 -19 -19h-42q-14 0 -14 13q0 6 1 9l40 227q3 18 19 18h43q13 0 13 -11zM121 238q0 -6 -1 -9l-40 -228q-3 -18 -19 -18h-42q-14 0 -14 13q0 5 1 8l40 228q3 17 19 17h43q13 0 13 -11z" />
    <glyph glyph-name="section" unicode="&#xa7;" horiz-adv-x="456" 
d="M428 667q0 -1 -2 -7l-18 -38q-4 -8 -10 -8q-2 0 -8 2q-51 23 -96 23q-42 0 -70 -20.5t-28 -58.5q0 -32 50 -57l72 -36q78 -38 78 -106q0 -76 -72 -126q33 -31 33 -79q0 -76 -63 -121.5t-142 -45.5q-62 0 -130 31q-7 4 -7 9q0 1 2 7l18 37q5 10 10 10l6 -2q68 -28 113 -28
q44 0 78.5 23.5t34.5 65.5q0 40 -62 68l-65 30q-78 36 -78 102q0 38 22.5 72t57.5 53q-42 32 -42 82q0 70 58 111.5t131 41.5q66 0 122 -27q7 -4 7 -8zM317 341v5q0 42 -64 70l-41 18q-54 -21 -57 -70v-4q0 -39 54 -64l58 -27q47 25 50 72z" />
    <glyph glyph-name="dieresis" unicode="&#xa8;" 
d="M295 666q0 -22 -16.5 -38.5t-38.5 -16.5q-17 0 -29 10t-12 27q0 23 17 38.5t40 15.5q17 0 28 -9.5t11 -26.5zM125 666q0 -22 -16.5 -38.5t-38.5 -16.5q-17 0 -29 10t-12 27q0 23 17 38.5t40 15.5q17 0 28 -9.5t11 -26.5z" />
    <glyph glyph-name="copyright" unicode="&#xa9;" horiz-adv-x="817" 
d="M771 411q0 -108 -60 -205t-158.5 -155t-206.5 -58q-130 0 -215 82t-85 211q0 109 59.5 206t158 154.5t206.5 57.5q129 0 215 -82.5t86 -210.5zM708 402q0 107 -70 175.5t-177 68.5q-139 0 -245.5 -106t-106.5 -245q0 -107 70 -175.5t177 -68.5q139 0 245.5 106t106.5 245
zM555 505l-12 -23q-6 -10 -14 -5q-33 21 -73 21q-68 0 -109 -60.5t-41 -132.5q0 -50 24 -81t71 -31q39 0 84 20q9 4 11 -4l5 -22q2 -9 -9 -15q-53 -22 -106 -22q-68 0 -101.5 39.5t-33.5 105.5q0 96 57 171.5t150 75.5q55 0 94 -24q7 -5 3 -13z" />
    <glyph glyph-name="ordfeminine" unicode="&#xaa;" horiz-adv-x="316" 
d="M280 630q0 -6 -2 -22l-32 -191q-2 -12 -11 -12h-35q-10 0 -10 5v1q3 14 3 21q-45 -34 -88 -34q-33 0 -54.5 17.5t-21.5 49.5q0 71 77 102q45 18 111 18l4 20q1 4 1 12q0 18 -11.5 29t-32.5 11q-40 0 -79 -18q-4 -2 -10 -4q-2 -1 -4 -1q-4 0 -5 5l-5 23q0 1 -1 3v2
q0 6 6 9q51 26 110 26q90 0 90 -72zM210 546q-52 0 -85.5 -17t-33.5 -51q0 -15 10.5 -24t27.5 -9q33 0 68 28z" />
    <glyph glyph-name="guillemotleft" unicode="&#xab;" horiz-adv-x="454" 
d="M420 371q0 -3 -3 -8l-105 -133l55 -139q1 -3 1 -7q0 -8 -9 -12l-23 -12q-6 -3 -10 -3q-6 0 -10 8l-79 144q-5 7 -5 16q0 8 7 17l134 146q8 8 14 8q2 0 6 -2l22 -14q5 -2 5 -9zM249 371q0 -3 -3 -8l-105 -133l55 -139q1 -2 1 -6q0 -8 -9 -13l-23 -12q-6 -3 -10 -3
q-6 0 -10 8l-79 144q-5 7 -5 16q0 8 7 17l134 146q8 8 13 8q3 0 7 -2l22 -14q5 -2 5 -9z" />
    <glyph glyph-name="logicalnot" unicode="&#xac;" horiz-adv-x="511" 
d="M477 395q0 -1 -0.5 -3t-0.5 -3l-32 -179q-4 -20 -22 -20h-37q-15 0 -15 12q0 1 0.5 3t0.5 4l23 130h-307q-15 0 -15 12q0 1 0.5 3.5t0.5 3.5l6 34q3 14 19 14h360q19 0 19 -11z" />
    <glyph glyph-name="registered" unicode="&#xae;" horiz-adv-x="817" 
d="M771 411q0 -108 -60 -205t-158.5 -155t-206.5 -58q-130 0 -215 82t-85 211q0 109 60 206t158.5 154.5t206.5 57.5q129 0 214.5 -82.5t85.5 -210.5zM708 402q0 107 -70 175.5t-177 68.5q-139 0 -245.5 -106t-106.5 -245q0 -107 70 -175.5t177 -68.5q139 0 245.5 106
t106.5 245zM549 448q0 -8 -2 -24q-14 -79 -95 -108l62 -148q4 -12 -7 -12h-36q-10 0 -13 8l-56 143h-52l-25 -141q-2 -10 -10 -10h-33q-9 0 -8 10l63 357q1 12 14 12h59q139 0 139 -87zM496 440q0 56 -77 56h-36l-26 -150h38q7 0 21 2q33 5 54 25t25 53q1 5 1 14z" />
    <glyph glyph-name="macron" unicode="&#xaf;" 
d="M293 690q0 -1 -0.5 -3t-0.5 -4l-3 -22q-3 -21 -25 -21h-214q-17 0 -17 13q0 1 0.5 3.5t0.5 4.5l3 22q2 11 6.5 15t16.5 4h215q18 0 18 -12z" />
    <glyph glyph-name="degree" unicode="&#xb0;" horiz-adv-x="279" 
d="M235 623q0 -45 -32.5 -77t-77.5 -32q-34 0 -58 23t-24 57q0 43 33 75.5t77 32.5q34 0 58 -22.5t24 -56.5zM190 617q0 18 -12 30t-30 12q-24 0 -42.5 -18t-18.5 -42q0 -18 12.5 -30t30.5 -12q23 0 41.5 18.5t18.5 41.5z" />
    <glyph glyph-name="plusminus" unicode="&#xb1;" horiz-adv-x="505" 
d="M478 400q0 -1 -0.5 -3t-0.5 -3l-6 -36q-1 -10 -5.5 -14t-14.5 -4h-152l-27 -153q-3 -18 -20 -18h-43q-14 0 -14 11q0 1 0.5 3t0.5 3l27 154h-152q-16 0 -16 11q0 1 0.5 2.5t0.5 2.5l7 38q3 17 19 17h153l27 153q4 18 21 18h40q17 0 17 -11q0 -1 -0.5 -3t-0.5 -3l-27 -154
h149q17 0 17 -11zM381 79q0 -1 -0.5 -3t-0.5 -3l-8 -43q-3 -18 -20 -18h-296q-14 0 -14 11q0 1 0.5 3t0.5 3l7 44q3 17 19 17h296q16 0 16 -11z" />
    <glyph glyph-name="twosuperior" unicode="&#xb2;" horiz-adv-x="341" 
d="M318 624q0 -76 -104 -173q-3 -3 -93 -79h139q12 0 12 -10q0 -6 -1 -9l-5 -21q-4 -14 -19 -14h-203q-14 0 -14 10v4l4 25q1 10 12 19q123 108 140 125q66 69 66 109q0 43 -48 43q-35 0 -75 -21q-8 -4 -12 -4q-5 0 -9 8l-9 22q-1 2 -1 5q0 6 14 14q55 30 108 30
q43 0 70.5 -22t27.5 -61z" />
    <glyph glyph-name="threesuperior" unicode="&#xb3;" horiz-adv-x="341" 
d="M296 629q0 -32 -18.5 -60t-47.5 -42q23 -9 35.5 -30.5t12.5 -46.5q0 -54 -44 -94q-45 -42 -108 -42q-52 0 -86 18q-10 6 -10 12q0 1 2 7l12 24q4 8 10 8q5 0 11 -3q28 -13 65 -13t60.5 21t23.5 57q0 28 -20 41.5t-52 13.5h-10q-16 0 -16 8v2q1 2 1 3l4 22q2 8 5.5 11
t13.5 3h14q42 0 61 23q15 18 15 45q0 39 -48 39q-28 0 -61 -14q-10 -5 -16 -5t-8 8l-4 19q-1 3 -1 7q0 8 10 14q44 23 99 23q40 0 67.5 -21t27.5 -58z" />
    <glyph glyph-name="acute" unicode="&#xb4;" 
d="M263 655q0 -8 -7 -12l-143 -81q-8 -4 -11 -4q-4 0 -9 6l-12 16q-4 5 -4 10t6 9l128 98q9 6 14 6q7 0 12 -8l22 -29q4 -5 4 -11z" />
    <glyph glyph-name="mu" unicode="&#xb5;" horiz-adv-x="531" 
d="M517 467l-79 -447q-3 -20 -20 -20h-46q-16 0 -14 14l6 39q-76 -60 -149 -60q-61 0 -88 33l-31 -175q-4 -18 -22 -18h-43q-17 0 -17 11q0 1 0.5 3t0.5 3l109 617q3 17 20 17h48q14 0 14 -12v-5l-40 -228q0 -3 -5.5 -39.5t-6.5 -39.5q-1 -9 -1 -26q0 -74 77 -74
q70 0 143 62l61 345q3 17 20 17h49q14 0 14 -12v-5z" />
    <glyph glyph-name="paragraph" unicode="&#xb6;" horiz-adv-x="516" 
d="M506 678q0 -1 -0.5 -3t-0.5 -3l-141 -797q-3 -16 -15 -16h-30q-12 0 -12 11v5l132 750h-91l-132 -748q-3 -18 -19 -18h-50q-14 0 -14 11q0 1 0.5 3t0.5 4l86 492q-59 4 -95 40.5t-36 91.5q0 74 58 131.5t132 57.5h212q15 0 15 -12z" />
    <glyph glyph-name="periodcentered" unicode="&#xb7;" horiz-adv-x="214" 
d="M166 302q0 -25 -20 -45t-46 -20q-19 0 -33 12t-14 32q0 27 19.5 45t46.5 18q20 0 33.5 -11t13.5 -31z" />
    <glyph glyph-name="cedilla" unicode="&#xb8;" 
d="M263 -106q0 -36 -24 -60q-34 -34 -90 -34q-26 0 -57 11q-13 5 -8 14l8 17q4 8 16 4q23 -9 45 -9q31 0 46 20q9 12 9 28q0 31 -54 31h-16q-18 0 -15 18q0 1 1.5 6t2.5 9l14 55l45 -1l-12 -51h10q36 0 57.5 -14.5t21.5 -43.5z" />
    <glyph glyph-name="onesuperior" unicode="&#xb9;" horiz-adv-x="341" 
d="M253 697q0 -1 -0.5 -3.5t-0.5 -4.5l-59 -338q-3 -18 -21 -18h-29q-15 0 -15 10q0 7 1 11l50 283l-72 -40q-8 -4 -11 -4q-8 0 -11 8l-9 20q-2 3 -2 8q0 6 8 11l112 62q10 6 25 6h21q13 0 13 -11z" />
    <glyph glyph-name="ordmasculine" unicode="&#xba;" horiz-adv-x="349" 
d="M313 587q0 -77 -45 -134t-120 -57q-54 0 -83 30t-29 83q0 77 46 135t120 58q53 0 82 -31t29 -84zM253 583q0 74 -58 74q-48 0 -73.5 -45.5t-25.5 -97.5q0 -74 59 -74q48 0 73 45.5t25 97.5z" />
    <glyph glyph-name="guillemotright" unicode="&#xbb;" horiz-adv-x="454" 
d="M392 228q0 -8 -7 -17l-134 -146q-8 -8 -13 -8q-3 0 -7 2l-22 14q-5 3 -5 9q0 4 3 8l105 133l-55 139q-1 2 -1 6q0 8 9 13l23 12q6 3 10 3q6 0 10 -8l79 -144q5 -8 5 -16zM221 228q0 -8 -7 -17l-134 -146q-8 -8 -14 -8q-2 0 -6 2l-22 14q-5 3 -5 9q0 4 3 8l105 133
l-55 139q-1 3 -1 7q0 7 9 12l23 12q6 3 10 3q6 0 10 -8l79 -144q5 -8 5 -16z" />
    <glyph glyph-name="onequarter" unicode="&#xbc;" horiz-adv-x="787" 
d="M695 216q0 -1 -0.5 -3t-0.5 -3l-35 -199q-3 -16 -17 -16h-35q-13 0 -13 10q0 1 0.5 3t0.5 3l12 66h-165q-14 0 -14 10q0 5 1 8l2 13q3 15 11 28l138 216q10 15 24 15h27q16 0 16 -8q0 -4 -6 -14l-132 -212h108l13 76q3 18 18 18h33q14 0 14 -11zM709 713q0 -6 -12 -21
l-545 -705q-12 -15 -26 -15h-52q-8 0 -8 7q0 5 6 14l548 708q14 19 34 19h44q11 0 11 -7zM283 697q0 -1 -0.5 -3.5t-0.5 -4.5l-59 -338q-3 -18 -21 -18h-29q-15 0 -15 10q0 7 1 11l50 283l-72 -40q-8 -4 -11 -4q-8 0 -11 8l-9 20q-2 3 -2 8q0 6 8 11l112 62q10 6 25 6h21
q13 0 13 -11z" />
    <glyph glyph-name="onehalf" unicode="&#xbd;" horiz-adv-x="920" 
d="M776 306q0 -76 -104 -173q-3 -3 -93 -79h139q12 0 12 -10q0 -6 -1 -9l-5 -21q-4 -14 -19 -14h-203q-14 0 -14 10v4l4 25q1 10 12 19q123 108 140 125q66 69 66 109q0 43 -48 43q-35 0 -75 -21q-8 -4 -12 -4q-5 0 -9 8l-9 22q-1 2 -1 5q0 6 14 14q55 30 108 30
q43 0 70.5 -22t27.5 -61zM709 713q0 -6 -12 -21l-545 -705q-12 -15 -26 -15h-52q-8 0 -8 7q0 5 6 14l548 708q14 19 34 19h44q11 0 11 -7zM283 697q0 -1 -0.5 -3.5t-0.5 -4.5l-59 -338q-3 -18 -21 -18h-29q-15 0 -15 10q0 7 1 11l50 283l-72 -40q-8 -4 -11 -4q-8 0 -11 8
l-9 20q-2 3 -2 8q0 6 8 11l112 62q10 6 25 6h21q13 0 13 -11z" />
    <glyph glyph-name="threequarters" unicode="&#xbe;" horiz-adv-x="792" 
d="M714 713v-1l-1 -2q-5 -10 -11 -18l-545 -705q-12 -15 -26 -15h-52q-10 0 -10 7l2 4q4 8 6 10l548 708q14 19 34 19h44q11 0 11 -7z" />
    <glyph glyph-name="questiondown" unicode="&#xbf;" horiz-adv-x="419" 
d="M420 457q0 -25 -18.5 -42.5t-43.5 -17.5q-19 0 -32 11t-13 30q0 24 19 42t43 18q19 0 32 -11.5t13 -29.5zM375 294q0 -92 -98 -180l-81 -74q-57 -51 -57 -111q0 -39 26.5 -58.5t66.5 -19.5q47 0 111 31q13 7 16 -5l11 -35q3 -11 -12 -19q-71 -38 -150 -38q-63 0 -106 34
t-43 94q0 89 78 160l77 70q24 21 35.5 32.5t25 31t21.5 41.5q8 21 12 45q0 2 0.5 5t1 4.5t1.5 3.5t3.5 2.5t5.5 0.5h43q12 0 12 -15z" />
    <glyph glyph-name="Agrave" unicode="&#xc0;" horiz-adv-x="604" 
d="M533 16q0 -16 -14 -16h-64q-18 0 -20 16l-31 182h-263l-97 -184q-8 -14 -21 -14h-61q-9 0 -9 7q0 4 3 10l358 658q8 15 23 15h53q14 0 18 -14l125 -655v-5zM393 266l-39 238q-1 7 -6 42.5t-6 40.5h-1q-4 -10 -41 -84l-124 -237h217zM452 776q0 -3 -4 -9l-13 -17
q-5 -6 -10 -6q-2 0 -10 4l-130 81q-7 4 -7 11q0 3 4 9l26 32q7 8 13 8q4 0 11 -5l113 -97q7 -7 7 -11z" />
    <glyph glyph-name="Aacute" unicode="&#xc1;" horiz-adv-x="604" 
d="M533 16q0 -16 -14 -16h-64q-18 0 -20 16l-31 182h-263l-97 -184q-8 -14 -21 -14h-61q-9 0 -9 7q0 4 3 10l358 658q8 15 23 15h53q14 0 18 -14l125 -655v-5zM393 266l-39 238q-1 7 -6 42.5t-6 40.5h-1q-4 -10 -41 -84l-124 -237h217zM472 840q0 -8 -7 -12l-143 -81
q-8 -4 -11 -4q-4 0 -9 6l-12 16q-4 5 -4 10t6 9l128 98q9 6 14 6q7 0 12 -8l22 -29q4 -5 4 -11z" />
    <glyph glyph-name="Acircumflex" unicode="&#xc2;" horiz-adv-x="604" 
d="M533 16q0 -16 -14 -16h-64q-18 0 -20 16l-31 182h-263l-97 -184q-8 -14 -21 -14h-61q-9 0 -9 7q0 4 3 10l358 658q8 15 23 15h53q14 0 18 -14l125 -655v-5zM393 266l-39 238q-1 7 -6 42.5t-6 40.5h-1q-4 -10 -41 -84l-124 -237h217zM494 776q0 -7 -8 -13l-16 -12
q-2 -2 -8 -2t-14 6l-73 68l-100 -72q-5 -4 -12 -4t-11 5l-11 13q-3 3 -3 7q0 6 7 11l114 100q10 8 19 8h16q11 0 16 -6l81 -101q3 -5 3 -8z" />
    <glyph glyph-name="Atilde" unicode="&#xc3;" horiz-adv-x="604" 
d="M533 16q0 -16 -14 -16h-64q-18 0 -20 16l-31 182h-263l-97 -184q-8 -14 -21 -14h-61q-9 0 -9 7q0 4 3 10l358 658q8 15 23 15h53q14 0 18 -14l125 -655v-5zM393 266l-39 238q-1 7 -6 42.5t-6 40.5h-1q-4 -10 -41 -84l-124 -237h217zM531 811q0 -6 -7 -12
q-70 -48 -110 -48q-18 0 -47 20.5t-48 20.5q-18 0 -64 -24q-12 -7 -18 -7q-7 0 -9 7l-9 29q-2 8 -2 10q0 6 14 15q56 34 94 34q21 0 54 -21t47 -21q13 0 64 28q12 7 18 7q7 0 9 -6l12 -23q2 -3 2 -9z" />
    <glyph glyph-name="Adieresis" unicode="&#xc4;" horiz-adv-x="604" 
d="M533 16q0 -16 -14 -16h-64q-18 0 -20 16l-31 182h-263l-97 -184q-8 -14 -21 -14h-61q-9 0 -9 7q0 4 3 10l358 658q8 15 23 15h53q14 0 18 -14l125 -655v-5zM393 266l-39 238q-1 7 -6 42.5t-6 40.5h-1q-4 -10 -41 -84l-124 -237h217zM502 806q0 -22 -16.5 -38.5
t-38.5 -16.5q-17 0 -29 10t-12 27q0 23 17 38.5t40 15.5q17 0 28 -9.5t11 -26.5zM332 806q0 -22 -16.5 -38.5t-38.5 -16.5q-17 0 -29 10t-12 27q0 23 17 38.5t40 15.5q17 0 28 -9.5t11 -26.5z" />
    <glyph glyph-name="Aring" unicode="&#xc5;" horiz-adv-x="604" 
d="M533 16q0 -16 -14 -16h-64q-18 0 -20 16l-31 182h-263l-97 -184q-8 -14 -21 -14h-61q-9 0 -9 7q0 4 3 10l358 658q8 15 23 15h53q14 0 18 -14l125 -655v-5zM393 266l-39 238q-1 7 -6 42.5t-6 40.5h-1q-4 -10 -41 -84l-124 -237h217zM466 845q0 -38 -29.5 -67t-67.5 -29
q-29 0 -49.5 20t-20.5 49q0 37 31 66t68 29q29 0 48.5 -19.5t19.5 -48.5zM421 838q0 13 -8.5 21.5t-22.5 8.5q-18 0 -32 -12.5t-14 -30.5q0 -14 9.5 -22.5t23.5 -8.5q18 0 31 13t13 31z" />
    <glyph glyph-name="AE" unicode="&#xc6;" horiz-adv-x="880" 
d="M891 681q0 -4 -1 -6l-13 -41q-5 -15 -25 -15h-264l-39 -224h236q15 0 15 -10v-4l-6 -40q-3 -16 -21 -16h-236l-46 -254h276q14 0 14 -12v-5l-6 -37q-3 -17 -20 -17h-342q-20 0 -20 14q0 1 0.5 3t0.5 3l31 177h-233l-143 -180q-13 -17 -25 -17h-61q-9 0 -9 8q0 5 4 11
l516 648q18 23 37 23h366q14 0 14 -9zM494 587l-252 -323h195z" />
    <glyph glyph-name="Ccedilla" unicode="&#xc7;" horiz-adv-x="575" 
d="M597 646q0 -5 -2 -8l-25 -45q-4 -7 -11 -7q-4 0 -12 4q-60 35 -133 35q-65 0 -119 -33.5t-87.5 -86.5t-52 -115t-18.5 -122q0 -93 43.5 -144.5t131.5 -51.5q66 0 162 35l2 1h2q10 0 12 -12l9 -43v-3q0 -14 -17 -22q-80 -38 -187 -38h-7l-10 -38h10q36 0 58 -14.5
t22 -43.5q0 -36 -24 -60q-34 -34 -90 -34q-26 0 -57 11q-9 3 -9 8q0 4 1 6l7 17q2 6 8 6q3 0 9 -2q23 -9 45 -9q31 0 46 20q9 12 9 28q0 31 -55 31h-15q-16 0 -16 12q0 4 1 6l15 58q-100 13 -152.5 82.5t-52.5 178.5q0 111 44.5 212t133.5 169t202 68q104 0 171 -43
q8 -5 8 -13z" />
    <glyph glyph-name="Egrave" unicode="&#xc8;" horiz-adv-x="507" 
d="M512 680q0 -3 -1 -5l-12 -43q-3 -14 -25 -14h-263l-40 -224h235q16 0 16 -12v-4l-7 -39q-3 -17 -20 -17h-236l-45 -249h275q15 0 15 -12v-4l-7 -40q-3 -17 -20 -17h-344q-18 0 -18 12q0 5 1 8l115 650q3 20 23 20h345q13 0 13 -10zM433 779q0 -3 -4 -9l-13 -17
q-4 -6 -10 -6q-2 0 -10 4l-130 81q-7 4 -7 11q0 3 4 9l26 32q7 8 13 8q4 0 11 -5l113 -97q7 -7 7 -11z" />
    <glyph glyph-name="Eacute" unicode="&#xc9;" horiz-adv-x="507" 
d="M512 680q0 -3 -1 -5l-12 -43q-3 -14 -25 -14h-263l-40 -224h235q16 0 16 -12v-4l-7 -39q-3 -17 -20 -17h-236l-45 -249h275q15 0 15 -12v-4l-7 -40q-3 -17 -20 -17h-344q-18 0 -18 12q0 5 1 8l115 650q3 20 23 20h345q13 0 13 -10zM455 838q0 -8 -7 -12l-143 -81
q-8 -4 -11 -4q-4 0 -9 6l-12 16q-4 5 -4 10t6 9l128 98q9 6 14 6q7 0 12 -8l22 -29q4 -5 4 -11z" />
    <glyph glyph-name="Ecircumflex" unicode="&#xca;" horiz-adv-x="507" 
d="M512 680q0 -3 -1 -5l-12 -43q-3 -14 -25 -14h-263l-40 -224h235q16 0 16 -12v-4l-7 -39q-3 -17 -20 -17h-236l-45 -249h275q15 0 15 -12v-4l-7 -40q-3 -17 -20 -17h-344q-18 0 -18 12q0 5 1 8l115 650q3 20 23 20h345q13 0 13 -10zM466 776q0 -7 -8 -13l-16 -12
q-2 -2 -8 -2t-14 6l-73 68l-100 -72q-5 -4 -12 -4t-11 5l-11 13q-3 3 -3 7q0 6 7 11l114 100q10 8 19 8h16q11 0 16 -6l81 -101q3 -4 3 -8z" />
    <glyph glyph-name="Edieresis" unicode="&#xcb;" horiz-adv-x="507" 
d="M512 680q0 -3 -1 -5l-12 -43q-3 -14 -25 -14h-263l-40 -224h235q16 0 16 -12v-4l-7 -39q-3 -17 -20 -17h-236l-45 -249h275q15 0 15 -12v-4l-7 -40q-3 -17 -20 -17h-344q-18 0 -18 12q0 5 1 8l115 650q3 20 23 20h345q13 0 13 -10zM473 807q0 -22 -16.5 -38.5
t-38.5 -16.5q-17 0 -29 10t-12 27q0 23 17 38.5t40 15.5q17 0 28 -9.5t11 -26.5zM303 807q0 -22 -16.5 -38.5t-38.5 -16.5q-17 0 -29 10t-12 27q0 23 17 38.5t40 15.5q17 0 28 -9.5t11 -26.5z" />
    <glyph glyph-name="Igrave" unicode="&#xcc;" horiz-adv-x="372" 
d="M365 677l-6 -31q-3 -15 -17 -15h-63l-101 -572h65q11 0 11 -10v-4l-5 -31q-2 -14 -15 -14h-214q-11 0 -11 10v3l6 33q3 13 16 13h59l100 572h-62q-12 0 -12 10v4l6 31q4 14 15 14h215q13 0 13 -10v-3zM337 777q0 -3 -4 -9l-13 -17q-4 -6 -10 -6q-2 0 -10 4l-130 81
q-7 4 -7 11q0 3 4 9l26 32q7 8 13 8q4 0 11 -5l113 -97q7 -7 7 -11z" />
    <glyph glyph-name="Iacute" unicode="&#xcd;" horiz-adv-x="372" 
d="M365 677l-6 -31q-3 -15 -17 -15h-63l-101 -572h65q11 0 11 -10v-4l-5 -31q-2 -14 -15 -14h-214q-11 0 -11 10v3l6 33q3 13 16 13h59l100 572h-62q-12 0 -12 10v4l6 31q4 14 15 14h215q13 0 13 -10v-3zM391 842q0 -8 -7 -12l-143 -81q-8 -4 -11 -4q-5 0 -9 6l-12 16
q-4 5 -4 10t6 9l128 98q9 6 14 6q7 0 12 -8l22 -29q4 -5 4 -11z" />
    <glyph glyph-name="Icircumflex" unicode="&#xce;" horiz-adv-x="372" 
d="M365 677l-6 -31q-3 -15 -17 -15h-63l-101 -572h65q11 0 11 -10v-4l-5 -31q-2 -14 -15 -14h-214q-11 0 -11 10v3l6 33q3 13 16 13h59l100 572h-62q-12 0 -12 10v4l6 31q4 14 15 14h215q13 0 13 -10v-3zM389 782q0 -7 -8 -13l-16 -12q-2 -2 -8 -2q-7 0 -14 6l-73 68
l-100 -72q-5 -4 -12 -4t-11 5l-11 13q-3 3 -3 7q0 6 7 11l114 100q10 8 19 8h16q11 0 16 -6l81 -101q3 -4 3 -8z" />
    <glyph glyph-name="Idieresis" unicode="&#xcf;" horiz-adv-x="372" 
d="M365 677l-6 -31q-3 -15 -17 -15h-63l-101 -572h65q11 0 11 -10v-4l-5 -31q-2 -14 -15 -14h-214q-11 0 -11 10v3l6 33q3 13 16 13h59l100 572h-62q-12 0 -12 10v4l6 31q4 14 15 14h215q13 0 13 -10v-3zM392 807q0 -22 -16.5 -38.5t-38.5 -16.5q-17 0 -29 10t-12 27
q0 23 17 38.5t40 15.5q17 0 28 -9.5t11 -26.5zM222 807q0 -22 -16.5 -38.5t-38.5 -16.5q-17 0 -29 10t-12 27q0 23 17 38.5t40 15.5q17 0 28 -9.5t11 -26.5z" />
    <glyph glyph-name="Eth" unicode="&#xd0;" horiz-adv-x="662" 
d="M621 434q0 -61 -14 -123q-34 -153 -142 -238q-93 -73 -252 -73h-172q-15 0 -18.5 7.5t0.5 19.5l53 302h-66q-14 0 -14 12q0 7 1 11l4 19q2 12 17 12h68l50 284q2 13 7.5 18t19.5 5h128q93 0 147.5 -11t94.5 -39q88 -62 88 -206zM524 420q0 100 -50 149q-48 46 -169 46
h-89l-41 -232h111q18 0 18 -10q0 -6 -1 -11l-4 -20q-2 -13 -18 -13h-116l-44 -254h85q129 0 193 48q82 62 112 186q13 58 13 111z" />
    <glyph glyph-name="Ntilde" unicode="&#xd1;" horiz-adv-x="692" 
d="M671 678q0 -1 -0.5 -3.5t-0.5 -3.5l-115 -652q-4 -19 -20 -19h-45q-16 0 -25 17l-265 516h-2l-90 -514q-3 -19 -22 -19h-48q-17 0 -17 12q0 1 0.5 3t0.5 3l115 653q3 19 22 19h44q15 0 22 -14l267 -518h1l91 514q3 18 21 18h52q14 0 14 -12zM573 810q0 -6 -7 -12
q-70 -48 -110 -48q-18 0 -47 20.5t-48 20.5q-18 0 -64 -24q-12 -7 -18 -7q-7 0 -9 7l-9 29q-2 8 -2 10q0 6 14 15q56 34 94 34q21 0 54 -21t47 -21q13 0 64 28q12 7 18 7q7 0 9 -6l12 -23q2 -3 2 -9z" />
    <glyph glyph-name="Ograve" unicode="&#xd2;" horiz-adv-x="662" 
d="M625 448q0 -63 -14.5 -127.5t-45 -124t-72.5 -106t-102 -74t-129 -27.5q-112 0 -168.5 68t-56.5 184q0 94 32 187.5t92 161.5q99 112 239 112q113 0 169 -69t56 -185zM529 445q0 181 -142 181q-63 0 -113.5 -38.5t-79.5 -97.5t-44.5 -122.5t-15.5 -121.5q0 -83 34 -132
t108 -49q64 0 114.5 38t79.5 97t44 122.5t15 122.5zM487 778q0 -3 -4 -9l-13 -17q-5 -6 -10 -6q-2 0 -10 4l-130 81q-7 4 -7 11q0 3 4 9l26 32q7 8 13 8q4 0 11 -5l113 -97q7 -7 7 -11z" />
    <glyph glyph-name="Oacute" unicode="&#xd3;" horiz-adv-x="662" 
d="M625 448q0 -63 -14.5 -127.5t-45 -124t-72.5 -106t-102 -74t-129 -27.5q-112 0 -168.5 68t-56.5 184q0 94 32 187.5t92 161.5q99 112 239 112q113 0 169 -69t56 -185zM529 445q0 181 -142 181q-63 0 -113.5 -38.5t-79.5 -97.5t-44.5 -122.5t-15.5 -121.5q0 -83 34 -132
t108 -49q64 0 114.5 38t79.5 97t44 122.5t15 122.5zM548 844q0 -8 -7 -12l-143 -81q-8 -4 -11 -4q-4 0 -9 6l-12 16q-4 5 -4 10t6 9l128 98q9 6 14 6q7 0 12 -8l22 -29q4 -5 4 -11z" />
    <glyph glyph-name="Ocircumflex" unicode="&#xd4;" horiz-adv-x="662" 
d="M625 448q0 -63 -14.5 -127.5t-45 -124t-72.5 -106t-102 -74t-129 -27.5q-112 0 -168.5 68t-56.5 184q0 94 32 187.5t92 161.5q99 112 239 112q113 0 169 -69t56 -185zM529 445q0 181 -142 181q-63 0 -113.5 -38.5t-79.5 -97.5t-44.5 -122.5t-15.5 -121.5q0 -83 34 -132
t108 -49q64 0 114.5 38t79.5 97t44 122.5t15 122.5zM545 778q0 -7 -8 -13l-16 -12q-2 -2 -8 -2t-14 6l-73 68l-100 -72q-5 -4 -12 -4t-11 5l-11 13q-3 3 -3 7q0 6 7 11l114 100q10 8 19 8h16q11 0 16 -6l81 -101q3 -5 3 -8z" />
    <glyph glyph-name="Otilde" unicode="&#xd5;" horiz-adv-x="662" 
d="M625 448q0 -63 -14.5 -127.5t-45 -124t-72.5 -106t-102 -74t-129 -27.5q-112 0 -168.5 68t-56.5 184q0 94 32 187.5t92 161.5q99 112 239 112q113 0 169 -69t56 -185zM529 445q0 181 -142 181q-63 0 -113.5 -38.5t-79.5 -97.5t-44.5 -122.5t-15.5 -121.5q0 -83 34 -132
t108 -49q64 0 114.5 38t79.5 97t44 122.5t15 122.5zM597 809q0 -6 -7 -12q-70 -48 -110 -48q-18 0 -47 20.5t-48 20.5q-18 0 -64 -24q-12 -7 -18 -7q-7 0 -9 7l-9 29q-2 8 -2 10q0 6 14 15q56 34 94 34q21 0 54 -21t47 -21q13 0 64 28q12 7 18 7q7 0 9 -6l12 -23q2 -3 2 -9z
" />
    <glyph glyph-name="Odieresis" unicode="&#xd6;" horiz-adv-x="662" 
d="M625 448q0 -63 -14.5 -127.5t-45 -124t-72.5 -106t-102 -74t-129 -27.5q-112 0 -168.5 68t-56.5 184q0 94 32 187.5t92 161.5q99 112 239 112q113 0 169 -69t56 -185zM529 445q0 181 -142 181q-63 0 -113.5 -38.5t-79.5 -97.5t-44.5 -122.5t-15.5 -121.5q0 -83 34 -132
t108 -49q64 0 114.5 38t79.5 97t44 122.5t15 122.5zM547 804q0 -22 -16.5 -38.5t-38.5 -16.5q-17 0 -29 10t-12 27q0 23 17 38.5t40 15.5q17 0 28 -9.5t11 -26.5zM377 804q0 -22 -16.5 -38.5t-38.5 -16.5q-17 0 -29 10t-12 27q0 23 17 38.5t40 15.5q17 0 28 -9.5t11 -26.5z
" />
    <glyph glyph-name="multiply" unicode="&#xd7;" horiz-adv-x="505" 
d="M437 385q0 -9 -15 -21l-114 -100l85 -109q4 -5 4 -10q0 -8 -8 -14l-35 -31q-6 -6 -12 -6t-12 7l-86 109l-120 -106q-9 -7 -13 -7q-6 0 -12 7l-22 26q-4 4 -4 9q0 7 16 21l113 101l-84 108q-5 6 -5 12q0 7 9 14l33 28q9 7 14 7q6 0 12 -7l85 -108l119 105q8 8 14 8
q5 0 11 -7l22 -25q5 -7 5 -11z" />
    <glyph glyph-name="Oslash" unicode="&#xd8;" horiz-adv-x="676" 
d="M671 701q0 -4 -5 -11l-68 -82q38 -61 38 -158q0 -80 -23.5 -160.5t-67.5 -148t-115 -110t-156 -42.5q-92 0 -152 52l-57 -68q-9 -12 -17 -12q-4 0 -11 5l-17 14q-7 6 -7 11q0 4 8 14l65 79q-38 59 -38 152q0 82 23.5 163t67.5 149.5t114.5 111t156.5 42.5q92 0 150 -53
l61 73q9 10 14 10q4 0 7 -3l22 -17q7 -6 7 -11zM500 581q-37 46 -107 46q-60 0 -109 -36.5t-78 -93t-44.5 -118t-15.5 -117.5q0 -59 15 -93zM539 435q0 58 -12 93l-344 -417q38 -47 108 -47q61 0 110.5 37.5t78.5 95.5t44 120t15 118z" />
    <glyph glyph-name="Ugrave" unicode="&#xd9;" horiz-adv-x="693" 
d="M675 676q0 -5 -1 -8l-65 -366q-28 -158 -112 -237q-81 -76 -212 -76q-224 0 -224 198q0 56 11 120l64 365q3 18 22 18h51q16 0 16 -14q0 -6 -1 -10l-61 -349q-12 -70 -12 -110q0 -72 34 -107t115 -35q45 0 81 14.5t59 36.5t40 57t26.5 68t17.5 76l63 356q3 17 19 17h57
q12 0 12 -14zM484 767q0 -3 -4 -9l-13 -17q-5 -6 -10 -6q-2 0 -10 4l-130 81q-7 4 -7 11q0 3 4 9l26 32q7 8 13 8q4 0 11 -5l113 -97q7 -7 7 -11z" />
    <glyph glyph-name="Uacute" unicode="&#xda;" horiz-adv-x="693" 
d="M675 676q0 -5 -1 -8l-65 -366q-28 -158 -112 -237q-81 -76 -212 -76q-224 0 -224 198q0 56 11 120l64 365q3 18 22 18h51q16 0 16 -14q0 -6 -1 -10l-61 -349q-12 -70 -12 -110q0 -72 34 -107t115 -35q45 0 81 14.5t59 36.5t40 57t26.5 68t17.5 76l63 356q3 17 19 17h57
q12 0 12 -14zM529 830q0 -8 -7 -12l-143 -81q-8 -4 -11 -4q-4 0 -9 6l-12 16q-4 5 -4 10t6 9l128 98q9 6 14 6q7 0 12 -8l22 -29q4 -5 4 -11z" />
    <glyph glyph-name="Ucircumflex" unicode="&#xdb;" horiz-adv-x="693" 
d="M675 676q0 -5 -1 -8l-65 -366q-28 -158 -112 -237q-81 -76 -212 -76q-224 0 -224 198q0 56 11 120l64 365q3 18 22 18h51q16 0 16 -14q0 -6 -1 -10l-61 -349q-12 -70 -12 -110q0 -72 34 -107t115 -35q45 0 81 14.5t59 36.5t40 57t26.5 68t17.5 76l63 356q3 17 19 17h57
q12 0 12 -14zM540 771q0 -7 -8 -13l-16 -12q-2 -2 -8 -2t-14 6l-73 68l-100 -72q-5 -4 -12 -4t-11 5l-11 13q-3 3 -3 7q0 6 7 11l114 100q10 8 19 8h16q11 0 16 -6l81 -101q3 -5 3 -8z" />
    <glyph glyph-name="Udieresis" unicode="&#xdc;" horiz-adv-x="693" 
d="M675 676q0 -5 -1 -8l-65 -366q-28 -158 -112 -237q-81 -76 -212 -76q-224 0 -224 198q0 56 11 120l64 365q3 18 22 18h51q16 0 16 -14q0 -6 -1 -10l-61 -349q-12 -70 -12 -110q0 -72 34 -107t115 -35q45 0 81 14.5t59 36.5t40 57t26.5 68t17.5 76l63 356q3 17 19 17h57
q12 0 12 -14zM543 806q0 -22 -16.5 -38.5t-38.5 -16.5q-17 0 -29 10t-12 27q0 23 17 38.5t40 15.5q17 0 28 -9.5t11 -26.5zM373 806q0 -22 -16.5 -38.5t-38.5 -16.5q-17 0 -29 10t-12 27q0 23 17 38.5t40 15.5q17 0 28 -9.5t11 -26.5z" />
    <glyph glyph-name="Yacute" unicode="&#xdd;" horiz-adv-x="551" 
d="M587 683q0 -6 -4 -11l-269 -395l-46 -259q-3 -18 -20 -18h-54q-16 0 -16 13q0 1 0.5 3t0.5 3l45 254l-139 398q-1 2 -1 5q0 14 16 14h58q22 0 26 -15l102 -324h1l210 322q12 17 29 17h50q11 0 11 -7zM437 835q0 -9 -7 -12l-143 -81q-5 -4 -11 -4q-4 0 -9 6l-12 16
q-4 5 -4 10q0 3 6 9l128 98q9 6 14 6q6 0 12 -8l22 -29q4 -5 4 -11z" />
    <glyph glyph-name="Thorn" unicode="&#xde;" horiz-adv-x="533" 
d="M482 366q0 -44 -8 -76q-22 -96 -88.5 -154t-154.5 -58q-86 0 -125 58l-24 -116q-4 -20 -18 -20h-47q-15 0 -15 12q0 1 0.5 3.5t0.5 3.5l103 587q3 16 6 19.5t13 5.5l51 6h4q11 0 11 -11q0 -5 -1 -8l-25 -146q69 64 154 64q80 0 121.5 -45t41.5 -125zM396 355
q0 55 -26.5 84.5t-77.5 29.5q-38 0 -76 -19.5t-63 -47.5l-33 -188q12 -29 42 -49.5t65 -20.5q62 0 103 37t58 105q8 32 8 69z" />
    <glyph glyph-name="germandbls" unicode="&#xdf;" horiz-adv-x="565" 
d="M521 583q0 -70 -40.5 -124t-104.5 -70v-1v-1q60 -8 96 -47.5t36 -98.5q0 -112 -78.5 -180t-192.5 -68q-27 0 -45 3q-13 2 -10 16l5 31q2 16 17 16q6 0 19 -0.5t20 -0.5q77 0 129 51t52 127q0 56 -39.5 84t-97.5 28h-30q-10 0 -12.5 2t-0.5 10l6 35q3 12 14 12h13
q67 0 112 47t46 115q0 89 -100 89q-66 0 -101.5 -48t-55.5 -163l-92 -522q-3 -19 -19 -19h-50q-17 0 -14 19l89 506q9 52 18.5 88.5t28.5 78t44.5 66.5t67 42t95.5 17q75 0 125 -37t50 -103z" />
    <glyph glyph-name="agrave" unicode="&#xe0;" horiz-adv-x="539" 
d="M508 67l-3 -30q-2 -14 -15 -20q-1 0 -7.5 -3.5t-12.5 -6t-15 -5.5t-20 -5t-22 -2q-30 0 -44 17q-11 15 -11 41q0 5 2 19h-2q-27 -36 -70 -59.5t-94 -23.5q-80 0 -120 53.5t-40 136.5q0 62 24 125.5t68 110.5q75 80 180 80q90 0 181 -48q13 -7 10 -22l-54 -300
q-5 -23 -5 -41q0 -24 15 -24q18 0 43 14q4 3 8.5 1t3.5 -8zM409 399q-43 29 -101 29q-67 0 -115 -53q-34 -37 -52.5 -91t-18.5 -105q0 -55 25 -87t71 -32q47 0 86.5 28.5t60.5 68.5zM395 590q0 -3 -4 -9l-13 -17q-4 -6 -10 -6q-2 0 -10 4l-130 81q-7 4 -7 11q0 3 4 9l26 32
q7 8 13 8q4 0 11 -5l113 -97q7 -7 7 -11z" />
    <glyph glyph-name="aacute" unicode="&#xe1;" horiz-adv-x="539" 
d="M508 67l-3 -30q-2 -14 -15 -20q-1 0 -7.5 -3.5t-12.5 -6t-15 -5.5t-20 -5t-22 -2q-30 0 -44 17q-11 15 -11 41q0 5 2 19h-2q-27 -36 -70 -59.5t-94 -23.5q-80 0 -120 53.5t-40 136.5q0 62 24 125.5t68 110.5q75 80 180 80q90 0 181 -48q13 -7 10 -22l-54 -300
q-5 -23 -5 -41q0 -24 15 -24q18 0 43 14q4 3 8.5 1t3.5 -8zM409 399q-43 29 -101 29q-67 0 -115 -53q-34 -37 -52.5 -91t-18.5 -105q0 -55 25 -87t71 -32q47 0 86.5 28.5t60.5 68.5zM433 655q0 -8 -7 -12l-143 -81q-8 -4 -11 -4q-4 0 -9 6l-12 16q-4 5 -4 10t6 9l128 98
q9 6 14 6q7 0 12 -8l22 -29q4 -5 4 -11z" />
    <glyph glyph-name="acircumflex" unicode="&#xe2;" horiz-adv-x="539" 
d="M508 67l-3 -30q-2 -14 -15 -20q-1 0 -7.5 -3.5t-12.5 -6t-15 -5.5t-20 -5t-22 -2q-30 0 -44 17q-11 15 -11 41q0 5 2 19h-2q-27 -36 -70 -59.5t-94 -23.5q-80 0 -120 53.5t-40 136.5q0 62 24 125.5t68 110.5q75 80 180 80q90 0 181 -48q13 -7 10 -22l-54 -300
q-5 -23 -5 -41q0 -24 15 -24q18 0 43 14q4 3 8.5 1t3.5 -8zM409 399q-43 29 -101 29q-67 0 -115 -53q-34 -37 -52.5 -91t-18.5 -105q0 -55 25 -87t71 -32q47 0 86.5 28.5t60.5 68.5zM467 587q0 -7 -8 -13l-16 -12q-2 -2 -8 -2q-7 0 -14 6l-73 68l-100 -72q-5 -4 -12 -4
t-11 5l-11 13q-3 3 -3 7q0 6 7 11l114 100q10 8 19 8h16q11 0 16 -6l81 -101q3 -5 3 -8z" />
    <glyph glyph-name="atilde" unicode="&#xe3;" horiz-adv-x="539" 
d="M508 67l-3 -30q-2 -14 -15 -20q-1 0 -7.5 -3.5t-12.5 -6t-15 -5.5t-20 -5t-22 -2q-30 0 -44 17q-11 15 -11 41q0 5 2 19h-2q-27 -36 -70 -59.5t-94 -23.5q-80 0 -120 53.5t-40 136.5q0 62 24 125.5t68 110.5q75 80 180 80q90 0 181 -48q13 -7 10 -22l-54 -300
q-5 -23 -5 -41q0 -24 15 -24q18 0 43 14q4 3 8.5 1t3.5 -8zM409 399q-43 29 -101 29q-67 0 -115 -53q-34 -37 -52.5 -91t-18.5 -105q0 -55 25 -87t71 -32q47 0 86.5 28.5t60.5 68.5zM498 655q0 -6 -7 -12q-70 -48 -110 -48q-19 0 -48 20.5t-47 20.5t-64 -24q-12 -7 -18 -7
q-7 0 -9 7l-9 29q-2 8 -2 10q0 6 14 15q56 34 94 34q21 0 54 -21t47 -21q13 0 64 28q12 7 18 7q7 0 9 -6l12 -23q2 -3 2 -9z" />
    <glyph glyph-name="adieresis" unicode="&#xe4;" horiz-adv-x="539" 
d="M508 67l-3 -30q-2 -14 -15 -20q-1 0 -7.5 -3.5t-12.5 -6t-15 -5.5t-20 -5t-22 -2q-30 0 -44 17q-11 15 -11 41q0 5 2 19h-2q-27 -36 -70 -59.5t-94 -23.5q-80 0 -120 53.5t-40 136.5q0 62 24 125.5t68 110.5q75 80 180 80q90 0 181 -48q13 -7 10 -22l-54 -300
q-5 -23 -5 -41q0 -24 15 -24q18 0 43 14q4 3 8.5 1t3.5 -8zM409 399q-43 29 -101 29q-67 0 -115 -53q-34 -37 -52.5 -91t-18.5 -105q0 -55 25 -87t71 -32q47 0 86.5 28.5t60.5 68.5zM468 666q0 -22 -16.5 -38.5t-38.5 -16.5q-17 0 -29 10t-12 27q0 23 17 38.5t40 15.5
q17 0 28 -9.5t11 -26.5zM298 666q0 -22 -16.5 -38.5t-38.5 -16.5q-17 0 -29 10t-12 27q0 23 17 38.5t40 15.5q17 0 28 -9.5t11 -26.5z" />
    <glyph glyph-name="aring" unicode="&#xe5;" horiz-adv-x="539" 
d="M508 67l-3 -30q-2 -14 -15 -20q-1 0 -7.5 -3.5t-12.5 -6t-15 -5.5t-20 -5t-22 -2q-30 0 -44 17q-11 15 -11 41q0 5 2 19h-2q-27 -36 -70 -59.5t-94 -23.5q-80 0 -120 53.5t-40 136.5q0 62 24 125.5t68 110.5q75 80 180 80q90 0 181 -48q13 -7 10 -22l-54 -300
q-5 -23 -5 -41q0 -24 15 -24q18 0 43 14q4 3 8.5 1t3.5 -8zM409 399q-43 29 -101 29q-67 0 -115 -53q-34 -37 -52.5 -91t-18.5 -105q0 -55 25 -87t71 -32q47 0 86.5 28.5t60.5 68.5zM426 637q0 -38 -29.5 -67t-67.5 -29q-29 0 -49.5 20t-20.5 49q0 37 31 66t68 29
q29 0 48.5 -19.5t19.5 -48.5zM381 630q0 13 -8.5 21.5t-22.5 8.5q-18 0 -32 -12.5t-14 -30.5q0 -14 9.5 -22.5t23.5 -8.5q18 0 31 13t13 31z" />
    <glyph glyph-name="ae" unicode="&#xe6;" horiz-adv-x="764" 
d="M738 329q0 -36 -6 -68q-4 -20 -9.5 -26t-19.5 -6h-308q-2 -22 -2 -31q0 -109 87 -132q18 -5 46 -5q64 0 120 18q1 0 2.5 0.5t2.5 0.5h4q10 0 10 -9l3 -36q1 -14 -15 -20q-63 -26 -155 -26q-116 0 -159 78q-92 -78 -204 -78q-52 0 -87.5 31t-35.5 82q0 100 100 151
q73 38 184 38h31l5 27q4 26 4 40q0 38 -17.5 56.5t-57.5 18.5q-53 0 -124 -32q-4 -2 -13 -5q-2 -1 -5 -1q-8 0 -9 8l-7 31v3q0 8 15 17q82 41 164 41q58 0 92 -27q30 -24 30 -63q27 42 78.5 66t102.5 24q75 0 114 -45t39 -121zM661 333q0 43 -23 71t-69 28
q-58 0 -103.5 -44.5t-59.5 -103.5h249q6 27 6 49zM317 116q-7 27 -7 60q0 25 7 58q-219 0 -219 -115q0 -31 20.5 -48t51.5 -17q36 0 78 19.5t69 42.5z" />
    <glyph glyph-name="ccedilla" unicode="&#xe7;" horiz-adv-x="430" 
d="M443 448l-16 -35q-6 -13 -23 -5q-47 22 -85 22q-91 0 -144 -75t-53 -170q0 -59 29 -94.5t89 -35.5q57 0 112 22q13 6 16 -7l6 -32q3 -15 -17 -22q-66 -26 -142 -26l-9 -38h10q36 0 58 -14.5t22 -43.5q0 -36 -24 -60q-34 -34 -91 -34q-25 0 -56 11q-13 5 -9 14l8 17
q4 8 16 4q23 -9 45 -9q31 0 46 20q10 13 10 28q0 31 -55 31h-21q-15 0 -10 17l16 61q-68 12 -102.5 61t-34.5 125q0 127 80.5 221t205.5 94q67 0 118 -28q10 -6 5 -19z" />
    <glyph glyph-name="egrave" unicode="&#xe8;" horiz-adv-x="494" 
d="M466 333q0 -35 -9 -84q-2 -13 -7.5 -17t-19.5 -4h-200h-105q-3 -27 -3 -37q0 -61 31.5 -98t95.5 -37q60 0 121 21q5 2 13 2q9 0 9 -9l3 -34v-3q0 -11 -15 -17q-70 -27 -148 -27q-95 0 -146.5 52t-51.5 142q0 135 85 228q78 84 192 84q74 0 114.5 -43.5t40.5 -118.5z
M387 333q0 98 -88 98q-60 0 -103 -42.5t-61 -104.5h247q5 27 5 49zM384 590q0 -3 -4 -9l-13 -17q-5 -6 -10 -6q-2 0 -10 4l-130 81q-7 4 -7 11q0 3 4 9l26 32q7 8 13 8q4 0 11 -5l113 -97q7 -7 7 -11z" />
    <glyph glyph-name="eacute" unicode="&#xe9;" horiz-adv-x="494" 
d="M466 333q0 -35 -9 -84q-2 -13 -7.5 -17t-19.5 -4h-200h-105q-3 -27 -3 -37q0 -61 31.5 -98t95.5 -37q60 0 121 21q5 2 13 2q9 0 9 -9l3 -34v-3q0 -11 -15 -17q-70 -27 -148 -27q-95 0 -146.5 52t-51.5 142q0 135 85 228q78 84 192 84q74 0 114.5 -43.5t40.5 -118.5z
M387 333q0 98 -88 98q-60 0 -103 -42.5t-61 -104.5h247q5 27 5 49zM408 655q0 -8 -7 -12l-143 -81q-8 -4 -11 -4q-5 0 -9 6l-12 16q-4 5 -4 10t6 9l128 98q9 6 14 6q7 0 12 -8l22 -29q4 -5 4 -11z" />
    <glyph glyph-name="ecircumflex" unicode="&#xea;" horiz-adv-x="494" 
d="M466 333q0 -35 -9 -84q-2 -13 -7.5 -17t-19.5 -4h-200h-105q-3 -27 -3 -37q0 -61 31.5 -98t95.5 -37q60 0 121 21q5 2 13 2q9 0 9 -9l3 -34v-3q0 -11 -15 -17q-70 -27 -148 -27q-95 0 -146.5 52t-51.5 142q0 135 85 228q78 84 192 84q74 0 114.5 -43.5t40.5 -118.5z
M387 333q0 98 -88 98q-60 0 -103 -42.5t-61 -104.5h247q5 27 5 49zM442 587q0 -7 -8 -13l-16 -12q-2 -2 -8 -2t-14 6l-73 68l-100 -72q-5 -4 -12 -4t-11 5l-11 13q-3 3 -3 7q0 6 7 11l114 100q10 8 19 8h16q11 0 16 -6l81 -101q3 -5 3 -8z" />
    <glyph glyph-name="edieresis" unicode="&#xeb;" horiz-adv-x="494" 
d="M466 333q0 -35 -9 -84q-2 -13 -7.5 -17t-19.5 -4h-200h-105q-3 -27 -3 -37q0 -61 31.5 -98t95.5 -37q60 0 121 21q5 2 13 2q9 0 9 -9l3 -34v-3q0 -11 -15 -17q-70 -27 -148 -27q-95 0 -146.5 52t-51.5 142q0 135 85 228q78 84 192 84q74 0 114.5 -43.5t40.5 -118.5z
M387 333q0 98 -88 98q-60 0 -103 -42.5t-61 -104.5h247q5 27 5 49zM457 660q0 -22 -16.5 -38.5t-38.5 -16.5q-17 0 -29 10t-12 27q0 23 17 38.5t40 15.5q17 0 28 -9.5t11 -26.5zM287 660q0 -22 -16.5 -38.5t-38.5 -16.5q-17 0 -29 10t-12 27q0 23 17 38.5t40 15.5
q17 0 28 -9.5t11 -26.5z" />
    <glyph glyph-name="igrave" unicode="&#xec;" horiz-adv-x="240" 
d="M193 471q0 -1 -1 -4l-1 -3l-78 -446q-3 -18 -20 -18h-49q-14 0 -14 13v4q1 4 1 5l78 445q3 17 21 17h48q15 0 15 -13zM244 590q0 -3 -4 -9l-13 -17q-5 -6 -10 -6q-2 0 -10 4l-130 81q-7 4 -7 11q0 3 4 9l26 32q7 8 13 8q4 0 11 -5l113 -97q7 -7 7 -11z" />
    <glyph glyph-name="iacute" unicode="&#xed;" horiz-adv-x="240" 
d="M263 655q0 -8 -7 -12l-143 -81q-8 -4 -11 -4q-4 0 -9 6l-12 16q-4 5 -4 10t6 9l128 98q9 6 14 6q7 0 12 -8l22 -29q4 -5 4 -11zM193 471q0 -1 -1 -4l-1 -3l-78 -446q-3 -18 -20 -18h-49q-14 0 -14 13v4q1 4 1 5l78 445q3 17 21 17h48q15 0 15 -13z" />
    <glyph glyph-name="icircumflex" unicode="&#xee;" horiz-adv-x="240" 
d="M193 471q0 -1 -1 -4l-1 -3l-78 -446q-3 -18 -20 -18h-49q-14 0 -14 13v4q1 4 1 5l78 445q3 17 21 17h48q15 0 15 -13zM290 587q0 -7 -8 -13l-16 -12q-2 -2 -8 -2t-14 6l-73 68l-100 -72q-5 -4 -12 -4t-11 5l-11 13q-3 3 -3 7q0 6 7 11l114 100q10 8 19 8h16q11 0 16 -6
l81 -101q3 -5 3 -8z" />
    <glyph glyph-name="idieresis" unicode="&#xef;" horiz-adv-x="240" 
d="M193 471q0 -1 -1 -4l-1 -3l-78 -446q-3 -18 -20 -18h-49q-14 0 -14 13v4q1 4 1 5l78 445q3 17 21 17h48q15 0 15 -13zM301 666q0 -22 -16.5 -38.5t-38.5 -16.5q-17 0 -29 10t-12 27q0 23 17 38.5t40 15.5q17 0 28 -9.5t11 -26.5zM131 666q0 -22 -16.5 -38.5t-38.5 -16.5
q-17 0 -29 10t-12 27q0 23 17 38.5t40 15.5q17 0 28 -9.5t11 -26.5z" />
    <glyph glyph-name="eth" unicode="&#xf0;" horiz-adv-x="528" 
d="M484 344q0 -120 -54 -216q-78 -139 -226 -139q-94 0 -137 53t-43 141q0 80 32 150.5t96 116t147 45.5q42 0 74 -24q-18 103 -104 152l-48 -73q-6 -9 -11 -9q-4 0 -8 3l-14 8q-6 3 -6 9q0 3 3 9l47 71q-31 14 -80 24q-9 1 -9 11q0 2 2 8l11 24q4 9 15 9q38 0 101 -21
l46 67q5 8 10 8q2 0 6 -2l16 -9q6 -3 6 -8q0 -4 -4 -9l-41 -62q86 -43 129.5 -136.5t43.5 -200.5zM395 301q0 57 -25.5 93t-82.5 36q-46 0 -81.5 -23.5t-56 -61.5t-30.5 -80.5t-10 -84.5q0 -56 25.5 -91t81.5 -35q65 0 107.5 45.5t59.5 115.5q7 25 10 56q2 20 2 30z" />
    <glyph glyph-name="ntilde" unicode="&#xf1;" horiz-adv-x="538" 
d="M491 368q0 -26 -6 -64l-51 -286q-3 -18 -19 -18h-50q-17 0 -13 22l50 280q5 28 5 51q0 70 -79 70q-34 0 -75.5 -17t-74.5 -44l-60 -344q-3 -18 -20 -18h-50q-17 0 -13 20l79 446q3 18 19 18h46q18 0 14 -18l-6 -35q78 64 175 64q68 0 99 -34q30 -31 30 -93zM494 655
q0 -6 -7 -12q-70 -48 -110 -48q-19 0 -48 20.5t-47 20.5t-64 -24q-12 -7 -18 -7q-7 0 -9 7l-9 29q-2 8 -2 10q0 6 14 15q56 34 94 34q21 0 54 -21t47 -21q13 0 64 28q12 7 18 7q7 0 9 -6l12 -23q2 -3 2 -9z" />
    <glyph glyph-name="ograve" unicode="&#xf2;" horiz-adv-x="528" 
d="M494 307q0 -128 -76.5 -223t-202.5 -95q-90 0 -135.5 52t-45.5 139q0 126 76 220.5t201 94.5q90 0 136.5 -51.5t46.5 -136.5zM407 299q0 131 -106 131q-83 0 -131.5 -75.5t-48.5 -169.5q0 -131 104 -131q58 0 101.5 40.5t62 94.5t18.5 110zM405 590q0 -3 -4 -9l-13 -17
q-5 -6 -10 -6q-2 0 -10 4l-130 81q-7 4 -7 11q0 3 4 9l26 32q7 8 13 8q4 0 11 -5l113 -97q7 -7 7 -11z" />
    <glyph glyph-name="oacute" unicode="&#xf3;" horiz-adv-x="528" 
d="M494 307q0 -128 -76.5 -223t-202.5 -95q-90 0 -135.5 52t-45.5 139q0 126 76 220.5t201 94.5q90 0 136.5 -51.5t46.5 -136.5zM407 299q0 131 -106 131q-83 0 -131.5 -75.5t-48.5 -169.5q0 -131 104 -131q58 0 101.5 40.5t62 94.5t18.5 110zM415 655q0 -8 -7 -12l-143 -81
q-8 -4 -11 -4q-4 0 -9 6l-12 16q-4 5 -4 10t6 9l128 98q9 6 14 6q7 0 12 -8l22 -29q4 -5 4 -11z" />
    <glyph glyph-name="ocircumflex" unicode="&#xf4;" horiz-adv-x="528" 
d="M494 307q0 -128 -76.5 -223t-202.5 -95q-90 0 -135.5 52t-45.5 139q0 126 76 220.5t201 94.5q90 0 136.5 -51.5t46.5 -136.5zM407 299q0 131 -106 131q-83 0 -131.5 -75.5t-48.5 -169.5q0 -131 104 -131q58 0 101.5 40.5t62 94.5t18.5 110zM446 587q0 -7 -8 -13l-16 -12
q-2 -2 -8 -2t-14 6l-73 68l-100 -72q-5 -4 -12 -4t-11 5l-11 13q-3 3 -3 7q0 6 7 11l114 100q10 8 19 8h16q11 0 16 -6l81 -101q3 -5 3 -8z" />
    <glyph glyph-name="odieresis" unicode="&#xf6;" horiz-adv-x="528" 
d="M494 307q0 -128 -76.5 -223t-202.5 -95q-90 0 -135.5 52t-45.5 139q0 126 76 220.5t201 94.5q90 0 136.5 -51.5t46.5 -136.5zM407 299q0 131 -106 131q-83 0 -131.5 -75.5t-48.5 -169.5q0 -131 104 -131q58 0 101.5 40.5t62 94.5t18.5 110zM463 666q0 -22 -16.5 -38.5
t-38.5 -16.5q-17 0 -29 10t-12 27q0 23 17 38.5t40 15.5q17 0 28 -9.5t11 -26.5zM293 666q0 -22 -16.5 -38.5t-38.5 -16.5q-17 0 -29 10t-12 27q0 23 17 38.5t40 15.5q17 0 28 -9.5t11 -26.5z" />
    <glyph glyph-name="divide" unicode="&#xf7;" horiz-adv-x="505" 
d="M339 454q0 -26 -20 -46t-45 -20q-20 0 -34 12.5t-14 32.5q0 27 20 45.5t47 18.5q20 0 33 -11.5t13 -31.5zM459 288q0 -1 -0.5 -3t-0.5 -3l-7 -38q-3 -18 -20 -18h-373q-14 0 -14 11q0 1 0.5 3t0.5 3l7 39q3 16 18 16h373q16 0 16 -10zM276 96q0 -26 -19.5 -45t-45.5 -19
q-20 0 -34 12t-14 31q0 27 20 46t47 19q20 0 33 -12t13 -32z" />
    <glyph glyph-name="oslash" unicode="&#xf8;" horiz-adv-x="532" 
d="M494 307q0 -128 -76.5 -223t-202.5 -95q-56 0 -97 22l-29 -37q-7 -9 -15 -9q-4 0 -9 3l-16 12q-8 5 -8 11q0 3 3 8l34 44q-44 50 -44 137q0 126 76 220.5t201 94.5q61 0 105 -26l30 39q10 13 16 13q4 0 9 -4l15 -10q6 -5 6 -10t-4 -10l-37 -47q43 -49 43 -133zM368 409
q-26 21 -67 21q-83 0 -131.5 -75.5t-48.5 -169.5q0 -45 12 -73zM407 299q0 42 -11 70l-232 -298q23 -17 61 -17q58 0 101.5 40.5t62 94.5t18.5 110z" />
    <glyph glyph-name="ugrave" unicode="&#xf9;" horiz-adv-x="532" 
d="M499 467l-79 -448q-3 -19 -21 -19h-40q-17 0 -17 14v3l5 36q-82 -64 -171 -64q-61 0 -94.5 31.5t-33.5 92.5q0 24 5 54l53 300q3 17 20 17h49q14 0 14 -13v-4l-50 -284q-5 -28 -5 -51q0 -71 76 -71q34 0 76.5 19t69.5 43l60 343q3 18 21 18h48q14 0 14 -13v-4zM392 590
q0 -3 -4 -9l-13 -17q-5 -6 -10 -6q-2 0 -10 4l-130 81q-7 4 -7 11q0 3 4 9l26 32q7 8 13 8q4 0 11 -5l113 -97q7 -7 7 -11z" />
    <glyph glyph-name="uacute" unicode="&#xfa;" horiz-adv-x="532" 
d="M499 467l-79 -448q-3 -19 -21 -19h-40q-17 0 -17 14v3l5 36q-82 -64 -171 -64q-61 0 -94.5 31.5t-33.5 92.5q0 24 5 54l53 300q3 17 20 17h49q14 0 14 -13v-4l-50 -284q-5 -28 -5 -51q0 -71 76 -71q34 0 76.5 19t69.5 43l60 343q3 18 21 18h48q14 0 14 -13v-4zM418 655
q0 -8 -7 -12l-143 -81q-8 -4 -11 -4q-5 0 -9 6l-12 16q-4 5 -4 10t6 9l128 98q9 6 14 6q7 0 12 -8l22 -29q4 -5 4 -11z" />
    <glyph glyph-name="ucircumflex" unicode="&#xfb;" horiz-adv-x="532" 
d="M499 467l-79 -448q-3 -19 -21 -19h-40q-17 0 -17 14v3l5 36q-82 -64 -171 -64q-61 0 -94.5 31.5t-33.5 92.5q0 24 5 54l53 300q3 17 20 17h49q14 0 14 -13v-4l-50 -284q-5 -28 -5 -51q0 -71 76 -71q34 0 76.5 19t69.5 43l60 343q3 18 21 18h48q14 0 14 -13v-4zM444 587
q0 -7 -8 -13l-16 -12q-2 -2 -8 -2t-14 6l-73 68l-100 -72q-5 -4 -12 -4t-11 5l-11 13q-3 3 -3 7q0 6 7 11l114 100q10 8 19 8h16q11 0 16 -6l81 -101q3 -5 3 -8z" />
    <glyph glyph-name="udieresis" unicode="&#xfc;" horiz-adv-x="532" 
d="M499 467l-79 -448q-3 -19 -21 -19h-40q-17 0 -17 14v3l5 36q-82 -64 -171 -64q-61 0 -94.5 31.5t-33.5 92.5q0 24 5 54l53 300q3 17 20 17h49q14 0 14 -13v-4l-50 -284q-5 -28 -5 -51q0 -71 76 -71q34 0 76.5 19t69.5 43l60 343q3 18 21 18h48q14 0 14 -13v-4zM457 666
q0 -22 -16.5 -38.5t-38.5 -16.5q-17 0 -29 10t-12 27q0 23 17 38.5t40 15.5q17 0 28 -9.5t11 -26.5zM287 666q0 -22 -16.5 -38.5t-38.5 -16.5q-17 0 -29 10t-12 27q0 23 17 38.5t40 15.5q17 0 28 -9.5t11 -26.5z" />
    <glyph glyph-name="yacute" unicode="&#xfd;" horiz-adv-x="478" 
d="M500 476q0 -6 -5 -15l-281 -519q-48 -90 -98.5 -125.5t-130.5 -35.5q-24 0 -41 4q-9 1 -9 10q0 4 2 10l11 35q4 12 15 12h1q6 0 17.5 -1.5t16.5 -1.5q83 0 128 78l36 63l-93 475q0 1 -0.5 3t-0.5 3q0 13 13 13h62q15 0 17 -14l62 -380l191 377q9 17 25 17h49q13 0 13 -8z
M408 655q0 -8 -7 -12l-143 -81q-10 -4 -11 -4q-5 0 -9 6l-12 16q-4 5 -4 10t6 9l128 98q8 6 14 6q7 0 12 -8l22 -29q4 -5 4 -11z" />
    <glyph glyph-name="thorn" unicode="&#xfe;" horiz-adv-x="533" 
d="M498 306q0 -76 -31 -148t-92.5 -121t-138.5 -49q-38 0 -71.5 16t-49.5 45l-43 -243q-3 -18 -18 -19l-52 -6h-4q-11 0 -11 10q0 1 0.5 3.5t0.5 4.5l149 874q3 17 14 17h54q14 0 14 -12v-3l-42 -248q66 68 159 68q80 0 121 -53.5t41 -135.5zM411 307q0 56 -26.5 88
t-77.5 32q-34 0 -74.5 -20t-63.5 -48l-41 -233q12 -31 39 -51t62 -20q59 0 102 40q37 34 58.5 92.5t21.5 119.5z" />
    <glyph glyph-name="ydieresis" unicode="&#xff;" horiz-adv-x="478" 
d="M500 476q0 -6 -5 -15l-281 -519q-48 -90 -98.5 -125.5t-130.5 -35.5q-24 0 -41 4q-9 1 -9 10q0 4 2 10l11 35q4 12 15 12h1q6 0 17.5 -1.5t16.5 -1.5q83 0 128 78l36 63l-93 475q0 1 -0.5 3t-0.5 3q0 13 13 13h62q15 0 17 -14l62 -380l191 377q9 17 25 17h49q13 0 13 -8z
M454 666q0 -22 -16.5 -38.5t-38.5 -16.5q-17 0 -29 10t-12 27q0 23 17 38.5t40 15.5q17 0 28 -9.5t11 -26.5zM284 666q0 -22 -16.5 -38.5t-38.5 -16.5q-17 0 -29 10t-12 27q0 23 17 38.5t40 15.5q17 0 28 -9.5t11 -26.5z" />
    <glyph glyph-name="Cacute" unicode="&#x106;" horiz-adv-x="572" 
d="M596 649q0 -3 -3 -8l-24 -46q-5 -8 -10 -8t-13 5q-60 35 -133 35q-65 0 -119 -33.5t-87.5 -87t-52 -115.5t-18.5 -123q0 -91 43 -147.5t133 -56.5q69 0 148 33q9 3 14 3q9 0 11 -8l9 -42v-3q0 -10 -16 -17q-88 -41 -191 -41q-121 0 -185.5 71t-64.5 193q0 111 44.5 212
t133.5 169t202 68q104 0 171 -43q8 -5 8 -10zM574 836q0 -8 -7 -12l-143 -81q-8 -4 -11 -4q-5 0 -9 6l-12 16q-4 5 -4 10t6 9l128 98q9 6 14 6q7 0 12 -8l22 -29q4 -5 4 -11z" />
    <glyph glyph-name="cacute" unicode="&#x107;" horiz-adv-x="427" 
d="M447 457q0 -3 -3 -9l-16 -36q-4 -9 -10 -9l-13 5q-47 22 -85 22q-68 0 -120 -47q-78 -72 -78 -198q0 -58 30 -93.5t90 -35.5q49 0 106 21q8 3 11 3q6 0 9 -10l9 -32q0 -1 1 -3v-2q0 -8 -19 -16q-66 -28 -138 -28q-93 0 -140 50.5t-47 140.5q0 70 28 136t78 111
q76 68 181 68q67 0 118 -28q8 -5 8 -10zM473 655q0 -8 -7 -12l-143 -81q-8 -4 -11 -4q-4 0 -9 6l-12 16q-4 5 -4 10t6 9l128 98q9 6 14 6q7 0 12 -8l22 -29q4 -5 4 -11z" />
    <glyph glyph-name="Ccaron" unicode="&#x10c;" horiz-adv-x="572" 
d="M596 649q0 -3 -3 -8l-24 -46q-5 -8 -10 -8t-13 5q-60 35 -133 35q-65 0 -119 -33.5t-87.5 -87t-52 -115.5t-18.5 -123q0 -91 43 -147.5t133 -56.5q69 0 148 33q9 3 14 3q9 0 11 -8l9 -42v-3q0 -10 -16 -17q-88 -41 -191 -41q-121 0 -185.5 71t-64.5 193q0 111 44.5 212
t133.5 169t202 68q104 0 171 -43q8 -5 8 -10zM570 871q0 -6 -7 -11l-114 -100q-10 -8 -19 -8h-16q-11 0 -16 6l-81 101q-3 3 -3 7q0 8 8 14l16 12q4 2 8 2q6 0 14 -6l73 -68l100 72q5 4 12 4t11 -5l11 -13q3 -5 3 -7z" />
    <glyph glyph-name="ccaron" unicode="&#x10d;" horiz-adv-x="427" 
d="M447 457q0 -3 -3 -9l-16 -36q-4 -9 -10 -9l-13 5q-47 22 -85 22q-68 0 -120 -47q-78 -72 -78 -198q0 -58 30 -93.5t90 -35.5q49 0 106 21q8 3 11 3q6 0 9 -10l9 -32q0 -1 1 -3v-2q0 -8 -19 -16q-66 -28 -138 -28q-93 0 -140 50.5t-47 140.5q0 70 28 136t78 111
q76 68 181 68q67 0 118 -28q8 -5 8 -10zM463 677q0 -6 -7 -11l-114 -100q-10 -8 -19 -8h-16q-11 0 -16 6l-81 101q-3 4 -3 7q0 8 8 14l16 12q2 2 8 2q8 0 14 -6l73 -68l100 72q5 4 12 4t11 -5l11 -13q3 -3 3 -7z" />
    <glyph glyph-name="Dcroat" unicode="&#x110;" horiz-adv-x="660" 
d="M623 429q0 -95 -32.5 -179t-86.5 -142q-101 -108 -295 -108h-168q-20 0 -20 15q0 1 0.5 3t0.5 4l49 278h-54q-16 0 -16 14q0 3 2 13l8 34q3 13 18 13h55l52 293q2 13 7.5 18t19.5 5h126q170 0 243 -51q41 -29 66 -86t25 -124zM251 361q0 -7 -1 -11l-7 -33q-3 -17 -20 -17
h-63l-39 -228h69q134 0 200 49q63 47 99.5 129.5t36.5 166.5q0 100 -50 149q-55 52 -169 52h-91l-43 -244h62q16 0 16 -13z" />
    <glyph glyph-name="dcroat" unicode="&#x111;" horiz-adv-x="536" 
d="M596 622q0 -1 -0.5 -3t-0.5 -4l-3 -22q-3 -21 -25 -21h-42l-98 -555q-3 -17 -14 -17h-49q-15 0 -15 13q0 1 0.5 3.5t0.5 3.5l6 37q-30 -31 -72.5 -49.5t-85.5 -18.5q-83 0 -122.5 51.5t-39.5 135.5q0 146 94 245q72 75 167 75q38 0 71.5 -16t49.5 -45q3 16 11 63.5
t13 73.5h-69q-17 0 -17 13q0 1 0.5 3.5t0.5 4.5l3 22q2 11 6.5 15t16.5 4h70l9 51q3 16 18 19l51 7h6q11 0 11 -10q0 -1 -0.5 -3t-0.5 -4l-11 -60h42q18 0 18 -12zM405 360q-11 31 -39 50t-63 19q-52 0 -94 -34q-41 -34 -63.5 -95.5t-22.5 -121.5q0 -57 25.5 -89t75.5 -32
q35 0 77 22.5t64 51.5z" />
    <glyph glyph-name="dotlessi" unicode="&#x131;" horiz-adv-x="240" 
d="M193 471q0 -1 -1 -4l-1 -3l-78 -446q-3 -18 -20 -18h-49q-14 0 -14 13v4q1 4 1 5l78 445q3 17 21 17h48q15 0 15 -13z" />
    <glyph glyph-name="Lslash" unicode="&#x141;" horiz-adv-x="455" 
d="M432 61q0 -3 -2 -13l-7 -35q-3 -13 -18 -13h-325q-15 0 -15 12q0 5 2 15l50 281l-73 -48q-11 -6 -15 -6q-8 0 -8 8l1 2v3l4 19q3 14 17 24l84 55l54 307q3 18 19 18h54q17 0 17 -12q0 -1 -0.5 -3t-0.5 -4l-42 -235l105 67q7 5 13 5q7 0 7 -8q0 -4 -1 -7l-5 -18
q-4 -12 -20 -24l-109 -72l-53 -307h253q14 0 14 -11z" />
    <glyph glyph-name="lslash" unicode="&#x142;" horiz-adv-x="222" 
d="M293 498q0 -1 -0.5 -2.5t-0.5 -2.5l-4 -20q-2 -10 -20 -23l-112 -73l-63 -359q-3 -18 -19 -18h-50q-14 0 -14 13q0 6 1 9l51 290l-82 -54q-11 -6 -15 -6q-7 0 -7 9v5l4 24q0 3 1 5t2 3.5t3 3t3.5 2.5l4.5 3t5 3l91 58l56 318q3 17 17 18l55 7h4q9 0 9 -8q0 -6 -1 -9
l-46 -260l109 71q5 4 10 4q8 0 8 -11z" />
    <glyph glyph-name="OE" unicode="&#x152;" horiz-adv-x="926" 
d="M937 680q0 -4 -1 -6l-12 -41q-5 -15 -26 -15h-263l-39 -223h236q15 0 15 -11v-4l-7 -40q-3 -17 -21 -17h-236l-45 -250h276q15 0 15 -12v-4l-7 -41q-3 -16 -20 -16h-345q-16 0 -16 16v5l5 34q-38 -31 -89 -48.5t-98 -17.5q-109 0 -165.5 64.5t-56.5 184.5q0 64 14.5 129
t44.5 125t72 107t102 75t129 28q103 0 152 -64l8 35q3 17 20 17h344q14 0 14 -10zM536 559q-52 68 -143 68q-64 0 -116 -37.5t-81.5 -96.5t-45 -122.5t-15.5 -123.5q0 -87 37.5 -134.5t108.5 -47.5q46 0 94.5 18t84.5 50z" />
    <glyph glyph-name="oe" unicode="&#x153;" horiz-adv-x="848" 
d="M824 333q0 -35 -7 -70t-31 -35h-306q0 -6 -1 -17t-1 -16q0 -62 32 -100.5t97 -38.5q42 0 124 23q6 2 8 2q7 0 8 -8l5 -38v-3q0 -8 -15 -15q-69 -28 -155 -28q-133 0 -169 106q-28 -44 -81.5 -75t-115.5 -31q-91 0 -136 49.5t-45 131.5q0 131 74.5 228t201.5 97t159 -104
q32 47 85 75.5t114 28.5q83 0 125 -58q30 -41 30 -104zM744 335q0 42 -22 69.5t-67 27.5q-60 0 -103 -43t-61 -105h248q5 30 5 51zM406 301q0 130 -106 130q-59 0 -101.5 -41t-60 -95.5t-17.5 -111.5q0 -130 108 -130q59 0 101 41.5t59 95.5t17 111z" />
    <glyph glyph-name="Scaron" unicode="&#x160;" horiz-adv-x="503" 
d="M494 659q0 -5 -3 -12l-18 -40q-4 -10 -11 -10q-4 0 -11 3q-61 27 -127 27q-55 0 -98 -30t-43 -82q0 -50 62 -87l97 -58q50 -29 76 -63.5t26 -86.5q0 -99 -77 -166q-76 -65 -188 -65q-83 0 -160 28q-11 4 -11 12q0 3 4 13l18 43q6 12 15 12q2 0 10 -2q69 -28 137 -28
q62 0 107 32q51 38 51 99v1q0 56 -67 96l-114 68q-82 50 -82 135q0 90 75 147t168 57q86 0 154 -31q10 -4 10 -12zM480 871q0 -6 -7 -11l-114 -100q-10 -8 -19 -8h-16q-11 0 -16 6l-81 101q-3 3 -3 7q0 8 8 14l16 12q4 2 8 2q6 0 14 -6l73 -68l100 72q5 4 12 4t11 -5l11 -13
q3 -5 3 -7z" />
    <glyph glyph-name="scaron" unicode="&#x161;" horiz-adv-x="389" 
d="M382 459q0 -3 -2 -9l-14 -35q-3 -8 -11 -8q-6 0 -12 3q-53 22 -96 22q-38 0 -67 -20t-29 -57q0 -23 20.5 -40t50 -29t59 -26.5t50 -40.5t20.5 -62q0 -78 -55.5 -123t-145.5 -45q-32 0 -71 9.5t-63 22.5q-6 3 -6 9q0 5 3 11l14 33q4 9 11 9q5 0 11 -3q61 -27 108 -27
q44 0 78 23.5t34 64.5q0 25 -21 43t-51 30t-60 26t-51 39.5t-21 61.5q0 71 57 112.5t131 41.5q73 0 123 -27q6 -2 6 -9zM393 677q0 -6 -7 -11l-114 -100q-10 -8 -19 -8h-16q-11 0 -16 6l-81 101q-3 4 -3 7q0 8 8 14l16 12q2 2 8 2q8 0 14 -6l73 -68l100 72q5 4 12 4t11 -5
l11 -13q3 -3 3 -7z" />
    <glyph glyph-name="Ydieresis" unicode="&#x178;" horiz-adv-x="551" 
d="M587 683q0 -6 -4 -11l-269 -395l-46 -259q-3 -18 -20 -18h-54q-16 0 -16 13q0 1 0.5 3t0.5 3l45 254l-139 398q-1 2 -1 5q0 14 16 14h58q22 0 26 -15l102 -324h1l210 322q12 17 29 17h50q11 0 11 -7zM484 807q0 -22 -16.5 -38.5t-38.5 -16.5q-17 0 -29 10t-12 27
q0 23 17 38.5t40 15.5q17 0 28 -9.5t11 -26.5zM314 807q0 -22 -16.5 -38.5t-38.5 -16.5q-17 0 -29 10t-12 27q0 23 17 38.5t40 15.5q17 0 28 -9.5t11 -26.5z" />
    <glyph glyph-name="Zcaron" unicode="&#x17d;" horiz-adv-x="545" 
d="M564 674l-3 -18q-3 -15 -16 -31l-448 -551v-1h350q15 0 15 -12q0 -1 -0.5 -3t-0.5 -3l-7 -38q-3 -17 -19 -17h-452q-12 0 -12 11v4l3 22q1 9 13 24l448 555v2h-310q-15 0 -15 11v5l7 42q3 14 18 14h415q14 0 14 -12v-4zM464 872q0 -6 -7 -11l-114 -100q-10 -8 -19 -8h-16
q-11 0 -16 6l-81 101q-3 4 -3 7q0 8 8 14l16 12q2 2 8 2t14 -6l73 -68l100 72q5 4 12 4t11 -5l11 -13q3 -3 3 -7z" />
    <glyph glyph-name="zcaron" unicode="&#x17e;" horiz-adv-x="403" 
d="M414 469l-4 -20q-3 -11 -13 -24l-299 -366v-1h234q12 0 12 -10v-4l-5 -31q-1 -13 -17 -13h-315q-15 0 -15 12q0 1 0.5 2.5t0.5 2.5l3 17q3 14 14 28l295 363v1h-205q-14 0 -14 10q0 5 1 9l4 24q2 15 17 15h293q13 0 13 -11v-4zM377 677q0 -6 -7 -11l-114 -100
q-10 -8 -19 -8h-16q-11 0 -16 6l-81 101q-3 4 -3 7q0 8 8 14l16 12q2 2 8 2t14 -6l73 -68l100 72q5 4 12 4t11 -5l11 -13q3 -3 3 -7z" />
    <glyph glyph-name="florin" unicode="&#x192;" horiz-adv-x="547" 
d="M639 679q0 -2 -2 -8l-15 -39q-3 -8 -12 -8h-2q-3 0 -9 2q-28 10 -60 10q-89 0 -136 -130l-47 -130h111q13 0 13 -6v-3l-6 -22q-2 -11 -13 -11h-121l-110 -304q-36 -100 -90 -158t-147 -58q-46 0 -80 16q-5 2 -5 9q0 4 1 6l17 39q5 10 12 10q2 0 8 -2q28 -11 59 -11
q90 0 139 135l113 318h-65q-9 0 -9 7q0 2 1 4l5 15q6 16 14 16h71l39 111q16 47 34.5 82t46.5 67.5t67.5 49.5t88.5 17t83 -16q6 -3 6 -8z" />
    <glyph glyph-name="circumflex" unicode="&#x2c6;" 
d="M284 587q0 -7 -8 -13l-16 -12q-2 -2 -8 -2t-14 6l-73 68l-100 -72q-5 -4 -12 -4t-11 5l-11 13q-3 3 -3 7q0 6 7 11l114 100q10 8 19 8h16q11 0 16 -6l81 -101q3 -5 3 -8z" />
    <glyph glyph-name="caron" unicode="&#x2c7;" 
d="M298 677q0 -6 -7 -11l-114 -100q-10 -8 -19 -8h-16q-11 0 -16 6l-81 101q-3 5 -3 7q0 8 8 14l16 12q2 2 8 2t14 -6l73 -68l100 72q5 4 12 4t11 -5l11 -13q3 -3 3 -7z" />
    <glyph glyph-name="breve" unicode="&#x2d8;" 
d="M295 694q0 -2 -1 -6l-2 -4q-16 -45 -55 -72t-86 -27q-45 0 -72.5 26t-28.5 71v3q0 17 16 17h25q13 0 17 -14q13 -47 55 -47q43 0 71 48q8 13 20 13h29q12 0 12 -8z" />
    <glyph glyph-name="dotaccent" unicode="&#x2d9;" 
d="M212 662q0 -24 -18.5 -42t-42.5 -18q-19 0 -31.5 11.5t-12.5 29.5q0 25 18.5 42t43.5 17q19 0 31 -11t12 -29z" />
    <glyph glyph-name="ring" unicode="&#x2da;" 
d="M244 637q0 -38 -29.5 -67t-67.5 -29q-29 0 -49.5 20t-20.5 49q0 37 31 66t68 29q29 0 48.5 -19.5t19.5 -48.5zM199 630q0 13 -8.5 21.5t-22.5 8.5q-18 0 -32 -12.5t-14 -30.5q0 -14 9.5 -22.5t23.5 -8.5q18 0 31 13t13 31z" />
    <glyph glyph-name="ogonek" unicode="&#x2db;" 
d="M247 -178q0 -8 -14 -13q-34 -13 -75 -13t-64.5 18.5t-23.5 47.5q0 45 42 87q33 32 78 54h45q-102 -74 -102 -128q0 -38 47 -38q12 0 52 10l2 1h2q5 0 6 -5l5 -18v-3z" />
    <glyph glyph-name="tilde" unicode="&#x2dc;" 
d="M321 655q0 -6 -7 -12q-70 -48 -110 -48q-18 0 -47 20.5t-48 20.5q-18 0 -64 -24q-12 -7 -18 -7q-7 0 -9 7l-9 29q-2 8 -2 10q0 6 14 15q56 34 94 34q21 0 54 -21t47 -21q13 0 64 28q12 7 18 7q7 0 9 -6l12 -23q2 -3 2 -9z" />
    <glyph glyph-name="hungarumlaut" unicode="&#x2dd;" 
d="M370 655q0 -7 -10 -13l-156 -79q-8 -4 -13 -4q-7 0 -10 7l-6 12q-2 6 -2 8q0 6 9 12l145 97q8 5 13 5q8 0 13 -8l14 -26q3 -6 3 -11zM174 655q0 -7 -10 -13l-156 -79q-8 -4 -13 -4q-7 0 -10 7l-6 12q-2 6 -2 8q0 6 9 12l145 97q8 5 13 5q8 0 13 -8l14 -26q3 -6 3 -11z
" />
    <glyph glyph-name="endash" unicode="&#x2013;" horiz-adv-x="500" 
d="M505 291q0 -1 -0.5 -3t-0.5 -3l-7 -43q-3 -18 -21 -18h-466q-15 0 -15 12q0 1 0.5 2.5t0.5 2.5l8 44q3 17 19 17h466q16 0 16 -11z" />
    <glyph glyph-name="emdash" unicode="&#x2014;" horiz-adv-x="1000" 
d="M1005 291q0 -1 -0.5 -3t-0.5 -3l-7 -43q-3 -18 -21 -18h-966q-15 0 -15 12q0 1 0.5 2.5t0.5 2.5l8 44q3 17 19 17h966q16 0 16 -11z" />
    <glyph glyph-name="quoteleft" unicode="&#x2018;" 
d="M304 684q0 -6 -7 -11q-18 -15 -34.5 -38t-16.5 -40q0 -13 12.5 -34t12.5 -34q0 -26 -17 -41t-41 -15q-22 0 -37 17t-15 41q0 64 64 130q22 24 49 41q8 6 14 6q4 0 9 -7l6 -9q1 -2 1 -6z" />
    <glyph glyph-name="quoteright" unicode="&#x2019;" 
d="M274 644q0 -64 -64 -130q-22 -24 -49 -41q-7 -6 -14 -6q-4 0 -9 7l-6 9q-1 2 -1 6q0 6 7 11q18 15 34.5 38t16.5 40q0 12 -12.5 34t-12.5 34q0 26 17 41t41 15q22 0 37 -17t15 -41z" />
    <glyph glyph-name="quotesinglbase" unicode="&#x201a;" horiz-adv-x="204" 
d="M175 48q0 -42 -30 -89q-31 -50 -83 -85q-8 -6 -14 -6q-4 0 -9 7l-6 9q-1 2 -1 6q0 6 7 11q18 15 34.5 38t16.5 40q0 13 -12.5 34t-12.5 33q0 26 17 41.5t41 15.5q22 0 37 -15.5t15 -39.5z" />
    <glyph glyph-name="quotedblleft" unicode="&#x201c;" horiz-adv-x="372" 
d="M388 684q0 -6 -7 -11q-18 -15 -34.5 -38t-16.5 -40q0 -13 12.5 -34t12.5 -34q0 -26 -17 -41t-41 -15q-22 0 -37 17t-15 41q0 64 64 130q22 24 49 41q8 6 14 6q4 0 9 -7l6 -9q1 -2 1 -6zM222 684q0 -6 -7 -11q-18 -15 -34.5 -38t-16.5 -40q0 -13 12.5 -34t12.5 -34
q0 -26 -17 -41t-41 -15q-22 0 -37 17t-15 41q0 64 64 130q22 24 49 41q8 6 14 6q4 0 9 -7l6 -9q1 -2 1 -6z" />
    <glyph glyph-name="quotedblright" unicode="&#x201d;" horiz-adv-x="372" 
d="M376 638q0 -64 -64 -130q-22 -24 -49 -41q-8 -6 -14 -6q-4 0 -9 7l-6 9q-1 2 -1 6q0 6 7 11q18 15 34.5 38t16.5 40q0 12 -12.5 34t-12.5 34q0 26 17 41t41 15q22 0 37 -17t15 -41zM210 638q0 -64 -64 -130q-22 -24 -49 -41q-7 -6 -14 -6q-4 0 -9 7l-6 9q-1 2 -1 6
q0 6 7 11q18 15 34.5 38t16.5 40q0 12 -12.5 34t-12.5 34q0 26 17 41t41 15q22 0 37 -17t15 -41z" />
    <glyph glyph-name="quotedblbase" unicode="&#x201e;" horiz-adv-x="372" 
d="M341 38q0 -64 -64 -130q-22 -24 -49 -41q-8 -6 -14 -6q-4 0 -9 7l-6 9q-1 2 -1 6q0 6 7 11q18 15 34.5 38t16.5 40q0 12 -12.5 33.5t-12.5 34.5q0 26 17 41t41 15q22 0 37 -17t15 -41zM175 38q0 -64 -64 -130q-22 -24 -49 -41q-8 -6 -14 -6q-4 0 -9 7l-6 9q-1 2 -1 6
q0 6 7 11q18 15 34.5 38t16.5 40q0 12 -12.5 33.5t-12.5 34.5q0 26 17 41t41 15q22 0 37 -17t15 -41z" />
    <glyph glyph-name="dagger" unicode="&#x2020;" horiz-adv-x="505" 
d="M469 436l-8 -44q-3 -12 -16 -12l-149 3l-68 -368q-3 -15 -16 -15h-43q-7 0 -8.5 3t-0.5 12l60 368l-148 -3q-8 0 -10 2.5t-1 9.5l7 44q3 12 15 12l149 -2l38 229q3 15 15 15h55q13 0 11 -14l-43 -230l149 2q13 0 12 -12z" />
    <glyph glyph-name="daggerdbl" unicode="&#x2021;" horiz-adv-x="505" 
d="M479 493l-8 -44q-2 -12 -15 -12l-150 3l-23 -126l144 2q13 0 12 -12l-8 -44q-2 -12 -17 -12l-142 2l-43 -235q-3 -15 -17 -15h-43q-7 0 -8.5 3t-0.5 12l39 235l-143 -2q-8 0 -10 2t-1 9l8 45q3 12 14 12l142 -2l21 126l-147 -3q-8 0 -10.5 2.5t-1.5 9.5l7 44q3 12 15 12
l149 -2l28 172q3 15 15 15h55q13 0 11 -14l-33 -173l149 2q15 0 12 -12z" />
    <glyph glyph-name="bullet" unicode="&#x2022;" horiz-adv-x="480" 
d="M402 295q0 -73 -58 -129t-132 -56q-58 0 -97 36.5t-39 93.5q0 73 59 129.5t133 56.5q57 0 95.5 -37t38.5 -94z" />
    <glyph glyph-name="ellipsis" unicode="&#x2026;" horiz-adv-x="992" 
d="M855 51q0 -25 -19.5 -44.5t-45.5 -19.5q-20 0 -34 12t-14 32q0 26 20 44.5t47 18.5q20 0 33 -11.5t13 -31.5zM545 51q0 -25 -20 -44.5t-46 -19.5q-19 0 -33 12t-14 32q0 27 19.5 45t46.5 18q20 0 33.5 -11.5t13.5 -31.5zM235 51q0 -25 -19.5 -44.5t-45.5 -19.5
q-20 0 -34 12t-14 32q0 26 20 44.5t47 18.5q20 0 33 -11.5t13 -31.5z" />
    <glyph glyph-name="perthousand" unicode="&#x2030;" horiz-adv-x="1000" 
d="M939 187q0 -76 -40.5 -137t-112.5 -61q-50 0 -76.5 29.5t-26.5 80.5q0 75 43 136t115 61q49 0 73.5 -29.5t24.5 -79.5zM351 592q0 -75 -41 -136.5t-113 -61.5q-50 0 -76 30t-26 81q0 75 43 135.5t115 60.5q49 0 73.5 -29.5t24.5 -79.5zM680 670q0 -4 -5 -11l-586 -665
q-5 -6 -11 -6q-7 0 -13 6l-22 20q-5 4 -5 10q0 5 7 14l581 660q8 8 13 8t12 -6l23 -19q6 -5 6 -11zM622 187q0 -76 -40.5 -137t-112.5 -61q-50 0 -76.5 29.5t-26.5 80.5q0 75 43 136t115 61q49 0 73.5 -29.5t24.5 -79.5zM875 182q0 63 -44 63q-29 0 -49 -27.5t-27 -59.5
t-7 -61q0 -57 48 -57q40 0 59.5 47.5t19.5 94.5zM287 587q0 63 -45 63q-29 0 -49 -27.5t-27 -59.5t-7 -61q0 -57 48 -57q28 0 47.5 27t26 57.5t6.5 57.5zM558 182q0 63 -44 63q-29 0 -49 -27.5t-27 -59.5t-7 -61q0 -57 48 -57q40 0 59.5 47.5t19.5 94.5z" />
    <glyph glyph-name="guilsinglleft" unicode="&#x2039;" horiz-adv-x="283" 
d="M249 371q0 -3 -3 -8l-105 -133l55 -139q1 -2 1 -6q0 -8 -9 -13l-23 -12q-6 -3 -10 -3q-6 0 -10 8l-79 144q-5 8 -5 16q0 10 7 17l134 146q8 8 13 8q3 0 7 -2l22 -14q5 -2 5 -9z" />
    <glyph glyph-name="guilsinglright" unicode="&#x203a;" horiz-adv-x="283" 
d="M224 229q0 -8 -7 -17l-135 -146q-8 -8 -13 -8q-3 0 -7 2l-21 14q-5 3 -5 9q0 3 3 8l104 133l-55 139q-1 2 -1 5q0 8 10 14l22 12q6 3 10 3q7 0 11 -8l82 -151q2 -3 2 -9z" />
    <glyph glyph-name="fraction" unicode="&#x2044;" horiz-adv-x="157" 
d="M390 713q0 -5 -6 -13l-550 -713q-12 -15 -27 -15h-53q-10 0 -10 7q0 4 4 10l552 712q14 19 33 19h46q11 0 11 -7z" />
    <glyph glyph-name="Euro" unicode="&#x20ac;" horiz-adv-x="550" 
d="M601 649q0 -5 -2 -8l-24 -46q-5 -8 -10 -8t-13 5q-60 35 -122 35q-93 0 -154.5 -64.5t-87.5 -163.5h285q17 0 13 -13l-7 -20q-4 -12 -17 -12h-284q-4 -30 -6 -60h262q16 0 12 -14l-5 -17q-2 -9 -5.5 -12t-12.5 -3h-252q3 -86 39 -135t119 -49q57 0 136 33q9 3 14 3
q9 0 11 -8l9 -42v-3q0 -10 -16 -17q-88 -41 -179 -41q-118 0 -174 68.5t-57 190.5h-11h-54q-11 0 -11 7q0 5 1 8l3 17q2 8 5 11t11 3h54h3q1 27 8 60h-1h-54q-12 0 -12 8l1 2v3l3 18q2 14 16 14h55h2q35 132 123 217.5t219 85.5q93 0 160 -43q7 -4 7 -10z" />
    <glyph glyph-name="trademark" unicode="&#x2122;" horiz-adv-x="685" 
d="M627 681l-37 -288q-2 -12 -12 -12h-29q-10 0 -8 13l27 196h-1l-114 -201q-5 -8 -11 -8h-17q-8 0 -11 9l-51 200h-1l-40 -198q-3 -11 -11 -11h-28q-10 0 -8 11l62 286q3 12 14 12h21q9 0 12 -9l61 -233h1l136 234q4 8 13 8h24q9 0 8 -9zM323 680l-6 -22q-2 -9 -14 -9h-84
l-46 -258q-2 -10 -12 -10h-32q-9 0 -8 10l46 258h-86q-9 0 -8 9l4 23q1 9 11 9h228q10 0 7 -10z" />
    <glyph glyph-name="minus" unicode="&#x2212;" horiz-adv-x="505" 
d="M425 286q0 -7 -1 -11l-7 -33q-3 -17 -20 -17h-296q-16 0 -16 14q0 3 2 13l8 34q3 13 18 13h296q16 0 16 -13z" />
    <glyph glyph-name="apple" unicode="&#xf8ff;" horiz-adv-x="375" 
d="M376 324q0 -40 -30 -60t-71 -20q-35 0 -83 19q-8 3 -8 9q0 2 2 6l10 31q3 9 7 9q2 0 8 -2q37 -15 66 -15q27 0 27 17q0 13 -23 22l-45 16q-51 19 -51 70q0 37 29 56t67 19q42 0 78 -16q7 -3 7 -8q0 -4 -1 -6l-10 -35q-1 -6 -9 -6q-3 0 -5 1q-33 12 -56 12q-24 0 -24 -16
q0 -11 19 -19l51 -20q45 -17 45 -64zM199 517q0 -8 -1 -12l-4 -25q-2 -10 -8 -10q-4 0 -6 1q-19 7 -35 7q-31 0 -31 -39v-22h51q12 0 12 -11v-29q0 -11 -12 -11h-51v-177q0 -16 -14 -16h-47q-14 0 -14 15v178h-25q-9 0 -11.5 3t-2.5 13v22q0 13 12 13h27v16q0 107 94 107
q33 0 59 -12q7 -3 7 -11z" />
    <glyph glyph-name="fi" unicode="&#xfb01;" horiz-adv-x="479" 
d="M445 472q0 -5 -1 -8l-78 -446q-3 -18 -20 -18h-49q-14 0 -14 12q0 7 1 10l71 404h-163l-108 -610q-3 -20 -20 -20h-49q-14 0 -14 14l1 4v5l107 607h-52q-18 0 -18 11q0 1 0.5 3t0.5 4l4 25q3 15 17 15h58l5 25q20 104 70 157q54 57 133 57q51 0 86 -16q7 -3 7 -12
q0 -5 -1 -7l-11 -34q-2 -10 -12 -10q-2 0 -10 2q-28 10 -60 10q-46 0 -76 -37q-30 -38 -41 -98l-7 -37h229q14 0 14 -12z" />
    <glyph glyph-name="fl" unicode="&#xfb02;" horiz-adv-x="538" 
d="M543 701q0 -5 -1 -8l-119 -675q-3 -18 -19 -18h-51q-14 0 -14 12q0 5 1 8l118 666q3 17 17 18l53 7h4q11 0 11 -10zM420 695q0 -5 -1 -7l-10 -34q-3 -10 -12 -10q-2 0 -10 2q-28 10 -60 10q-47 0 -77 -37q-30 -38 -41 -98l-7 -37h119q13 0 13 -9q0 -1 -0.5 -2.5
t-0.5 -2.5l-5 -31q-3 -13 -16 -13h-120l-108 -610q-3 -20 -20 -20h-49q-14 0 -14 14l1 4v5l107 607h-52q-18 0 -18 11q0 1 0.5 3t0.5 4l4 25q3 15 17 15h58l5 25q20 104 70 157q54 57 133 57q51 0 86 -16q7 -3 7 -12z" />
    </font>
</defs>
</svg>
