<svg xmlns="http://www.w3.org/2000/svg" viewBox="0 0 266.46 249.56"><defs><style>.cls-1{fill:#175f84;}.cls-2{fill:#fff;}</style></defs><title>Asset 2</title><g id="Layer_2" data-name="Layer 2"><g id="Layer_1-2" data-name="Layer 1"><path class="cls-1" d="M147.89.91c-.71,3.93-2.26,7.86-.86,12.13,1.87,5.67,5.38,8.17,11.21,7.37a26,26,0,0,0,5.32-1.24c6.14-2.21,12-2.61,17.33,2a8,8,0,0,0,6.18,1.45c8.59-.88,14.23,3.3,18.13,10.45,1.19,2.19,2.05,4.55,3.22,6.74a7.21,7.21,0,0,0,7.25,4.23A9,9,0,0,1,225,52.44c.27,4-2.92,7.07-8.07,7.84-8.13,1.21-14.52-2.38-20.44-7.32a23.52,23.52,0,0,0-3-2.56,3,3,0,0,0-4.07.56,2.78,2.78,0,0,0,.37,3.67c8.74,10.05,23.23,14.89,33.58,9.58,7.06-3.62,9.3-10.53,5.88-17.69-.6-1.24-2.82-2.37-.8-4.18s4-1.58,6-.34a10.42,10.42,0,0,1,3,2.58c3.2,4.4,7.76,6.77,12.7,8.37,2.83.91,4.19,2.62,5.44,5.18,5.31,10.88,7.72,22.61,10.36,34.25.8,3.53,1.19,9.35-1.85,9.83-3.61.57-4.17-5-4.93-8.47-.85-3.88-1.29-7.85-3.68-11.27-3.11-4.45-7.2-6.72-12.69-6.44-1.87.1-3.37.54-3.44,2.68a2.6,2.6,0,0,0,2.76,2.91c7.93-.07,10.06,5.3,11,11.66.8,5.39,2.23,10.36,6.68,14,2.13,1.74,1.55,4.3,1.23,6.55-1,7.38-5.5,12.68-11.84,15.73-9.1,4.36-18.45,8.34-28.53,10.11-2.45.43-4.21.24-5.88-2.2a20.09,20.09,0,0,0-9.79-7.43A14.47,14.47,0,0,1,199,126.3c5.21-2.2,10.4-4.08,14.17-8.32a22.93,22.93,0,0,0,4.53-7.1c.76-2,1.35-4.12-1-5.16s-3.56.92-4.37,2.86c-3.79,9-11.5,11.73-21.06,12.94,2.57-3.54,4.47-6.72,4.71-10.45.15-2.34-.14-5.17-3.13-5.39s-2.91,2.23-2.77,4.57c.18,3-2.22,5.1-3.19,7.7-1.4,3.72-4.44,1.9-6.78,2.39a18.67,18.67,0,0,0-3,.43c-11.06,4.3-19.76-.58-27.89-7.26C145,110,141.1,106.15,134.66,106c2.26-4,4.83-7.2,5.54-11.2a17.29,17.29,0,0,0-.06-7.44,2.81,2.81,0,0,0-3.3-2.36c-1.77.23-2.43,1.36-2.47,3.13-.29,11-3.38,15.2-13.67,18.9-3.9,1.4-7.73,3-11.85,3.76-5.21.95-8.7-.82-10.72-5.79-2.94-7.21-3.58-14.84-3.82-22.52-.09-3.16-.06-6.32-1.08-9.39a6.69,6.69,0,0,0-4.79-4.65,2.84,2.84,0,0,0-3.37,1.48,2.13,2.13,0,0,0,.48,3.1c3.06,1.8,2.69,4.7,2.81,7.5.3,7.32.65,14.63,2.67,21.75,3.72,13.15,11,17.05,24.14,12.84,5.19-1.66,10.08-4.14,15.85-3.8,4.73.27,8.76,1.52,12.23,4.74a52.16,52.16,0,0,0,13,9.12c6.54,3.12,13.24,4.36,20.29,1.91,4.53-1.57,8.82-.91,13,1.24,5.46,2.81,10.66,6.07,16.14,8.87,7.68,3.93,9.69,13.65,4.9,21-1,1.57-1.9,3-1.67,5,.67,5.82-2.77,9.09-7.77,12.27,1.4-5.19,1.35-9.59-1.06-13.72-1.12-1.93-.34-3.88-.09-5.84a14.88,14.88,0,0,0-14.35-16.87c-1.9-.08-3.9,0-4.31,2.35-.47,2.68,1.48,3.26,3.61,3.73,8,1.76,9.88,4.35,8.85,12.53a12.76,12.76,0,0,0,.81,6.35c3.46,9,.77,15.77-7.72,20.3-7.72,4.11-15.63,6.52-24.43,4.26a6.07,6.07,0,0,0-3-.1c-8,2.24-14.85-.77-21.31-4.65-5-3-9.75-4.14-15.58-2.91-6.62,1.41-13.23,0-19.62-2.24a179.35,179.35,0,0,0-19.56-5.83,30.87,30.87,0,0,0-8.92-.66c-2.8.15-5.69,1.93-7.89-1.78-2.48-4.17-5.73-8-3.69-13.28,4-10.41.65-11.46,14.64-8.68,4.82,1,7.93,2.43,10.67,6.79,4.15,6.59,11.35,8.88,18.86,9.77,2.14.25,4.18-.21,4.32-2.91S109.85,159,107.5,159a18.46,18.46,0,0,1-11.93-4.38c-3.08-2.61-4.7-4.63-2.69-9.83,2.3-6,4-6.46,9.36-4.41s10.77-1,16.18-1.6c4.69-.51,9.29-.77,13.87.5,8.84,2.45,13.43,10.23,11.23,19.16-.51,2.09-1,4.21,1.6,5s3.37-1.46,4.06-3.37c2.87-7.9-.47-17.56-7.57-22.5-8.51-5.93-18.08-6.18-27.34-3.68-9.74,2.63-16.83-.08-23.07-7.24a82.72,82.72,0,0,0-8.26-8.68c-7.16-6.15-8.94-14.1-8.38-23,.33-5.32.9-10.64-.27-15.93s-4-9.16-9.36-10.62c-1.72-.47-3.92-.83-4.66,1.52s.84,3.06,2.89,3.66c5.51,1.59,5.75,6.38,5.92,10.89.27,7.47-1.29,15,.6,22.4a18,18,0,0,1-.32,10.23c-2.73,8.7-7,11-15.88,8.43-4-1.14-8-2.19-12.28-1.6-5.85.83-8.85,4.2-9,10.08-.08,5.28,1.63,10.13,3.77,14.86.77,1.7,2,2.88,3.88,2.2,2.27-.8,2.15-2.6,1.4-4.52-1.51-3.87-3-7.73-3.19-12-.15-3.19,1.22-4.76,4.3-4.67a34,34,0,0,1,6.91.75c15,3.6,19.17,1.78,25.83-11.38,4.19,4,8.64,7.92,12.63,12.25,2.7,2.92,1.54,6.73.43,10s-4.24,2-6.53,1.72c-4.11-.43-8.18-1.3-12.27-2-4.29-.69-7.12,1.45-8.79,5.07-4.48,9.68-6.95,19.32,2.33,28.4-6.73,3.77-13,5.6-20,2.2-4.76-2.31-9.26-3.19-14.74-.82-4.65,2-9.4-.71-12.87-4.46-4.42-4.79-6.19-10.94-8.1-16.94-1-3.19,1.45-2.68,3.22-2.38,2.17.38,4.34.44,4.58-2.24a3.52,3.52,0,0,0-3.93-3.67c-8.64,1.68-8.13-5.14-9.73-10a38.92,38.92,0,0,1-.91-4.92c3.66,3.29,7.43,4.9,11.92,4.8,5.48-.12,9.65-2.16,12-7.36,1.74-3.94,3.36-8,5.3-11.8,1.78-3.54,4.12-6.49,8.84-5.9,2.07.25,3.73-.67,3.7-3,0-2-1.66-2.63-3.44-2.92-5.44-.89-9.34,1.49-12.36,5.74s-4.59,9.56-6.89,14.34c-2.67,5.57-9.2,7.12-13.5,2.71C4.1,126.14.26,126.47.07,123.57a35.85,35.85,0,0,1,3.4-17c6.8,5,12.86,2.72,14.57-5.52.54-2.6.75-5.28,1.25-7.89A20.22,20.22,0,0,1,40.6,76.28c6,.27,7.85-1.54,7.58-7.53a24.74,24.74,0,0,0-.63-4.44c-2.36-10,2.6-16,10.08-21.39,2.25-1.61,3.88-1.78,5.52,1.07,2.69,4.68,6.75,6.93,12.45,6.48a68.23,68.23,0,0,1,16.45.69c2.47.4,5.53.33,7,2.15,6.73,8.11,16.26,14.68,15.87,27-.13,4.1-.07,8.22-5.62,9a2.63,2.63,0,0,0-2.41,3.2c.28,1.91,1.87,2.06,3.43,2.08a9.82,9.82,0,0,0,9.86-8.87c1.13-10.67-.61-20.59-9.5-28a8.49,8.49,0,0,1-2.5-2.41C104.08,46.47,96,45.38,87.7,44.77a72.39,72.39,0,0,0-12-.08c-3.87.36-6.27-1.1-8.23-4.24-3.26-5.19-6.71-6-12.07-3.07C44.88,43.1,39.77,53.5,42,65.28c.69,3.67.45,5.22-4.13,5-11.17-.61-22.42,10.16-24.56,22.82-.39,2.3-.7,4.61-1,6.91-.23,1.53-.6,3.31-2.36,3.36s-2-2-2.56-3.27a5.35,5.35,0,0,1,0-4.33c10.06-24,21.57-47,40.29-65.84C55.13,22.3,64,17.72,73.72,14.11c5.47-2,10.43-.85,15.37,1.5,2.52,1.2,3.12,2.77,1,4.94a43.55,43.55,0,0,0-3.32,3.73c-2,2.57-3.65,5.31-1.68,8.64s5.32,4.49,9,4a47.64,47.64,0,0,0,7.68-2.06c5.43-1.66,10.4-1.55,14.8,2.76a34,34,0,0,0,6.17,4.18c5.71,3.51,7,6.66,5.33,12.91-1.94,7.08.07,10.22,7.32,11.41.49.08,1,0,1.49.14,6.23,1.23,13.26.63,17,7.5,4.64,8.5,8.11,17.22,4.91,27.11-1.14,3.5-2.18,7-1.8,10.73.29,2.87,1.52,5.71,4.72,5.11s2-3.2,1.24-5.57c-.87-2.59.41-5.2,1.2-7.74,4.19-13.47.08-25.2-7.8-36a13.74,13.74,0,0,0-8.83-5.24c-3.27-.61-6.57-1.15-9.87-1.43-3.79-.33-5.11-1.34-3.78-5.62,2.37-7.56-.72-14.11-7.79-18.1a58.55,58.55,0,0,1-7.38-5c-5.92-4.63-12.49-4.75-19.38-2.34-2.75,1-6.52,3.29-8.3.8S93.37,26,94.93,23.9c4.09-5.54,3.4-9.76-2.57-13.17C90.5,9.67,88.47,8.9,86.52,8c9-7.32,17.13-4.44,21.69,3.74,3,5.28,6.63,6.14,11.57,4.14,4.45-1.81,5.5-.26,7.5,3.68,6,11.85,21.58,27.87,36.93,21.61,2-.81,4.75-1.08,4.08-4-.78-3.44-3.53-2.13-5.7-1.53-7.6,2.11-14.21.7-19.34-5.55-4.31-5.26-10.53-8.84-12.27-16.4-1.07-4.67-6.45-6.41-11.16-4.1-3.74,1.84-5.61,1.3-7.37-2.26-.84-1.72-2.43-3.08-3.87-4.83Z"/><path class="cls-1" d="M34.58,180.54c.31,0,.7-.2.92-.08,11,6.09,21.86,3.54,32.61-.68,6.24-2.45,12.32-1.79,18.57-.14,10.09,2.66,20,6.29,30.58,6.7,2.19.08,2.38,1.06,2.17,2.85a16.51,16.51,0,0,1-2.5,7.49c-9.23,13.73-23.18,18.62-38.78,13-6.67-2.39-13.51-1.28-20.22-2.4C43,204.8,33.74,194.46,34.58,180.54Z"/><path class="cls-1" d="M249.12,46c-4-1-5.7-3.53-7.73-5.72-5.65-6.07-10.3-6.61-17.11-2.12-3.18,2.1-10.5,0-11.95-3.57-2.8-7-7-12.83-14-16.15-2.27-1.07-4.69-2.41-7.11-2-4.76.88-8.54-.6-12.46-3.12s-8.65-1.79-13.09-.73a55.42,55.42,0,0,0-6.26,1.66c-4.27,1.58-6.34-.33-7-4.3C151.52,4.94,154.15.81,158,.33c11.5-1.43,22,2.05,32.41,6.22,6.78,2.71,13.61,5.29,20.4,8,4.67,1.84,9,4.17,12.43,8,2.55,2.87,6,4.71,9.41,6.47C239.83,32.76,244.67,38.71,249.12,46Z"/><path class="cls-1" d="M98.1,249.44c-2.64-.34-4.13-.48-5.6-.72-3.38-.55-4.3-2.22-3.15-5.62,2.5-7.37,4.75-14.84,6.88-22.33.72-2.52,2.37-3.38,4.45-4.63,9.87-5.9,20.51-11.18,24-23.58.09-.32.2-.63.27-1,1.42-7,2.76-7.65,9.59-4.47,9.23,4.3,9.91,7.11,2.18,13.35C125,210,116.46,221.8,109.66,235.11c-1.89,3.68-4.16,7.17-6.26,10.74C102,248.31,100.12,250.05,98.1,249.44Z"/><path class="cls-2" d="M247.18,114.13c0,1.8-.52,3.49-2.39,3.9-2.09.45-3.21-1.28-3.31-2.92-.18-3.08-2.17-3.79-4.54-4.35-3.64-.87-7-2.29-9.27-5.43-6.88-9.65-16.93-12.82-28-14.13a87.17,87.17,0,0,1-12.28-2c-6.34-1.7-8.95-5.43-9.12-12-.05-2-.08-4,0-6a8,8,0,0,0-5-7.9C169.67,61.54,166,60,162.7,57.69a11.38,11.38,0,0,1-4.42-5.25c-.73-2-.94-4.19,1.44-5.12,2.15-.85,3.24.56,3.92,2.61,1.13,3.4,4.33,4.62,7.26,5.53,10.22,3.17,14.29,10.13,13.26,20.45-.53,5.24,2.09,7.53,6.94,8.42,6.54,1.21,13.23,1.25,19.73,2.81,7.55,1.81,14.1,5.29,18.84,11.36a18.69,18.69,0,0,0,10,6.79C244.62,106.75,247.19,110.12,247.18,114.13Z"/><path class="cls-2" d="M165.89,170c.17-3.63-2.36-5.95-4.09-8.65-1.05-1.64-2.79-3.3-.59-5.18,2.41-2.07,3.88-.2,5.26,1.57a17.54,17.54,0,0,1,2.35,3.2c1.92,4.13,3.59,8.13,9.26,8.52,2,.14,4.58,2.18,3.17,5.07s-3.42,1.46-5.41.28c-1.79-1.07-3.89-.57-5.86-.45C166.82,174.51,165.38,173.16,165.89,170Z"/></g></g></svg>